<svg width="381" height="408" viewBox="0 0 381 408" fill="none" xmlns="http://www.w3.org/2000/svg">
<rect y="0.650391" width="381" height="407" rx="10" fill="#FFF1CD"/>
<path d="M28.5002 0.650387C28.5002 21.6372 45.5133 38.6504 66.5002 38.6504C87.487 38.6504 104.5 21.6372 104.5 0.650391L28.5002 0.650387Z" fill="#FFE6A6"/>
<path d="M308.969 375.132L282.5 407.65L317.5 407.65L352.5 407.65L326.031 375.132C321.629 369.724 313.371 369.724 308.969 375.132Z" fill="#FFE6A6"/>
<path d="M271.494 140.319V309.631C271.494 316.269 266.113 321.65 259.475 321.65H120.019C113.381 321.65 108 316.269 108 309.631V140.319C108 133.68 113.381 128.3 120.019 128.3H259.475C266.114 128.3 271.494 133.681 271.494 140.319Z" fill="#FFDD87"/>
<g filter="url(#filter0_d_110_2448)">
<path d="M306.214 273.203L172.765 313.678C166.411 315.605 159.702 312.018 157.775 305.669L108.631 143.64C106.7 137.291 110.287 130.577 116.641 128.651L119.236 127.863L250.09 88.1709C256.444 86.2445 263.153 89.8317 265.08 96.1854L313.114 254.536L314.229 258.214C316.155 264.563 312.567 271.277 306.214 273.203Z" fill="white"/>
</g>
<path d="M192.683 161.848C197.484 162.166 199.84 162.483 200.938 166.178C201.883 169.355 200.703 171.337 197.225 172.413C193.991 173.414 192.418 172.477 191.029 171.649C190.098 171.095 189.043 170.466 187.725 170.874C185.713 171.497 184.79 174.124 185.339 175.969C186.238 178.996 190.823 180.91 195.844 180.486L196.227 181.774C196.863 183.912 199.085 185.124 201.181 184.476C203.277 183.827 204.465 181.56 203.829 179.421L203.421 178.047C208.362 175.02 210.134 169.808 208.283 163.581C205.604 154.571 198.521 154.141 194.289 153.884L193.794 153.855C189.587 153.608 187.696 153.392 186.946 150.868C186.528 149.463 186.715 148.446 187.552 147.567C188.428 146.646 189.795 146.087 190.788 145.779C193.186 145.037 194.695 145.318 195.796 145.523C196.579 145.669 197.32 145.808 198.126 145.558C200.394 144.856 200.947 142.109 200.462 140.478C199.431 137.007 194.243 137.365 191.464 137.827L191.078 136.527C190.442 134.389 188.22 133.177 186.124 133.825C184.029 134.474 182.841 136.741 183.476 138.88L184.007 140.664C179.584 143.633 178.019 148.141 179.601 153.464C181.88 161.131 187.87 161.528 192.683 161.848Z" fill="#FFA800"/>
<path d="M267.017 189.315C266.446 187.433 264.458 186.372 262.578 186.942L161.129 217.714C159.248 218.285 158.186 220.272 158.756 222.153C159.223 223.69 160.634 224.68 162.16 224.68C162.503 224.68 162.851 224.63 163.195 224.526L264.644 193.754C266.525 193.183 267.587 191.195 267.017 189.315Z" fill="#E2E2E2"/>
<path d="M272.94 208.843C272.369 206.962 270.382 205.901 268.501 206.47L167.052 237.242C165.171 237.813 164.109 239.8 164.68 241.681C165.146 243.217 166.557 244.208 168.084 244.208C168.426 244.208 168.774 244.158 169.118 244.054L270.567 213.281C272.448 212.711 273.51 210.723 272.94 208.843Z" fill="#E2E2E2"/>
<path d="M278.863 228.37C278.292 226.489 276.304 225.428 274.424 225.998L172.976 256.77C171.095 257.341 170.033 259.328 170.603 261.209C171.069 262.745 172.481 263.736 174.007 263.736C174.349 263.736 174.698 263.686 175.041 263.582L276.491 232.809C278.371 232.238 279.434 230.251 278.863 228.37Z" fill="#E2E2E2"/>
<path d="M256.939 255.023C256.368 253.142 254.38 252.081 252.5 252.651L178.899 276.299C177.018 276.87 175.956 278.857 176.526 280.737C176.992 282.274 178.404 283.264 179.93 283.264C180.273 283.264 180.621 283.214 180.964 283.11L254.566 259.462C256.447 258.891 257.509 256.904 256.939 255.023Z" fill="#E2E2E2"/>
<path d="M157 116.291L152.439 117.675C151.026 113.464 147.05 110.425 142.378 110.425C136.525 110.425 131.764 115.196 131.764 121.062V148.657C131.764 152.085 134.549 154.877 137.97 154.877C141.39 154.877 144.175 152.085 144.175 148.657V121.122C144.175 120.81 144.102 120.514 143.966 120.253C143.651 119.633 143.007 119.206 142.264 119.206C141.209 119.206 140.352 120.065 140.352 121.122V144.806C140.352 146.123 139.285 147.193 137.97 147.193C136.655 147.193 135.588 146.124 135.588 144.806V121.122C135.588 117.433 138.583 114.432 142.264 114.432C145.154 114.432 147.618 116.281 148.546 118.859C148.8 119.566 148.939 120.33 148.939 121.122V148.657C148.939 154.717 144.016 159.65 137.97 159.65C131.919 159.65 127 154.717 127 148.657V121.062C127 112.563 133.898 105.65 142.378 105.65C149.197 105.65 154.993 110.122 157 116.291Z" fill="#6F8EFF"/>
<path d="M68.7265 218.65H117.402C120.565 218.65 123.129 221.214 123.129 224.377V293.096C123.129 296.259 120.565 298.822 117.402 298.822H68.7265C65.5637 298.822 63 296.259 63 293.096V224.377C63 221.214 65.5637 218.65 68.7265 218.65Z" fill="#14276B"/>
<path d="M80.9064 256.377H74.4531C72.8718 256.377 71.5896 255.095 71.5896 253.514C71.5896 251.932 72.8715 250.65 74.4531 250.65H80.9061C82.4873 250.65 83.7695 251.932 83.7695 253.514C83.7695 255.095 82.4877 256.377 80.9064 256.377Z" fill="#4B60AB"/>
<path d="M80.9064 266.377H74.4531C72.8718 266.377 71.5896 265.095 71.5896 263.514C71.5896 261.932 72.8715 260.65 74.4531 260.65H80.9061C82.4873 260.65 83.7695 261.932 83.7695 263.514C83.7695 265.095 82.4877 266.377 80.9064 266.377Z" fill="#4B60AB"/>
<path d="M80.9064 276.377H74.4531C72.8718 276.377 71.5896 275.095 71.5896 273.514C71.5896 271.932 72.8715 270.65 74.4531 270.65H80.9061C82.4873 270.65 83.7695 271.932 83.7695 273.514C83.7695 275.095 82.4877 276.377 80.9064 276.377Z" fill="#4B60AB"/>
<path d="M80.9064 286.377H74.4531C72.8718 286.377 71.5896 285.095 71.5896 283.514C71.5896 281.932 72.8715 280.65 74.4531 280.65H80.9061C82.4873 280.65 83.7695 281.932 83.7695 283.514C83.7695 285.095 82.4877 286.377 80.9064 286.377Z" fill="#4B60AB"/>
<path d="M97.0863 256.377H90.633C89.0517 256.377 87.7695 255.095 87.7695 253.514C87.7695 251.932 89.0514 250.65 90.633 250.65H97.086C98.6672 250.65 99.9494 251.932 99.9494 253.514C99.9494 255.095 98.6676 256.377 97.0863 256.377Z" fill="#4B60AB"/>
<path d="M97.0863 266.377H90.633C89.0517 266.377 87.7695 265.095 87.7695 263.514C87.7695 261.932 89.0514 260.65 90.633 260.65H97.086C98.6672 260.65 99.9494 261.932 99.9494 263.514C99.9494 265.095 98.6676 266.377 97.0863 266.377Z" fill="#4B60AB"/>
<path d="M97.0863 276.377H90.633C89.0517 276.377 87.7695 275.095 87.7695 273.514C87.7695 271.932 89.0514 270.65 90.633 270.65H97.086C98.6672 270.65 99.9494 271.932 99.9494 273.514C99.9494 275.095 98.6676 276.377 97.0863 276.377Z" fill="#4B60AB"/>
<path d="M97.0863 286.377H90.633C89.0517 286.377 87.7695 285.095 87.7695 283.514C87.7695 281.932 89.0514 280.65 90.633 280.65H97.086C98.6672 280.65 99.9494 281.932 99.9494 283.514C99.9494 285.095 98.6676 286.377 97.0863 286.377Z" fill="#4B60AB"/>
<path d="M113.266 256.377H106.813C105.232 256.377 103.949 255.095 103.949 253.514C103.949 251.932 105.231 250.65 106.813 250.65H113.266C114.847 250.65 116.129 251.932 116.129 253.514C116.129 255.095 114.847 256.377 113.266 256.377Z" fill="#4B60AB"/>
<path d="M113.266 266.377H106.813C105.232 266.377 103.949 265.095 103.949 263.514C103.949 261.932 105.231 260.65 106.813 260.65H113.266C114.847 260.65 116.129 261.932 116.129 263.514C116.129 265.095 114.847 266.377 113.266 266.377Z" fill="#4B60AB"/>
<path d="M113.266 276.377H106.813C105.232 276.377 103.949 275.095 103.949 273.514C103.949 271.932 105.231 270.65 106.813 270.65H113.266C114.847 270.65 116.129 271.932 116.129 273.514C116.129 275.095 114.847 276.377 113.266 276.377Z" fill="#4B60AB"/>
<path d="M113.266 286.377H90.5C88.9187 286.377 87.6366 285.095 87.6366 283.514C87.6366 281.932 88.9184 280.65 90.5 280.65L113.266 280.65C114.847 280.65 116.129 281.932 116.129 283.514C116.129 285.095 114.847 286.377 113.266 286.377Z" fill="#4B60AB"/>
<path d="M77.3165 230.104H108.813C110.394 230.104 111.676 231.385 111.676 232.967V238.693C111.676 240.275 110.394 241.557 108.813 241.557H77.3165C75.7352 241.557 74.4531 240.275 74.4531 238.693V232.967C74.4531 231.386 75.7352 230.104 77.3165 230.104Z" fill="white"/>
<g filter="url(#filter1_d_110_2448)">
<circle cx="287" cy="152.65" r="30" fill="#4FDF6F"/>
</g>
<path d="M288.301 159.872V158.738C288.301 157.876 288.487 157.085 288.86 156.364C289.24 155.636 289.789 155.055 290.505 154.621C291.229 154.18 292.111 153.959 293.151 153.959C294.204 153.959 295.09 154.176 295.806 154.61C296.53 155.044 297.075 155.625 297.441 156.354C297.814 157.075 298 157.869 298 158.738V159.872C298 160.733 297.814 161.528 297.441 162.256C297.068 162.977 296.52 163.555 295.796 163.989C295.072 164.43 294.19 164.65 293.151 164.65C292.097 164.65 291.211 164.43 290.495 163.989C289.778 163.555 289.233 162.977 288.86 162.256C288.487 161.528 288.301 160.733 288.301 159.872ZM291.43 158.738V159.872C291.43 160.369 291.552 160.838 291.796 161.279C292.047 161.72 292.498 161.941 293.151 161.941C293.803 161.941 294.247 161.724 294.484 161.29C294.728 160.856 294.849 160.383 294.849 159.872V158.738C294.849 158.226 294.735 157.75 294.505 157.309C294.276 156.868 293.824 156.648 293.151 156.648C292.505 156.648 292.057 156.868 291.806 157.309C291.556 157.75 291.43 158.226 291.43 158.738ZM277 147.563V146.429C277 145.561 277.19 144.766 277.57 144.045C277.95 143.317 278.498 142.736 279.215 142.302C279.939 141.867 280.814 141.65 281.839 141.65C282.9 141.65 283.789 141.867 284.505 142.302C285.222 142.736 285.767 143.317 286.14 144.045C286.513 144.766 286.699 145.561 286.699 146.429V147.563C286.699 148.431 286.509 149.226 286.129 149.947C285.756 150.668 285.208 151.246 284.484 151.68C283.767 152.107 282.885 152.321 281.839 152.321C280.792 152.321 279.907 152.104 279.183 151.67C278.466 151.228 277.921 150.651 277.548 149.937C277.183 149.216 277 148.424 277 147.563ZM280.151 146.429V147.563C280.151 148.074 280.272 148.547 280.516 148.981C280.767 149.415 281.208 149.632 281.839 149.632C282.498 149.632 282.946 149.415 283.183 148.981C283.427 148.547 283.548 148.074 283.548 147.563V146.429C283.548 145.918 283.434 145.442 283.204 145.001C282.975 144.56 282.52 144.339 281.839 144.339C281.201 144.339 280.76 144.563 280.516 145.011C280.272 145.459 280.151 145.932 280.151 146.429ZM278.419 163.905L293.559 142.396H296.376L281.237 163.905H278.419Z" fill="white"/>
<defs>
<filter id="filter0_d_110_2448" x="95.1084" y="82.6504" width="232.641" height="252.549" filterUnits="userSpaceOnUse" color-interpolation-filters="sRGB">
<feFlood flood-opacity="0" result="BackgroundImageFix"/>
<feColorMatrix in="SourceAlpha" type="matrix" values="0 0 0 0 0 0 0 0 0 0 0 0 0 0 0 0 0 0 127 0" result="hardAlpha"/>
<feOffset dy="8"/>
<feGaussianBlur stdDeviation="6.5"/>
<feComposite in2="hardAlpha" operator="out"/>
<feColorMatrix type="matrix" values="0 0 0 0 0.895833 0 0 0 0 0.725476 0 0 0 0 0.287413 0 0 0 0.5 0"/>
<feBlend mode="normal" in2="BackgroundImageFix" result="effect1_dropShadow_110_2448"/>
<feBlend mode="normal" in="SourceGraphic" in2="effect1_dropShadow_110_2448" result="shape"/>
</filter>
<filter id="filter1_d_110_2448" x="244" y="117.65" width="86" height="86" filterUnits="userSpaceOnUse" color-interpolation-filters="sRGB">
<feFlood flood-opacity="0" result="BackgroundImageFix"/>
<feColorMatrix in="SourceAlpha" type="matrix" values="0 0 0 0 0 0 0 0 0 0 0 0 0 0 0 0 0 0 127 0" result="hardAlpha"/>
<feOffset dy="8"/>
<feGaussianBlur stdDeviation="6.5"/>
<feComposite in2="hardAlpha" operator="out"/>
<feColorMatrix type="matrix" values="0 0 0 0 0.3875 0 0 0 0 0.279 0 0 0 0 0 0 0 0 0.2 0"/>
<feBlend mode="normal" in2="BackgroundImageFix" result="effect1_dropShadow_110_2448"/>
<feBlend mode="normal" in="SourceGraphic" in2="effect1_dropShadow_110_2448" result="shape"/>
</filter>
</defs>
</svg>
