<?xml version="1.0" encoding="UTF-8"?>
<svg width="12px" height="11px" viewBox="0 0 12 11" version="1.1" xmlns="http://www.w3.org/2000/svg" xmlns:xlink="http://www.w3.org/1999/xlink">
    <!-- Generator: Sketch 61 (89581) - https://sketch.com -->
    <title>Path</title>
    <desc>Created with Sketch.</desc>
    <g id="Page-1" stroke="none" stroke-width="1" fill="none" fill-rule="evenodd">
        <g id="WP-ERP-PRO-Page-Design" transform="translate(-773.000000, -4119.000000)" fill="#FFFFFF" fill-rule="nonzero">
            <g id="Group-6" transform="translate(278.000000, 3913.000000)">
                <g id="Group-9-Copy" transform="translate(362.000000, 189.000000)">
                    <g id="Group-7" transform="translate(25.199998, 12.959999)">
                        <path d="M117.564565,9.4649064 C117.851941,9.17195797 118.304364,9.17195797 118.591739,9.4649064 C118.869407,9.75785483 118.869407,10.2190507 118.591739,10.5119991 L114.287574,14.9002874 C114.154242,15.0362049 113.969131,15.1199987 113.763955,15.1199987 C113.558779,15.1199987 113.373667,15.0362049 113.239688,14.9002874 L108.935523,10.5119991 C108.648147,10.2190507 108.648147,9.75785483 108.935523,9.4649064 C109.222898,9.17195797 109.675321,9.17195797 109.962697,9.4649064 L113.034512,12.6068443 L113.034512,4.33303055 C113.033865,3.92461822 113.362664,3.59999969 113.763307,3.59999969 C114.163951,3.59999969 114.482394,3.92461822 114.482394,4.33303055 L114.482394,12.6061845 L117.564565,9.4649064 Z" id="Path" transform="translate(113.759990, 9.359999) rotate(-90.000000) translate(-113.759990, -9.359999) "></path>
                    </g>
                </g>
            </g>
        </g>
    </g>
</svg>