<?xml version="1.0" encoding="UTF-8"?>
<svg width="99px" height="92px" viewBox="0 0 99 92" version="1.1" xmlns="http://www.w3.org/2000/svg" xmlns:xlink="http://www.w3.org/1999/xlink">
    <!-- Generator: Sketch 63.1 (92452) - https://sketch.com -->
    <title>Group 19</title>
    <desc>Created with Sketch.</desc>
    <defs>
        <linearGradient x1="34.0781882%" y1="8.24492836%" x2="41.3330692%" y2="151.58395%" id="linearGradient-1">
            <stop stop-color="#FFEBDB" offset="0%"></stop>
            <stop stop-color="#D39364" offset="100%"></stop>
        </linearGradient>
        <linearGradient x1="-23.0099305%" y1="20.5204536%" x2="80.1336191%" y2="78.4574181%" id="linearGradient-2">
            <stop stop-color="#383861" offset="0%"></stop>
            <stop stop-color="#00022D" offset="100%"></stop>
        </linearGradient>
        <linearGradient x1="50%" y1="0%" x2="50%" y2="100%" id="linearGradient-3">
            <stop stop-color="#C2E998" offset="0%"></stop>
            <stop stop-color="#02CC87" offset="100%"></stop>
        </linearGradient>
        <linearGradient x1="50%" y1="0%" x2="50%" y2="100%" id="linearGradient-4">
            <stop stop-color="#C2E998" offset="0%"></stop>
            <stop stop-color="#02CC87" offset="100%"></stop>
        </linearGradient>
        <linearGradient x1="99.9993607%" y1="50.0025413%" x2="-0.00143517228%" y2="50.0025413%" id="linearGradient-5">
            <stop stop-color="#FFEBDB" offset="0%"></stop>
            <stop stop-color="#D39364" offset="100%"></stop>
        </linearGradient>
        <linearGradient x1="50%" y1="82.7829242%" x2="45.7501174%" y2="17.8389148%" id="linearGradient-6">
            <stop stop-color="#8FA1D1" offset="0%"></stop>
            <stop stop-color="#E0E8FF" offset="100%"></stop>
        </linearGradient>
        <linearGradient x1="-23.0099305%" y1="45.8878586%" x2="80.1336191%" y2="53.9695634%" id="linearGradient-7">
            <stop stop-color="#383861" offset="0%"></stop>
            <stop stop-color="#00022D" offset="100%"></stop>
        </linearGradient>
        <linearGradient x1="24.2871731%" y1="14.8433999%" x2="60.6125362%" y2="83.9376344%" id="linearGradient-8">
            <stop stop-color="#383861" offset="0%"></stop>
            <stop stop-color="#00022D" offset="100%"></stop>
        </linearGradient>
        <linearGradient x1="21.4519667%" y1="14.8433999%" x2="61.7827199%" y2="83.9376344%" id="linearGradient-9">
            <stop stop-color="#383861" offset="0%"></stop>
            <stop stop-color="#00022D" offset="100%"></stop>
        </linearGradient>
        <linearGradient x1="-71.0194023%" y1="29.3700873%" x2="50%" y2="58.9400426%" id="linearGradient-10">
            <stop stop-color="#FFCCCC" stop-opacity="0.5" offset="0%"></stop>
            <stop stop-color="#CC0000" stop-opacity="0.5" offset="100%"></stop>
        </linearGradient>
        <linearGradient x1="-71.0194023%" y1="-34.2955925%" x2="50%" y2="86.5297808%" id="linearGradient-11">
            <stop stop-color="#FFCCCC" stop-opacity="0.5" offset="0%"></stop>
            <stop stop-color="#CC0000" stop-opacity="0.5" offset="100%"></stop>
        </linearGradient>
        <linearGradient x1="86.7783399%" y1="29.4604026%" x2="10.5106008%" y2="58.5925615%" id="linearGradient-12">
            <stop stop-color="#614ABD" offset="0%"></stop>
            <stop stop-color="#CFD3F6" offset="100%"></stop>
        </linearGradient>
        <rect id="path-13" x="0" y="0" width="26.288" height="12.72" rx="2.544"></rect>
        <filter x="-81.8%" y="-121.9%" width="278.8%" height="469.5%" filterUnits="objectBoundingBox" id="filter-14">
            <feOffset dx="2" dy="8" in="SourceAlpha" result="shadowOffsetOuter1"></feOffset>
            <feGaussianBlur stdDeviation="6.5" in="shadowOffsetOuter1" result="shadowBlurOuter1"></feGaussianBlur>
            <feColorMatrix values="0 0 0 0 0.146921939   0 0 0 0 0.162098605   0 0 0 0 0.423884737  0 0 0 0.24341674 0" type="matrix" in="shadowBlurOuter1"></feColorMatrix>
        </filter>
        <linearGradient x1="50%" y1="0%" x2="50%" y2="100%" id="linearGradient-15">
            <stop stop-color="#FEE5AC" offset="0%"></stop>
            <stop stop-color="#FFB181" offset="100%"></stop>
        </linearGradient>
        <rect id="path-16" x="0" y="0" width="20.9879997" height="12.72" rx="2.544"></rect>
        <filter x="-102.4%" y="-121.9%" width="323.9%" height="469.5%" filterUnits="objectBoundingBox" id="filter-17">
            <feOffset dx="2" dy="8" in="SourceAlpha" result="shadowOffsetOuter1"></feOffset>
            <feGaussianBlur stdDeviation="6.5" in="shadowOffsetOuter1" result="shadowBlurOuter1"></feGaussianBlur>
            <feColorMatrix values="0 0 0 0 0.146921939   0 0 0 0 0.162098605   0 0 0 0 0.423884737  0 0 0 0.24341674 0" type="matrix" in="shadowBlurOuter1"></feColorMatrix>
        </filter>
        <linearGradient x1="50%" y1="0%" x2="50%" y2="100%" id="linearGradient-18">
            <stop stop-color="#FFA8E6" offset="0%"></stop>
            <stop stop-color="#E850FF" offset="100%"></stop>
        </linearGradient>
        <rect id="path-19" x="0" y="0" width="20.9879997" height="12.72" rx="2.544"></rect>
        <filter x="-102.4%" y="-121.9%" width="323.9%" height="469.5%" filterUnits="objectBoundingBox" id="filter-20">
            <feOffset dx="2" dy="8" in="SourceAlpha" result="shadowOffsetOuter1"></feOffset>
            <feGaussianBlur stdDeviation="6.5" in="shadowOffsetOuter1" result="shadowBlurOuter1"></feGaussianBlur>
            <feColorMatrix values="0 0 0 0 0.146921939   0 0 0 0 0.162098605   0 0 0 0 0.423884737  0 0 0 0.24341674 0" type="matrix" in="shadowBlurOuter1"></feColorMatrix>
        </filter>
        <linearGradient x1="50%" y1="0%" x2="50%" y2="100%" id="linearGradient-21">
            <stop stop-color="#00EAEF" offset="0%"></stop>
            <stop stop-color="#0093FF" offset="100%"></stop>
        </linearGradient>
    </defs>
    <g id="Page-1" stroke="none" stroke-width="1" fill="none" fill-rule="evenodd">
        <g id="WP-ERP-PRO-Page-Design" transform="translate(-309.000000, -3090.000000)">
            <g id="Group-19" transform="translate(308.000000, 3095.000000)">
                <g id="Group-31" transform="translate(43.000000, 50.220001) scale(-1, 1) translate(-43.000000, -50.220001) translate(0.000000, 12.720001)">
                    <g id="Group-3" transform="translate(54.547030, 5.500541)" fill="url(#linearGradient-1)">
                        <path d="M4.34594617,8.81158043 C4.13152041,8.95209358 3.89268693,9.06470799 3.62921102,9.13639837 L3.62921102,9.13639837 L3.52677116,9.1546378 C2.36711847,9.25880486 1.25725339,5.92141082 0.654564363,3.73440887 L0.654564363,3.73440887 L0.605007154,3.55094452 C0.347173266,2.58832486 0.193894065,1.88851903 0.193894065,1.88851903 C-0.0559221654,0.864272483 1.44160008,0.0912173026 2.15483688,0.0912173026 L2.15483688,0.0912173026 L2.24206446,0.0956342369 C2.35210461,0.10728805 2.4360062,0.142234819 2.48074393,0.203290823 L2.48074393,0.203290823 L2.54233672,0.276728305 C2.8970673,0.655234483 3.65346463,0.848229239 3.94251266,2.05834823 L3.94251266,2.05834823 L3.97902122,2.20558131 C4.31575027,3.51811116 5.16607742,5.73829495 5.37861221,5.62132357 L5.37861221,5.62132357 L5.39260971,5.60772602 C5.61242588,5.30224266 5.86882404,0.728143646 7.86050208,2.7106207 L7.86050208,2.7106207 L7.99072785,2.84785635 C9.74038141,4.80314286 6.52409984,6.24596833 6.26786631,6.28986848 L6.26786631,6.28986848 L8.80338646,6.23967604 L9.43411515,8.27900157 L9.94566545,9.37933893 C9.76237364,9.5888621 4.86370741,15.1722502 5.38800896,12.7919662 L5.38800896,12.7919662 L5.44353721,12.503023 C5.48988356,12.2177469 5.50947924,11.9436223 5.50947924,11.6820028 L5.50947924,11.6820028 L5.50443708,11.4756137 C5.49786699,11.3392377 5.48518519,11.2057477 5.46822518,11.0778601 L5.46822518,11.0778601 L5.43608999,10.8623078 C5.20649398,9.52399055 4.5021927,8.70116808 4.5021927,8.70116808 L4.5021927,8.70116808 Z" id="Combined-Shape"></path>
                    </g>
                    <g id="Group-6" transform="translate(58.901625, 11.688649)"></g>
                    <g id="Group-9" transform="translate(52.025949, 0.000000)" fill="url(#linearGradient-2)">
                        <path d="M4.89616893,0.315593532 C3.68627913,0.439126512 2.36958717,0.642417335 1.54977739,1.5410682 L1.54977739,1.5410682 C0.867251943,2.28914176 0.686421662,3.35349641 0.53469841,4.35482404 L0.53469841,4.35482404 C0.443022729,4.95942515 0.139117846,5.97931711 0.0889254106,6.90478311 L0.0889254106,6.90478311 C0.0368994616,7.85912695 0.254858393,8.71285673 1.25641521,8.90904268 L1.25641521,8.90904268 C2.4431569,9.14144053 3.2581537,8.56823834 3.93403266,7.65262747 L3.93403266,7.65262747 C4.13571916,7.37966313 4.55696892,6.34922848 4.86889542,6.25251064 L4.86889542,6.25251064 C5.45882843,6.06938846 5.94150089,7.10119825 6.09322414,7.5607226 L6.09322414,7.5607226 C6.30293226,8.19672264 6.36618848,8.87626863 6.60637876,9.50126758 L6.60637876,9.50126758 C7.16651718,10.9600569 8.61682645,11.9121088 10.1141195,12.3592569 L10.1141195,12.3592569 C10.7116158,12.5377953 11.4638147,12.6079272 11.8598537,12.1259423 L11.8598537,12.1259423 C12.1901153,11.7234861 12.2173888,11.0560871 12.4264094,10.5862493 L12.4264094,10.5862493 C12.6038018,10.1865433 12.8435337,9.82648706 12.9865478,9.38965244 L12.9865478,9.38965244 C13.3009954,8.42980806 13.4751792,7.41449989 13.5276635,6.40629659 L13.5276635,6.40629659 C13.6230062,4.56109432 13.3314775,2.15323256 11.5639704,1.12440223 L11.5639704,1.12440223 C10.2944914,0.385496239 8.83203511,0.167078929 7.34597232,0.167078929 L7.34597232,0.167078929 C6.5270793,0.167078929 5.7013106,0.233314608 4.89616893,0.315593532" id="Fill-7"></path>
                    </g>
                    <g id="Group-12" transform="translate(46.525408, 19.251893)" fill="url(#linearGradient-3)">
                        <path d="M20.2864531,2.02465742 C16.0996247,5.3893841 17.2221934,18.9216314 17.2221934,18.9216314 L17.2221934,18.9216314 C12.9588159,17.2105048 6.58139714,16.2958107 2.97029207,15.8864788 L2.97029207,15.8864788 L2.96708342,15.8864788 C1.29766927,15.6976269 0.216583796,15.6176398 0.216583796,15.6176398 L0.216583796,15.6176398 L0.216583796,18.2306259 L7.43512692,21.0324639 L7.43856476,21.0324639 L19.646786,25.772555 C20.6701158,24.979102 21.5754132,23.7414803 22.3619905,22.2288316 L22.3619905,22.2288316 C25.9407799,15.3554474 27.1052902,2.79885854 26.1232145,0.505362192 L26.1232145,0.505362192 C26.075314,0.393517861 26.0175583,0.28167353 25.950635,0.173037848 L25.950635,0.173037848 C24.1437074,0.182434605 22.0615235,0.59497517 20.2864531,2.02465742" id="Fill-10"></path>
                    </g>
                    <g id="Group-15" transform="translate(49.275679, 14.668109)" fill="url(#linearGradient-4)">
                        <path d="M10.6593606,3.62439805 C10.7459941,3.23431803 10.7808309,2.86326071 10.7808309,2.51443474 L10.7808309,2.51443474 C10.1702709,3.09015802 4.8354338,8.34844589 0.216812986,20.4702628 L0.216812986,20.4702628 L0.220021634,20.4702628 C3.83112671,20.8795947 10.2085455,21.7942888 14.471923,23.5054154 L14.471923,23.5054154 C14.471923,23.5054154 13.3493543,9.97316815 17.5361826,6.60844147 L17.5361826,6.60844147 C19.311253,5.17875922 21.3934369,4.76621866 23.2003646,4.7568219 L23.2003646,4.7568219 C21.6267515,2.12733418 15.2170171,0.211770823 15.2170171,0.211770823 L15.2170171,0.211770823 C15.2170171,0.211770823 10.1253498,6.04876143 10.6593606,3.62439805" id="Fill-13"></path>
                    </g>
                    <g id="Group-18" transform="translate(43.087570, 16.501623)">
                        <path d="M13.0353651,2.92330828 C11.9700937,4.62755919 5.62797006,15.275002 4.2940889,16.0746431 L4.2940889,16.0746431 C3.10436775,16.7878799 0.593370846,17.6131902 0.0692151392,17.782561 L0.0692151392,17.782561 C0.289924341,17.7188464 0.503987057,17.6707167 0.696047608,17.6482562 L0.696047608,17.6482562 C1.77369524,17.5297653 3.65442184,18.3679103 3.65442184,18.3679103 L3.65442184,18.3679103 C3.65442184,18.3679103 4.7355073,18.4478973 6.40492146,18.6367492 L6.40492146,18.6367492 C11.0235423,6.51493227 16.3583793,1.2566444 16.9689394,0.680921121 L16.9689394,0.680921121 C16.9689394,0.473046514 16.9531253,0.268609745 16.9276853,0.0767783829 L16.9276853,0.0767783829 C16.9276853,0.0767783829 14.1033868,1.2183698 13.0353651,2.92330828" id="Fill-16"></path>
                    </g>
                    <g id="Group-21" transform="translate(40.795678, 33.920002)" fill="url(#linearGradient-5)">
                        <path d="M2.98793963,0.22987677 C2.79587908,0.252337312 2.58181637,0.300467045 2.36110717,0.364181643 L2.36110717,0.364181643 C2.35125203,0.367619481 2.34483473,0.37082813 2.33520879,0.373807589 L2.33520879,0.373807589 C2.31297743,0.380454076 2.29372554,0.386642185 2.271265,0.393059482 L2.271265,0.393059482 C2.26828554,0.393059482 2.2648477,0.396268131 2.26186824,0.396268131 L2.26186824,0.396268131 C1.27658386,0.706361122 0.19251893,1.32058819 0.19251893,1.32058819 L0.19251893,1.32058819 L3.24692343,2.38883906 L4.59318081,2.97395909 L5.94631386,3.56251697 L5.94631386,0.949530866 C5.94631386,0.949530866 4.30554836,0.21841731 3.21094073,0.21841731 L3.21094073,0.21841731 C3.13347478,0.21841731 3.05898829,0.222084337 2.98793963,0.22987677" id="Fill-19"></path>
                    </g>
                    <g id="Group-24" transform="translate(18.793515, 19.022704)" fill="url(#linearGradient-6)">
                        <path d="M0.0426291917,4.97248894 L4.56842838,13.5024527 C6.5674166,11.0748806 24.5965852,17.8712573 24.5965852,17.8712573 L24.5965852,17.8712573 L26.5953443,17.8712573 L25.2490869,17.2861372 L22.1946824,16.2178864 L18.0493373,14.7721609 L11.483525,0.117344872 L0.0426291917,4.97248894 Z" id="Fill-22"></path>
                    </g>
                    <g id="Group-27" transform="translate(30.023786, 36.670272)" fill="url(#linearGradient-7)">
                        <path d="M1.60592874,0.223688662 L0.163641091,8.35417562 L16.7182064,8.35417562 C16.7182064,8.35417562 19.6669547,5.47533005 23.9367495,3.61408454 L23.9367495,3.61408454 L16.7182064,0.812246534 L15.3650733,0.223688662 L1.60592874,0.223688662 Z" id="Fill-25"></path>
                    </g>
                    <g id="Group-30" transform="translate(6.188108, 39.878921)" fill="url(#linearGradient-8)">
                        <path d="M0.06898595,25.5924123 L0.0721945988,25.5958501 L2.49312015,27.7545832 L16.4188853,10.6339206 C16.3040615,7.03244149 16.2366799,3.32255587 16.2880182,0.20397839 L16.2880182,0.20397839 L0.06898595,25.5924123 Z" id="Fill-28"></path>
                    </g>
                    <g id="Group-33" transform="translate(22.231353, 31.857299)" fill="url(#linearGradient-9)">
                        <path d="M1.13059034,0.667857336 C0.558304898,1.36207143 0.311697316,4.33328025 0.244774068,8.22560048 L0.244774068,8.22560048 C0.193435687,11.344178 0.260817313,15.0540636 0.375641103,18.6555427 L0.375641103,18.6555427 C0.622248685,26.2836469 1.07948114,33.422203 1.07948114,33.422203 L1.07948114,33.422203 L4.32273755,33.6174722 L7.79907938,14.0401306 L7.81833127,13.9314949 C7.85660586,13.6725111 7.90175614,13.4165067 7.95263614,13.1671489 L7.95263614,13.1671489 L7.95607398,13.1671489 L9.39836163,5.03666192 L21.1587472,5.03666192 C21.1587472,5.03666192 8.17976264,0.143930819 3.02506829,0.143930819 L3.02506829,0.143930819 C2.10441526,0.143930819 1.43357846,0.300008666 1.13059034,0.667857336" id="Fill-31"></path>
                    </g>
                    <g id="Group-36" transform="translate(16.960001, 65.089734)" fill="url(#linearGradient-10)">
                        <path d="M4.53084135,1.24518494 C3.70255157,2.36477419 -0.0490464894,2.52474826 0.0371286508,3.36266398 L0.0371286508,3.36266398 C0.126741629,4.20080889 3.38581209,4.44374945 5.07149867,4.04060564 L5.07149867,4.04060564 C6.75695607,3.64410832 6.53945552,3.40093858 7.45414963,3.76236995 L7.45414963,3.76236995 C8.37205238,4.12380132 9.37338001,3.72065751 9.4627638,3.40093858 L9.4627638,3.40093858 C9.54916813,3.08099045 9.59408921,0.38503786 9.59408921,0.38503786 L9.59408921,0.38503786 L6.3508328,0.18976866 C6.3508328,0.18976866 6.3402901,0.189081092 6.32080902,0.189081092 L6.32080902,0.189081092 C6.14937549,0.189081092 5.27433112,0.240648663 4.53084135,1.24518494" id="Fill-34"></path>
                    </g>
                    <g id="Group-39" transform="translate(0.000000, 62.797842)" fill="url(#linearGradient-11)">
                        <path d="M0.112990277,0.195040011 C0.036211894,0.272276773 0.000687567608,0.384121104 0,0.522780571 L0,0.522780571 L0,0.529885436 C0.00366702724,1.46772765 1.57957198,3.60514616 2.77410611,4.5191527 L2.77410611,4.5191527 C4.15267916,5.56815168 4.20057971,5.24843274 4.50127594,6.1853582 L4.50127594,6.1853582 C4.80495163,7.12251285 5.74875277,7.64391828 6.05242846,7.50961341 L6.05242846,7.50961341 C6.35633334,7.37530854 8.68122862,4.83566299 8.68122862,4.83566299 L8.68122862,4.83566299 L6.26030307,2.67692989 L6.25709442,2.67349205 C6.22523712,2.62880015 5.91170629,2.26438932 4.60028567,2.32810392 L4.60028567,2.32810392 C3.96382726,2.35904446 3.09520018,1.78950929 2.28318284,1.21997413 L2.28318284,1.21997413 C1.49202171,0.665107066 0.754261666,0.110240006 0.337137317,0.110240006 L0.337137317,0.110240006 C0.246378393,0.110240006 0.170745956,0.136596765 0.112990277,0.195040011" id="Fill-37"></path>
                    </g>
                    <g id="Group-42" transform="translate(29.565407, 11.459460)" fill="url(#linearGradient-12)">
                        <path d="M34.0478896,1.53350495 L34.4157382,2.3200823 L34.9272885,3.42041966 C34.9272885,3.42041966 41.337023,5.33598301 42.910636,7.96547074 L42.910636,7.96547074 C42.9775593,8.07410642 43.0353149,8.18595075 43.0832155,8.29779508 L43.0832155,8.29779508 C44.0652912,10.5912914 42.9007809,23.1478803 39.3219915,30.0212645 L39.3219915,30.0212645 C34.0957901,26.1543842 28.6041876,26.9955086 24.3985658,28.8248968 L24.3985658,28.8248968 L24.3951279,28.8248968 C20.1253331,30.6861423 17.1765848,33.5649879 17.1765848,33.5649879 L17.1765848,33.5649879 L0.618581658,33.5649879 L0.484276785,34.3293339 L0.46846273,34.4285728 C0.465024892,34.4317815 0.462045432,34.4347609 0.465024892,34.4379696 L0.465024892,34.4379696 C-1.03960222,44.1342772 3.61935589,61.6333312 3.55609967,61.726382 L3.55609967,61.726382 L45.6418838,62.1102739 C54.7574259,50.1165737 58.4897721,13.5494365 51.8788095,5.11894084 L51.8788095,5.11894084 C48.8033196,1.19659683 44.7299399,0.147597846 41.2531397,0.147597846 L41.2531397,0.147597846 C37.2563092,0.147597846 34.0478896,1.53350495 34.0478896,1.53350495" id="Fill-40"></path>
                    </g>
                </g>
                <g id="Group-37" transform="translate(39.359997, 0.000000)">
                    <g id="Group-35" transform="translate(10.600000, 0.000000)">
                        <g id="Rectangle">
                            <use fill="black" fill-opacity="1" filter="url(#filter-14)" xlink:href="#path-13"></use>
                            <use fill="#FFFFFF" fill-rule="evenodd" xlink:href="#path-13"></use>
                        </g>
                        <g id="Group-32" transform="translate(3.392000, 3.392000)">
                            <path d="M3.9076189,5.08799999 L1.1803811,5.08799999 C0.528868902,5.08799999 0,4.5595655 0,3.90750643 L0,1.18049357 C0,0.528434492 0.528868902,0 1.1803811,0 L3.9076189,0 C4.55961585,0 5.08799999,0.528434492 5.08799999,1.18049357 L5.08799999,3.90750643 C5.08799999,4.5595655 4.55961585,5.08799999 3.9076189,5.08799999" id="Fill-75" fill="url(#linearGradient-15)"></path>
                            <path d="M19.3926099,1.38604727 L7.44417996,1.38604727 C7.18228962,1.38604727 6.97002441,1.17414429 6.97002441,0.912253949 C6.97002441,0.650725833 7.18228962,0.438460631 7.44417996,0.438460631 L19.3926099,0.438460631 C19.6545002,0.438460631 19.8667655,0.650725833 19.8667655,0.912253949 C19.8667655,1.17414429 19.6545002,1.38604727 19.3926099,1.38604727" id="Fill-77" fill="#B6B6FF"></path>
                            <path d="M17.2144157,4.24 L7.36104084,4.24 C7.14507073,4.24 6.97002441,4.02809702 6.97002441,3.76620668 C6.97002441,3.50467856 7.14507073,3.29241336 7.36104084,3.29241336 L17.2144157,3.29241336 C17.4303858,3.29241336 17.6054321,3.50467856 17.6054321,3.76620668 C17.6054321,4.02809702 17.4303858,4.24 17.2144157,4.24" id="Fill-79" fill="#B6B6FF" opacity="0.509974888"></path>
                        </g>
                    </g>
                    <g id="Group-35-Copy" transform="translate(0.000000, 15.900001)">
                        <g id="Rectangle">
                            <use fill="black" fill-opacity="1" filter="url(#filter-17)" xlink:href="#path-16"></use>
                            <use fill="#FFFFFF" fill-rule="evenodd" xlink:href="#path-16"></use>
                        </g>
                        <g id="Group-32" transform="translate(3.392000, 3.392000)">
                            <path d="M3.9076189,5.08799999 L1.1803811,5.08799999 C0.528868902,5.08799999 0,4.5595655 0,3.90750643 L0,1.18049357 C0,0.528434492 0.528868902,0 1.1803811,0 L3.9076189,0 C4.55961585,0 5.08799999,0.528434492 5.08799999,1.18049357 L5.08799999,3.90750643 C5.08799999,4.5595655 4.55961585,5.08799999 3.9076189,5.08799999" id="Fill-75" fill="url(#linearGradient-18)"></path>
                            <path d="M14.2874669,1.38604727 L7.24932263,1.38604727 C7.09505784,1.38604727 6.97002441,1.17414429 6.97002441,0.912253949 C6.97002441,0.650725833 7.09505784,0.438460631 7.24932263,0.438460631 L14.2874669,0.438460631 C14.4417317,0.438460631 14.5667651,0.650725833 14.5667651,0.912253949 C14.5667651,1.17414429 14.4417317,1.38604727 14.2874669,1.38604727" id="Fill-77" fill="#B6B6FF"></path>
                            <path d="M12.1092727,4.24 L7.1661835,4.24 C7.05783895,4.24 6.97002441,4.02809702 6.97002441,3.76620668 C6.97002441,3.50467856 7.05783895,3.29241336 7.1661835,3.29241336 L12.1092727,3.29241336 C12.2176173,3.29241336 12.3054318,3.50467856 12.3054318,3.76620668 C12.3054318,4.02809702 12.2176173,4.24 12.1092727,4.24" id="Fill-79" fill="#B6B6FF" opacity="0.509974888"></path>
                        </g>
                    </g>
                    <g id="Group-35-Copy-2" transform="translate(25.016000, 16.112000)">
                        <g id="Rectangle">
                            <use fill="black" fill-opacity="1" filter="url(#filter-20)" xlink:href="#path-19"></use>
                            <use fill="#FFFFFF" fill-rule="evenodd" xlink:href="#path-19"></use>
                        </g>
                        <g id="Group-32" transform="translate(3.392000, 3.392000)">
                            <path d="M1.1803811,5.08799999 C0.528868902,5.08799999 0,4.5595655 0,3.90750643 L0,1.18049357 C0,0.528434492 0.528868902,0 1.1803811,0 L3.9076189,0 C4.55961585,0 5.08799999,0.528434492 5.08799999,1.18049357 L5.08799999,3.90750643 C5.08799999,4.5595655 4.55961585,5.08799999 3.9076189,5.08799999 L1.1803811,5.08799999 Z" id="Fill-75" fill="url(#linearGradient-21)"></path>
                            <path d="M14.2874669,1.38604727 L7.24932263,1.38604727 C7.09505784,1.38604727 6.97002441,1.17414429 6.97002441,0.912253949 C6.97002441,0.650725833 7.09505784,0.438460631 7.24932263,0.438460631 L14.2874669,0.438460631 C14.4417317,0.438460631 14.5667651,0.650725833 14.5667651,0.912253949 C14.5667651,1.17414429 14.4417317,1.38604727 14.2874669,1.38604727" id="Fill-77" fill="#B6B6FF"></path>
                            <path d="M12.1092727,4.24 L7.1661835,4.24 C7.05783895,4.24 6.97002441,4.02809702 6.97002441,3.76620668 C6.97002441,3.50467856 7.05783895,3.29241336 7.1661835,3.29241336 L12.1092727,3.29241336 C12.2176173,3.29241336 12.3054318,3.50467856 12.3054318,3.76620668 C12.3054318,4.02809702 12.2176173,4.24 12.1092727,4.24" id="Fill-79" fill="#B6B6FF" opacity="0.509974888"></path>
                        </g>
                    </g>
                </g>
            </g>
        </g>
    </g>
</svg>