<?xml version="1.0" encoding="UTF-8"?>
<svg width="100px" height="74px" viewBox="0 0 100 74" version="1.1" xmlns="http://www.w3.org/2000/svg" xmlns:xlink="http://www.w3.org/1999/xlink">
    <!-- Generator: Sketch 63.1 (92452) - https://sketch.com -->
    <title>Group 91 Copy</title>
    <desc>Created with Sketch.</desc>
    <defs>
        <polygon id="path-1" points="0.0225101734 0.0708863577 84.0322001 0.0708863577 84.0322001 70.4668343 0.0225101734 70.4668343"></polygon>
        <linearGradient x1="80.8393916%" y1="-3.26913131%" x2="0%" y2="102.319123%" id="linearGradient-3">
            <stop stop-color="#CEDAFF" offset="0%"></stop>
            <stop stop-color="#FFFFFF" offset="100%"></stop>
        </linearGradient>
        <linearGradient x1="80.8393916%" y1="7.91569377%" x2="0%" y2="91.3337694%" id="linearGradient-4">
            <stop stop-color="#CEDAFF" offset="0%"></stop>
            <stop stop-color="#FFFFFF" offset="100%"></stop>
        </linearGradient>
        <polygon id="path-5" points="0.15157823 0.0765080009 8.06077721 0.0765080009 8.06077721 5.26763709 0.15157823 5.26763709"></polygon>
        <linearGradient x1="80.8393916%" y1="20.3563737%" x2="0%" y2="79.1149581%" id="linearGradient-7">
            <stop stop-color="#CEDAFF" offset="0%"></stop>
            <stop stop-color="#FFFFFF" offset="100%"></stop>
        </linearGradient>
        <path d="M21.7204431,16.0640983 L0.802875686,16.0634398 C0.359735716,16.0634398 -2.72606519e-13,15.7039236 -2.72606519e-13,15.2605641 L0.000658454636,0.802875686 C0.000658454636,0.359296746 0.360174686,-1.99586916e-13 0.803534141,-1.99586916e-13 L21.720882,0.000658454636 C22.1642415,0.000658454636 22.5237577,0.360174686 22.5237577,0.803534141 L22.5233188,15.2612226 C22.5233188,15.704582 22.164022,16.0640983 21.7204431,16.0640983" id="path-8"></path>
        <filter x="-59.9%" y="-59.1%" width="228.8%" height="280.5%" filterUnits="objectBoundingBox" id="filter-9">
            <feOffset dx="1" dy="5" in="SourceAlpha" result="shadowOffsetOuter1"></feOffset>
            <feGaussianBlur stdDeviation="4" in="shadowOffsetOuter1" result="shadowBlurOuter1"></feGaussianBlur>
            <feColorMatrix values="0 0 0 0 0.146921939   0 0 0 0 0.162098605   0 0 0 0 0.423884737  0 0 0 0.24341674 0" type="matrix" in="shadowBlurOuter1"></feColorMatrix>
        </filter>
        <linearGradient x1="50%" y1="0%" x2="50%" y2="168.252721%" id="linearGradient-10">
            <stop stop-color="#4AE15E" offset="0%"></stop>
            <stop stop-color="#24C030" stop-opacity="0" offset="100%"></stop>
        </linearGradient>
        <linearGradient x1="50%" y1="0%" x2="50%" y2="126.691058%" id="linearGradient-11">
            <stop stop-color="#FF74C1" offset="0%"></stop>
            <stop stop-color="#FE408E" stop-opacity="0" offset="100%"></stop>
        </linearGradient>
        <linearGradient x1="50%" y1="100%" x2="50%" y2="3.061617e-15%" id="linearGradient-12">
            <stop stop-color="#EA8FE6" stop-opacity="0.133249563" offset="0%"></stop>
            <stop stop-color="#D156C9" stop-opacity="0.303267045" offset="100%"></stop>
        </linearGradient>
        <linearGradient x1="50%" y1="100%" x2="50%" y2="3.061617e-15%" id="linearGradient-13">
            <stop stop-color="#8FC4EA" stop-opacity="0.15234375" offset="0%"></stop>
            <stop stop-color="#5691D1" stop-opacity="0.448754371" offset="100%"></stop>
        </linearGradient>
        <linearGradient x1="50%" y1="18.2213309%" x2="39.3810698%" y2="114.291165%" id="linearGradient-14">
            <stop stop-color="#FFAF92" offset="0%"></stop>
            <stop stop-color="#FF7759" offset="100%"></stop>
        </linearGradient>
        <linearGradient x1="-1.85315608%" y1="-53.2740754%" x2="50%" y2="100%" id="linearGradient-15">
            <stop stop-color="#FF74C1" offset="0%"></stop>
            <stop stop-color="#FE408E" offset="100%"></stop>
        </linearGradient>
        <linearGradient x1="-30.989666%" y1="-53.2740754%" x2="50%" y2="100%" id="linearGradient-16">
            <stop stop-color="#FF74C1" offset="0%"></stop>
            <stop stop-color="#FE408E" offset="100%"></stop>
        </linearGradient>
        <linearGradient x1="50%" y1="0%" x2="19.5286624%" y2="160.620579%" id="linearGradient-17">
            <stop stop-color="#FFC4AE" offset="0%"></stop>
            <stop stop-color="#FF7759" offset="100%"></stop>
        </linearGradient>
        <linearGradient x1="50%" y1="-13.3309089%" x2="50%" y2="100%" id="linearGradient-18">
            <stop stop-color="#111377" offset="0%"></stop>
            <stop stop-color="#070842" offset="100%"></stop>
        </linearGradient>
        <linearGradient x1="50%" y1="41.6432282%" x2="39.3810698%" y2="66.9065166%" id="linearGradient-19">
            <stop stop-color="#FFAF92" offset="0%"></stop>
            <stop stop-color="#FF7759" offset="100%"></stop>
        </linearGradient>
        <linearGradient x1="-2.14412197%" y1="-46.2145422%" x2="50%" y2="84.9568036%" id="linearGradient-20">
            <stop stop-color="#FF74C1" offset="0%"></stop>
            <stop stop-color="#F93586" offset="100%"></stop>
        </linearGradient>
        <linearGradient x1="70.3938023%" y1="-18.8128837%" x2="-319.16676%" y2="342.488668%" id="linearGradient-21">
            <stop stop-color="#B8CAFF" offset="0%"></stop>
            <stop stop-color="#FFFFFF" offset="100%"></stop>
        </linearGradient>
    </defs>
    <g id="Page-1" stroke="none" stroke-width="1" fill="none" fill-rule="evenodd">
        <g id="WP-ERP-PRO-Page-Design" transform="translate(-312.000000, -2735.000000)">
            <g id="Group-91-Copy" transform="translate(355.500000, 2772.000000) scale(-1, 1) translate(-355.500000, -2772.000000) translate(307.000000, 2735.000000)">
                <g id="Group-3" transform="translate(11.852183, 1.061962)">
                    <mask id="mask-2" fill="white">
                        <use xlink:href="#path-1"></use>
                    </mask>
                    <g id="Clip-2"></g>
                    <path d="M31.7897289,67.7783133 C30.2697961,68.4084544 23.7532901,70.8506626 19.9384234,68.1531935 C19.6642868,67.9323917 19.3802734,67.6887635 19.0894559,67.4271375 C22.9925555,67.3382461 28.1243314,66.8839124 33.7969181,66.0874018 C34.5798207,65.9776593 35.3736975,65.8606739 36.1752563,65.7377624 C34.7066829,66.4653547 33.3507054,67.1051532 32.1145665,67.6391599 C32.0048241,67.6865686 31.8977155,67.7322215 31.7897289,67.7783133 Z M4.4118436,41.8793171 C4.05978985,40.6510797 3.74658493,39.3850909 3.47815492,38.0861794 C3.20906646,36.7874874 2.99177643,35.4536778 2.85020869,34.0919936 C2.70710455,32.7305289 2.63291866,31.3411896 2.65706199,29.9367059 C2.7049097,27.1327865 3.15134194,24.2474383 4.25732624,21.5556758 C4.80867226,20.2122088 5.52331502,18.9229547 6.40915599,17.7364194 C7.30092306,16.552079 8.3584012,15.4801149 9.56337319,14.5290869 C10.0278032,14.1601328 10.5106699,13.8096154 11.0093396,13.4764374 C6.37996451,22.4129837 4.88417506,34.4558995 5.36155467,44.8647504 C5.0272792,43.8944078 4.70814818,42.9003607 4.4118436,41.8793171 Z M77.4455489,36.0833799 C77.4477437,36.0787707 77.4503776,36.0739421 77.4527919,36.0691134 C77.8551077,35.2440697 78.2007964,34.3534001 78.4022835,33.3758144 C78.6037706,32.4030575 78.6476676,31.3275815 78.4167695,30.2654942 C78.3076855,29.7349993 78.1184895,29.2185514 77.8856161,28.7293196 C77.8335982,28.6024573 77.7607292,28.4903005 77.6948837,28.3728761 L77.4909823,28.0245536 L77.4394033,27.939613 L77.3904582,27.8678414 L77.2919095,27.7245178 L77.0939341,27.437651 C76.5561962,26.6843789 75.9826822,25.9611763 75.3639543,25.2895525 C72.8982612,22.5859378 69.9940373,20.3603611 66.9142254,18.3481238 C64.5288638,16.7959267 62.0166399,15.3947352 59.4126713,14.114041 C46.934078,3.5278463 35.1131689,-3.54878516 22.3696574,2.02371643 C19.1809811,3.41788438 16.5127034,5.61053831 14.3038076,8.36046436 C11.9204213,9.35758416 9.68782111,10.6523255 7.73045496,12.2462247 C6.35999138,13.3548428 5.12670585,14.635976 4.10522322,16.0356311 C3.08593545,17.4396759 2.27493882,18.9582917 1.66499034,20.514659 C1.05350547,22.0719042 0.640434927,23.6653644 0.382540195,25.2438997 C0.124425978,26.8235324 0.0192927208,28.388679 0.0221816932,29.9173912 C0.0260967521,31.4465424 0.137375586,32.939698 0.321742884,34.3893956 C0.504573788,35.8401907 0.766858218,37.2468692 1.08269696,38.6076755 C1.39787724,39.9687012 1.75914935,41.2864884 2.16014823,42.5586228 C2.56509783,43.8294402 3.00297016,45.0563607 3.46213253,46.2409206 C4.2564483,48.2625958 5.11858491,50.154336 6.01737549,51.9214087 C7.18196225,60.024132 9.61604956,66.0634779 12.5689991,66.9690725 C13.5509745,67.2699863 15.2004033,67.4256011 17.3542084,67.4416235 C18.9323047,68.9457534 21.7601479,71.0378832 26.4623919,70.3219236 C27.1660605,70.2499325 28.0086629,70.1134129 28.9691287,69.8825148 C30.0331914,69.6283513 31.2383829,69.26247 32.5680223,68.7896996 C33.8991981,68.319124 35.351749,67.7359527 36.9208464,67.0579639 C38.4833593,66.3856817 40.1575899,65.6181431 41.9413435,64.7661028 C48.9870276,63.4702641 52.3349424,61.7214086 58.8821763,59.5555318 C71.9033362,55.2531892 81.7584268,49.3073438 79.7784537,42.0143003 C79.2718826,40.1493373 78.4810786,38.1537808 77.4455489,36.0833799 Z" id="Fill-1" fill="url(#linearGradient-3)" opacity="0.730259487" mask="url(#mask-2)"></path>
                </g>
                <path d="M27.3015265,1.21028979 C28.1390808,2.66086535 26.8302925,4.98455176 24.3779879,6.40044872 C21.9256834,7.81634567 19.2587226,7.78803212 18.4211683,6.33745656 C17.5838335,4.88666151 18.8924024,2.5629751 21.3449264,1.14707814 C23.7970115,-0.268599324 26.4641917,-0.240285774 27.3015265,1.21028979" id="Fill-4" fill="url(#linearGradient-4)" opacity="0.598818824"></path>
                <g id="Group-10" transform="translate(53.993280, 67.785365)">
                    <mask id="mask-6" fill="white">
                        <use xlink:href="#path-5"></use>
                    </mask>
                    <g id="Clip-9"></g>
                    <path d="M7.99585608,1.47208508 C8.38785607,2.74290253 6.96427715,4.31046353 4.81595916,4.97308838 C2.66786065,5.63571323 0.608434032,5.14275019 0.216434039,3.87215223 C-0.17534647,2.60133478 1.24823245,1.03377378 3.39633096,0.370929445 C5.54464895,-0.291475919 7.60385609,0.201487119 7.99585608,1.47208508" id="Fill-8" fill="url(#linearGradient-7)" opacity="0.598818824" mask="url(#mask-6)"></path>
                </g>
                <g id="Group-16" transform="translate(11.760622, 33.333930) scale(-1, 1) translate(-11.760622, -33.333930) translate(0.260622, 24.833930)">
                    <g id="Fill-13">
                        <use fill="black" fill-opacity="1" filter="url(#filter-9)" xlink:href="#path-8"></use>
                        <use fill="#FFFFFF" fill-rule="evenodd" xlink:href="#path-8"></use>
                    </g>
                    <path d="M20.4022388,14.8989629 L2.27300735,14.8983043 C1.80550456,14.8983043 1.42645418,14.519254 1.42645418,14.0517512 L1.42667366,3.63477933 C1.42667366,3.16705706 1.80572405,2.78778719 2.27344632,2.78800658 L20.4024583,2.78822616 C20.8701806,2.78844564 21.249231,3.16749603 21.249231,3.6352183 L21.248792,14.0524096 C21.248792,14.5199124 20.8697416,14.8991823 20.4022388,14.8989629" id="Fill-15" fill="#DADAFF"></path>
                    <path d="M2.48485416,1.4594647 C2.55486983,1.75094062 2.2985115,2.00685999 2.00703558,1.93574689 C1.8702965,1.90260467 1.75813972,1.79022841 1.72565596,1.65326985 C1.65607926,1.3622329 1.91177914,1.1067525 2.20281609,1.17720715 C2.33977465,1.21034936 2.45193143,1.32250614 2.48485416,1.4594647" id="Fill-17" fill="#C3C3F3"></path>
                    <path d="M4.04012401,1.45915742 C4.11035917,1.75063334 3.85465928,2.00655271 3.56318337,1.93609806 C3.42644429,1.90317533 3.31406803,1.79079907 3.2811453,1.65405999 C3.21112962,1.36280356 3.4668295,1.10710368 3.75808594,1.17711935 C3.89482502,1.21004208 4.00720128,1.32219886 4.04012401,1.45915742" id="Fill-19" fill="#C3C3F3"></path>
                    <path d="M5.59559139,1.45924522 C5.66604604,1.75050165 5.41012667,2.00642102 5.11908972,1.93618586 C4.98213116,1.90304364 4.8697549,1.79088687 4.83683217,1.65414779 C4.76659701,1.36311084 5.02229689,1.10719147 5.31333384,1.17720715 C5.4502924,1.21012988 5.56266866,1.32228665 5.59559139,1.45924522" id="Fill-21" fill="#C3C3F3"></path>
                    <polygon id="Fill-23" fill="url(#linearGradient-10)" opacity="0.494210379" points="6.51617682 13.581834 4.22124293 13.581834 4.22146241 9.37189458 6.51639631 9.37189458"></polygon>
                    <polygon id="Fill-25" fill="url(#linearGradient-11)" points="10.4448464 13.5820535 8.14991252 13.5820535 8.150132 7.52273447 10.4452854 7.52273447"></polygon>
                    <polygon id="Fill-27" fill="url(#linearGradient-12)" points="14.3736916 13.5820535 12.0787577 13.5820535 12.0787577 9.40262246 14.3739111 9.40262246"></polygon>
                    <polygon id="Fill-29" fill="url(#linearGradient-13)" points="18.3023612 13.5822511 16.0074273 13.5820316 16.0076468 4.10511348 18.3028001 4.10511348"></polygon>
                    <path d="M3.50427381,4.17216611 C3.50449311,4.40635648 3.31463869,4.59621109 3.08022884,4.59621109 C2.84581899,4.59643038 2.65618405,4.40635648 2.65618405,4.17216611 C2.65618405,3.93797574 2.84603847,3.74812132 3.08022884,3.74790184 C3.31463869,3.74790184 3.50449311,3.93797574 3.50427381,4.17216611" id="Fill-31" fill="#EBEBEB"></path>
                    <path d="M8.63730064,4.33827227 L4.22367921,4.33827227 C4.13193453,4.33827227 4.05774864,4.26386689 4.05774864,4.1723417 L4.05774864,4.17212221 C4.05774864,4.08059702 4.13215402,4.00619165 4.22367921,4.00619165 L8.63730064,4.00641113 C8.72904532,4.00641113 8.80323121,4.08059702 8.80323121,4.1723417 C8.80323121,4.26408638 8.72882583,4.33827227 8.63730064,4.33827227" id="Fill-33" fill="#EBEBEB"></path>
                    <path d="M3.50427381,5.3807157 C3.50449311,5.61490606 3.3144192,5.80497997 3.08000935,5.80476067 C2.84603847,5.80497997 2.65618405,5.61490606 2.65618405,5.3807157 C2.65618405,5.14652533 2.84581899,4.95645143 3.08022884,4.95645143 C3.31463869,4.95645143 3.50427381,5.14652533 3.50427381,5.3807157" id="Fill-35" fill="#EBEBEB"></path>
                    <path d="M8.63730064,5.5468438 L4.22345973,5.5468438 C4.13193453,5.5468438 4.05774864,5.47243843 4.05774864,5.38091323 L4.05774864,5.38069375 C4.05774864,5.28894907 4.13193453,5.21476318 4.22367921,5.21476318 L8.63730064,5.21498267 C8.72882583,5.21498267 8.80323121,5.28938804 8.80323121,5.38091323 C8.80323121,5.47265791 8.72882583,5.5468438 8.63730064,5.5468438" id="Fill-37" fill="#EBEBEB"></path>
                </g>
                <path d="M51.0669761,33.933027 C51.0669761,33.933027 53.0493635,43.860328 60.7159703,46.7599428 C60.7159703,46.7599428 61.9935918,45.7279249 62.8783353,45.9245833 C63.7630789,46.1210223 65.3846332,48.0377837 65.3846332,48.0377837 L60.3720375,48.0377837 C60.3720375,48.0377837 52.1646199,47.2515889 47.9382191,39.2408298 L47.6923961,36.2428858 L51.0669761,33.933027 Z" id="Fill-39" fill="url(#linearGradient-14)"></path>
                <path d="M46.7422241,25.4800936 C46.7422241,25.4800936 51.722336,31.8199144 52.3120918,33.4906332 C52.3120918,33.4906332 49.1668735,36.0954798 48.1838007,36.9802233 C48.1838007,36.9802233 44.4538747,29.6726938 45.087747,27.6424587 C45.6775029,25.7533523 46.7422241,25.4800936 46.7422241,25.4800936" id="Fill-41" fill="url(#linearGradient-15)"></path>
                <path d="M39.2066497,23.8418804 C39.2066497,23.8418804 31.6708559,24.8903597 30.3603117,29.8702521 C29.049987,34.850364 39.2560338,49.8561062 39.2560338,49.8561062 L51.0669541,49.8561062 C51.0669541,49.8561062 48.1838007,26.3975624 46.7422241,25.4801156 C45.3008669,24.5626688 43.4003473,22.9900596 39.2066497,23.8418804" id="Fill-43" fill="url(#linearGradient-16)"></path>
                <path d="M38.748058,12.5050694 L47.4958473,14.4714345 C47.4958473,14.4714345 47.3759971,22.747337 43.1489572,22.935752 L42.9867939,25.5643539 C41.9231702,26.2208331 38.0933785,24.9550639 38.0933785,24.9550639 L38.6161915,19.8972543 C38.6171308,19.8973172 38.6168635,19.8966541 38.6165962,19.8959909 C36.7822637,19.6872073 36.9459994,16.9941278 37.6340845,16.6010304 C37.8057862,16.5029386 37.961156,16.4884882 38.0976531,16.5220441 C38.1483305,14.3664091 38.748058,12.5050694 38.748058,12.5050694 Z" id="Combined-Shape" fill="url(#linearGradient-17)"></path>
                <path d="M37.6340406,16.6011182 C37.6340406,16.6011182 38.6495971,16.437163 38.9935299,17.3710711 L39.5341212,13.8817005 C39.5341212,13.8817005 42.9857404,14.8645538 44.8722129,13.8817005 C44.8722129,13.8817005 46.3041322,15.769929 47.3914603,15.9562716 C48.4787884,16.1423948 50.0884905,11.6701709 47.3914603,10.7854274 C47.3914603,10.7854274 41.3802085,3.41380823 37.9507572,10.7854274 C37.9507572,10.7854274 35.7008178,10.9329212 35.4060496,13.6358775 C35.1112814,16.3390532 37.1665378,18.2013824 37.1665378,18.2013824 C37.1665378,18.2013824 37.1096912,16.8631831 37.6340406,16.6011182" id="Fill-51" fill="url(#linearGradient-18)"></path>
                <path d="M38.6988934,42.0912799 C38.6988934,42.0912799 45.3826469,48.9225273 51.9680712,48.9225273 L58.8487027,48.9225273 L65.0410296,48.9225273 C65.0410296,48.9225273 61.9937015,44.9415105 60.5194216,45.5069036 C59.0451417,46.0720772 58.0622884,46.9074366 58.0622884,46.9074366 C58.0622884,46.9074366 48.6593367,45.1254389 42.7944812,38.1532822 C42.7944812,38.1532822 39.9508352,38.1603057 38.6988934,42.0912799" id="Fill-53" fill="url(#linearGradient-19)"></path>
                <path d="M30.3603995,29.870318 C30.3603995,29.870318 30.4916514,39.1751599 38.4859492,43.3688575 C38.4859492,43.3688575 41.6643097,38.6385194 42.7944373,38.1532383 C42.7944373,38.1532383 38.866097,29.2278857 36.2579582,27.5112945 C34.9313916,26.6384031 32.1950736,26.9215386 30.3603995,29.870318" id="Fill-55" fill="url(#linearGradient-20)"></path>
                <path d="M51.5912596,48.9225273 C51.5912596,48.9225273 51.2637882,49.2664601 51.2964914,49.8562159 L72.494341,49.8562159 C72.494341,49.8562159 72.2651988,48.9716919 71.9704306,48.9225273 L51.5912596,48.9225273 Z" id="Fill-57" fill="#ADD3FF"></path>
                <polygon id="Fill-59" fill="url(#linearGradient-21)" points="65.0409198 49.856194 70.5614035 32.7534933 78.9487987 32.7534933 73.3791504 49.856194"></polygon>
                <path d="M74.6262415,40.6802775 C74.4622863,41.3525597 73.9875405,41.8143558 73.5654711,41.7114174 C73.1434017,41.608479 72.9344521,40.9800938 73.0986268,40.3078116 C73.2623625,39.6350905 73.7373277,39.1735138 74.1593972,39.2764522 C74.5812471,39.3793906 74.7904162,40.0079953 74.6262415,40.6802775" id="Fill-61" fill="#FFFFFF"></path>
                <path d="M82.3618105,52.0186688 L20.1295069,52.0186688 C20.1295069,50.8244515 21.0976547,49.8560843 22.291872,49.8560843 L80.1994454,49.8560843 C81.3938822,49.8560843 82.3618105,50.8244515 82.3618105,52.0186688" id="Fill-63" fill="#7384E6"></path>
            </g>
        </g>
    </g>
</svg>