<?xml version="1.0" encoding="UTF-8"?>
<svg width="151px" height="119px" viewBox="0 0 151 119" version="1.1" xmlns="http://www.w3.org/2000/svg" xmlns:xlink="http://www.w3.org/1999/xlink">
    <!-- Generator: Sketch 61 (89581) - https://sketch.com -->
    <title>Group 20</title>
    <desc>Created with Sketch.</desc>
    <defs>
        <linearGradient x1="50%" y1="0%" x2="50%" y2="100%" id="linearGradient-1">
            <stop stop-color="#A293A7" offset="0%"></stop>
            <stop stop-color="#695A6E" offset="100%"></stop>
        </linearGradient>
        <linearGradient x1="50%" y1="0%" x2="50%" y2="100%" id="linearGradient-2">
            <stop stop-color="#C1E3FF" offset="0%"></stop>
            <stop stop-color="#BBC6F8" offset="100%"></stop>
        </linearGradient>
        <linearGradient x1="50%" y1="0%" x2="53.5120298%" y2="182.137124%" id="linearGradient-3">
            <stop stop-color="#F7EFE6" offset="0%"></stop>
            <stop stop-color="#E4EBC8" offset="100%"></stop>
        </linearGradient>
        <linearGradient x1="50%" y1="0%" x2="53.5123555%" y2="182.137124%" id="linearGradient-4">
            <stop stop-color="#E6F7E6" offset="0%"></stop>
            <stop stop-color="#C8E6EB" offset="100%"></stop>
        </linearGradient>
        <linearGradient x1="50%" y1="0%" x2="53.5120298%" y2="182.137124%" id="linearGradient-5">
            <stop stop-color="#E6F4F7" offset="0%"></stop>
            <stop stop-color="#C8E6EB" offset="100%"></stop>
        </linearGradient>
        <linearGradient x1="50%" y1="0%" x2="50%" y2="134.290514%" id="linearGradient-6">
            <stop stop-color="#FFD588" offset="0%"></stop>
            <stop stop-color="#FFAA50" offset="100%"></stop>
        </linearGradient>
        <linearGradient x1="50%" y1="0%" x2="50%" y2="100%" id="linearGradient-7">
            <stop stop-color="#C1E3FF" offset="0%"></stop>
            <stop stop-color="#6F88FC" offset="100%"></stop>
        </linearGradient>
        <linearGradient x1="50%" y1="0%" x2="50%" y2="274.140449%" id="linearGradient-8">
            <stop stop-color="#FFB8C4" offset="0%"></stop>
            <stop stop-color="#FF8291" offset="100%"></stop>
        </linearGradient>
        <linearGradient x1="50%" y1="0%" x2="56.1520141%" y2="182.137124%" id="linearGradient-9">
            <stop stop-color="#E6F7E6" offset="0%"></stop>
            <stop stop-color="#C8E6EB" offset="100%"></stop>
        </linearGradient>
        <rect id="path-10" x="0" y="0" width="22.6068376" height="16.7094017" rx="1.47435897"></rect>
        <filter x="-141.6%" y="-113.7%" width="383.1%" height="483.0%" filterUnits="objectBoundingBox" id="filter-11">
            <feOffset dx="0" dy="13" in="SourceAlpha" result="shadowOffsetOuter1"></feOffset>
            <feGaussianBlur stdDeviation="8.5" in="shadowOffsetOuter1" result="shadowBlurOuter1"></feGaussianBlur>
            <feColorMatrix values="0 0 0 0 0   0 0 0 0 0   0 0 0 0 0  0 0 0 0.101398601 0" type="matrix" in="shadowBlurOuter1"></feColorMatrix>
        </filter>
        <rect id="path-12" x="0" y="0" width="25.0641026" height="18.6752137" rx="1.47435897"></rect>
        <filter x="-127.7%" y="-101.7%" width="355.3%" height="442.7%" filterUnits="objectBoundingBox" id="filter-13">
            <feOffset dx="0" dy="13" in="SourceAlpha" result="shadowOffsetOuter1"></feOffset>
            <feGaussianBlur stdDeviation="8.5" in="shadowOffsetOuter1" result="shadowBlurOuter1"></feGaussianBlur>
            <feColorMatrix values="0 0 0 0 0   0 0 0 0 0   0 0 0 0 0  0 0 0 0.101398601 0" type="matrix" in="shadowBlurOuter1"></feColorMatrix>
        </filter>
        <linearGradient x1="50%" y1="0%" x2="50%" y2="100%" id="linearGradient-14">
            <stop stop-color="#72242F" offset="0%"></stop>
            <stop stop-color="#3E1015" offset="100%"></stop>
        </linearGradient>
        <linearGradient x1="50%" y1="0%" x2="50%" y2="100%" id="linearGradient-15">
            <stop stop-color="#72242F" offset="0%"></stop>
            <stop stop-color="#3E1015" offset="100%"></stop>
        </linearGradient>
        <linearGradient x1="50%" y1="0%" x2="50%" y2="100%" id="linearGradient-16">
            <stop stop-color="#2D3133" offset="0%"></stop>
            <stop stop-color="#595F62" offset="100%"></stop>
        </linearGradient>
        <linearGradient x1="50%" y1="0%" x2="50%" y2="100%" id="linearGradient-17">
            <stop stop-color="#FFAF92" offset="0%"></stop>
            <stop stop-color="#FF7759" offset="100%"></stop>
        </linearGradient>
        <linearGradient x1="50%" y1="0%" x2="50%" y2="100%" id="linearGradient-18">
            <stop stop-color="#88F3E2" offset="0%"></stop>
            <stop stop-color="#1DDCB1" offset="100%"></stop>
        </linearGradient>
        <linearGradient x1="50%" y1="0%" x2="50%" y2="100%" id="linearGradient-19">
            <stop stop-color="#FFAF92" offset="0%"></stop>
            <stop stop-color="#FF7759" offset="100%"></stop>
        </linearGradient>
        <linearGradient x1="50%" y1="-46.6821499%" x2="50%" y2="100%" id="linearGradient-20">
            <stop stop-color="#51585B" offset="0%"></stop>
            <stop stop-color="#251A60" offset="100%"></stop>
        </linearGradient>
        <linearGradient x1="50%" y1="0%" x2="50%" y2="100%" id="linearGradient-21">
            <stop stop-color="#FFAF92" offset="0%"></stop>
            <stop stop-color="#FF7759" offset="100%"></stop>
        </linearGradient>
        <linearGradient x1="50%" y1="-46.6821499%" x2="50%" y2="100%" id="linearGradient-22">
            <stop stop-color="#51585B" offset="0%"></stop>
            <stop stop-color="#251A60" offset="100%"></stop>
        </linearGradient>
        <linearGradient x1="50%" y1="0%" x2="50%" y2="100%" id="linearGradient-23">
            <stop stop-color="#A7CAFF" offset="0%"></stop>
            <stop stop-color="#6E9AFF" offset="100%"></stop>
        </linearGradient>
        <linearGradient x1="50%" y1="-46.6821499%" x2="50%" y2="100%" id="linearGradient-24">
            <stop stop-color="#51585B" offset="0%"></stop>
            <stop stop-color="#251A60" offset="100%"></stop>
        </linearGradient>
        <polygon id="path-25" points="0.102443382 0.141501443 11.3885839 0.141501443 11.3885839 22.2959457 0.102443382 22.2959457"></polygon>
        <linearGradient x1="47.5338528%" y1="-46.1906648%" x2="50%" y2="100%" id="linearGradient-27">
            <stop stop-color="#A7CAFF" offset="0%"></stop>
            <stop stop-color="#6E9AFF" offset="100%"></stop>
        </linearGradient>
        <linearGradient x1="50%" y1="-46.6821499%" x2="50%" y2="100%" id="linearGradient-28">
            <stop stop-color="#51585B" offset="0%"></stop>
            <stop stop-color="#251A60" offset="100%"></stop>
        </linearGradient>
        <polygon id="path-29" points="118.518326 30.3516599 121.708333 30.3509154 121.707589 33.5409221 118.517582 33.5416667"></polygon>
        <filter x="-250.7%" y="-282.1%" width="538.8%" height="538.8%" filterUnits="objectBoundingBox" id="filter-30">
            <feOffset dx="-1" dy="-2" in="SourceAlpha" result="shadowOffsetOuter1"></feOffset>
            <feGaussianBlur stdDeviation="2" in="shadowOffsetOuter1" result="shadowBlurOuter1"></feGaussianBlur>
            <feColorMatrix values="0 0 0 0 0.00285685045   0 0 0 0 0.363839286   0 0 0 0 0.0350029043  0 0 0 0.192538496 0" type="matrix" in="shadowBlurOuter1"></feColorMatrix>
        </filter>
        <polygon id="path-31" points="0.643326191 29.3933266 3.83333333 29.3925821 3.83258922 32.5825888 0.642582078 32.5833333"></polygon>
        <filter x="-250.7%" y="-282.1%" width="538.8%" height="538.8%" filterUnits="objectBoundingBox" id="filter-32">
            <feOffset dx="-1" dy="-2" in="SourceAlpha" result="shadowOffsetOuter1"></feOffset>
            <feGaussianBlur stdDeviation="2" in="shadowOffsetOuter1" result="shadowBlurOuter1"></feGaussianBlur>
            <feColorMatrix values="0 0 0 0 0.00285685045   0 0 0 0 0.363839286   0 0 0 0 0.0350029043  0 0 0 0.192538496 0" type="matrix" in="shadowBlurOuter1"></feColorMatrix>
        </filter>
    </defs>
    <g id="Page-1" stroke="none" stroke-width="1" fill="none" fill-rule="evenodd">
        <g id="WP-ERP-PRO-Page-Design" transform="translate(-642.000000, -2566.000000)">
            <g id="Group-20" transform="translate(654.000000, 2565.000000)">
                <g id="Group-12" transform="translate(4.833333, 11.541667)">
                    <g id="Group-9">
                        <g id="Group-2" transform="translate(13.760684, 6.032170)">
                            <polygon id="Fill-6" fill="url(#linearGradient-1)" points="18.7245705 95.7830207 37.2125416 32.6445123 55.7011395 95.7830207 57.8114181 95.7830207 37.2125416 25.438102 16.6142919 95.7830207"></polygon>
                            <path d="M74.8324729,56.2204046 L1.79376816,56.2204046 C0.802871075,56.2204046 4.45335059e-15,55.4175336 4.45335059e-15,54.4266365 L4.45335059e-15,1.79439492 C4.45335059e-15,0.803497829 0.802871075,-1.38053868e-13 1.79376816,-1.38053868e-13 L74.8324729,-1.38053868e-13 C75.8227432,-1.38053868e-13 76.6262411,0.803497829 76.6262411,1.79439492 L76.6262411,54.4266365 C76.6262411,55.4175336 75.8227432,56.2204046 74.8324729,56.2204046" id="Fill-8" fill="url(#linearGradient-2)"></path>
                            <path d="M73.8292915,53.0891448 L2.79682427,53.0891448 C1.85857446,53.0891448 1.09769586,52.3282662 1.09769586,51.3900164 L1.09769586,2.87053046 C1.09769586,1.93165391 1.85857446,1.17140206 2.79682427,1.17140206 L73.8292915,1.17140206 C74.7675413,1.17140206 75.5277931,1.93165391 75.5277931,2.87053046 L75.5277931,51.3900164 C75.5277931,52.3282662 74.7675413,53.0891448 73.8292915,53.0891448" id="Fill-10" fill="#FFFFFF"></path>
                            <polygon id="Fill-12" fill="url(#linearGradient-3)" points="10.5648683 26.0162193 24.0795514 26.0162193 24.0795514 8.12930467 10.5648683 8.12930467"></polygon>
                            <polygon id="Fill-14" fill="url(#linearGradient-4)" points="31.5554656 26.0162193 45.0707754 26.0162193 45.0707754 8.12930467 31.5554656 8.12930467"></polygon>
                            <polygon id="Fill-15" fill="url(#linearGradient-5)" points="52.546063 26.0162193 66.060746 26.0162193 66.060746 8.12930467 52.546063 8.12930467"></polygon>
                            <line x1="12.9736069" y1="22.6511804" x2="21.6716902" y2="22.6511804" id="Stroke-16" stroke="#E1DAC6" stroke-width="0.810392116"></line>
                            <line x1="12.9736069" y1="20.6261402" x2="21.6716902" y2="20.6261402" id="Stroke-17" stroke="#E1DAC6" stroke-width="0.810392116"></line>
                            <line x1="12.9736069" y1="18.6008494" x2="21.6716902" y2="18.6008494" id="Stroke-18" stroke="#E1DAC6" stroke-width="0.810392116"></line>
                            <line x1="12.9736069" y1="16.5758092" x2="21.6716902" y2="16.5758092" id="Stroke-19" stroke="#E1DAC6" stroke-width="0.810392116"></line>
                            <line x1="12.9736069" y1="13.7404396" x2="18.4307485" y2="13.7404396" id="Stroke-20" stroke="#E1DAC6" stroke-width="0.810392116"></line>
                            <line x1="33.9643296" y1="16.342657" x2="42.6617862" y2="16.342657" id="Stroke-21" stroke="#BAE7D6" stroke-width="0.810392116"></line>
                            <line x1="33.9643296" y1="14.3173034" x2="42.6617862" y2="14.3173034" id="Stroke-22" stroke="#BAE7D6" stroke-width="0.810392116"></line>
                            <line x1="33.9643296" y1="11.4819338" x2="39.4214712" y2="11.4819338" id="Stroke-23" stroke="#BAE7D6" stroke-width="0.810392116"></line>
                            <line x1="55.2157817" y1="16.7475397" x2="63.9132383" y2="16.7475397" id="Stroke-24" stroke="#B9E0E7" stroke-width="0.810392116"></line>
                            <line x1="55.2157817" y1="14.7221861" x2="63.9132383" y2="14.7221861" id="Stroke-25" stroke="#B9E0E7" stroke-width="0.810392116"></line>
                            <line x1="55.2157817" y1="11.8871299" x2="60.6729233" y2="11.8871299" id="Stroke-26" stroke="#B9E0E7" stroke-width="0.810392116"></line>
                            <polygon id="Fill-27" fill="url(#linearGradient-6)" points="28.9437843 28.3132704 36.0724772 28.3132704 36.0724772 21.1839508 28.9437843 21.1839508"></polygon>
                            <polygon id="Fill-28" fill="url(#linearGradient-7)" points="39.097189 29.5805657 46.2265087 29.5805657 46.2265087 22.4512461 39.097189 22.4512461"></polygon>
                            <polygon id="Fill-29" fill="url(#linearGradient-8)" points="15.7023657 37.9803145 19.9266835 37.9803145 19.9266835 33.7559967 15.7023657 33.7559967"></polygon>
                            <polygon id="Fill-30" fill="url(#linearGradient-9)" points="15.7023657 45.4117293 19.9266835 45.4117293 19.9266835 41.1874115 15.7023657 41.1874115"></polygon>
                            <polygon id="Fill-31" fill="#E7E5FF" points="25.4233106 37.9803145 59.5644473 37.9803145 59.5644473 33.7559967 25.4233106 33.7559967"></polygon>
                            <polygon id="Fill-32" fill="#E7E5FF" points="25.4233106 45.4117293 59.5644473 45.4117293 59.5644473 41.1874115 25.4233106 41.1874115"></polygon>
                            <polyline id="Stroke-33" stroke="#FFFFFF" stroke-width="0.5" stroke-linecap="round" stroke-linejoin="round" points="19.2331809 34.9806102 17.4575886 36.7562025 16.3958683 35.695109"></polyline>
                            <polyline id="Stroke-34" stroke="#FFFFFF" stroke-width="0.5" stroke-linecap="round" stroke-linejoin="round" points="19.2858282 42.4119623 17.5102358 44.1875546 16.4485156 43.1264611"></polyline>
                        </g>
                        <g id="Group-6" transform="translate(0.000000, 14.252137)">
                            <g id="Rectangle">
                                <use fill="black" fill-opacity="1" filter="url(#filter-11)" xlink:href="#path-10"></use>
                                <use fill="#FFFFFF" fill-rule="evenodd" xlink:href="#path-10"></use>
                            </g>
                            <line x1="4.42307692" y1="6.70226558" x2="18.0356902" y2="6.70226558" id="Stroke-19" stroke="#E1DAC6" stroke-width="0.810392116"></line>
                            <line x1="5.8974359" y1="4.24500062" x2="16.2691075" y2="4.24500062" id="Stroke-20" stroke="#E1DAC6" stroke-width="0.810392116"></line>
                            <line x1="4.42307692" y1="13.0911545" x2="18.0356902" y2="13.0911545" id="Stroke-19-Copy" stroke="#E1DAC6" stroke-width="0.810392116"></line>
                            <line x1="5.8974359" y1="10.1424365" x2="16.2691075" y2="10.1424365" id="Stroke-20-Copy" stroke="#E1DAC6" stroke-width="0.810392116"></line>
                        </g>
                        <g id="Group-6-Copy" transform="translate(70.769231, 0.000000)">
                            <g id="Rectangle">
                                <use fill="black" fill-opacity="1" filter="url(#filter-13)" xlink:href="#path-12"></use>
                                <use fill="#FFFFFF" fill-rule="evenodd" xlink:href="#path-12"></use>
                            </g>
                            <line x1="4.91452991" y1="7.61752137" x2="20.1495726" y2="7.61752137" id="Stroke-19" stroke="#C6E1D5" stroke-width="0.810392116"></line>
                            <line x1="6.88034188" y1="4.66880342" x2="18.1837607" y2="4.66880342" id="Stroke-20" stroke="#C6E1D5" stroke-width="0.810392116"></line>
                            <line x1="4.91452991" y1="14.4978632" x2="20.1495726" y2="14.4978632" id="Stroke-19-Copy" stroke="#C6E1D5" stroke-width="0.810392116"></line>
                            <line x1="6.88034188" y1="11.5491453" x2="18.1837607" y2="11.5491453" id="Stroke-20-Copy" stroke="#C6E1D5" stroke-width="0.810392116"></line>
                        </g>
                    </g>
                    <g id="Group-48" transform="translate(68.041667, 4.791667)">
                        <path d="M33.2953752,98.3998185 C33.2953752,98.3998185 34.3957201,100.046199 35.9393982,100.40195 C37.4827909,100.7577 39.0033609,101.323136 39.0147952,102.297099 C39.026469,103.271348 34.5520564,103.852189 32.7858559,102.870237 C30.149821,101.404727 29.8813676,101.846349 29.5895209,101.114022 C29.2968183,100.381409 29.9404216,98.422356 29.9215928,98.189278 C29.8979142,97.9014253 33.2953752,98.3998185 33.2953752,98.3998185" id="Fill-1" fill="url(#linearGradient-14)"></path>
                        <path d="M33.1243182,97.5876972 C33.1243182,97.5876972 33.325159,98.382787 33.2954893,98.3999041 C33.2655344,98.4167359 29.8170073,98.8275465 29.9214217,98.1890783 C30.0058661,97.6718563 30.1265417,97.109274 30.1265417,97.109274 L33.1243182,97.5876972 Z" id="Fill-3" fill="#81807E"></path>
                        <path d="M21.6900602,98.2906113 C21.6900602,98.2906113 22.4748797,99.8656707 23.8160052,100.401722 C25.2495632,100.975145 26.3989772,101.634153 26.3730162,102.583297 C26.34677,103.532441 22.8685732,104.494137 20.338379,102.672592 C18.7393557,101.521751 18.2326892,101.516331 17.9762178,100.791706 C17.7197465,100.066797 18.421548,98.1836294 18.4121336,97.9559718 C18.4004369,97.6746806 21.6900602,98.2906113 21.6900602,98.2906113" id="Fill-5" fill="url(#linearGradient-15)"></path>
                        <path d="M21.7290587,97.472927 C21.7290587,97.472927 21.7196442,98.2754341 21.6899746,98.2905543 C21.6603049,98.3059597 18.3273183,98.5806893 18.412048,97.9559148 C18.4793753,97.4598039 18.7355614,96.860705 18.7355614,96.860705 L21.7290587,97.472927 Z" id="Fill-7" fill="#81807E"></path>
                        <path d="M33.9495056,49.3661449 C33.9495056,49.3661449 37.0459908,63.0244576 37.7532127,67.1847712 C38.3548792,70.7257307 38.8350141,74.4127563 38.5465908,76.9691966 C38.1894138,80.1341503 33.7092955,96.5357652 33.8964425,97.4637978 C34.0841602,98.3915452 29.2086367,97.6121461 29.2086367,97.6121461 C29.2086367,97.6121461 32.6157974,79.316523 31.935107,75.9113592 C31.4312934,73.3894384 27.0142231,56.6357816 26.3375267,57.4950605 C25.660545,58.3543394 24.8212361,73.3064204 24.31999,75.7886866 C23.818744,78.2703823 22.2799158,97.8823112 22.2799158,97.8823112 C22.2799158,97.8823112 18.8388061,98.3901188 17.9199026,97.6121461 C17.9199026,97.6121461 17.5016745,80.866192 17.8209086,76.2129057 C17.9427254,74.4395731 15.7431767,54.9494609 18.5635059,47.1029777 C20.0541209,42.9563577 33.9495056,49.3661449 33.9495056,49.3661449" id="Fill-9" fill="url(#linearGradient-16)"></path>
                        <path d="M33.513219,47.246847 C33.513219,47.246847 33.8515672,47.6519519 33.94942,49.3662305 C33.94942,49.3662305 20.0343506,47.7426726 18.5637056,47.1030633 C18.5637056,47.1030633 18.506078,45.2139049 18.8178947,45.1810971 C19.1605222,45.1451511 33.513219,47.246847 33.513219,47.246847" id="Fill-11" fill="#495055"></path>
                        <path d="M21.9973408,45.5159077 C21.9973408,45.5159077 21.6937974,47.4310271 21.6675512,47.9305614 L21.0236625,47.8021831 C21.0236625,47.8021831 21.2011099,45.7755173 21.305239,45.4360279 L21.9973408,45.5159077 Z" id="Fill-13" fill="#353A3D"></path>
                        <path d="M32.352308,47.0234116 C32.352308,47.0234116 32.5959416,48.764507 32.6019326,49.421804 L31.9209569,49.3336509 C31.9209569,49.3336509 31.7814524,47.1594927 31.7035696,46.9324057 L32.352308,47.0234116 Z" id="Fill-15" fill="#353A3D"></path>
                        <path d="M26.4808255,46.1140652 C26.4808255,46.1140652 28.5283171,46.357984 29.2055841,46.5271581 L29.1165751,48.8222773 L26.4357504,48.535851 L26.4808255,46.1140652 Z" id="Fill-17" fill="#69737A"></path>
                        <path d="M0.715466673,5.51998272 C1.50570659,5.12743033 2.63172715,5.92166424 3.24366383,7.29702403 C3.69355854,7.39459156 4.00138124,8.06387056 3.94375364,8.86751888 C3.89611101,9.53337447 3.61196699,10.097098 3.25250767,10.316197 C3.15807828,10.430311 3.04596121,10.5221729 2.9172976,10.586362 C2.11935499,10.9826231 0.980211309,10.1698457 0.371983331,8.7710925 C-0.236244648,7.37205403 -0.0824759421,5.9165291 0.715466673,5.51998272" id="Fill-19" fill="url(#linearGradient-17)"></path>
                        <path d="M49.0169559,15.5736603 C48.2267159,15.1808226 47.1006954,15.9753418 46.4887587,17.3507016 C46.0385787,17.4482691 45.7310413,18.1175481 45.7886689,18.9214817 C45.8363115,19.5873373 46.1204555,20.1507755 46.4796296,20.3695892 C46.5743443,20.4839886 46.6864613,20.5758504 46.8151249,20.6397543 C47.6127823,21.0363007 48.7522112,20.2235232 49.3604392,18.8244848 C49.9686672,17.4257316 49.8148985,15.9702067 49.0169559,15.5736603" id="Fill-21" fill="#FDCEAE"></path>
                        <path d="M24.3916251,19.7413342 L18.6716575,20.5535411 C11.4100088,21.5842764 6.29142234,17.023993 3.89046237,9.5900321 C3.21205424,10.2210829 2.40812063,10.489251 1.47152943,10.3725693 C2.62522265,19.8018147 8.04877898,25.2248005 17.5496309,27.255175 C17.7864176,34.6414933 17.3008623,45.8623295 17.1217032,53.1208401 C22.3974818,54.2853741 33.8525372,55.2949983 34.7143837,51.1238439 C34.098453,43.7495076 33.5863661,36.4484895 34.2679124,29.3032372 C36.7168002,31.7603984 41.2191708,34.7091059 42.8047857,34.4184003 C45.6065714,33.9046017 47.1071714,26.8677577 47.9892731,20.5158835 C46.9462705,20.4228805 46.2239285,19.875133 45.7885833,18.9214247 C44.6993645,22.469231 43.4326984,25.4245001 42.0502065,28.7523516 C36.9772656,25.4276382 35.0829721,22.4144563 29.3167883,19.4680311 L24.3916251,19.7413342 Z" id="Fill-23" fill="url(#linearGradient-18)"></path>
                        <path d="M24.3125155,16.9160696 L29.3167027,16.9160696 L29.3167027,19.4679455 C30.7074679,20.8287557 29.9785643,21.8740406 27.9929795,21.7701968 C26.3023796,21.6820437 24.3125155,21.0943562 24.3125155,19.0907985 L24.3125155,16.9160696 Z" id="Fill-25" fill="url(#linearGradient-19)"></path>
                        <path d="M31.1596163,7.08237547 C30.5619439,8.85171409 28.7358336,10.7311728 27.9510141,11.8286648 C27.31169,12.7227485 24.247442,15.8041136 24.312487,16.9161552 C24.312487,16.9164405 24.3758203,17.9956743 24.3758203,17.9956743 C22.4378782,15.290315 20.4280442,14.7445645 19.5550716,11.8534846 C18.9111829,9.72126328 18.7865133,7.17281087 20.2289151,5.32359241 C21.9825631,3.07583057 25.157787,3.24129597 27.7404736,3.42559019 C28.7523801,3.49776733 29.8253376,3.669509 30.5819139,4.34563485 C31.4423339,5.11504895 31.4979646,6.08102453 31.1596163,7.08237547" id="Fill-27" fill="url(#linearGradient-20)"></path>
                        <path d="M26.5504921,7.76882864 C28.2162722,7.99648621 29.8033136,7.79250731 31.3079076,7.13435443 C33.7682069,11.2701335 33.8560747,17.0822482 29.4880735,18.1971427 C27.0714228,18.8142145 23.8214542,17.8884641 23.4317546,14.9574443 C21.7117704,14.7845615 20.9529118,11.993902 21.8732418,11.2687071 C22.8403585,10.5064251 23.5047877,11.9339921 23.6582711,12.7587515 L24.0804931,12.6343672 L23.8545473,10.4117104 C25.0804176,9.85768665 25.9690809,8.96674107 26.5504921,7.76882864" id="Fill-29" fill="url(#linearGradient-21)"></path>
                        <path d="M46.4703008,16.1304228 L48.3320718,15.7042068 L49.0273117,18.7402115 C49.0820865,18.9801364 48.9308853,19.2212023 48.6909605,19.2762624 L47.701021,19.5027788 C47.4613814,19.5578388 47.2203155,19.4063524 47.1655407,19.1667129 L46.4703008,16.1304228 Z" id="Fill-31" fill="url(#linearGradient-22)"></path>
                        <path d="M44.626246,9.83201098 C48.8735715,9.16758182 52.4598914,8.01959431 54.4854161,5.3653011 L58.6582822,14.8139459 L55.8587789,18.2105511 C51.8839006,15.7257173 48.9965294,15.8829094 45.3363207,16.2315279 C43.5903755,16.3975638 42.0153161,15.2173391 41.8218927,13.4742467 C41.7539949,12.8614542 41.8661119,12.2632112 42.1154512,11.7331513 L42.1160218,11.7317249 C42.1254362,11.711755 42.1351359,11.6923556 42.1445503,11.6729562 L42.1479737,11.6655388 C42.2084542,11.543722 42.2766373,11.4258992 42.3510967,11.312641 L42.3516673,11.3114999 C42.3630787,11.2940975 42.3744901,11.2769804 42.3861868,11.2598632 L42.3930337,11.2504488 C42.4038745,11.2344729 42.4152859,11.2184969 42.426412,11.2025209 L42.4332589,11.1931065 C42.4452408,11.17656 42.4572228,11.1600134 42.4697754,11.1434669 L42.4717724,11.140614 C42.4846102,11.1234969 42.4977333,11.1063798 42.5108564,11.089548 L42.517418,11.0809894 C42.5710516,11.0128063 42.6269675,10.9469054 42.685451,10.8827163 L42.6917272,10.8761547 L42.7268173,10.8382118 L42.7436491,10.8205241 L42.7750305,10.7885721 L42.7961416,10.7671758 L42.8266671,10.7372208 L42.8472076,10.7175361 L42.8794449,10.6867253 L42.9002707,10.6676112 C42.9116821,10.657341 42.9228082,10.6470707 42.9339343,10.6370857 L42.9499103,10.6231068 C42.9624629,10.6122659 42.9753007,10.6011398 42.9878532,10.590299 C43.0052556,10.5751788 43.0232286,10.560344 43.0409163,10.5457945 L43.0748652,10.5184071 L43.0985439,10.4995783 L43.1310664,10.4744732 L43.1573126,10.4547885 L43.1909763,10.4299687 L43.2157961,10.4119957 L43.2506009,10.3871759 L43.2782735,10.3680618 L43.3082285,10.3478066 L43.3456008,10.3235573 L43.3698501,10.3075814 C43.3829732,10.2993081 43.3960963,10.2910348 43.4095047,10.2830468 L43.4343245,10.2673561 C43.4483035,10.2590829 43.4622825,10.2508096 43.4762614,10.2428216 L43.4970873,10.2305544 L43.4976578,10.2302691 L43.5150602,10.2202841 C43.5310362,10.2114403 43.5470122,10.2023111 43.5629881,10.1937526 L43.5843845,10.1823412 L43.6280331,10.1592331 L43.6557058,10.1452541 L43.695931,10.1249988 L43.7236037,10.1115904 L43.762973,10.0933322 L43.792928,10.0796385 C43.8066217,10.0736475 43.8203154,10.0676565 43.8337238,10.0619508 L43.8616817,10.0496836 C43.8773724,10.043122 43.8927778,10.0368457 43.9078979,10.0305695 L43.9307207,10.0214403 C43.9475525,10.0148788 43.9649549,10.0083172 43.9817868,10.0017557 L44.0031831,9.99376767 L44.004039,9.9931971 C44.0262912,9.98520912 44.0485435,9.97722113 44.071081,9.96951843 L44.0722222,9.96923315 L44.1001801,9.95981874 C44.1150149,9.95496889 44.1298498,9.95011904 44.1449699,9.94526919 L44.174069,9.93642535 C44.1889038,9.93186079 44.2037386,9.92729623 44.2182882,9.92301695 L44.2496695,9.91417311 L44.2913212,9.9027617 L44.3229878,9.89448843 L44.3706304,9.88279174 L44.3957355,9.87680075 C44.4134232,9.87280676 44.4308256,9.86881277 44.4485133,9.86510406 L44.4724772,9.85996893 C44.4895944,9.85626022 44.5067115,9.85312208 44.5241139,9.84969866 L44.5500748,9.84484881 C44.5754652,9.84028425 44.6005703,9.83600497 44.626246,9.83201098" id="Fill-33" fill="url(#linearGradient-23)"></path>
                        <path d="M44.626246,9.83201098 C44.8573269,9.79606505 45.0861256,9.75840741 45.3129274,9.71903805 C45.1351947,10.8496232 45.1069515,12.1907488 45.2647142,13.6134659 C45.3671315,14.5337958 45.5377321,15.4042009 45.7596839,16.191588 C45.6193236,16.2044258 45.4781075,16.2172636 45.3363207,16.2315279 C43.5903755,16.3975638 42.0153161,15.2173391 41.8218927,13.4742467 C41.6281841,11.7308691 42.8934238,10.1030319 44.626246,9.83201098" id="Fill-35" fill="url(#linearGradient-24)"></path>
                        <g id="Group-39" transform="translate(53.918897, 0.143784)">
                            <mask id="mask-26" fill="white">
                                <use xlink:href="#path-25"></use>
                            </mask>
                            <g id="Clip-38"></g>
                            <path d="M4.51806121,0.158618554 C7.55948639,-0.179159086 10.57438,4.49923239 11.2522176,10.6074731 C11.9303404,16.7157139 10.0146505,21.9412823 6.97294008,22.2787746 C3.93180019,22.616267 0.916906531,17.9381608 0.238783686,11.8299201 C-0.439053874,5.72167933 1.47663603,0.496110908 4.51806121,0.158618554" id="Fill-37" fill="#B7CDFE" mask="url(#mask-26)"></path>
                        </g>
                        <path d="M58.5949204,1.72631761 C61.0104299,1.45814955 63.4473358,5.55512985 64.0378761,10.8771247 C64.6284164,16.1988342 63.1494981,20.7303038 60.7339886,20.9987571 C58.3184791,21.2666399 55.8815732,17.1696596 55.2910329,11.8479501 C54.7004926,6.52595528 56.1796962,1.99420038 58.5949204,1.72631761" id="Fill-40" fill="url(#linearGradient-27)"></path>
                        <path d="M57.7805739,19.2078224 C56.5778116,17.5540243 55.6300943,14.9031545 55.2908902,11.8477504 C55.0891936,10.031625 55.1291335,8.30764674 55.3644938,6.81360832 C56.7441329,6.78051524 58.1597179,9.56118977 58.5551231,13.1241162 C58.8444023,15.7284845 58.5097628,18.0444295 57.7805739,19.2078224" id="Fill-42" fill="#5E94EA"></path>
                        <path d="M58.2792524,10.7557073 L55.1665059,9.98030221 C55.1799143,10.5876743 55.2204248,11.2118783 55.2908902,11.8477789 C55.3861755,12.7059167 55.5296739,13.5321026 55.7131123,14.3132133 L58.5705285,13.2659315 L58.2792524,10.7557073 Z" id="Fill-44" fill="url(#linearGradient-28)"></path>
                        <path d="M58.2792524,10.7557073 C58.6315795,10.7166232 58.9799127,11.2472536 59.0569397,11.9407819 C59.1336814,12.6343101 58.9105884,13.2282739 58.5582613,13.2676432 C58.2053635,13.3067273 57.8573156,12.7760969 57.7802886,12.0825686 C57.7032616,11.3887551 57.9269252,10.7947914 58.2792524,10.7557073" id="Fill-46" fill="#D8E4FF"></path>
                    </g>
                </g>
                <g id="Group-19" transform="translate(62.166667, 51.125000) rotate(-180.000000) translate(-62.166667, -51.125000) translate(0.666667, 0.625000)" fill-rule="nonzero">
                    <g id="Rectangle-7-Copy-3" opacity="0.488048735" transform="translate(120.112958, 31.946291) rotate(-160.000000) translate(-120.112958, -31.946291) ">
                        <use fill="black" fill-opacity="1" filter="url(#filter-30)" xlink:href="#path-29"></use>
                        <use fill="#9E3DFF" xlink:href="#path-29"></use>
                    </g>
                    <g id="Rectangle-7-Copy-6" opacity="0.488048735" transform="translate(2.237958, 30.987958) rotate(-160.000000) translate(-2.237958, -30.987958) ">
                        <use fill="black" fill-opacity="1" filter="url(#filter-32)" xlink:href="#path-31"></use>
                        <use fill="#FF3D3D" xlink:href="#path-31"></use>
                    </g>
                    <polygon id="Rectangle-7-Copy-4" fill="#DEA013" opacity="0.443289621" transform="translate(32.091187, 98.494127) rotate(-180.000000) translate(-32.091187, -98.494127) " points="33.4461441 96.3632533 34.5 100.625 29.6823733 99.8001458"></polygon>
                    <polygon id="Rectangle-7-Copy-2" fill="#3080FF" transform="translate(108.283728, 96.070658) rotate(-270.000000) translate(-108.283728, -96.070658) " points="109.690799 93.6618448 110.785188 98.4794716 105.782268 97.5470277"></polygon>
                    <polygon id="Rectangle-7-Copy" fill="#F43B9B" opacity="0.244261533" transform="translate(68.041667, 2.875000) rotate(-180.000000) translate(-68.041667, -2.875000) " points="69.6588542 0 70.9166667 5.75 65.1666667 4.63709677"></polygon>
                </g>
            </g>
        </g>
    </g>
</svg>