<?xml version="1.0" encoding="UTF-8"?>
<svg width="116px" height="120px" viewBox="0 0 116 120" version="1.1" xmlns="http://www.w3.org/2000/svg" xmlns:xlink="http://www.w3.org/1999/xlink">
    <!-- Generator: Sketch 61 (89581) - https://sketch.com -->
    <title>Group 8</title>
    <desc>Created with Sketch.</desc>
    <defs>
        <path d="M34.6225588,0.345406272 C34.0563685,0.345406272 33.5432181,0.678307199 33.312516,1.19576978 L33.312516,1.19576978 L0.490295795,74.8156023 C0.0677013542,75.7638525 0.761532431,76.8337063 1.80033856,76.8337063 L1.80033856,76.8337063 L48.0589059,76.8337063 C48.624665,76.8337063 49.1378154,76.5003742 49.3680862,75.9833428 L49.3680862,75.9833428 L82.1907377,2.36351033 C82.2748254,2.17463649 82.3144975,1.98101924 82.3162224,1.7921454 L82.3162224,1.7921454 L82.3162224,1.76713471 C82.3097541,1.01681397 81.7034604,0.345406272 80.8802637,0.345406272 L80.8802637,0.345406272 L34.6225588,0.345406272 Z" id="path-1"></path>
        <linearGradient x1="80.8393916%" y1="-9.9437105%" x2="0%" y2="108.874667%" id="linearGradient-3">
            <stop stop-color="#CEDAFF" offset="0%"></stop>
            <stop stop-color="#FFFFFF" offset="100%"></stop>
        </linearGradient>
        <path d="M59.0601172,35.2533026 L73.9880502,1.76916144 C74.3502741,0.957176408 73.7560545,0.0412676408 72.8668813,0.0412676408 L30.9800103,0.0412676408 C29.4254665,0.0412676408 28.0171058,0.955451532 27.3840766,2.37502388 L12.2284601,36.367572 C11.8670987,37.1799882 12.4613182,38.095897 13.3504914,38.095897 L54.6802277,38.095897 C56.5732783,38.095897 58.289098,36.9820588 59.0601172,35.2533026" id="path-4"></path>
        <filter x="-16.9%" y="-19.7%" width="133.9%" height="155.2%" filterUnits="objectBoundingBox" id="filter-5">
            <feOffset dx="0" dy="3" in="SourceAlpha" result="shadowOffsetOuter1"></feOffset>
            <feGaussianBlur stdDeviation="3" in="shadowOffsetOuter1" result="shadowBlurOuter1"></feGaussianBlur>
            <feColorMatrix values="0 0 0 0 0.187647097   0 0 0 0 0.2008459   0 0 0 0 0.499377264  0 0 0 0.234484266 0" type="matrix" in="shadowBlurOuter1"></feColorMatrix>
        </filter>
        <linearGradient x1="50%" y1="0%" x2="50%" y2="100%" id="linearGradient-6">
            <stop stop-color="#F85AAD" offset="0%"></stop>
            <stop stop-color="#ED2E75" offset="100%"></stop>
        </linearGradient>
        <linearGradient x1="50%" y1="0%" x2="50%" y2="100%" id="linearGradient-7">
            <stop stop-color="#614747" offset="0%"></stop>
            <stop stop-color="#322222" offset="100%"></stop>
        </linearGradient>
        <linearGradient x1="50%" y1="0%" x2="50%" y2="100%" id="linearGradient-8">
            <stop stop-color="#CFE3FF" offset="0%"></stop>
            <stop stop-color="#A1C2FF" offset="100%"></stop>
        </linearGradient>
        <linearGradient x1="50%" y1="0%" x2="50%" y2="100%" id="linearGradient-9">
            <stop stop-color="#CFE3FF" offset="0%"></stop>
            <stop stop-color="#A1C2FF" offset="100%"></stop>
        </linearGradient>
        <linearGradient x1="50%" y1="-265.516319%" x2="50%" y2="100%" id="linearGradient-10">
            <stop stop-color="#A75BFF" offset="0%"></stop>
            <stop stop-color="#E2CBFF" offset="100%"></stop>
        </linearGradient>
        <path d="M61.886196,61.8650663 L69.3186835,45.1937156 C69.498933,44.7892324 69.2035481,44.3334341 68.7602552,44.3334341 L47.9056507,44.3334341 C47.1320442,44.3334341 46.4304512,44.7888011 46.1152302,45.4955688 L38.5701946,62.4200449 C38.3895139,62.8245282 38.68533,63.2803264 39.128623,63.2803264 L59.7055225,63.2803264 C60.6481668,63.2803264 61.5024113,62.725779 61.886196,61.8650663" id="path-11"></path>
        <filter x="-19.4%" y="-15.8%" width="138.9%" height="163.3%" filterUnits="objectBoundingBox" id="filter-12">
            <feOffset dx="0" dy="3" in="SourceAlpha" result="shadowOffsetOuter1"></feOffset>
            <feGaussianBlur stdDeviation="1.5" in="shadowOffsetOuter1" result="shadowBlurOuter1"></feGaussianBlur>
            <feColorMatrix values="0 0 0 0 0.187647097   0 0 0 0 0.2008459   0 0 0 0 0.499377264  0 0 0 0.234484266 0" type="matrix" in="shadowBlurOuter1"></feColorMatrix>
        </filter>
        <path d="M0.885292231,6.90898788 C-0.614918033,10.620057 1.17852103,13.6295331 4.8904526,13.6295331 L4.8904526,13.6295331 C8.60195296,13.6295331 12.8266037,10.620057 14.3263828,6.90898788 L14.3263828,6.90898788 C15.8261618,3.19705631 14.0327227,0.188011404 10.3207912,0.188011404 L10.3207912,0.188011404 C6.60929081,0.188011404 2.38464006,3.19705631 0.885292231,6.90898788 L0.885292231,6.90898788 Z" id="path-13"></path>
        <linearGradient x1="50%" y1="0%" x2="50%" y2="100%" id="linearGradient-15">
            <stop stop-color="#78B5E4" offset="0%"></stop>
            <stop stop-color="#4361C4" offset="100%"></stop>
        </linearGradient>
        <path d="M23.6449783,17.5320634 L31.0774658,0.861143977 C31.2577153,0.456660727 30.9618991,0.000862437634 30.5190374,0.000862437634 L9.664433,0.000862437634 C8.89039522,0.000862437634 8.18923343,0.455798289 7.87401247,1.16256593 L0.328545617,18.0870421 C0.148296151,18.4915253 0.444112259,18.9473236 0.886973984,18.9473236 L21.4643047,18.9473236 C22.406949,18.9473236 23.2611935,18.3932074 23.6449783,17.5320634" id="path-16"></path>
        <filter x="-16.2%" y="-21.1%" width="132.4%" height="152.8%" filterUnits="objectBoundingBox" id="filter-17">
            <feOffset dx="0" dy="1" in="SourceAlpha" result="shadowOffsetOuter1"></feOffset>
            <feGaussianBlur stdDeviation="1.5" in="shadowOffsetOuter1" result="shadowBlurOuter1"></feGaussianBlur>
            <feColorMatrix values="0 0 0 0 0.187647097   0 0 0 0 0.2008459   0 0 0 0 0.499377264  0 0 0 0.234484266 0" type="matrix" in="shadowBlurOuter1"></feColorMatrix>
        </filter>
        <path d="M0.822334284,6.87405916 C-0.710217391,10.6674911 1.12246258,13.7425125 4.91589451,13.7425125 L4.91589451,13.7425125 C8.70889522,13.7425125 13.0266892,10.6674911 14.5592409,6.87405916 L14.5592409,6.87405916 C16.0917926,3.08062723 14.2591126,0.00603706344 10.4661119,0.00603706344 L10.4661119,0.00603706344 C6.67267997,0.00603706344 2.35488596,3.08062723 0.822334284,6.87405916 L0.822334284,6.87405916 Z" id="path-18"></path>
        <path d="M0.822334284,6.87405916 C-0.710217391,10.6674911 1.12246258,13.7425125 4.91589451,13.7425125 L4.91589451,13.7425125 C8.70889522,13.7425125 13.0266892,10.6674911 14.5592409,6.87405916 L14.5592409,6.87405916 C16.0917926,3.08062723 14.2591126,0.00603706344 10.4661119,0.00603706344 L10.4661119,0.00603706344 C6.67267997,0.00603706344 2.35488596,3.08062723 0.822334284,6.87405916 L0.822334284,6.87405916 Z" id="path-20"></path>
        <path d="M0.822334284,6.87405916 C-0.710217391,10.6674911 1.12246258,13.7425125 4.91589451,13.7425125 L4.91589451,13.7425125 C8.70889522,13.7425125 13.0266892,10.6674911 14.5592409,6.87405916 L14.5592409,6.87405916 C16.0917926,3.08062723 14.2591126,0.00603706344 10.4661119,0.00603706344 L10.4661119,0.00603706344 C6.67267997,0.00603706344 2.35488596,3.08062723 0.822334284,6.87405916" id="path-22"></path>
        <path d="M0.822334284,6.87405916 C-0.710217391,10.6674911 1.12246258,13.7425125 4.91589451,13.7425125 L4.91589451,13.7425125 C8.70889522,13.7425125 13.0266892,10.6674911 14.5592409,6.87405916 L14.5592409,6.87405916 C16.0917926,3.08062723 14.2591126,0.00603706344 10.4661119,0.00603706344 L10.4661119,0.00603706344 C6.67267997,0.00603706344 2.35488596,3.08062723 0.822334284,6.87405916" id="path-24"></path>
        <path d="M0.822334284,6.87405916 C-0.710217391,10.6674911 1.12246258,13.7425125 4.91589451,13.7425125 L4.91589451,13.7425125 C8.70889522,13.7425125 13.0266892,10.6674911 14.5592409,6.87405916 L14.5592409,6.87405916 C16.0917926,3.08062723 14.2591126,0.00603706344 10.4661119,0.00603706344 L10.4661119,0.00603706344 C6.67267997,0.00603706344 2.35488596,3.08062723 0.822334284,6.87405916" id="path-26"></path>
        <path d="M0.822334284,6.87405916 C-0.710217391,10.6674911 1.12246258,13.7425125 4.91589451,13.7425125 L4.91589451,13.7425125 C8.70889522,13.7425125 13.0266892,10.6674911 14.5592409,6.87405916 L14.5592409,6.87405916 C16.0917926,3.08062723 14.2591126,0.00603706344 10.4661119,0.00603706344 L10.4661119,0.00603706344 C6.67267997,0.00603706344 2.35488596,3.08062723 0.822334284,6.87405916" id="path-28"></path>
        <linearGradient x1="60.4178222%" y1="43.0602215%" x2="50%" y2="52.9044123%" id="linearGradient-30">
            <stop stop-color="#A6F3D5" offset="0%"></stop>
            <stop stop-color="#6DE4AB" offset="100%"></stop>
        </linearGradient>
        <linearGradient x1="50%" y1="0%" x2="50%" y2="100%" id="linearGradient-31">
            <stop stop-color="#DECFFF" offset="0%"></stop>
            <stop stop-color="#BBA1FF" offset="100%"></stop>
        </linearGradient>
        <linearGradient x1="-59.8312879%" y1="167.907478%" x2="100%" y2="50%" id="linearGradient-32">
            <stop stop-color="#C1E3FF" offset="0%"></stop>
            <stop stop-color="#6F88FC" offset="100%"></stop>
        </linearGradient>
        <polygon id="path-33" points="8.62437634e-05 0.344630078 42.111191 0.344630078 42.111191 3.88096935 8.62437634e-05 3.88096935"></polygon>
        <linearGradient x1="50%" y1="0%" x2="50%" y2="100%" id="linearGradient-35">
            <stop stop-color="#FFAF92" offset="0%"></stop>
            <stop stop-color="#FF7759" offset="100%"></stop>
        </linearGradient>
        <linearGradient x1="50%" y1="0%" x2="50%" y2="100%" id="linearGradient-36">
            <stop stop-color="#614747" offset="0%"></stop>
            <stop stop-color="#322222" offset="100%"></stop>
        </linearGradient>
        <linearGradient x1="50%" y1="0%" x2="50%" y2="100%" id="linearGradient-37">
            <stop stop-color="#614747" offset="0%"></stop>
            <stop stop-color="#322222" offset="100%"></stop>
        </linearGradient>
        <linearGradient x1="50%" y1="0%" x2="50%" y2="100%" id="linearGradient-38">
            <stop stop-color="#9C9DF4" offset="0%"></stop>
            <stop stop-color="#6364E5" offset="100%"></stop>
        </linearGradient>
        <linearGradient x1="50%" y1="0%" x2="50%" y2="100%" id="linearGradient-39">
            <stop stop-color="#614747" offset="0%"></stop>
            <stop stop-color="#322222" offset="100%"></stop>
        </linearGradient>
        <linearGradient x1="50%" y1="0%" x2="50%" y2="100%" id="linearGradient-40">
            <stop stop-color="#FFC1A1" offset="0%"></stop>
            <stop stop-color="#FF8D68" offset="100%"></stop>
        </linearGradient>
        <linearGradient x1="50%" y1="0%" x2="50%" y2="100%" id="linearGradient-41">
            <stop stop-color="#CBC6FF" offset="0%"></stop>
            <stop stop-color="#94C3FF" offset="100%"></stop>
        </linearGradient>
        <polygon id="path-42" points="102.156828 6.56622106 105.485531 6.56544416 105.484754 9.89414684 102.156051 9.89492373"></polygon>
        <filter x="-240.3%" y="-270.3%" width="520.5%" height="520.5%" filterUnits="objectBoundingBox" id="filter-43">
            <feOffset dx="-1" dy="-2" in="SourceAlpha" result="shadowOffsetOuter1"></feOffset>
            <feGaussianBlur stdDeviation="2" in="shadowOffsetOuter1" result="shadowBlurOuter1"></feGaussianBlur>
            <feColorMatrix values="0 0 0 0 0.00285685045   0 0 0 0 0.363839286   0 0 0 0 0.0350029043  0 0 0 0.192538496 0" type="matrix" in="shadowBlurOuter1"></feColorMatrix>
        </filter>
    </defs>
    <g id="Page-1" stroke="none" stroke-width="1" fill="none" fill-rule="evenodd">
        <g id="WP-ERP-PRO-Page-Design" transform="translate(-359.000000, -2567.000000)">
            <g id="Group-8" transform="translate(359.000000, 2570.000000)">
                <g id="Group-211" transform="translate(63.000000, 58.500000) scale(-1, 1) translate(-63.000000, -58.500000) translate(13.000000, 0.000000)">
                    <g id="Group-3" transform="translate(16.817534, 10.739505)">
                        <mask id="mask-2" fill="white">
                            <use xlink:href="#path-1"></use>
                        </mask>
                        <g id="Clip-2"></g>
                        <path d="M34.6225588,0.345406272 C34.0563685,0.345406272 33.5432181,0.678307199 33.312516,1.19576978 L33.312516,1.19576978 L0.490295795,74.8156023 C0.0677013542,75.7638525 0.761532431,76.8337063 1.80033856,76.8337063 L1.80033856,76.8337063 L48.0589059,76.8337063 C48.624665,76.8337063 49.1378154,76.5003742 49.3680862,75.9833428 L49.3680862,75.9833428 L82.1907377,2.36351033 C82.2748254,2.17463649 82.3144975,1.98101924 82.3162224,1.7921454 L82.3162224,1.7921454 L82.3162224,1.76713471 C82.3097541,1.01681397 81.7034604,0.345406272 80.8802637,0.345406272 L80.8802637,0.345406272 L34.6225588,0.345406272 Z" id="Fill-1" fill="url(#linearGradient-3)" mask="url(#mask-2)"></path>
                    </g>
                    <g id="Group-56" transform="translate(19.836066, 0.390253)">
                        <g id="Fill-4">
                            <use fill="black" fill-opacity="1" filter="url(#filter-5)" xlink:href="#path-4"></use>
                            <use fill="#FFFFFF" fill-rule="evenodd" xlink:href="#path-4"></use>
                        </g>
                        <polyline id="Stroke-8" stroke="#A1C2FF" stroke-width="0.5" points="34.6566682 46.3693906 36.5691237 46.3693906 31.430289 56.4081646 0.356661083 56.4081646 1.61107662 53.9584105"></polyline>
                        <path d="M41.8147281,13.2082755 C40.519778,17.7244301 35.8087124,21.3850467 31.292989,21.3850467 C26.7768343,21.3850467 24.1653731,17.7244301 25.4603232,13.2082755 C26.7552733,8.69212081 31.4663389,5.03107306 35.9824936,5.03107306 C40.498217,5.03107306 43.1096782,8.69212081 41.8147281,13.2082755" id="Fill-10" fill="#E6F4FF"></path>
                        <path d="M40.8524633,13.2082755 C39.7101646,17.1927373 35.5536465,20.4229975 31.5687534,20.4229975 C27.5838603,20.4229975 25.2798582,17.1927373 26.422588,13.2082755 C27.5653179,9.22338239 31.7214048,5.99312224 35.7062979,5.99312224 C39.691191,5.99312224 41.9951932,9.22338239 40.8524633,13.2082755" id="Fill-12" fill="#94C3FF"></path>
                        <path d="M33.7697805,14.6525135 C33.7697805,14.6525135 29.9789359,15.2795057 28.3601404,15.9172783 C27.2609636,16.5791992 27.08632,17.1057174 26.824139,17.895279 C26.824139,17.895279 26.8211205,17.9004537 26.8198268,17.9034722 C27.7012381,19.4437858 29.378248,20.4230837 31.5688396,20.4230837 C34.3984975,20.4230837 37.3087933,18.7904893 39.1707962,16.419217 C38.1574319,14.9306497 33.7697805,14.6525135 33.7697805,14.6525135" id="Fill-14" fill="url(#linearGradient-6)"></path>
                        <path d="M32.43615,13.0390221 L31.7819911,15.8009786 C31.7004907,16.1463849 31.872547,16.4353015 32.1989797,16.4887726 C32.7108364,16.5715666 33.52584,16.5650984 34.3960396,16.0088261 C34.6603767,15.8397883 34.8345891,15.55734 34.8531315,15.2886907 C34.9449811,14.0002088 35.2071622,11.3576999 35.2071622,11.3576999 L32.43615,13.0390221 Z" id="Fill-16" fill="#FF8D68"></path>
                        <path d="M31.8470189,10.1120813 C31.8470189,10.1120813 30.0665164,13.7175018 30.4132163,14.685588 C30.8138186,15.3466465 34.3937972,13.8623913 34.9802548,12.8955987 C35.5662812,11.9292373 36.9134088,10.178489 35.8638222,9.08362438 C34.815098,7.98919102 33.1941465,8.36133286 31.8470189,10.1120813" id="Fill-18" fill="#FF8D68"></path>
                        <path d="M31.8470189,10.1120813 C31.8470189,10.1120813 31.5330916,8.83869209 32.6111386,8.08837135 C33.6891857,7.33805061 35.0721044,7.48811475 35.5697309,8.2384355 C36.0673574,8.98875624 36.1100481,9.10130435 36.1100481,9.10130435 C36.1100481,9.10130435 36.6404473,9.21385246 36.8168158,9.77659301 C36.9931842,10.3393336 35.8715841,11.764943 35.4153546,12.1776194 C34.9595563,12.5902958 35.053562,12.6010763 35.053562,12.6010763 L34.9009105,12.4027156 C34.9009105,12.4027156 34.9875855,11.3147505 35.2079383,10.6769779 C35.2674465,10.3393336 34.8819369,9.85162509 34.2014736,9.73907698 C33.5210103,9.62652887 33.2709034,10.2599893 31.8470189,10.1120813" id="Fill-20" fill="url(#linearGradient-7)"></path>
                        <path d="M35.3182441,11.7525239 C35.3182441,11.7525239 35.5657637,11.2928446 36.0064694,11.4226415 C36.4441565,11.5692559 35.5700759,12.947 35.1069469,12.8512694 C34.6627915,12.7374277 35.3182441,11.7525239 35.3182441,11.7525239" id="Fill-22" fill="#FF8D68"></path>
                        <path d="M34.8857316,14.7661828 C34.8857316,14.7661828 33.9344629,15.8166319 32.9978557,16.1167602 C32.8335613,16.1667815 32.5903539,16.4919205 32.5903539,16.4919205 L32.41916,16.0417281 C32.41916,16.0417281 31.7762128,15.6665677 31.9629305,15.0162897 L31.8344273,15.1163325 L31.4903147,15.966696 C31.4903147,15.966696 31.2358956,16.7670381 31.2496946,17.0671664 L32.1112698,16.5919633 C32.1112698,16.5919633 32.6360631,16.7670381 33.0543453,16.616974 C33.0543453,16.616974 33.2324387,17.2172306 33.3932833,17.267252 C33.5541279,17.3172733 34.8559775,16.0917495 35.0530445,15.6665677 C35.274691,15.241386 35.2216511,14.8162042 35.2216511,14.8162042 L34.8857316,14.7661828 Z" id="Fill-24" fill="#FFFFFF"></path>
                        <path d="M62.3595018,16.3525075 L44.2142452,16.3525075 C43.6575417,16.3525075 43.37035,15.9010214 43.5730228,15.3443179 L46.1413621,8.28785317 C46.3436037,7.73114968 46.9593842,7.27966358 47.5160877,7.27966358 L65.6613443,7.27966358 C66.2180478,7.27966358 66.5052395,7.73114968 66.3029979,8.28785317 L63.7342274,15.3443179 C63.5319857,15.9010214 62.9162053,16.3525075 62.3595018,16.3525075" id="Fill-26" fill="url(#linearGradient-8)"></path>
                        <polygon id="Fill-28" fill="#FFFFFF" points="63.4076654 10.4721058 47.7828828 10.4721058 48.0575691 9.71617926 63.682783 9.71617926"></polygon>
                        <polygon id="Fill-30" fill="#FFFFFF" points="56.5490007 12.2361358 47.1406686 12.2361358 47.415355 11.4802092 56.8245495 11.4802092"></polygon>
                        <polygon id="Fill-32" fill="#FFFFFF" points="48.9955132 13.8323785 46.5595581 13.8323785 46.8346757 13.0764519 49.271062 13.0764519"></polygon>
                        <path d="M39.413443,31.717222 C38.9020175,31.717222 38.6381115,31.3023895 38.8243981,30.790964 L41.1848899,24.305433 C41.3711764,23.7935763 41.9369355,23.3787438 42.448361,23.3787438 L59.1257488,23.3787438 C59.6376055,23.3787438 59.9010802,23.7935763 59.7147937,24.305433 L57.3543019,30.790964 C57.1680153,31.3023895 56.6022562,31.717222 56.0903995,31.717222 L39.413443,31.717222 Z" id="Fill-34" fill="url(#linearGradient-9)"></path>
                        <path d="M45.0543457,19.598464 C44.8012202,20.2254562 44.0875531,20.7338632 43.4605609,20.7338632 C42.8335688,20.7338632 42.530422,20.2254562 42.7835474,19.598464 C43.0371041,18.9714718 43.7512024,18.4630649 44.3781946,18.4630649 C45.0051867,18.4630649 45.3079024,18.9714718 45.0543457,19.598464" id="Fill-36" fill="#94C3FF"></path>
                        <path d="M48.9984886,19.598464 C48.7449319,20.2254562 48.031696,20.7338632 47.4047038,20.7338632 C46.7777117,20.7338632 46.4741336,20.2254562 46.7276903,19.598464 C46.9808158,18.9714718 47.6949141,18.4630649 48.3219063,18.4630649 C48.9488984,18.4630649 49.2520453,18.9714718 48.9984886,19.598464" id="Fill-38" fill="#94C3FF"></path>
                        <path d="M52.9422003,19.598464 C52.6890748,20.2254562 51.9754077,20.7338632 51.3484155,20.7338632 C50.7214234,20.7338632 50.4182766,20.2254562 50.671402,19.598464 C50.9249587,18.9714718 51.639057,18.4630649 52.2660492,18.4630649 C52.8930413,18.4630649 53.1957569,18.9714718 52.9422003,19.598464" id="Fill-40" fill="#94C3FF"></path>
                        <path d="M56.8863001,19.598464 C56.6327434,20.2254562 55.9195075,20.7338632 55.2925153,20.7338632 C54.6650919,20.7338632 54.3619451,20.2254562 54.6155018,19.598464 C54.8686272,18.9714718 55.5827256,18.4630649 56.2097177,18.4630649 C56.8367099,18.4630649 57.1398567,18.9714718 56.8863001,19.598464" id="Fill-42" fill="#FF8D02"></path>
                        <path d="M60.8300549,19.598464 C60.5769294,20.2254562 59.8632623,20.7338632 59.2362701,20.7338632 C58.609278,20.7338632 58.3061311,20.2254562 58.5592566,19.598464 C58.8128133,18.9714718 59.5269116,18.4630649 60.1539038,18.4630649 C60.7808959,18.4630649 61.0836115,18.9714718 60.8300549,19.598464" id="Fill-44" fill="#A1C2FF"></path>
                        <polygon id="Fill-46" fill="url(#linearGradient-10)" points="38.5953346 27.2041721 23.4056518 27.2041721 24.5669241 24.3305299 39.7561757 24.3305299"></polygon>
                        <polygon id="Fill-48" fill="#A1C2FF" points="29.4487523 33.6699102 20.7937594 33.6699102 21.2909547 32.4383493 29.9459476 32.4383493"></polygon>
                        <polygon id="Fill-50" fill="#A1C2FF" points="28.1517324 31.2066158 21.7886675 31.2066158 22.9499398 28.3329736 29.3125734 28.3329736"></polygon>
                        <g id="Fill-52">
                            <use fill="black" fill-opacity="1" filter="url(#filter-12)" xlink:href="#path-11"></use>
                            <use fill="#FFFFFF" fill-rule="evenodd" xlink:href="#path-11"></use>
                        </g>
                        <path d="M60.8982737,53.4803182 C59.3980634,57.1918186 55.1738439,60.2012947 51.4619123,60.2012947 C47.750412,60.2012947 45.9569729,57.1918186 47.456752,53.4803182 C48.956531,49.7688179 53.1811818,46.759773 56.8926821,46.759773 C60.6041825,46.759773 62.3980527,49.7688179 60.8982737,53.4803182" id="Fill-54" fill="#A1C2FF"></path>
                    </g>
                    <g id="Group-75" transform="translate(66.407698, 46.961885)">
                        <g id="Group-59">
                            <mask id="mask-14" fill="white">
                                <use xlink:href="#path-13"></use>
                            </mask>
                            <g id="Clip-58"></g>
                            <path d="M8.16279971,7.60898539 C8.16279971,7.60898539 11.5444177,9.2890139 11.9023293,10.8293275 C12.2602409,12.3692099 10.7595994,16.4295663 10.7595994,16.4295663 L-2.68149109,16.4295663 C-2.68149109,16.4295663 -0.478394155,11.6693418 1.23440699,10.5490353 C2.94677691,9.42916001 6.25293158,8.57362188 6.25293158,8.57362188 L8.16279971,7.60898539 Z" id="Fill-57" fill="#4385FF" mask="url(#mask-14)"></path>
                        </g>
                        <g id="Group-62" transform="translate(5.000000, 5.000000)" fill="#D4E7FF">
                            <path d="M1.77651746,1.51575944 L0.721756237,3.79475089 C0.589803279,4.07935531 0.668285103,4.33981148 0.91364861,4.41398111 C1.29915823,4.52997897 1.93951818,4.59768033 2.73123592,4.20483999 C2.97185602,4.08539237 3.1637484,3.86158981 3.23144975,3.63649359 C3.55658874,2.55370314 4.28017391,0.340688168 4.28017391,0.340688168 L1.77651746,1.51575944 Z" id="Fill-60"></path>
                        </g>
                        <g id="Group-65" transform="translate(4.000000, 2.000000)" fill="#D4E7FF">
                            <path d="M2.88893621,1.98549679 C2.88893621,1.98549679 0.785019601,4.8776814 0.866519957,5.7280449 C1.05108161,6.32312687 4.15111368,5.38781326 4.80052922,4.62239986 C5.44994476,3.85655524 6.85054348,2.49605987 6.24166251,1.47536493 C5.63364398,0.454669993 4.28910371,0.624570207 2.88893621,1.98549679" id="Fill-63"></path>
                        </g>
                        <g id="Group-68" transform="translate(4.000000, 1.000000)" fill="url(#linearGradient-15)">
                            <path d="M2.97781041,2.5608325 C2.97781041,2.5608325 2.94374412,2.60611048 2.90277833,2.67467427 C2.78074341,2.88036565 2.5996315,3.29519815 3.10501996,3.32236493 L3.77901497,3.35858731 C3.77901497,3.35858731 4.86180542,2.7419444 5.28698717,3.39480969 C5.60350178,4.04724376 4.57245759,4.44612117 4.65783892,4.77255381 C4.74408268,5.09855524 4.70052958,5.02611048 4.55477762,5.2076536 C4.40902566,5.3887655 4.29216536,5.67854455 3.80531932,5.89587883 C3.31847327,6.11364433 2.93425731,6.07742195 2.46940342,6.33097862 C2.00411832,6.5849665 1.10632074,6.29475624 1.01274626,6.07742195 C0.796274412,5.89587883 0.671220955,6.29475624 0.532799715,6.54874412 C0.393947256,6.80230078 -0.0342530292,6.87517676 0.37799216,7.20117819 C0.78980613,7.52761083 1.0938154,7.67250036 1.8135196,7.23783179 C2.53279259,6.80230078 2.55435353,6.83895438 3.2800948,6.65741126 C4.00626728,6.47629936 4.54572202,6.10933215 4.82170207,5.65870848 C5.09854455,5.2076536 5.18780684,4.62723307 5.420665,4.40989879 C5.65395438,4.19213329 5.78332003,4.40989879 5.68112117,4.66345545 C5.57805987,4.91744334 6.5664134,4.44612117 6.80142766,3.68458874 C7.03644191,2.92348753 6.62290306,2.95970991 6.58107484,2.52461012 C6.53967783,2.08951033 7.03471703,1.58196579 6.50733642,1.1835196 C5.97909337,0.784642195 5.48405417,1.29218674 5.2969052,1.03819886 C5.1088938,0.784642195 4.29000927,0.747988596 3.63498788,1.29218674 C2.98082894,1.83595367 2.94374412,2.60611048 2.94374412,2.60611048" id="Fill-66"></path>
                        </g>
                        <g id="Group-71" transform="translate(8.000000, 5.000000)" fill="#94C3FF">
                            <path d="M1.2972933,0.468889522 C1.2972933,0.468889522 1.5814665,0.101491091 1.90186208,0.25112402 C2.21665182,0.414124733 1.2606397,1.50208981 0.915664647,1.37962366 C0.59009444,1.24378974 1.2972933,0.468889522 1.2972933,0.468889522" id="Fill-69"></path>
                        </g>
                        <g id="Group-74" transform="translate(4.000000, 5.000000)" fill="#4361C4">
                            <path d="M0.787995011,2.18617534 C0.787995011,2.18617534 1.0971789,1.0624191 1.88027227,0.917529579 C2.66422808,0.772640057 3.01739629,1.243531 2.96521882,1.64240841 C2.91304134,2.04128582 3.25974127,2.2586201 3.25974127,2.2586201 C3.25974127,2.2586201 1.28389665,3.20126443 0.787995011,2.18617534" id="Fill-72"></path>
                        </g>
                    </g>
                    <g id="Group-80" transform="translate(48.727726, 67.229170)">
                        <g id="Fill-76">
                            <use fill="black" fill-opacity="1" filter="url(#filter-17)" xlink:href="#path-16"></use>
                            <use fill="#FFFFFF" fill-rule="evenodd" xlink:href="#path-16"></use>
                        </g>
                        <path d="M22.7522259,9.03023949 C21.2196743,12.8236714 16.9023115,15.8986928 13.1088795,15.8986928 C9.31587883,15.8986928 7.48319886,12.8236714 9.01575053,9.03023949 C10.547871,5.23680756 14.865665,2.16178617 18.6590969,2.16178617 C22.4525289,2.16178617 24.2852088,5.23680756 22.7522259,9.03023949" id="Fill-78" fill="#A1C2FF"></path>
                    </g>
                    <g id="Group-108" transform="translate(56.920884, 69.385264)">
                        <g id="Group-83">
                            <mask id="mask-19" fill="white">
                                <use xlink:href="#path-18"></use>
                            </mask>
                            <g id="Clip-82"></g>
                            <path d="M9.59793906,4.92227655 C9.59793906,4.92227655 10.6216525,4.43499929 10.7583489,5.02620029 C10.8959077,5.61740128 10.4439904,6.03913329 10.4439904,6.03913329 C10.4439904,6.03913329 11.3685235,5.78471418 11.6156119,6.57427584 C11.8627003,7.36383749 11.119279,7.7398603 11.4271693,8.02144619 C11.7350595,8.30260086 12.3728321,8.90458232 11.4806404,9.90500998 C10.5884487,10.9050064 9.28358054,12.0529109 7.77086493,11.3138019 C6.25858054,10.5746928 6.74025196,6.97746543 6.74025196,6.97746543 L7.10980649,5.92658517 L9.59793906,4.92227655 Z" id="Fill-81" fill="#4361C4" mask="url(#mask-19)"></path>
                        </g>
                        <g id="Group-86">
                            <mask id="mask-21" fill="white">
                                <use xlink:href="#path-20"></use>
                            </mask>
                            <g id="Clip-85"></g>
                            <path d="M8.61044797,1.90456415 C8.61044797,1.90456415 6.3310253,2.09645652 5.61088988,3.69282858 C4.89118567,5.29006308 6.32196971,5.40174875 6.32196971,5.40174875 L8.61044797,1.90456415 Z" id="Fill-84" fill="#4361C4" mask="url(#mask-21)"></path>
                        </g>
                        <g id="Group-89">
                            <mask id="mask-23" fill="white">
                                <use xlink:href="#path-22"></use>
                            </mask>
                            <g id="Clip-88"></g>
                            <path d="M-6.20385887,12.7600235 L-6.05724448,13.0243607 C-6.05724448,13.0243607 -4.30132145,15.1200841 -2.73685959,16.4611746 L0.518411262,16.4611746 C2.21611974,14.9135303 4.53348967,12.2162566 4.54427014,12.1058646 C4.55893158,11.9493321 6.58566001,9.74537277 6.13891732,8.84671276 C5.69217463,7.94805274 5.11261654,8.09251105 5.11261654,8.09251105 C5.11261654,8.09251105 4.45242053,8.18263578 3.71029294,8.95063649 C2.96859658,9.71863721 -0.689432644,15.3904583 -0.689432644,15.3904583 C-0.689432644,15.3904583 -1.1581675,14.5435445 -2.02362366,13.8971475 C-2.88864861,13.2507505 -5.41817819,11.8885303 -5.41817819,11.8885303 C-5.41817819,11.8885303 -5.26293942,10.7932345 -5.27803207,10.5840934 C-5.2922623,10.374521 -5.92227299,9.41937135 -6.11330292,9.6246315 C-6.30390164,9.82946044 -5.85715895,10.7281205 -5.85715895,10.7281205 C-5.85715895,10.7281205 -6.35047327,12.4952552 -6.20385887,12.7600235" id="Fill-87" fill="#94C3FF" mask="url(#mask-23)"></path>
                        </g>
                        <g id="Group-92">
                            <mask id="mask-25" fill="white">
                                <use xlink:href="#path-24"></use>
                            </mask>
                            <g id="Clip-91"></g>
                            <path d="M1.94087277,14.872737 C1.94087277,14.872737 2.03789701,15.5695866 2.22418354,16.4613471 L8.68772238,16.4613471 C8.83088703,15.0025339 9.1327402,12.0698147 9.31342088,11.3738275 C9.55619708,10.4380827 9.34145011,8.44628297 9.41906949,7.89863507 C9.49625766,7.35184961 7.93352067,7.55236636 7.93352067,7.55236636 L5.89816785,7.58686386 L5.56957912,7.7274412 C5.11852423,7.92019601 4.70929758,8.26129009 4.44366679,8.66879187 C4.19140378,9.05473272 3.81969316,9.61661083 3.32034177,10.353995 C2.51654989,10.9637384 0.744240556,12.0232431 0.874899857,13.3591589 C1.00555916,14.6955061 1.94087277,14.872737 1.94087277,14.872737" id="Fill-90" fill="#4385FF" mask="url(#mask-25)"></path>
                        </g>
                        <g id="Group-95">
                            <mask id="mask-27" fill="white">
                                <use xlink:href="#path-26"></use>
                            </mask>
                            <g id="Clip-94"></g>
                            <path d="M6.58152031,6.34646294 C6.58152031,6.34646294 4.77471347,8.58190128 4.27708696,11.3943104 C4.86613186,11.2131985 6.6591397,9.56896115 7.71605702,8.56551497 C8.16150606,8.14292053 8.20333428,7.91221846 8.12097149,7.47841233 C8.08043692,7.26495902 8.26758589,6.67375802 8.51812402,5.99631326 C8.68414326,5.05927477 6.58152031,6.34646294 6.58152031,6.34646294" id="Fill-93" fill="#94C3FF" mask="url(#mask-27)"></path>
                        </g>
                        <g id="Group-98">
                            <mask id="mask-29" fill="white">
                                <use xlink:href="#path-28"></use>
                            </mask>
                            <g id="Clip-97"></g>
                            <path d="M12.2514009,15.4905011 C12.2514009,15.4905011 12.5325556,15.8781668 12.9969783,16.4611746 L15.8883004,16.4611746 C15.3307345,15.7224968 14.8878728,15.1261212 14.750314,14.9174113 C14.2772669,14.201588 10.9715435,6.99160941 8.95688917,7.88854455 C8.58431611,8.05456379 7.2389134,9.18435709 7.78785495,10.451278 C8.33722773,11.7186301 12.2514009,15.4905011 12.2514009,15.4905011" id="Fill-96" fill="#C8DEFA" mask="url(#mask-29)"></path>
                        </g>
                        <g id="Group-101" transform="translate(4.000000, 1.000000)" fill="#C8DEFA">
                            <path d="M2.50066679,2.39701247 C2.21778724,2.75492409 1.50153279,3.69196258 1.07721347,4.51559052 C0.706365289,5.23658838 0.959921953,5.89678439 1.65159694,5.97052281 C2.64598753,6.07660264 4.16215289,5.82994547 4.66021062,5.26073664 C5.40018211,4.41511654 6.98663614,2.91749359 6.34282644,1.75406522 C5.71755916,0.624703136 4.29238097,0.741563435 2.7576732,2.12103243 C2.66280506,2.20641376 2.57742373,2.29955702 2.50066679,2.39701247" id="Fill-99"></path>
                        </g>
                        <g id="Group-104" transform="translate(7.000000, 1.000000)" fill="#4361C4">
                            <path d="M0.171513899,1.65880898 C0.171513899,1.65880898 -0.826326443,3.29010976 2.0072124,4.33150321 L2.36383036,4.49234783 C2.36383036,4.49234783 3.60142837,3.50916892 3.61953956,2.46906914 C3.63765075,1.42853813 3.10121454,1.04949679 2.56003493,0.823538133 C2.01928653,0.597148254 0.549692801,1.26898717 0.171513899,1.65880898" id="Fill-102"></path>
                        </g>
                        <g id="Group-107" transform="translate(8.000000, 5.000000)" fill="#94C3FF">
                            <path d="M0.929636137,0.566560584 C0.929636137,0.566560584 1.64632181,0.0719526016 1.63855987,0.52818211 C1.63079793,0.985274056 0.623470777,1.47384498 0.517822167,1.28324626 C0.412604775,1.09307876 0.929636137,0.566560584 0.929636137,0.566560584" id="Fill-105"></path>
                        </g>
                    </g>
                    <g id="Group-210" transform="translate(0.000000, 2.977566)">
                        <path d="M49.7105602,67.9678043 L26.7399651,67.9678043 C26.0357847,67.9678043 25.6951219,67.3964394 25.9797263,66.6918279 L27.6123207,62.6504451 C27.8973564,61.9458336 28.6994234,61.3744686 29.4040349,61.3744686 L52.3746301,61.3744686 C53.0792416,61.3744686 53.4203357,61.9458336 53.1348689,62.6504451 L51.5022744,66.6918279 C51.21767,67.3964394 50.415603,67.9678043 49.7105602,67.9678043" id="Fill-109" fill="url(#linearGradient-30)"></path>
                        <polygon id="Fill-111" fill="#FFFFFF" points="49.5311732 64.9901091 29.7511661 64.9901091 30.1379694 64.0328033 49.9179765 64.0328033"></polygon>
                        <path d="M31.1332224,1.41482894 L30.3561661,1.41482894 C30.2190385,1.41482894 30.1526308,1.30314326 30.2078268,1.16558446 L30.5217541,0.388959373 C30.5773813,0.25140057 30.7339138,0.139714897 30.8719038,0.139714897 L31.6480976,0.139714897 C31.7860877,0.139714897 31.8524954,0.25140057 31.7968681,0.388959373 L31.4829408,1.16558446 C31.4273136,1.30314326 31.2707812,1.41482894 31.1332224,1.41482894" id="Fill-113" fill="#F9FBFC"></path>
                        <path d="M39.1006368,1.41482894 L38.3240118,1.41482894 C38.186453,1.41482894 38.1200453,1.30314326 38.1752413,1.16558446 L38.4895998,0.388959373 C38.545227,0.25140057 38.7013282,0.139714897 38.8393182,0.139714897 L39.6155121,0.139714897 C39.7535021,0.139714897 39.8199098,0.25140057 39.7642826,0.388959373 L39.4507865,1.16558446 C39.3951593,1.30314326 39.2381957,1.41482894 39.1006368,1.41482894" id="Fill-115" fill="#BFD9FF"></path>
                        <path d="M29.6525895,5.07975766 L28.8755331,5.07975766 C28.7384056,5.07975766 28.6719979,4.96850321 28.7271939,4.8309444 L29.0411212,4.0538881 C29.0967484,3.91632929 29.2532808,3.80507484 29.3908396,3.80507484 L30.1674647,3.80507484 C30.3050235,3.80507484 30.3714312,3.91632929 30.315804,4.0538881 L30.0023079,4.8309444 C29.9466807,4.96850321 29.789717,5.07975766 29.6525895,5.07975766" id="Fill-117" fill="#BFD9FF"></path>
                        <path d="M33.6363182,5.07975766 L32.8592619,5.07975766 C32.7221344,5.07975766 32.6557267,4.96850321 32.7109227,4.8309444 L33.02485,4.0538881 C33.0804772,3.91632929 33.2370096,3.80507484 33.3745684,3.80507484 L34.1511935,3.80507484 C34.2891835,3.80507484 34.35516,3.91632929 34.2995328,4.0538881 L33.9860367,4.8309444 C33.9304095,4.96850321 33.7734458,5.07975766 33.6363182,5.07975766" id="Fill-119" fill="#F9FBFC"></path>
                        <path d="M37.6200039,5.07975766 L36.8429476,5.07975766 C36.70582,5.07975766 36.6394123,4.96850321 36.6946083,4.8309444 L37.0085356,4.0538881 C37.0641629,3.91632929 37.2206953,3.80507484 37.3582541,3.80507484 L38.1348792,3.80507484 C38.2728692,3.80507484 38.3388457,3.91632929 38.2832185,4.0538881 L37.9697224,4.8309444 C37.9140952,4.96850321 37.7575627,5.07975766 37.6200039,5.07975766" id="Fill-121" fill="#F9FBFC"></path>
                        <path d="M40.8070128,5.07975766 L40.0299565,5.07975766 C39.8928289,5.07975766 39.8264212,4.96850321 39.8816172,4.8309444 L40.1955445,4.0538881 C40.2511718,3.91632929 40.4077042,3.80507484 40.545263,3.80507484 L41.3218881,3.80507484 C41.4598781,3.80507484 41.5258546,3.91632929 41.4706586,4.0538881 L41.1567313,4.8309444 C41.1011041,4.96850321 40.9445716,5.07975766 40.8070128,5.07975766" id="Fill-123" fill="#F9FBFC"></path>
                        <path d="M28.1719565,8.74494512 L27.3949002,8.74494512 C27.2573414,8.74494512 27.1909337,8.63325944 27.2465609,8.49570064 L27.5604882,7.71907555 C27.6161155,7.58151675 27.7722167,7.46983108 27.9102067,7.46983108 L28.6868318,7.46983108 C28.8243906,7.46983108 28.8907983,7.58151675 28.8351711,7.71907555 L28.521675,8.49570064 C28.4660478,8.63325944 28.3090841,8.74494512 28.1719565,8.74494512" id="Fill-125" fill="#F9FBFC"></path>
                        <path d="M24.9845595,8.74494512 L24.2079344,8.74494512 C24.0703756,8.74494512 24.0039679,8.63325944 24.0591639,8.49570064 L24.3735225,7.71907555 C24.4291497,7.58151675 24.5852509,7.46983108 24.7232409,7.46983108 L25.4994348,7.46983108 C25.6374248,7.46983108 25.7038325,7.58151675 25.6482053,7.71907555 L25.3347092,8.49570064 C25.279082,8.63325944 25.1221183,8.74494512 24.9845595,8.74494512" id="Fill-127" fill="#F9FBFC"></path>
                        <path d="M32.1556853,8.74494512 L31.378629,8.74494512 C31.2410702,8.74494512 31.1750937,8.63325944 31.2302897,8.49570064 L31.544217,7.71907555 C31.5998443,7.58151675 31.7559455,7.46983108 31.8939355,7.46983108 L32.6705606,7.46983108 C32.8081194,7.46983108 32.8745271,7.58151675 32.8188999,7.71907555 L32.5054038,8.49570064 C32.4497766,8.63325944 32.2928129,8.74494512 32.1556853,8.74494512" id="Fill-129" fill="#F9FBFC"></path>
                        <path d="M36.1394141,8.74494512 L35.3623578,8.74494512 C35.224799,8.74494512 35.1588225,8.63325944 35.2140185,8.49570064 L35.5279458,7.71907555 C35.5835731,7.58151675 35.7396743,7.46983108 35.8776643,7.46983108 L36.6542894,7.46983108 C36.7918482,7.46983108 36.8582559,7.58151675 36.8026287,7.71907555 L36.4891326,8.49570064 C36.4335053,8.63325944 36.2765417,8.74494512 36.1394141,8.74494512" id="Fill-131" fill="#BFD9FF"></path>
                        <path d="M26.6908924,12.4098738 L25.9138361,12.4098738 C25.7767085,12.4098738 25.7103008,12.2986194 25.7654968,12.1610606 L26.0794241,11.3840043 C26.1350513,11.2464455 26.2915837,11.135191 26.4295738,11.135191 L27.2057676,11.135191 C27.3437577,11.135191 27.4101654,11.2464455 27.3545381,11.3840043 L27.0406108,12.1610606 C26.9849836,12.2986194 26.8284512,12.4098738 26.6908924,12.4098738" id="Fill-133" fill="#F9FBFC"></path>
                        <path d="M31.4499095,73.3630848 L30.3550449,73.3630848 C30.1609964,73.3630848 30.067422,73.2061212 30.1459038,73.0125039 L30.5879031,71.9172081 C30.6663849,71.7231597 30.8867377,71.566196 31.0807862,71.566196 L32.1756507,71.566196 C32.3696992,71.566196 32.4632737,71.7231597 32.3847919,71.9172081 L31.9427926,73.0125039 C31.8643108,73.2061212 31.6435267,73.3630848 31.4499095,73.3630848" id="Fill-135" fill="#4385FF"></path>
                        <path d="M42.6796668,73.3630848 L41.5848022,73.3630848 C41.391185,73.3630848 41.2971793,73.2061212 41.3756611,73.0125039 L41.8180916,71.9172081 C41.8965734,71.7231597 42.1169262,71.566196 42.3109747,71.566196 L43.4058393,71.566196 C43.5994565,71.566196 43.6934622,71.7231597 43.6149804,71.9172081 L43.1725499,73.0125039 C43.0940681,73.2061212 42.873284,73.3630848 42.6796668,73.3630848" id="Fill-137" fill="#4385FF"></path>
                        <path d="M29.3624223,78.5288706 L28.2675577,78.5288706 C28.0739405,78.5288706 27.980366,78.371907 28.0588478,78.1782897 L28.5008471,77.0829939 C28.5793289,76.8889455 28.7996818,76.7319818 28.9937302,76.7319818 L30.0885948,76.7319818 C30.282212,76.7319818 30.3762177,76.8889455 30.2977359,77.0829939 L29.8553054,78.1782897 C29.7768236,78.371907 29.5564708,78.5288706 29.3624223,78.5288706" id="Fill-139" fill="#BFD9FF"></path>
                        <path d="M34.9775381,78.5288706 L33.8826736,78.5288706 C33.6890563,78.5288706 33.5950506,78.371907 33.6735324,78.1782897 L34.1159629,77.0829939 C34.1944448,76.8889455 34.4147976,76.7319818 34.608846,76.7319818 L35.7037106,76.7319818 C35.8973279,76.7319818 35.9913336,76.8889455 35.9128517,77.0829939 L35.4704212,78.1782897 C35.3919394,78.371907 35.1711554,78.5288706 34.9775381,78.5288706" id="Fill-141" fill="#FF8D02"></path>
                        <path d="M40.592654,78.5288706 L39.4977894,78.5288706 C39.3041721,78.5288706 39.2101664,78.371907 39.2886483,78.1782897 L39.7310788,77.0829939 C39.8095606,76.8889455 40.0294822,76.7319818 40.2239619,76.7319818 L41.3188264,76.7319818 C41.5124437,76.7319818 41.6064494,76.8889455 41.5279676,77.0829939 L41.0855371,78.1782897 C41.0070552,78.371907 40.7862712,78.5288706 40.592654,78.5288706" id="Fill-143" fill="#BFD9FF"></path>
                        <path d="M45.0846604,78.5288706 L43.9897958,78.5288706 C43.7961785,78.5288706 43.7021728,78.371907 43.7806547,78.1782897 L44.2230852,77.0829939 C44.301567,76.8889455 44.5219198,76.7319818 44.7159683,76.7319818 L45.8108329,76.7319818 C46.0044501,76.7319818 46.0984558,76.8889455 46.019974,77.0829939 L45.5775435,78.1782897 C45.4990617,78.371907 45.2782776,78.5288706 45.0846604,78.5288706" id="Fill-145" fill="#BFD9FF"></path>
                        <path d="M27.2754095,83.6946565 L26.1805449,83.6946565 C25.9869277,83.6946565 25.892922,83.5376928 25.9714038,83.3440756 L26.4138343,82.2487798 C26.4923161,82.0551625 26.7126689,81.8977676 26.9067174,81.8977676 L28.001582,81.8977676 C28.1951992,81.8977676 28.2892049,82.0551625 28.2107231,82.2487798 L27.7682926,83.3440756 C27.6898108,83.5376928 27.4690267,83.6946565 27.2754095,83.6946565" id="Fill-147" fill="#BFD9FF"></path>
                        <path d="M22.7834031,83.6946565 L21.6885385,83.6946565 C21.4949212,83.6946565 21.4009155,83.5376928 21.4793974,83.3440756 L21.9218279,82.2487798 C22.0003097,82.0551625 22.2206625,81.8977676 22.414711,81.8977676 L23.5095756,81.8977676 C23.7031928,81.8977676 23.7971985,82.0551625 23.7187167,82.2487798 L23.2762862,83.3440756 C23.1978043,83.5376928 22.9770203,83.6946565 22.7834031,83.6946565" id="Fill-149" fill="#BFD9FF"></path>
                        <path d="M32.8905253,83.6946565 L31.7956607,83.6946565 C31.6020435,83.6946565 31.5080378,83.5376928 31.5865196,83.3440756 L32.0289501,82.2487798 C32.1074319,82.0551625 32.3277847,81.8977676 32.5218332,81.8977676 L33.6166978,81.8977676 C33.810315,81.8977676 33.9038895,82.0551625 33.8254077,82.2487798 L33.3834084,83.3440756 C33.3049266,83.5376928 33.0841426,83.6946565 32.8905253,83.6946565" id="Fill-151" fill="#BFD9FF"></path>
                        <path d="M38.5056411,83.6946565 L37.4107766,83.6946565 C37.2167281,83.6946565 37.1231536,83.5376928 37.2016354,83.3440756 L37.6436347,82.2487798 C37.7221165,82.0551625 37.9424694,81.8977676 38.136949,81.8977676 L39.2318136,81.8977676 C39.4254309,81.8977676 39.5190053,82.0551625 39.4405235,82.2487798 L38.9985242,83.3440756 C38.9200424,83.5376928 38.6992584,83.6946565 38.5056411,83.6946565" id="Fill-153" fill="#FF8D02"></path>
                        <path d="M25.1883535,88.8604423 L24.093489,88.8604423 C23.8998717,88.8604423 23.805866,88.7034786 23.8843478,88.5098614 L24.3267783,87.4145656 C24.4052602,87.2209483 24.6251818,87.0635535 24.8196614,87.0635535 L25.914526,87.0635535 C26.1081433,87.0635535 26.2017177,87.2209483 26.1232359,87.4145656 L25.6812366,88.5098614 C25.6027548,88.7034786 25.3819708,88.8604423 25.1883535,88.8604423" id="Fill-155" fill="#FF8D02"></path>
                        <polygon id="Fill-157" fill="url(#linearGradient-31)" points="55.7236479 51.6101222 24.6504512 51.6101222 29.7892858 41.570917 60.8629138 41.570917"></polygon>
                        <path d="M54.8127844,46.5496401 C54.2504751,48.8044833 51.9667402,50.6324198 49.7123282,50.6324198 C47.457485,50.6324198 46.0853468,48.8044833 46.6472249,46.5496401 C47.2095342,44.2947969 49.4932691,42.4668603 51.7481123,42.4668603 C54.0025242,42.4668603 55.3750937,44.2947969 54.8127844,46.5496401" id="Fill-159" fill="url(#linearGradient-32)"></path>
                        <path d="M50.4465141,47.817373 C50.398483,47.817373 50.3551261,47.7901695 50.3277258,47.7360009 L49.9331615,46.958074 C49.8783609,46.8497369 49.9078565,46.6738682 49.9994057,46.5652925 C50.090955,46.4569554 50.2095821,46.4569554 50.2647051,46.5652925 L50.5595001,47.14659 L51.6124775,45.8988048 C51.7041879,45.7902291 51.8228151,45.7902291 51.877938,45.8988048 C51.933061,46.0071419 51.903243,46.1830106 51.811855,46.2915863 L50.592864,47.7360009 C50.5470894,47.7901695 50.4945453,47.817373 50.4465141,47.817373" id="Fill-161" fill="#FFFFFF"></path>
                        <g id="Group-165" transform="translate(0.000000, 109.529579)">
                            <mask id="mask-34" fill="white">
                                <use xlink:href="#path-33"></use>
                            </mask>
                            <g id="Clip-164"></g>
                            <path d="M42.111191,2.11305845 C42.111191,3.08933785 32.6843165,3.8810556 21.0556386,3.8810556 C9.4269608,3.8810556 8.62437634e-05,3.08933785 8.62437634e-05,2.11305845 C8.62437634e-05,1.13634783 9.4269608,0.344630078 21.0556386,0.344630078 C32.6843165,0.344630078 42.111191,1.13634783 42.111191,2.11305845" id="Fill-163" fill="#BFD9FF" mask="url(#mask-34)"></path>
                        </g>
                        <path d="M13.3626949,105.920537 C13.3626949,105.920537 13.8094376,104.963231 15.4687676,105.218512 C17.1276664,105.473794 17.3191276,105.792896 17.5105887,106.622561 C17.7020499,107.452226 18.2764334,108.345711 18.6589244,108.536741 C19.042278,108.728634 20.4458952,109.685508 21.5946622,109.876969 C22.7434291,110.068431 22.8710699,110.770455 22.6157883,111.089557 C22.3600756,111.408659 18.0211518,111.663509 17.063846,111.535868 C17.063846,111.535868 13.8094376,111.472479 13.043593,111.217197 C12.2777484,110.961485 13.2988746,106.239639 13.3626949,105.920537" id="Fill-166" fill="#16142A"></path>
                        <path d="M21.6767231,105.920537 C21.6767231,105.920537 22.1234658,104.963231 23.7827958,105.218512 C25.4416946,105.473794 25.6331557,105.792896 25.8246169,106.622561 C26.016078,107.452226 26.5904615,108.345711 26.9733838,108.536741 C27.3563061,108.728634 28.7603546,109.685508 29.9086903,109.876969 C31.0574572,110.068431 31.185098,110.770455 30.9298165,111.089557 C30.6745349,111.408659 26.33518,111.663509 25.3778742,111.535868 C25.3778742,111.535868 22.1234658,111.472479 21.3576212,111.217197 C20.5917766,110.961485 21.6133339,106.239639 21.6767231,105.920537" id="Fill-168" fill="#16142A"></path>
                        <path d="M21.7491247,14.4385859 C21.7491247,14.4385859 23.6374319,14.9219822 24.7064234,17.8206351 C25.2710583,19.3506797 25.3391527,21.789127 25.1727015,23.8575073 C25.3500794,24.1486784 25.5481625,24.5307728 25.5481625,24.7846033 C25.5481625,25.043923 25.2684115,25.1573628 25.0236566,25.2069871 C24.8511175,26.4255695 24.6007036,27.3504344 24.3502366,27.60499 C23.9772204,27.9843248 23.2061237,28.089219 22.1253784,27.9609533 L22.1246732,30.568067 C22.1246732,30.568067 18.9340852,31.2062708 14.9776525,30.4404262 L16.2864507,25.7499467 C14.7407834,24.2778213 14.0655412,22.1138523 13.6547163,20.5386073 C12.5689073,16.3713086 16.1924391,12.0832687 21.7491247,14.4385859 Z" id="Combined-Shape" fill="url(#linearGradient-35)"></path>
                        <path d="M18.3596155,59.9860734 C15.4881294,57.8800007 12.233721,57.6889708 10.7020317,59.9860734 C10.7020317,59.9860734 9.55326479,66.6863514 10.7020317,74.3443664 C11.0961657,76.972645 11.6261336,78.7889387 12.2367395,80.0407669 C11.6295834,81.0601682 11.8266504,82.1606386 11.8266504,82.1606386 C11.8266504,82.1606386 11.4243232,83.7462302 11.2539918,87.4245267 C11.0836604,91.1028232 13.357046,106.207125 13.357046,106.207125 C14.1815364,106.693108 17.5821279,106.61592 17.5821279,106.61592 C17.5821279,106.61592 19.140984,83.8544661 18.2962263,81.443953 C18.2065328,81.1886714 18.1207202,80.9489138 18.0353389,80.7203678 C18.7597865,78.6897584 19.0763011,75.6453535 19.3169212,73.9610128 C19.6994123,71.2809879 21.2311016,62.0921461 18.3596155,59.9860734" id="Fill-176" fill="url(#linearGradient-36)"></path>
                        <path d="M14.1670043,30.4113621 C14.1670043,30.4113621 14.5943421,28.9089957 14.9776957,28.781355 C15.360618,28.6537142 20.082464,28.1431511 22.6352794,29.6748403 C23.7840463,30.5678945 23.6559743,31.2060984 23.6559743,31.2060984 C23.6559743,31.2060984 16.0372003,29.7442666 14.1670043,30.4113621" id="Fill-178" fill="#FFFFFF"></path>
                        <path d="M28.8583706,82.4460624 C29.568588,77.0739383 29.3038197,65.9545299 28.5060649,62.2831329 C27.5487591,57.8799576 24.4853806,57.4974665 20.4655588,60.1774914 C16.4453058,62.8575164 18.7424084,68.9838421 18.7424084,68.9838421 C20.0002737,74.1550182 21.4366636,78.0709163 22.8187199,80.8169177 C22.3197997,81.6823738 22.3801703,82.5762904 22.3801703,82.5762904 C22.3801703,82.5762904 21.8057869,84.1079797 21.2309722,87.7448792 C20.6565887,91.3826411 21.5349815,106.411479 21.5349815,106.411479 C22.3008261,106.985432 26.0584669,106.76896 26.0584669,106.76896 C26.0584669,106.76896 29.4629394,85.0648542 28.8889872,82.5762904 C28.8786379,82.5314437 28.8682887,82.4900467 28.8583706,82.4460624" id="Fill-180" fill="url(#linearGradient-37)"></path>
                        <path d="M10.666758,46.1925478 C10.4114765,44.405577 9.64563186,35.5996575 9.90134462,34.3232498 C10.1393774,33.1300674 11.1587787,30.9343011 13.2704572,30.2352954 C13.4183653,30.1861365 13.5710167,30.1447395 13.7301365,30.1115356 C13.7301365,30.1115356 21.6425706,29.6009726 27.2583332,32.025716 C27.2583332,32.025716 29.1807067,33.6229505 29.536031,41.7587559 C29.536031,41.7587559 29.4308136,43.1308942 29.1229234,46.0515392 C28.8154644,48.9721842 29.2768685,51.1243974 29.7382726,54.0450424 C30.1992455,56.9652562 31.0414159,63.4977901 27.6593667,64.1127081 C23.9940068,67.4007516 11.3942242,63.1204736 10.1950046,66.538314 C9.11911368,65.7694508 10.8306212,56.8117423 10.8306212,54.0450424 C10.8306212,51.2779113 10.666758,46.1925478 10.666758,46.1925478" id="Fill-182" fill="url(#linearGradient-38)"></path>
                        <path d="M17.9768225,67.5479697 C17.9768225,67.5479697 20.6568475,76.1628592 22.6671896,80.3745734" id="Stroke-184" stroke="#2A2E59" stroke-width="0.5"></path>
                        <line x1="17.4024391" y1="83.4373482" x2="16.8280556" y2="102.96423" id="Stroke-186" stroke="#2A2E59" stroke-width="0.5"></line>
                        <path d="M24.2541611,13.7254362 C24.3580848,13.9298339 24.435273,14.1475994 24.5564455,14.3420791 C24.8388938,14.7952901 25.3546315,15.1204291 25.4641611,15.6434975 C25.6021511,16.3032623 25.1877498,16.3437969 25.8531205,16.5744989 C26.2636408,16.7168011 26.6702801,16.6965339 26.7776536,17.2334013 C26.9437738,18.0640024 25.567333,19.3200416 23.8744653,19.7753846 C23.6398413,20.0149076 23.4416136,20.2297734 23.3747334,20.4081205 C23.1703357,20.9536123 23.6390706,21.6383877 23.4342416,21.9790506 C23.2302751,22.3201447 23.1651611,23.0169943 23.1651611,23.0169943 L23.2354498,23.788876 C23.2613229,24.0708931 23.0698617,24.3270371 22.7917256,24.3826643 L22.6282937,24.4150057 C22.3932794,24.4620086 22.1586964,24.3365239 22.0702965,24.1135837 C21.8253642,23.4978033 21.3191133,22.3477427 20.9215296,22.2481311 C20.376469,22.111866 19.8309772,23.0661532 19.6265795,23.5430813 C19.511444,23.8121618 19.2220962,24.5383343 18.9913942,25.1213421 C18.7891525,25.631474 18.3126557,25.9777427 17.7658703,26.0169836 C17.1763942,26.0592431 16.4696265,26.0885659 16.2100328,26.0143963 C15.7546234,25.8843969 13.5095324,21.7684311 13.2448688,19.4967071 C12.9936169,19.4038852 12.9651738,19.1369274 12.9519159,18.8047627 C12.9212994,18.0208068 12.8902516,17.1389644 13.0946493,16.3688076 C13.3494996,15.4076208 13.9514811,14.5559636 14.6151269,13.8323785 C16.5172331,11.7573535 19.1687976,12.9100014 19.8604726,12.7370827 C20.6340791,12.7668368 21.227005,12.3231126 21.9298917,12.2743849 C22.8570121,12.2105645 23.8518339,12.9337185 24.2541611,13.7254362 Z" id="Combined-Shape" fill="url(#linearGradient-39)"></path>
                        <path d="M48.2480385,43.6376625 C48.2148346,43.6255884 48.1850805,43.6212762 48.1639508,43.6342128 C47.8754654,43.8071315 46.4343321,45.2482648 46.4343321,45.2482648 L44.7051447,45.4789669 L45.2816842,47.7269105 L47.1837904,46.9774522 C47.1837904,46.9774522 47.4718446,47.2081543 48.3368696,47.0930189 C49.0026714,47.0041878 49.6641611,46.5406276 49.9353977,46.2262691 L49.835355,46.4013439 C49.4317341,47.0352356 49.835355,47.2081543 49.835355,47.2081543 L50.9306507,46.0550752 C50.9306507,46.0550752 50.730134,44.8942341 50.4959822,44.4750895 C50.9207327,44.4181686 51.303655,44.3629726 51.5071903,44.3258877 C52.141082,44.2107523 52.2566486,43.8071315 52.2566486,43.8071315 L48.2480385,43.6376625 Z" id="Fill-192" fill="url(#linearGradient-40)"></path>
                        <path d="M26.7190941,31.9719753 C26.7190941,31.9719753 22.8579608,31.932314 22.9730962,36.6593346 C23.0886629,41.3863553 31.158923,49.1103468 33.3490834,50.0327238 C35.539675,50.9546696 44.8777185,48.4186718 45.6849601,47.9576989 C46.4922017,47.4962947 46.2614996,45.5364052 44.9932851,45.0754323 L35.4245396,44.6140282 C35.4245396,44.6140282 29.4275795,32.3574957 26.7190941,31.9719753" id="Fill-194" fill="#FFFFFF"></path>
                        <path d="M76.5033927,25.5388913 C76.1605738,25.5388913 75.9389273,25.1732177 75.7233179,24.817031 C75.4891661,24.4310902 75.1985246,23.9502812 74.69098,23.6648143 C74.12134,23.34485 73.7177192,23.6160866 72.9971525,24.1671842 C72.5374733,24.5190588 72.0161297,24.9183674 71.3050499,25.1848607 C70.2420955,25.5837381 69.9643906,25.090855 69.6694369,24.5699426 C69.4322666,24.1516604 69.1636172,23.6773197 68.4016536,23.4642976 C67.4361547,23.1934922 66.8734141,23.5445043 66.0950641,24.0304879 C65.519387,24.3901244 64.8027014,24.8377295 63.7431967,25.1175905 C61.1817569,25.7963289 60.6936172,24.4246219 60.6742124,24.3659761 C60.6461832,24.281026 60.6914612,24.1896076 60.7764113,24.1611472 C60.8604989,24.133118 60.9519173,24.1783959 60.9803778,24.2624836 C60.9980577,24.3112113 61.4128902,25.3996076 63.6608339,24.8053881 C64.6724733,24.53717 65.3374127,24.1223375 65.9238703,23.7562327 C66.7401675,23.2465321 67.3844084,22.8437737 68.489191,23.1525264 C69.3792267,23.4017708 69.6961725,23.9610617 69.9510228,24.4108229 C70.2330399,24.9084494 70.3874163,25.1831358 71.1916393,24.882145 C71.8574412,24.6320381 72.3585175,24.2486846 72.8005167,23.9106091 C73.4788239,23.3909904 74.0639879,22.9407979 74.8492373,23.3832284 C75.4313828,23.7100923 75.7466037,24.2310046 76.0001604,24.6492869 C76.3132252,25.1671807 76.4223236,25.2844722 76.637933,25.1762363 C76.7177085,25.1361329 76.8155952,25.1684743 76.8548361,25.248681 C76.8949394,25.3284565 76.862598,25.4254808 76.7828225,25.4655841 C76.6810549,25.5164679 76.5883428,25.5388913 76.5033927,25.5388913" id="Fill-198" fill="url(#linearGradient-41)"></path>
                        <polygon id="Fill-200" fill="#DDE5F9" points="61.3812819 27.70969 61.2795143 27.6751924 62.9328072 22.7881896 63.0345748 22.8226871"></polygon>
                        <polygon id="Fill-202" fill="#DDE5F9" points="64.1715695 27.70969 64.046516 27.6674305 66.0745381 21.7092801 66.1995916 21.7515396"></polygon>
                        <polygon id="Fill-204" fill="#DDE5F9" points="66.9205895 27.70969 66.795536 27.6674305 68.8235581 21.7092801 68.9486115 21.7515396"></polygon>
                        <polygon id="Fill-206" fill="#DDE5F9" points="69.4897912 27.70969 69.3647377 27.6674305 71.3927598 21.7092801 71.5178133 21.7515396"></polygon>
                        <polygon id="Fill-208" fill="#DDE5F9" points="72.4725317 27.70969 72.3474783 27.6674305 74.3755004 21.7092801 74.5005538 21.7515396"></polygon>
                    </g>
                </g>
                <g id="Group-4" transform="translate(0.000000, 4.000000)" fill-rule="nonzero">
                    <g id="Rectangle-7-Copy-3" opacity="0.488048735" transform="translate(103.820791, 8.230184) rotate(-160.000000) translate(-103.820791, -8.230184) ">
                        <use fill="black" fill-opacity="1" filter="url(#filter-43)" xlink:href="#path-42"></use>
                        <use fill="#9E3DFF" xlink:href="#path-42"></use>
                    </g>
                    <polygon id="Rectangle-7-Copy-4" fill="#DEA013" opacity="0.443289621" transform="translate(2.513544, 51.223520) rotate(-180.000000) translate(-2.513544, -51.223520) " points="3.92741311 49 5.02708878 53.4470401 2.00728323e-13 52.5863226"></polygon>
                    <polygon id="Rectangle-7-Copy-2" fill="#3080FF" transform="translate(112.991716, 88.247643) rotate(-270.000000) translate(-112.991716, -88.247643) " points="114.459964 85.7340989 115.601935 90.7611877 110.381497 89.7882028"></polygon>
                    <polygon id="Rectangle-7-Copy-5" fill="#9130FF" opacity="0.724679129" transform="translate(27.610219, 101.513544) rotate(-270.000000) translate(-27.610219, -101.513544) " points="29.0784675 99 30.2204384 104.027089 25 103.054104"></polygon>
                    <polygon id="Rectangle-7-Copy" fill="#F43B9B" opacity="0.994308036" transform="translate(10.513544, 2.320195) rotate(-180.000000) translate(-10.513544, -2.320195) " points="11.9274131 0 13.0270888 4.64038965 8 3.74224971"></polygon>
                </g>
            </g>
        </g>
    </g>
</svg>