<?xml version="1.0" encoding="UTF-8"?>
<svg width="68px" height="87px" viewBox="0 0 68 87" version="1.1" xmlns="http://www.w3.org/2000/svg" xmlns:xlink="http://www.w3.org/1999/xlink">
    <!-- Generator: Sketch 63.1 (92452) - https://sketch.com -->
    <title>Group 29</title>
    <desc>Created with Sketch.</desc>
    <defs>
        <linearGradient x1="50%" y1="0%" x2="50%" y2="100%" id="linearGradient-1">
            <stop stop-color="#E9EAF2" offset="0%"></stop>
            <stop stop-color="#CED1E0" offset="100%"></stop>
        </linearGradient>
        <linearGradient x1="20.9352403%" y1="-11.621996%" x2="83.5889908%" y2="96.1935095%" id="linearGradient-2">
            <stop stop-color="#C1E3FF" offset="0%"></stop>
            <stop stop-color="#9CA9E7" offset="100%"></stop>
        </linearGradient>
        <linearGradient x1="50%" y1="0%" x2="50%" y2="100%" id="linearGradient-3">
            <stop stop-color="#EDB294" offset="0%"></stop>
            <stop stop-color="#D67B5B" offset="100%"></stop>
        </linearGradient>
        <linearGradient x1="135.133702%" y1="50%" x2="50%" y2="85.9107949%" id="linearGradient-4">
            <stop stop-color="#475486" offset="0%"></stop>
            <stop stop-color="#222A4E" offset="100%"></stop>
        </linearGradient>
        <linearGradient x1="50%" y1="0%" x2="50%" y2="100%" id="linearGradient-5">
            <stop stop-color="#F2BEA1" offset="0%"></stop>
            <stop stop-color="#E08A68" offset="100%"></stop>
        </linearGradient>
        <linearGradient x1="50%" y1="0%" x2="50%" y2="100%" id="linearGradient-6">
            <stop stop-color="#C1E3FF" offset="0%"></stop>
            <stop stop-color="#BBC6F8" offset="100%"></stop>
        </linearGradient>
        <linearGradient x1="59.9722564%" y1="0%" x2="30.1574592%" y2="100%" id="linearGradient-7">
            <stop stop-color="#F2BEA1" offset="0%"></stop>
            <stop stop-color="#E08A68" offset="100%"></stop>
        </linearGradient>
        <linearGradient x1="50%" y1="0%" x2="50%" y2="100%" id="linearGradient-8">
            <stop stop-color="#094466" offset="0%"></stop>
            <stop stop-color="#042135" offset="100%"></stop>
        </linearGradient>
        <linearGradient x1="50%" y1="0%" x2="50%" y2="100%" id="linearGradient-9">
            <stop stop-color="#094466" offset="0%"></stop>
            <stop stop-color="#042135" offset="100%"></stop>
        </linearGradient>
        <linearGradient x1="18.0972965%" y1="-11.621996%" x2="86.86869%" y2="96.1935095%" id="linearGradient-10">
            <stop stop-color="#C1E3FF" offset="0%"></stop>
            <stop stop-color="#9CA9E7" offset="100%"></stop>
        </linearGradient>
        <linearGradient x1="50%" y1="0%" x2="50%" y2="100%" id="linearGradient-11">
            <stop stop-color="#3CC2FF" offset="0%"></stop>
            <stop stop-color="#3D69FF" offset="100%"></stop>
        </linearGradient>
        <linearGradient x1="50%" y1="0%" x2="50%" y2="100%" id="linearGradient-12">
            <stop stop-color="#3CC2FF" offset="0%"></stop>
            <stop stop-color="#3D69FF" offset="100%"></stop>
        </linearGradient>
        <linearGradient x1="50%" y1="0%" x2="50%" y2="100%" id="linearGradient-13">
            <stop stop-color="#FFFFFF" offset="0%"></stop>
            <stop stop-color="#F1F1F1" offset="100%"></stop>
        </linearGradient>
    </defs>
    <g id="Page-1" stroke="none" stroke-width="1" fill="none" fill-rule="evenodd">
        <g id="WP-ERP-PRO-Page-Design" transform="translate(-744.000000, -2916.000000)">
            <g id="Group-29" transform="translate(744.000000, 2916.000000)">
                <g id="Group-34" transform="translate(10.079999, 6.159998)">
                    <g id="Group-3" transform="translate(0.000000, 67.172668)" fill="#E3EAED">
                        <path d="M0,6.56873863 C0,10.1945338 12.8905956,13.1338504 28.7919284,13.1338504 C44.6932182,13.1338504 57.5837709,10.1945338 57.5837709,6.56873863 C57.5837709,2.94290049 44.6932182,0.00362682532 28.7919284,0.00362682532 C12.8905956,0.00362682532 0,2.94290049 0,6.56873863" id="Fill-1"></path>
                    </g>
                    <path d="M2.83810885,53.6247756 L2.83810885,48.2733841 C2.83810885,47.9575284 3.09653625,47.699101 3.41243488,47.699101 L27.9523934,47.699101 C28.2682491,47.699101 28.5267195,47.9575284 28.5267195,48.2733841 L28.5267195,53.6247756 C28.5267195,53.9407171 28.2682491,54.1991445 27.9523934,54.1991445 L28.1750032,54.1991445 C28.3684482,54.1991445 28.526698,54.3573514 28.526698,54.5507964 L28.526698,56.2849769 C28.526698,56.4783789 28.3684482,56.6366287 28.1750032,56.6366287 L3.18978214,56.6366287 C2.99638007,56.6366287 2.83808739,56.4783789 2.83808739,56.2849769 L2.83808739,54.5507964 C2.83808739,54.3573514 2.99638007,54.1991445 3.18978214,54.1991445 L3.41243488,54.1991445 C3.09653625,54.1991445 2.83810885,53.9407171 2.83810885,53.6247756 Z" id="Combined-Shape" fill="url(#linearGradient-1)"></path>
                    <polygon id="Fill-6" fill="#1A1A1A" points="4.37174091 56.3020637 1.11274864 75.8022373 3.02981554 75.8022373 9.16438669 56.1108935"></polygon>
                    <polygon id="Fill-8" fill="#1A1A1A" points="27.7598755 56.3020637 31.0189107 75.8022373 29.1018438 75.8022373 22.9672297 56.1108935"></polygon>
                    <polygon id="Fill-12" fill="#1A1A1A" points="4.37171944 68.7286403 27.1847512 68.7286403 27.1847512 67.7727465 4.37171944 67.7727465"></polygon>
                    <path d="M23.2340139,19.398086 L27.0959605,27.3797198 L29.9503793,16.4956385 C29.9503793,16.4956385 33.6444189,16.6631163 33.4765119,18.3375937 C33.4765119,18.3375937 31.1257282,31.9008044 29.7824723,32.7380216 C28.4391735,33.5752818 27.7675455,34.2450641 26.7601036,33.7427166 C25.7526616,33.2403691 19.2041603,24.8680253 19.2041603,24.8680253 L23.2340139,19.398086 Z" id="Fill-14" fill="url(#linearGradient-2)"></path>
                    <path d="M33.1406765,17.4445276 C33.1406765,18.400121 33.1312339,19.0023027 31.5455172,19.1748023 C30.0063698,19.3422371 29.9504008,18.400121 29.9504008,17.4445276 C29.9504008,16.4888913 30.6645634,15.714253 31.5455172,15.714253 C32.4264709,15.714253 33.1406765,16.4888913 33.1406765,17.4445276" id="Fill-15" fill="url(#linearGradient-3)"></path>
                    <path d="M45.1764573,64.7740143 C45.1764573,64.7740143 49.9599609,69.7030631 52.1904799,69.7972747 C52.1904799,69.7972747 54.3857608,71.0662773 53.5971302,72.3845532 C52.8085425,73.702872 51.0506696,74.0377846 49.8726596,74.0026752 C48.6946066,73.9675229 44.2080735,70.9286725 44.2080735,70.9286725 L43.8370213,70.3504407 L43.5803108,71.0482934 L42.0072128,70.3097086 L41.7770704,65.032313 L45.1764573,64.7740143 Z" id="Fill-16" fill="#FFFFFF"></path>
                    <path d="M39.163829,68.6458757 C39.163829,68.6458757 43.1560838,74.2317447 45.3475018,74.6568343 C45.3475018,74.6568343 47.3283064,76.2383877 46.3512096,77.4245527 C45.3741128,78.6107178 43.5858089,78.6802498 42.4262549,78.4701515 C41.266658,78.2600531 37.2851764,74.5875169 37.2851764,74.5875169 L37.0048164,73.9604839 L36.6465547,74.6123253 L35.2016189,73.6478473 L35.7638841,68.3953028 L39.163829,68.6458757 Z" id="Fill-17" fill="#FFFFFF"></path>
                    <path d="M11.7299471,37.675161 C11.7299471,37.675161 10.3848885,38.5362423 10.8190345,41.4040525 C11.2531806,44.2719056 11.3664062,46.8330881 15.0476553,46.67119 C16.5028063,46.6072377 30.1219002,46.9707357 33.1683906,46.3556777 C33.1683906,46.3556777 33.9141002,45.8416986 34.7305437,46.9285015 C35.54703,48.0153044 41.8756471,66.0208825 41.8756471,66.0208825 C41.8756471,66.0208825 45.0770823,67.4809265 46.0099704,65.6787163 C46.4347596,64.8581095 42.3785955,46.1110708 41.658896,43.736981 C40.9391965,41.3628054 40.3327226,41.5498981 38.9026804,40.4900496 C37.472724,39.430244 22.4740201,37.3631682 22.4740201,37.3631682 C22.4740201,37.3631682 13.0136716,38.9018005 11.7299471,37.675161" id="Fill-18" fill="#161E3A"></path>
                    <path d="M3.42068859,38.431206 C3.42068859,38.431206 1.90952568,39.2684661 2.24529674,42.2824653 C2.58111072,45.2965503 2.58111072,47.9757226 6.61096432,47.9757226 C8.20389175,47.9757226 23.0661069,48.9803747 26.4242896,48.4780272 C26.4242896,48.4780272 27.2638675,47.9757226 28.1033595,49.1478525 C28.9429374,50.3199394 34.9876748,69.4089297 34.9876748,69.4089297 C34.9876748,69.4089297 38.4149175,71.0802738 39.5212494,69.2414948 C40.0249704,68.4042347 36.4988807,48.645505 35.8272098,46.1338104 C35.1555818,43.6220729 34.483911,43.7895507 32.972748,42.6173779 C31.4615422,41.445291 15.1743496,38.5986408 15.1743496,38.5986408 C15.1743496,38.5986408 4.76394451,39.7708136 3.42068859,38.431206" id="Fill-19" fill="url(#linearGradient-4)"></path>
                    <path d="M30.5345686,15.1600097 C30.5345686,15.1600097 31.4056075,14.7653939 32.0213094,15.4351763 C32.6369255,16.1049586 32.8535478,16.5033085 32.8012271,17.085532 C32.7489064,17.6677984 30.0623087,19.0073631 30.0063397,19.3422329 C29.9504136,19.6771455 29.9504136,20.6818405 29.9504136,20.6818405 C29.9504136,20.6818405 30.9018866,20.9051156 30.8459176,21.1283477 C30.7899486,21.3516228 29.7825066,21.5190577 29.7825066,21.5190577 L28.771631,21.3552282 L27.4877349,21.1841451 L26.3370226,19.4297059 L26.424281,18.8399283 L30.5345686,15.1600097 Z" id="Fill-20" fill="url(#linearGradient-5)"></path>
                    <path d="M16.4616537,14.597929 C16.4616537,14.597929 12.207967,14.597929 8.96167935,18.9515358 C5.71543462,23.3051855 2.58112789,33.7985139 2.58112789,36.3660487 C2.58112789,38.9335406 2.69306588,40.1615107 3.70055074,40.9429306 C4.70799268,41.7243505 10.0811022,42.5057704 14.1109129,40.4963804 C18.1407665,38.4870333 17.2452196,39.2684533 17.2452196,39.2684533 C17.2452196,39.2684533 18.3646425,37.3707437 17.9168905,35.6962664 C17.4690956,34.021789 18.3646425,31.9008044 19.5959604,29.2216321 C20.8272783,26.5425026 23.2899571,22.1888529 23.513876,21.0725633 C23.7377091,19.9562308 23.066124,18.9515358 23.066124,18.9515358 C23.066124,18.9515358 22.7302671,15.8258562 16.4616537,14.597929" id="Fill-21" fill="url(#linearGradient-6)"></path>
                    <path d="M28.094359,3.09245017 C30.9180463,4.11045067 31.7939783,4.56949087 31.7392969,6.88250409 C31.7159794,7.86669572 31.3162949,11.4425408 31.2896752,11.6798369 L31.288283,11.6922324 C31.288283,11.6922324 30.6460559,15.0825201 30.2143135,16.2282535 C29.7825281,17.373944 27.0399185,18.9511194 26.3667454,19.2118217 C25.6936152,19.4725239 24.7490525,19.1687719 24.7490525,19.1687719 C24.7490525,19.1687719 23.9991475,18.5214417 23.2271398,17.7727058 C22.6425287,18.5344475 22.2018648,19.1442573 22.1019422,19.3706423 C21.788989,20.0795471 22.033398,20.6372238 22.0993901,20.7655664 L22.1146039,20.7934737 C22.1146039,20.7934737 21.962964,21.3009288 19.7721469,20.9649861 C17.5813727,20.6290434 16.7974634,15.9374765 16.7974634,15.9374765 C16.7974634,15.9374765 18.2915866,15.3367541 19.2724175,14.6010451 C19.6799637,14.2953453 20.3701507,13.2935985 21.0377515,12.2269843 C20.981433,11.6624767 20.9490839,11.2672286 20.9490839,11.2672286 C20.9490839,11.2672286 20.6397951,6.49441232 21.6074492,5.39863894 C22.5751034,4.30286556 25.2707145,2.07440674 28.094359,3.09245017 Z" id="Combined-Shape" fill="url(#linearGradient-7)"></path>
                    <polygon id="Fill-23" fill="#C5C8D5" points="19.2646789 20.7544113 21.1671956 21.2980059 21.7966751 22.7533715 22.035788 20.2038206"></polygon>
                    <polygon id="Fill-24" fill="#F6F8FF" points="18.7427336 20.7122028 19.6090513 19.0727919 18.8558305 13.7353927 15.9115351 14.7186272 16.3436209 19.9434446"></polygon>
                    <path d="M22.973449,18.0748699 L23.2420057,19.376192 C22.9885143,20.4027767 21.7966837,22.7533887 21.7966837,22.7533887 L21.7861251,20.6912917 L19.2254577,20.704683 C19.2254577,20.704683 22.1313817,20.2085591 22.973449,18.0748699" id="Fill-25" fill="#F6F8FF"></path>
                    <polygon id="Fill-26" fill="#C5C8D5" points="16.7678865 19.0570442 19.6093432 19.1096654 19.1803048 20.687785 18.5191495 19.6181506"></polygon>
                    <path d="M20.5519529,10.3137512 C20.5519529,10.3137512 21.7709954,9.99613577 21.7740858,8.81044288 C21.7771331,7.62474998 22.4463575,5.0995353 22.7979664,4.8088313 C23.1495754,4.51817022 29.4029519,5.85601809 31.5044503,5.35113826 L31.5823949,9.13205 L32.2998196,4.94012667 C32.2998196,4.94012667 33.2944711,4.70942624 32.6444324,3.57064601 C31.9944366,2.43186578 31.2101839,0.418012006 28.3163636,0.148167618 C25.4225862,-0.12167677 21.748419,-0.140819541 20.3319828,1.12874101 C18.9155894,2.39830155 17.5222876,2.26837966 17.5222876,2.26837966 L18.4838041,3.54403499 C18.4838041,3.54403499 18.5116598,7.8593133 19.2238052,9.48910988 L20.5519529,10.3137512 Z" id="Fill-28" fill="url(#linearGradient-8)"></path>
                    <path d="M20.3320042,1.12874101 C21.7484405,-0.140819541 25.4225647,-0.12167677 28.316385,0.148167618 C31.2102054,0.418012006 31.9944151,2.43186578 32.6444538,3.57064601 C33.2944496,4.70942624 32.2997981,4.94012667 32.2997981,4.94012667 L32.2959781,4.97240327 C32.00918,5.07202293 31.7441427,5.21816897 31.5084205,5.40260055 L31.5044289,5.35113826 C29.4029304,5.85601809 23.1495539,4.51817022 22.797945,4.8088313 C22.7893179,4.81595619 22.7803903,4.82548465 22.7714198,4.83522772 C22.2995891,4.31172017 21.6403653,3.95032526 20.938521,3.88487072 C19.9563166,3.79327729 19.0876383,4.22098515 18.5266607,4.92385961 C18.4875597,4.11698754 18.4838255,3.54403499 18.4838255,3.54403499 L17.5222662,2.26837966 C17.5222662,2.26837966 18.9156109,2.39830155 20.3320042,1.12874101" id="Fill-29" fill="url(#linearGradient-9)"></path>
                    <path d="M20.4181596,9.43460449 C20.8817065,9.47782595 21.3196724,9.40468855 21.7123138,9.24231837 C21.4648313,10.0752864 20.5519443,10.3137555 20.5519443,10.3137555 L19.2237966,9.48911418 C19.1472685,9.31395353 19.0786807,9.10763224 19.017132,8.87916371 C19.4254824,9.18519051 19.9107045,9.38726262 20.4181596,9.43460449" id="Fill-30" fill="#330F1D"></path>
                    <path d="M21.1194416,9.45021916 C21.1194416,9.45021916 20.8495543,8.29298289 19.8348158,8.73742995 C18.8201202,9.18191992 18.8841584,10.8051496 19.3699384,11.3895191 C19.8557184,11.9738887 20.7201046,13.1326701 20.9444956,13.045798 C21.1688437,12.9588829 21.4132789,12.6582213 21.4132789,12.6582213 L21.1194416,9.45021916 Z" id="Fill-31" fill="#EF9E78"></path>
                    <path d="M28.5511458,42.6173865 C28.5511458,42.6173865 31.4056075,43.9011539 31.5735145,44.4592987 C31.7414215,45.0174864 31.8534024,46.5803262 32.0772355,46.8593986 C32.3011115,47.1384711 33.8123173,48.4780358 33.8123173,48.8129484 C33.8123173,49.1478181 33.4168431,50.2941525 33.4168431,50.2941525 C33.4168431,50.2941525 32.4130924,50.2641507 32.4130924,50.5432231 C32.4130924,50.8222955 32.6928945,51.2688027 33.3085964,51.2130483 C33.9242553,51.1572081 34.4279763,50.6548606 34.4279763,50.6548606 C34.4279763,50.6548606 34.9801122,50.6033125 35.5156376,50.2104565 C36.0510772,49.8176434 36.5229937,48.7872387 36.5229937,48.7872387 C36.5229937,48.7872387 36.099535,45.4130465 35.4316841,44.3501077 C34.7637903,43.2871689 32.9096027,41.617842 31.9057232,41.4199332 C30.9018866,41.2219815 29.2787428,40.4964019 29.2787428,40.4964019 L28.5511458,42.6173865 Z" id="Fill-32" fill="#EF9E78"></path>
                    <path d="M12.4172284,20.8491208 C12.4172284,20.8491208 7.3945689,21.2138636 12.3064493,37.7602991 C13.0891997,40.3971084 29.3509402,44.8370723 29.3509402,44.8370723 C29.3509402,44.8370723 30.7444137,42.3387691 30.7838152,40.8073474 L18.5578085,35.96178 L16.4673407,24.3000129 C16.4673407,24.3000129 15.5269843,20.3797796 12.4172284,20.8491208" id="Fill-33" fill="url(#linearGradient-10)"></path>
                </g>
                <g id="Group-21" transform="translate(52.000000, 0.000000)">
                    <g id="Group-3" fill="url(#linearGradient-11)">
                        <path d="M13.9116629,7.03408348 C13.9116629,10.9138761 10.7975274,14.0591982 6.95567947,14.0591982 C3.11415152,14.0591982 1.59983673e-05,10.9138761 1.59983673e-05,7.03408348 C1.59983673e-05,3.15369835 3.11415152,0.00816078331 6.95567947,0.00816078331 C10.7975274,0.00816078331 13.9116629,3.15369835 13.9116629,7.03408348" id="Fill-1"></path>
                    </g>
                    <path d="M13.0750293,7.02988128 C13.0750293,10.4459285 10.3368637,13.215621 6.95958206,13.215621 C3.58176897,13.215621 0.843550275,10.4459285 0.843550275,7.02988128 C0.843550275,3.61324275 3.58176897,0.843550275 6.95958206,0.843550275 C10.3368637,0.843550275 13.0750293,3.61324275 13.0750293,7.02988128" id="Fill-4" fill="url(#linearGradient-12)"></path>
                    <path d="M12.5126624,7.10028554 C12.5126624,10.2441053 9.99461857,12.7938458 6.8884352,12.7938458 C3.78257109,12.7938458 1.26532541,10.2441053 1.26532541,7.10028554 C1.26532541,3.95506502 3.78257109,1.40591713 6.8884352,1.40591713 C9.99461857,1.40591713 12.5126624,3.95506502 12.5126624,7.10028554" id="Fill-6" fill="#FEFEFE"></path>
                    <path d="M7.45136076,7.10016837 C7.45136076,7.37139267 7.23089504,7.59195248 6.9591462,7.59195248 C6.68682308,7.59195248 6.46721878,7.37139267 6.46721878,7.10016837 C6.46721878,6.82802603 6.68682308,6.60781049 6.9591462,6.60781049 C7.23089504,6.60781049 7.45136076,6.82802603 7.45136076,7.10016837" id="Fill-8" fill="#2F98CB"></path>
                    <polygon id="Fill-10" fill="#2450CC" points="6.7484022 3.09301768 7.02958563 3.09301768 7.02958563 1.82769226 6.7484022 1.82769226"></polygon>
                    <polygon id="Fill-12" fill="#2450CC" points="9.92843627 4.35834309 9.70082816 4.13013383 10.5976754 3.23360939 10.8255619 3.46154027"></polygon>
                    <polygon id="Fill-13" fill="#2450CC" points="10.9661536 7.17017734 12.231479 7.17017734 12.231479 6.88899391 10.9661536 6.88899391"></polygon>
                    <polygon id="Fill-14" fill="#2450CC" points="9.70082816 9.92871466 9.928425 9.70082816 10.8255619 10.5976754 10.597631 10.8255619"></polygon>
                    <polygon id="Fill-15" fill="#2450CC" points="6.7484022 12.231479 7.02958563 12.231479 7.02958563 10.9661536 6.7484022 10.9661536"></polygon>
                    <polygon id="Fill-16" fill="#2450CC" points="3.98994453 9.70082816 4.21775138 9.92871466 3.32082452 10.8255619 3.09301768 10.5976754"></polygon>
                    <polygon id="Fill-17" fill="#2450CC" points="1.68710055 7.17017734 2.95242596 7.17017734 2.95242596 6.88899391 1.68710055 6.88899391"></polygon>
                    <polygon id="Fill-18" fill="#2450CC" points="4.21775138 4.13013383 3.98993326 4.35834309 3.09301768 3.4614846 3.32078014 3.23360939"></polygon>
                    <line x1="6.93360997" y1="3.79597624" x2="6.93360997" y2="7.02958563" id="Stroke-19" stroke="#2F98CB" stroke-width="0.985547905" stroke-linecap="round" stroke-linejoin="round"></line>
                    <line x1="9.41964474" y1="7.07403514" x2="6.88899391" y2="7.07403514" id="Stroke-20" stroke="#2F98CB" stroke-width="0.985547905" stroke-linecap="round" stroke-linejoin="round"></line>
                </g>
                <g id="Group-2" opacity="0.778459821" transform="translate(0.000000, 11.119999)">
                    <polygon id="Fill-4" fill="url(#linearGradient-13)" points="0 17.4674541 17.53846 17.4674541 17.53846 0 0 0"></polygon>
                    <polygon id="Fill-5" fill="#87D5F6" points="1.06508867 8.09467386 8.09467386 8.09467386 8.09467386 0.994082755 1.06508867 0.994082755"></polygon>
                    <polygon id="Fill-6" fill="#87D5F6" points="9.44378617 8.09467386 16.4733714 8.09467386 16.4733714 0.994082755 9.44378617 0.994082755"></polygon>
                    <polygon id="Fill-7" fill="#87D5F6" points="1.06508867 16.4733714 8.09467386 16.4733714 8.09467386 9.37278026 1.06508867 9.37278026"></polygon>
                    <polygon id="Fill-8" fill="#87D5F6" points="9.44378617 16.4733714 16.4733714 16.4733714 16.4733714 9.37278026 9.44378617 9.37278026"></polygon>
                    <g id="Group-13" transform="translate(1.065089, 0.923077)" fill="#FEFEFE" opacity="0.228794643">
                        <polygon id="Fill-9" points="0 5.00591673 4.97041377 0.106508867 2.84634693 0.106508867 0 2.91220229"></polygon>
                        <polygon id="Fill-11" points="0 14.9467443 14.9822472 0.0355029555 12.8681926 0.0355029555 0 12.8426685"></polygon>
                    </g>
                </g>
            </g>
        </g>
    </g>
</svg>