<?xml version="1.0" encoding="UTF-8"?>
<svg width="78px" height="94px" viewBox="0 0 78 94" version="1.1" xmlns="http://www.w3.org/2000/svg" xmlns:xlink="http://www.w3.org/1999/xlink">
    <!-- Generator: Sketch 63.1 (92452) - https://sketch.com -->
    <title>Group 211</title>
    <desc>Created with Sketch.</desc>
    <defs>
        <path d="M26.687883,0.268964605 C26.2514502,0.268964605 25.8559018,0.528191416 25.6780712,0.931134645 L25.6780712,0.931134645 L0.377931535,58.2582036 C0.0521857968,58.9965971 0.587007116,59.8296822 1.38774332,59.8296822 L1.38774332,59.8296822 L37.0449355,59.8296822 C37.4810359,59.8296822 37.8765843,59.5701196 38.0540825,59.1675122 L38.0540825,59.1675122 L63.3545545,1.8404432 C63.4193713,1.69336892 63.4499515,1.54260099 63.4512811,1.39552672 L63.4512811,1.39552672 L63.4512811,1.37605113 C63.4462952,0.791783445 62.9789497,0.268964605 62.3444103,0.268964605 L62.3444103,0.268964605 L26.687883,0.268964605 Z" id="path-1"></path>
        <linearGradient x1="80.8393916%" y1="-11.1735271%" x2="0%" y2="110.082551%" id="linearGradient-3">
            <stop stop-color="#CEDAFF" offset="0%"></stop>
            <stop stop-color="#FFFFFF" offset="100%"></stop>
        </linearGradient>
        <path d="M45.524928,27.4514141 L57.03173,1.37762932 C57.3109407,0.745344238 56.8529023,0.0321347225 56.1675066,0.0321347225 L23.8801209,0.0321347225 C22.6818419,0.0321347225 21.5962444,0.744001094 21.1082906,1.84940869 L9.42598476,28.3190852 C9.14743892,28.9517061 9.60547731,29.6649156 10.2908729,29.6649156 L42.1488061,29.6649156 C43.6080141,29.6649156 44.9306082,28.7975803 45.524928,27.4514141" id="path-4"></path>
        <filter x="-22.0%" y="-25.3%" width="144.0%" height="170.9%" filterUnits="objectBoundingBox" id="filter-5">
            <feOffset dx="0" dy="3" in="SourceAlpha" result="shadowOffsetOuter1"></feOffset>
            <feGaussianBlur stdDeviation="3" in="shadowOffsetOuter1" result="shadowBlurOuter1"></feGaussianBlur>
            <feColorMatrix values="0 0 0 0 0.187647097   0 0 0 0 0.2008459   0 0 0 0 0.499377264  0 0 0 0.234484266 0" type="matrix" in="shadowBlurOuter1"></feColorMatrix>
        </filter>
        <linearGradient x1="50%" y1="0%" x2="50%" y2="100%" id="linearGradient-6">
            <stop stop-color="#F85AAD" offset="0%"></stop>
            <stop stop-color="#ED2E75" offset="100%"></stop>
        </linearGradient>
        <linearGradient x1="50%" y1="0%" x2="50%" y2="100%" id="linearGradient-7">
            <stop stop-color="#614747" offset="0%"></stop>
            <stop stop-color="#322222" offset="100%"></stop>
        </linearGradient>
        <linearGradient x1="50%" y1="0%" x2="50%" y2="100%" id="linearGradient-8">
            <stop stop-color="#CFE3FF" offset="0%"></stop>
            <stop stop-color="#A1C2FF" offset="100%"></stop>
        </linearGradient>
        <linearGradient x1="50%" y1="0%" x2="50%" y2="100%" id="linearGradient-9">
            <stop stop-color="#CFE3FF" offset="0%"></stop>
            <stop stop-color="#A1C2FF" offset="100%"></stop>
        </linearGradient>
        <linearGradient x1="50%" y1="-265.516319%" x2="50%" y2="100%" id="linearGradient-10">
            <stop stop-color="#A75BFF" offset="0%"></stop>
            <stop stop-color="#E2CBFF" offset="100%"></stop>
        </linearGradient>
        <path d="M47.703336,48.1737434 L53.4324723,35.1919199 C53.5714128,34.8769527 53.3437232,34.5220268 53.0020226,34.5220268 L36.9268028,34.5220268 C36.3304887,34.5220268 35.7896842,34.8766169 35.5467045,35.4269702 L29.7308135,48.6059 C29.5915406,48.9208673 29.8195626,49.2757932 30.1612632,49.2757932 L46.0224215,49.2757932 C46.749034,49.2757932 47.4075057,48.8439723 47.703336,48.1737434" id="path-11"></path>
        <filter x="-25.2%" y="-20.3%" width="150.5%" height="181.3%" filterUnits="objectBoundingBox" id="filter-12">
            <feOffset dx="0" dy="3" in="SourceAlpha" result="shadowOffsetOuter1"></feOffset>
            <feGaussianBlur stdDeviation="1.5" in="shadowOffsetOuter1" result="shadowBlurOuter1"></feGaussianBlur>
            <feColorMatrix values="0 0 0 0 0.187647097   0 0 0 0 0.2008459   0 0 0 0 0.499377264  0 0 0 0.234484266 0" type="matrix" in="shadowBlurOuter1"></feColorMatrix>
        </filter>
        <path d="M0.682404082,5.37996368 C-0.473993288,8.2697382 0.908431737,10.6131889 3.76967593,10.6131889 L3.76967593,10.6131889 C6.63058774,10.6131889 9.88704794,8.2697382 11.0431129,5.37996368 L11.0431129,5.37996368 C12.1991779,2.48951758 10.8167529,0.146402707 7.95550867,0.146402707 L7.95550867,0.146402707 C5.09459687,0.146402707 1.83813667,2.48951758 0.682404082,5.37996368 L0.682404082,5.37996368 Z" id="path-13"></path>
        <linearGradient x1="50%" y1="0%" x2="50%" y2="100%" id="linearGradient-15">
            <stop stop-color="#78B5E4" offset="0%"></stop>
            <stop stop-color="#4361C4" offset="100%"></stop>
        </linearGradient>
        <path d="M18.2261056,13.6520524 L23.9552419,0.67056469 C24.0941824,0.3555974 23.8661604,0.000671572048 23.5247921,0.000671572048 L7.44957236,0.000671572048 C6.85292582,0.000671572048 6.31245381,0.354925828 6.06947409,0.905279121 L0.253250692,14.084209 C0.114310163,14.3991763 0.342332179,14.7541021 0.683700417,14.7541021 L16.5451911,14.7541021 C17.2718035,14.7541021 17.9302753,14.3226171 18.2261056,13.6520524" id="path-16"></path>
        <filter x="-21.0%" y="-27.1%" width="142.0%" height="167.8%" filterUnits="objectBoundingBox" id="filter-17">
            <feOffset dx="0" dy="1" in="SourceAlpha" result="shadowOffsetOuter1"></feOffset>
            <feGaussianBlur stdDeviation="1.5" in="shadowOffsetOuter1" result="shadowBlurOuter1"></feGaussianBlur>
            <feColorMatrix values="0 0 0 0 0.187647097   0 0 0 0 0.2008459   0 0 0 0 0.499377264  0 0 0 0.234484266 0" type="matrix" in="shadowBlurOuter1"></feColorMatrix>
        </filter>
        <path d="M0.633874615,5.35276501 C-0.547452276,8.30667467 0.865220568,10.7011648 3.78928716,10.7011648 L3.78928716,10.7011648 C6.71302135,10.7011648 10.0412786,8.30667467 11.2226055,5.35276501 L11.2226055,5.35276501 C12.4039324,2.39885536 10.9912595,0.00470100434 8.06752532,0.00470100434 L8.06752532,0.00470100434 C5.14345873,0.00470100434 1.81520151,2.39885536 0.633874615,5.35276501 L0.633874615,5.35276501 Z" id="path-18"></path>
        <path d="M0.633874615,5.35276501 C-0.547452276,8.30667467 0.865220568,10.7011648 3.78928716,10.7011648 L3.78928716,10.7011648 C6.71302135,10.7011648 10.0412786,8.30667467 11.2226055,5.35276501 L11.2226055,5.35276501 C12.4039324,2.39885536 10.9912595,0.00470100434 8.06752532,0.00470100434 L8.06752532,0.00470100434 C5.14345873,0.00470100434 1.81520151,2.39885536 0.633874615,5.35276501 L0.633874615,5.35276501 Z" id="path-20"></path>
        <path d="M0.633874615,5.35276501 C-0.547452276,8.30667467 0.865220568,10.7011648 3.78928716,10.7011648 L3.78928716,10.7011648 C6.71302135,10.7011648 10.0412786,8.30667467 11.2226055,5.35276501 L11.2226055,5.35276501 C12.4039324,2.39885536 10.9912595,0.00470100434 8.06752532,0.00470100434 L8.06752532,0.00470100434 C5.14345873,0.00470100434 1.81520151,2.39885536 0.633874615,5.35276501" id="path-22"></path>
        <path d="M0.633874615,5.35276501 C-0.547452276,8.30667467 0.865220568,10.7011648 3.78928716,10.7011648 L3.78928716,10.7011648 C6.71302135,10.7011648 10.0412786,8.30667467 11.2226055,5.35276501 L11.2226055,5.35276501 C12.4039324,2.39885536 10.9912595,0.00470100434 8.06752532,0.00470100434 L8.06752532,0.00470100434 C5.14345873,0.00470100434 1.81520151,2.39885536 0.633874615,5.35276501" id="path-24"></path>
        <path d="M0.633874615,5.35276501 C-0.547452276,8.30667467 0.865220568,10.7011648 3.78928716,10.7011648 L3.78928716,10.7011648 C6.71302135,10.7011648 10.0412786,8.30667467 11.2226055,5.35276501 L11.2226055,5.35276501 C12.4039324,2.39885536 10.9912595,0.00470100434 8.06752532,0.00470100434 L8.06752532,0.00470100434 C5.14345873,0.00470100434 1.81520151,2.39885536 0.633874615,5.35276501" id="path-26"></path>
        <path d="M0.633874615,5.35276501 C-0.547452276,8.30667467 0.865220568,10.7011648 3.78928716,10.7011648 L3.78928716,10.7011648 C6.71302135,10.7011648 10.0412786,8.30667467 11.2226055,5.35276501 L11.2226055,5.35276501 C12.4039324,2.39885536 10.9912595,0.00470100434 8.06752532,0.00470100434 L8.06752532,0.00470100434 C5.14345873,0.00470100434 1.81520151,2.39885536 0.633874615,5.35276501" id="path-28"></path>
        <linearGradient x1="60.4178222%" y1="42.9178437%" x2="50%" y2="52.9639998%" id="linearGradient-30">
            <stop stop-color="#A6F3D5" offset="0%"></stop>
            <stop stop-color="#6DE4AB" offset="100%"></stop>
        </linearGradient>
        <linearGradient x1="50%" y1="0%" x2="50%" y2="100%" id="linearGradient-31">
            <stop stop-color="#DECFFF" offset="0%"></stop>
            <stop stop-color="#BBA1FF" offset="100%"></stop>
        </linearGradient>
        <linearGradient x1="-59.8312879%" y1="170.32649%" x2="100%" y2="50%" id="linearGradient-32">
            <stop stop-color="#C1E3FF" offset="0%"></stop>
            <stop stop-color="#6F88FC" offset="100%"></stop>
        </linearGradient>
        <polygon id="path-33" points="6.64787221e-05 0.268360191 32.4602969 0.268360191 32.4602969 3.02207422 6.64787221e-05 3.02207422"></polygon>
        <linearGradient x1="50%" y1="0%" x2="50%" y2="100%" id="linearGradient-35">
            <stop stop-color="#FFAF92" offset="0%"></stop>
            <stop stop-color="#FF7759" offset="100%"></stop>
        </linearGradient>
        <linearGradient x1="50%" y1="0%" x2="50%" y2="100%" id="linearGradient-36">
            <stop stop-color="#614747" offset="0%"></stop>
            <stop stop-color="#322222" offset="100%"></stop>
        </linearGradient>
        <linearGradient x1="50%" y1="0%" x2="50%" y2="100%" id="linearGradient-37">
            <stop stop-color="#614747" offset="0%"></stop>
            <stop stop-color="#322222" offset="100%"></stop>
        </linearGradient>
        <linearGradient x1="50%" y1="0%" x2="50%" y2="100%" id="linearGradient-38">
            <stop stop-color="#9C9DF4" offset="0%"></stop>
            <stop stop-color="#6364E5" offset="100%"></stop>
        </linearGradient>
        <linearGradient x1="50%" y1="0%" x2="50%" y2="100%" id="linearGradient-39">
            <stop stop-color="#614747" offset="0%"></stop>
            <stop stop-color="#322222" offset="100%"></stop>
        </linearGradient>
        <linearGradient x1="50%" y1="0%" x2="50%" y2="100%" id="linearGradient-40">
            <stop stop-color="#FFC1A1" offset="0%"></stop>
            <stop stop-color="#FF8D68" offset="100%"></stop>
        </linearGradient>
        <linearGradient x1="50%" y1="0%" x2="50%" y2="100%" id="linearGradient-41">
            <stop stop-color="#CBC6FF" offset="0%"></stop>
            <stop stop-color="#94C3FF" offset="100%"></stop>
        </linearGradient>
    </defs>
    <g id="Page-1" stroke="none" stroke-width="1" fill="none" fill-rule="evenodd">
        <g id="WP-ERP-PRO-Page-Design" transform="translate(-312.000000, -2526.000000)">
            <g id="Group-211" transform="translate(351.500000, 2575.500000) scale(-1, 1) translate(-351.500000, -2575.500000) translate(313.000000, 2529.000000)">
                <g id="Group-3" transform="translate(12.963351, 8.362751)">
                    <mask id="mask-2" fill="white">
                        <use xlink:href="#path-1"></use>
                    </mask>
                    <g id="Clip-2"></g>
                    <path d="M26.687883,0.268964605 C26.2514502,0.268964605 25.8559018,0.528191416 25.6780712,0.931134645 L25.6780712,0.931134645 L0.377931535,58.2582036 C0.0521857968,58.9965971 0.587007116,59.8296822 1.38774332,59.8296822 L1.38774332,59.8296822 L37.0449355,59.8296822 C37.4810359,59.8296822 37.8765843,59.5701196 38.0540825,59.1675122 L38.0540825,59.1675122 L63.3545545,1.8404432 C63.4193713,1.69336892 63.4499515,1.54260099 63.4512811,1.39552672 L63.4512811,1.39552672 L63.4512811,1.37605113 C63.4462952,0.791783445 62.9789497,0.268964605 62.3444103,0.268964605 L62.3444103,0.268964605 L26.687883,0.268964605 Z" id="Fill-1" fill="url(#linearGradient-3)" mask="url(#mask-2)"></path>
                </g>
                <g id="Group-56" transform="translate(15.290106, 0.303886)">
                    <g id="Fill-4">
                        <use fill="black" fill-opacity="1" filter="url(#filter-5)" xlink:href="#path-4"></use>
                        <use fill="#FFFFFF" fill-rule="evenodd" xlink:href="#path-4"></use>
                    </g>
                    <polyline id="Stroke-8" stroke="#A1C2FF" stroke-width="0.5" points="26.7141753 36.107407 28.188341 36.107407 24.2272063 43.9245056 0.274922755 43.9245056 1.24185577 42.0169052"></polyline>
                    <path d="M32.2317763,10.2851595 C31.2335983,13.8018465 27.6021981,16.6523341 24.1213722,16.6523341 C20.6402139,16.6523341 18.6272382,13.8018465 19.6254162,10.2851595 C20.6235942,6.76847247 24.2549944,3.91764912 27.7361527,3.91764912 C31.2169786,3.91764912 33.2299543,6.76847247 32.2317763,10.2851595" id="Fill-10" fill="#E6F4FF"></path>
                    <path d="M31.4900399,10.2851595 C30.6095293,13.3878224 27.4055873,15.9031955 24.3339379,15.9031955 C21.2622886,15.9031955 19.4863095,13.3878224 20.3671526,10.2851595 C21.2479956,7.18216085 24.4516052,4.66678774 27.5232546,4.66678774 C30.5949039,4.66678774 32.370883,7.18216085 31.4900399,10.2851595" id="Fill-12" fill="#94C3FF"></path>
                    <path d="M26.0305414,11.4097741 C26.0305414,11.4097741 23.1084691,11.8980069 21.8606635,12.3946345 C21.0133922,12.910066 20.8787728,13.3200607 20.6766775,13.934885 C20.6766775,13.934885 20.6743507,13.9389144 20.6733536,13.9412649 C21.3527661,15.1406926 22.6454448,15.9032626 24.3340044,15.9032626 C26.5151713,15.9032626 28.7584957,14.6319767 30.1937713,12.7854894 C29.4126464,11.626356 26.0305414,11.4097741 26.0305414,11.4097741" id="Fill-14" fill="url(#linearGradient-6)"></path>
                    <path d="M25.0025477,10.1533635 L24.4983065,12.304073 C24.4354842,12.5730376 24.5681092,12.7980142 24.8197312,12.8396517 C25.2142824,12.9041226 25.8425063,12.8990858 26.5132766,12.4659218 C26.7170339,12.3342937 26.8513209,12.1143539 26.8656138,11.9051592 C26.9364137,10.9018305 27.138509,8.84413378 27.138509,8.84413378 L25.0025477,10.1533635 Z" id="Fill-16" fill="#FF8D68"></path>
                    <path d="M24.5484315,7.87418227 C24.5484315,7.87418227 23.1759783,10.6816892 23.4432227,11.4355288 C23.7520164,11.9502888 26.5115482,10.7945133 26.9636035,10.0416811 C27.4153264,9.28918457 28.453724,7.92589331 27.644678,7.0733326 C26.8362967,6.22110767 25.5868291,6.51089101 24.5484315,7.87418227" id="Fill-18" fill="#FF8D68"></path>
                    <path d="M24.5484315,7.87418227 C24.5484315,7.87418227 24.306449,6.88260614 25.137433,6.29833846 C25.968417,5.71407077 27.0344033,5.83092431 27.4179855,6.41519199 C27.8015678,6.99945967 27.8344747,7.08709983 27.8344747,7.08709983 C27.8344747,7.08709983 28.2433189,7.17473998 28.3792679,7.61294074 C28.5152168,8.0511415 27.6506611,9.1612501 27.2989886,9.48259732 C26.9476486,9.80394455 27.0201104,9.8123392 27.0201104,9.8123392 L26.902443,9.65787763 C26.902443,9.65787763 26.9692542,8.81068949 27.1391073,8.31406196 C27.1849776,8.0511415 26.8878177,7.67136751 26.3633006,7.58372736 C25.8387835,7.4960872 25.6459952,7.98935687 24.5484315,7.87418227" id="Fill-20" fill="url(#linearGradient-7)"></path>
                    <path d="M27.2241336,9.15157946 C27.2241336,9.15157946 27.4149275,8.79363156 27.7546338,8.89470315 C28.0920133,9.0088704 27.4182515,10.0817067 27.0612607,10.0071622 C26.7188953,9.91851474 27.2241336,9.15157946 27.2241336,9.15157946" id="Fill-22" fill="#FF8D68"></path>
                    <path d="M26.8907428,11.4982872 C26.8907428,11.4982872 26.1574825,12.316262 25.4355236,12.5499691 C25.3088816,12.5889203 25.1214116,12.8421029 25.1214116,12.8421029 L24.9894513,12.4915423 C24.9894513,12.4915423 24.4938525,12.1994085 24.6377789,11.6930431 L24.5387256,11.7709455 L24.2734755,12.4331155 C24.2734755,12.4331155 24.0773633,13.0563344 24.0879999,13.2900415 L24.7521223,12.9200053 C24.7521223,12.9200053 25.1566453,13.0563344 25.4790671,12.9394809 C25.4790671,12.9394809 25.6163457,13.406895 25.7403285,13.4458462 C25.8643113,13.4847974 26.8678076,12.5304935 27.0197115,12.1994085 C27.1905618,11.8683234 27.1496774,11.5372384 27.1496774,11.5372384 L26.8907428,11.4982872 Z" id="Fill-24" fill="#FFFFFF"></path>
                    <path d="M48.0681713,12.7335433 L34.0813805,12.7335433 C33.6522604,12.7335433 33.4308862,12.3819753 33.5871112,11.9484756 L35.5668476,6.45367307 C35.7227402,6.02017331 36.1973983,5.66860535 36.6265184,5.66860535 L50.6133091,5.66860535 C51.0424293,5.66860535 51.2638034,6.02017331 51.1079108,6.45367307 L49.1278421,11.9484756 C48.9719495,12.3819753 48.4972914,12.7335433 48.0681713,12.7335433" id="Fill-26" fill="url(#linearGradient-8)"></path>
                    <polygon id="Fill-28" fill="#FFFFFF" points="48.8761204 8.15453002 36.8321703 8.15453002 37.0439051 7.56589712 49.0881875 7.56589712"></polygon>
                    <polygon id="Fill-30" fill="#FFFFFF" points="43.5893003 9.52816349 36.3371365 9.52816349 36.5488713 8.93953059 43.8016998 8.93953059"></polygon>
                    <polygon id="Fill-32" fill="#FFFFFF" points="37.7668944 10.7711426 35.8892029 10.7711426 36.10127 10.1825097 37.9792939 10.1825097"></polygon>
                    <path d="M30.3808092,24.6979015 C29.9865904,24.6979015 29.7831655,24.3748754 29.9267596,23.9766332 L31.7462822,18.9264114 C31.8898762,18.5278333 32.3259766,18.2048072 32.7201955,18.2048072 L45.5755183,18.2048072 C45.9700695,18.2048072 46.173162,18.5278333 46.029568,18.9264114 L44.2100454,23.9766332 C44.0664513,24.3748754 43.6303509,24.6979015 43.2357997,24.6979015 L30.3808092,24.6979015 Z" id="Fill-34" fill="url(#linearGradient-9)"></path>
                    <path d="M34.7289498,15.261139 C34.5338347,15.7493719 33.9837233,16.1452636 33.500423,16.1452636 C33.0171227,16.1452636 32.78345,15.7493719 32.978565,15.261139 C33.1740124,14.7729061 33.7244563,14.3770144 34.2077566,14.3770144 C34.6910569,14.3770144 34.9243972,14.7729061 34.7289498,15.261139" id="Fill-36" fill="#94C3FF"></path>
                    <path d="M37.7691879,15.261139 C37.5737405,15.7493719 37.0239614,16.1452636 36.5406611,16.1452636 C36.0573608,16.1452636 35.8233557,15.7493719 36.0188032,15.261139 C36.2139182,14.7729061 36.764362,14.3770144 37.2476623,14.3770144 C37.7309627,14.3770144 37.9646354,14.7729061 37.7691879,15.261139" id="Fill-38" fill="#94C3FF"></path>
                    <path d="M40.8090937,15.261139 C40.6139786,15.7493719 40.0638672,16.1452636 39.5805669,16.1452636 C39.0972666,16.1452636 38.8635939,15.7493719 39.0587089,15.261139 C39.2541564,14.7729061 39.8046002,14.3770144 40.2879005,14.3770144 C40.7712008,14.3770144 41.0045411,14.7729061 40.8090937,15.261139" id="Fill-40" fill="#94C3FF"></path>
                    <path d="M43.8492986,15.261139 C43.6538512,15.7493719 43.1040721,16.1452636 42.6207718,16.1452636 C42.1371391,16.1452636 41.9034664,15.7493719 42.0989138,15.261139 C42.2940289,14.7729061 42.8444727,14.3770144 43.327773,14.3770144 C43.8110733,14.3770144 44.044746,14.7729061 43.8492986,15.261139" id="Fill-42" fill="#FF8D02"></path>
                    <path d="M46.8892376,15.261139 C46.6941225,15.7493719 46.1440111,16.1452636 45.6607108,16.1452636 C45.1774105,16.1452636 44.9437378,15.7493719 45.1388528,15.261139 C45.3343003,14.7729061 45.8847441,14.3770144 46.3680444,14.3770144 C46.8513447,14.3770144 47.084685,14.7729061 46.8892376,15.261139" id="Fill-44" fill="#A1C2FF"></path>
                    <polygon id="Fill-46" fill="url(#linearGradient-10)" points="29.7501921 21.1836322 18.0416271 21.1836322 18.9367631 18.9459541 30.6449957 18.9459541"></polygon>
                    <polygon id="Fill-48" fill="#A1C2FF" points="22.6997912 26.2184414 16.028319 26.2184414 16.4115689 25.2594365 23.083041 25.2594365"></polygon>
                    <polygon id="Fill-50" fill="#A1C2FF" points="21.7000177 24.3002973 16.7952176 24.3002973 17.6903536 22.0626192 22.5948213 22.0626192"></polygon>
                    <g id="Fill-52">
                        <use fill="black" fill-opacity="1" filter="url(#filter-12)" xlink:href="#path-11"></use>
                        <use fill="#FFFFFF" fill-rule="evenodd" xlink:href="#path-11"></use>
                    </g>
                    <path d="M46.9418223,41.6446192 C45.7854249,44.5347295 42.5292971,46.8781802 39.6680529,46.8781802 C36.8071411,46.8781802 35.4247161,44.5347295 36.580781,41.6446192 C37.736846,38.7545089 40.9933062,36.4113941 43.854218,36.4113941 C46.7151298,36.4113941 48.0978872,38.7545089 46.9418223,41.6446192" id="Fill-54" fill="#A1C2FF"></path>
                </g>
                <g id="Group-75" transform="translate(51.188616, 36.568777)">
                    <g id="Group-59">
                        <mask id="mask-14" fill="white">
                            <use xlink:href="#path-13"></use>
                        </mask>
                        <g id="Clip-58"></g>
                        <path d="M6.29207809,5.92504513 C6.29207809,5.92504513 8.89870878,7.23326748 9.17459547,8.43269516 C9.45048217,9.63178705 8.29375241,12.7935483 8.29375241,12.7935483 L-2.06695643,12.7935483 C-2.06695643,12.7935483 -0.368757471,9.08680634 0.951509949,8.21443424 C2.27144498,7.34239794 4.81990679,6.67619847 4.81990679,6.67619847 L6.29207809,5.92504513 Z" id="Fill-57" fill="#4385FF" mask="url(#mask-14)"></path>
                    </g>
                    <g id="Group-62" transform="translate(3.854118, 3.893453)" fill="#D4E7FF">
                        <path d="M1.36938146,1.18030758 L0.55634669,2.95493672 C0.454634245,3.17655549 0.515129882,3.37937025 0.704261846,3.43712545 C1.00142173,3.52745189 1.49502625,3.58017029 2.10530091,3.27426922 C2.29077655,3.1812565 2.43869171,3.00698355 2.4908775,2.83170324 C2.74150228,1.98854454 3.29925876,0.265290662 3.29925876,0.265290662 L1.36938146,1.18030758 Z" id="Fill-60"></path>
                    </g>
                    <g id="Group-65" transform="translate(3.083294, 1.557381)" fill="#D4E7FF">
                        <path d="M2.22686,1.54608762 C2.22686,1.54608762 0.605111579,3.79820448 0.667933972,4.46037452 C0.810198437,4.92375924 3.1997761,4.19543935 3.70036088,3.59941916 C4.20094566,3.00306318 5.2805601,1.94365827 4.81122032,1.14885275 C4.34254533,0.354047234 3.30614206,0.486346927 2.22686,1.54608762" id="Fill-63"></path>
                    </g>
                    <g id="Group-68" transform="translate(3.083294, 0.778691)" fill="url(#linearGradient-15)">
                        <path d="M2.29536633,1.99409611 C2.29536633,1.99409611 2.26910723,2.02935364 2.23752984,2.08274362 C2.14346245,2.24291355 2.00385713,2.56593971 2.39342244,2.58709423 L2.91295366,2.61530025 C2.91295366,2.61530025 3.74759401,2.13512624 4.07533411,2.64350628 C4.31931102,3.15155053 3.5245579,3.46215261 3.59037183,3.71634263 C3.65685056,3.97019686 3.6232788,3.91378481 3.51092976,4.05515072 C3.39858072,4.19618085 3.30850205,4.42182906 2.93322967,4.59106522 C2.55795728,4.76063716 2.26179457,4.73243113 1.90347426,4.92987332 C1.54482156,5.12765129 0.852778058,4.90166729 0.780648645,4.73243113 C0.613787053,4.59106522 0.517392906,4.90166729 0.410694557,5.09944526 C0.303663814,5.29688744 -0.0264030409,5.35363528 0.291365251,5.60748951 C0.608801148,5.86167953 0.843138644,5.97450364 1.39790358,5.63603133 C1.95233612,5.29688744 1.9689558,5.32542925 2.52837425,5.18406334 C3.08812509,5.04303321 3.50394949,4.7572793 3.71668141,4.40638291 C3.9300781,4.05515072 3.99888358,3.60318274 4.17837613,3.43394658 C4.35820107,3.26437464 4.45791916,3.43394658 4.37914187,3.63138876 C4.2996998,3.82916673 5.06154595,3.46215261 5.24270047,2.86915449 C5.42385499,2.27649215 5.10508952,2.30469818 5.07284734,1.96589008 C5.04093755,1.62708198 5.42252541,1.23186183 5.01600803,0.921595547 C4.60882586,0.610993474 4.22723799,1.00621362 4.08297916,0.808435657 C3.93805555,0.610993474 3.30684008,0.582451662 2.80193419,1.00621362 C2.29769308,1.4296398 2.26910723,2.02935364 2.26910723,2.02935364" id="Fill-66"></path>
                    </g>
                    <g id="Group-71" transform="translate(6.166588, 3.893453)" fill="#94C3FF">
                        <path d="M0.9999842,0.365119847 C0.9999842,0.365119847 1.21903159,0.0790301546 1.46600004,0.195547905 C1.70864738,0.322475022 0.971730743,1.16966316 0.705815855,1.07429993 C0.454858679,0.968527333 0.9999842,0.365119847 0.9999842,0.365119847" id="Fill-69"></path>
                    </g>
                    <g id="Group-74" transform="translate(3.083294, 3.893453)" fill="#4361C4">
                        <path d="M0.607405095,1.70235411 C0.607405095,1.70235411 0.845731314,0.827295731 1.44935811,0.714471627 C2.05364969,0.601647523 2.32588006,0.968325861 2.28566043,1.27892793 C2.24544081,1.58953001 2.51268527,1.75876616 2.51268527,1.75876616 C2.51268527,1.75876616 0.989657747,2.49279441 0.607405095,1.70235411" id="Fill-72"></path>
                    </g>
                </g>
                <g id="Group-80" transform="translate(37.560478, 52.350720)">
                    <g id="Fill-76">
                        <use fill="black" fill-opacity="1" filter="url(#filter-17)" xlink:href="#path-16"></use>
                        <use fill="#FFFFFF" fill-rule="evenodd" xlink:href="#path-16"></use>
                    </g>
                    <path d="M17.5379511,7.03176229 C16.3566242,9.98567194 13.0286994,12.3801621 10.1046328,12.3801621 C7.1808986,12.3801621 5.76822576,9.98567194 6.94955265,7.03176229 C8.13054714,4.07785263 11.4588044,1.6833625 14.382871,1.6833625 C17.3069375,1.6833625 18.7196104,4.07785263 17.5379511,7.03176229" id="Fill-78" fill="#A1C2FF"></path>
                </g>
                <g id="Group-108" transform="translate(43.875957, 54.029650)">
                    <g id="Group-83">
                        <mask id="mask-19" fill="white">
                            <use xlink:href="#path-18"></use>
                        </mask>
                        <g id="Clip-82"></g>
                        <path d="M7.39831726,3.83293031 C7.39831726,3.83293031 8.18741969,3.4534921 8.29278847,3.91385474 C8.39882203,4.37421738 8.05047352,4.70261611 8.05047352,4.70261611 C8.05047352,4.70261611 8.76312542,4.50450236 8.95358696,5.11932657 C9.1440485,5.73415078 8.57100192,6.02695619 8.80833096,6.24622446 C9.04565999,6.46515695 9.53727014,6.93391424 8.84954776,7.71293782 C8.16182538,8.49162561 7.15600232,9.385488 5.98996553,8.80995076 C4.82426114,8.23441351 5.1955448,5.4332865 5.1955448,5.4332865 L5.48040613,4.61497596 L7.39831726,3.83293031 Z" id="Fill-81" fill="#4361C4" mask="url(#mask-19)"></path>
                    </g>
                    <g id="Group-86">
                        <mask id="mask-21" fill="white">
                            <use xlink:href="#path-20"></use>
                        </mask>
                        <g id="Clip-85"></g>
                        <path d="M6.63713589,1.48306613 C6.63713589,1.48306613 4.88010327,1.63249091 4.32500594,2.87557078 C3.770241,4.11932221 4.873123,4.20629079 4.873123,4.20629079 L6.63713589,1.48306613 Z" id="Fill-84" fill="#4361C4" mask="url(#mask-21)"></path>
                    </g>
                    <g id="Group-89">
                        <mask id="mask-23" fill="white">
                            <use xlink:href="#path-22"></use>
                        </mask>
                        <g id="Clip-88"></g>
                        <path d="M-4.78208039,9.93610993 L-4.66906657,10.1419468 C-4.66906657,10.1419468 -3.31555978,11.7738668 -2.10963577,12.8181614 L0.399603598,12.8181614 C1.70823724,11.6130253 3.4945205,9.51268375 3.50283034,9.42672253 C3.51413173,9.3048322 5.0763817,7.58862983 4.73202192,6.88885176 C4.38766214,6.18907368 3.94092512,6.301562 3.94092512,6.301562 C3.94092512,6.301562 3.43203051,6.37174128 2.8599811,6.96977619 C2.28826409,7.5678111 -0.531430904,11.9844047 -0.531430904,11.9844047 C-0.531430904,11.9844047 -0.892742759,11.3249209 -1.55985673,10.8215777 C-2.22663832,10.3182344 -4.17645924,9.25748637 -4.17645924,9.25748637 C-4.17645924,9.25748637 -4.05679754,8.40458987 -4.06843131,8.24173365 C-4.0794003,8.07854164 -4.56502737,7.3347756 -4.71227773,7.49460974 C-4.85919571,7.65410811 -4.51483593,8.35388618 -4.51483593,8.35388618 C-4.51483593,8.35388618 -4.89509422,9.72993731 -4.78208039,9.93610993" id="Fill-87" fill="#94C3FF" mask="url(#mask-23)"></path>
                    </g>
                    <g id="Group-92">
                        <mask id="mask-25" fill="white">
                            <use xlink:href="#path-24"></use>
                        </mask>
                        <g id="Clip-91"></g>
                        <path d="M1.4960704,11.58126 C1.4960704,11.58126 1.57085896,12.1238902 1.714453,12.8182957 L6.69670083,12.8182957 C6.80705551,11.6823316 7.03973103,9.39865082 7.17900396,8.85669217 C7.36614156,8.1280365 7.20060954,6.57704086 7.26044039,6.1505926 C7.31993885,5.72481593 6.1153444,5.88095643 6.1153444,5.88095643 L4.54644656,5.90781931 L4.29316263,6.01728555 C3.94547892,6.16738191 3.63003738,6.43298865 3.42528292,6.75030644 C3.23083265,7.05083494 2.94430936,7.48836412 2.55939756,8.06255823 C1.93981587,8.53735966 0.573678132,9.36238593 0.674393396,10.402651 C0.77510866,11.4432519 1.4960704,11.58126 1.4960704,11.58126" id="Fill-90" fill="#4385FF" mask="url(#mask-25)"></path>
                    </g>
                    <g id="Group-95">
                        <mask id="mask-27" fill="white">
                            <use xlink:href="#path-26"></use>
                        </mask>
                        <g id="Clip-94"></g>
                        <path d="M5.07319072,4.94193081 C5.07319072,4.94193081 3.68046149,6.68264556 3.29687926,8.87264201 C3.75092894,8.73161188 5.13302157,7.45125977 5.94771831,6.66988569 C6.29108091,6.34081539 6.32332309,6.16116986 6.25983591,5.82336912 C6.22859091,5.65715504 6.37284973,5.1967924 6.56597042,4.66927256 C6.69394196,3.93960953 5.07319072,4.94193081 5.07319072,4.94193081" id="Fill-93" fill="#94C3FF" mask="url(#mask-27)"></path>
                    </g>
                    <g id="Group-98">
                        <mask id="mask-29" fill="white">
                            <use xlink:href="#path-28"></use>
                        </mask>
                        <g id="Clip-97"></g>
                        <path d="M9.4436681,12.062307 C9.4436681,12.062307 9.66038874,12.3641787 10.0183767,12.8181614 L12.2470758,12.8181614 C11.8172909,12.2429599 11.4759226,11.7785678 11.3698891,11.6160474 C11.0052533,11.0586426 8.45712387,5.44430028 6.90418092,6.14273521 C6.61699284,6.27201283 5.57992478,7.15177221 6.00306184,8.13831155 C6.4265313,9.12518668 9.4436681,12.062307 9.4436681,12.062307" id="Fill-96" fill="#C8DEFA" mask="url(#mask-29)"></path>
                    </g>
                    <g id="Group-101" transform="translate(3.083294, 0.778691)" fill="#C8DEFA">
                        <path d="M1.9275728,1.866531 C1.70952259,2.1452334 1.1574168,2.87489643 0.83034149,3.51624773 C0.544482985,4.07768197 0.739930428,4.59177037 1.27308978,4.64918978 C2.03958944,4.73179314 3.20828538,4.53972354 3.5922,4.09648598 C4.16258743,3.43800959 5.38546353,2.27182473 4.88919987,1.36587404 C4.40722913,0.486450438 3.30866825,0.577448451 2.12567939,1.65162794 C2.05255279,1.71811357 1.98673886,1.79064336 1.9275728,1.866531" id="Fill-99"></path>
                    </g>
                    <g id="Group-104" transform="translate(5.395765, 0.778691)" fill="#4361C4">
                        <path d="M0.132206949,1.2916989 C0.132206949,1.2916989 -0.636951865,2.56197743 1.54720655,3.37290068 L1.82209606,3.49814887 C1.82209606,3.49814887 2.77606573,2.73255673 2.79002626,1.92264084 C2.80398679,1.11238917 2.39048914,0.81723325 1.97333516,0.641281374 C1.55651357,0.464993711 0.423716145,0.988148337 0.132206949,1.2916989" id="Fill-102"></path>
                    </g>
                    <g id="Group-107" transform="translate(6.166588, 3.893453)" fill="#94C3FF">
                        <path d="M0.716585408,0.441175382 C0.716585408,0.441175382 1.26902359,0.056028812 1.2630405,0.411290426 C1.25705742,0.767223611 0.480585945,1.14766918 0.39914951,0.999251754 C0.318045469,0.851170117 0.716585408,0.441175382 0.716585408,0.441175382" id="Fill-105"></path>
                    </g>
                </g>
                <g id="Group-210" transform="translate(0.000000, 2.318602)">
                    <path d="M38.3180695,52.925888 L20.6117943,52.925888 C20.0689955,52.925888 19.8064045,52.4809715 20.0257843,51.9322971 L21.2842265,48.7853105 C21.5039387,48.2366361 22.1221908,47.7917197 22.665322,47.7917197 L40.3715972,47.7917197 C40.9147284,47.7917197 41.1776517,48.2366361 40.9576071,48.7853105 L39.6991649,51.9322971 C39.4797852,52.4809715 38.861533,52.925888 38.3180695,52.925888" id="Fill-109" fill="url(#linearGradient-30)"></path>
                    <polygon id="Fill-111" fill="#FFFFFF" points="38.1797937 50.6071847 22.9328988 50.6071847 23.2310559 49.8617398 38.4779508 49.8617398"></polygon>
                    <path d="M23.9982204,1.10171395 L23.3992471,1.10171395 C23.2935459,1.10171395 23.2423573,1.01474536 23.2849037,0.907629623 L23.5268862,0.302878994 C23.569765,0.195763252 23.6904239,0.108794672 23.7967898,0.108794672 L24.3950983,0.108794672 C24.5014643,0.108794672 24.5526529,0.195763252 24.5097741,0.302878994 L24.2677916,0.907629623 C24.2249128,1.01474536 24.1042539,1.10171395 23.9982204,1.10171395" id="Fill-113" fill="#F9FBFC"></path>
                    <path d="M30.1396909,1.10171395 L29.54105,1.10171395 C29.4350164,1.10171395 29.3838278,1.01474536 29.4263742,0.907629623 L29.6686892,0.302878994 C29.7115679,0.195763252 29.8318944,0.108794672 29.9382604,0.108794672 L30.5365689,0.108794672 C30.6429348,0.108794672 30.6941234,0.195763252 30.6512447,0.302878994 L30.4095945,0.907629623 C30.3667157,1.01474536 30.2457245,1.10171395 30.1396909,1.10171395" id="Fill-115" fill="#BFD9FF"></path>
                    <path d="M22.8569137,3.95555936 L22.2579404,3.95555936 C22.1522392,3.95555936 22.1010506,3.86892657 22.143597,3.76181083 L22.3855795,3.15672441 C22.4284583,3.04960867 22.5491172,2.96297588 22.6551507,2.96297588 L23.2537916,2.96297588 C23.3598252,2.96297588 23.4110138,3.04960867 23.368135,3.15672441 L23.1264849,3.76181083 C23.0836061,3.86892657 22.9626148,3.95555936 22.8569137,3.95555936" id="Fill-117" fill="#BFD9FF"></path>
                    <path d="M25.9276655,3.95555936 L25.3286923,3.95555936 C25.2229911,3.95555936 25.1718025,3.86892657 25.2143489,3.76181083 L25.4563314,3.15672441 C25.4992102,3.04960867 25.6198691,2.96297588 25.7259026,2.96297588 L26.3245435,2.96297588 C26.4309095,2.96297588 26.4817657,3.04960867 26.4388869,3.15672441 L26.1972368,3.76181083 C26.154358,3.86892657 26.0333667,3.95555936 25.9276655,3.95555936" id="Fill-119" fill="#F9FBFC"></path>
                    <path d="M28.9983842,3.95555936 L28.3994109,3.95555936 C28.2937097,3.95555936 28.2425211,3.86892657 28.2850675,3.76181083 L28.5270501,3.15672441 C28.5699288,3.04960867 28.6905877,2.96297588 28.7966213,2.96297588 L29.3952622,2.96297588 C29.5016281,2.96297588 29.5524843,3.04960867 29.5096056,3.15672441 L29.2679554,3.76181083 C29.2250766,3.86892657 29.1044178,3.95555936 28.9983842,3.95555936" id="Fill-121" fill="#F9FBFC"></path>
                    <path d="M31.4550057,3.95555936 L30.8560324,3.95555936 C30.7503312,3.95555936 30.6991426,3.86892657 30.741689,3.76181083 L30.9836715,3.15672441 C31.0265503,3.04960867 31.1472092,2.96297588 31.2532427,2.96297588 L31.8518836,2.96297588 C31.9582496,2.96297588 32.0091058,3.04960867 31.9665594,3.15672441 L31.7245769,3.76181083 C31.6816981,3.86892657 31.5610392,3.95555936 31.4550057,3.95555936" id="Fill-123" fill="#F9FBFC"></path>
                    <path d="M21.715607,6.80960626 L21.1166337,6.80960626 C21.0106001,6.80960626 20.9594115,6.72263768 21.0022903,6.61552193 L21.2442728,6.0107713 C21.2871516,5.90365556 21.4074781,5.81668698 21.513844,5.81668698 L22.1124849,5.81668698 C22.2185185,5.81668698 22.2697071,5.90365556 22.2268283,6.0107713 L21.9851782,6.61552193 C21.9422994,6.72263768 21.8213081,6.80960626 21.715607,6.80960626" id="Fill-125" fill="#F9FBFC"></path>
                    <path d="M19.2586863,6.80960626 L18.6600455,6.80960626 C18.5540119,6.80960626 18.5028233,6.72263768 18.5453697,6.61552193 L18.7876846,6.0107713 C18.8305634,5.90365556 18.9508899,5.81668698 19.0572558,5.81668698 L19.6555643,5.81668698 C19.7619303,5.81668698 19.8131189,5.90365556 19.7702401,6.0107713 L19.52859,6.61552193 C19.4857112,6.72263768 19.3647199,6.80960626 19.2586863,6.80960626" id="Fill-127" fill="#F9FBFC"></path>
                    <path d="M24.7863588,6.80960626 L24.1873856,6.80960626 C24.081352,6.80960626 24.0304958,6.72263768 24.0730422,6.61552193 L24.3150247,6.0107713 C24.3579035,5.90365556 24.47823,5.81668698 24.5845959,5.81668698 L25.1832368,5.81668698 C25.2892704,5.81668698 25.340459,5.90365556 25.2975802,6.0107713 L25.0559301,6.61552193 C25.0130513,6.72263768 24.89206,6.80960626 24.7863588,6.80960626" id="Fill-129" fill="#F9FBFC"></path>
                    <path d="M27.8571107,6.80960626 L27.2581375,6.80960626 C27.1521039,6.80960626 27.1012477,6.72263768 27.143794,6.61552193 L27.3857766,6.0107713 C27.4286554,5.90365556 27.5489819,5.81668698 27.6553478,5.81668698 L28.2539887,5.81668698 C28.3600223,5.81668698 28.4112109,5.90365556 28.3683321,6.0107713 L28.126682,6.61552193 C28.0838032,6.72263768 27.9628119,6.80960626 27.8571107,6.80960626" id="Fill-131" fill="#BFD9FF"></path>
                    <path d="M20.5739679,9.66345167 L19.9749946,9.66345167 C19.8692934,9.66345167 19.8181048,9.57681888 19.8606512,9.46970314 L20.1026337,8.86461672 C20.1455125,8.75750098 20.2661714,8.67086819 20.3725373,8.67086819 L20.9708458,8.67086819 C21.0772118,8.67086819 21.1284004,8.75750098 21.0855216,8.86461672 L20.8435391,9.46970314 C20.8006603,9.57681888 20.6800014,9.66345167 20.5739679,9.66345167" id="Fill-133" fill="#F9FBFC"></path>
                    <path d="M24.2423302,57.127142 L23.3983828,57.127142 C23.2488057,57.127142 23.1766763,57.0049159 23.2371719,56.8541479 L23.5778754,56.0012514 C23.638371,55.8501477 23.8082242,55.7279216 23.9578013,55.7279216 L24.8017487,55.7279216 C24.9513258,55.7279216 25.0234552,55.8501477 24.9629596,56.0012514 L24.6222561,56.8541479 C24.5617605,57.0049159 24.391575,57.127142 24.2423302,57.127142" id="Fill-135" fill="#4385FF"></path>
                    <path d="M32.8984914,57.127142 L32.054544,57.127142 C31.9052993,57.127142 31.8328375,57.0049159 31.8933331,56.8541479 L32.234369,56.0012514 C32.2948646,55.8501477 32.4647177,55.7279216 32.6142948,55.7279216 L33.4582422,55.7279216 C33.607487,55.7279216 33.6799488,55.8501477 33.6194531,56.0012514 L33.2784173,56.8541479 C33.2179216,57.0049159 33.0477361,57.127142 32.8984914,57.127142" id="Fill-137" fill="#4385FF"></path>
                    <path d="M22.633246,61.1496907 L21.7892986,61.1496907 C21.6400539,61.1496907 21.5679245,61.0274645 21.6284201,60.8766966 L21.9691236,60.0238001 C22.0296192,59.8726964 22.1994723,59.7504703 22.3490495,59.7504703 L23.1929968,59.7504703 C23.3422416,59.7504703 23.4147034,59.8726964 23.3542077,60.0238001 L23.0131719,60.8766966 C22.9526763,61.0274645 22.7828231,61.1496907 22.633246,61.1496907" id="Fill-139" fill="#BFD9FF"></path>
                    <path d="M26.9615094,61.1496907 L26.117562,61.1496907 C25.9683173,61.1496907 25.8958555,61.0274645 25.9563511,60.8766966 L26.297387,60.0238001 C26.3578826,59.8726964 26.5277357,59.7504703 26.6773129,59.7504703 L27.5212602,59.7504703 C27.670505,59.7504703 27.7429668,59.8726964 27.6824711,60.0238001 L27.3414353,60.8766966 C27.2809397,61.0274645 27.1107541,61.1496907 26.9615094,61.1496907" id="Fill-141" fill="#FF8D02"></path>
                    <path d="M31.2897728,61.1496907 L30.4458254,61.1496907 C30.2965807,61.1496907 30.2241189,61.0274645 30.2846145,60.8766966 L30.6256504,60.0238001 C30.686146,59.8726964 30.8556667,59.7504703 31.0055763,59.7504703 L31.8495236,59.7504703 C31.9987684,59.7504703 32.0712302,59.8726964 32.0107345,60.0238001 L31.6696987,60.8766966 C31.609203,61.0274645 31.4390175,61.1496907 31.2897728,61.1496907" id="Fill-143" fill="#BFD9FF"></path>
                    <path d="M34.752317,61.1496907 L33.9083697,61.1496907 C33.7591249,61.1496907 33.6866631,61.0274645 33.7471588,60.8766966 L34.0881946,60.0238001 C34.1486902,59.8726964 34.3185434,59.7504703 34.4681205,59.7504703 L35.3120679,59.7504703 C35.4613126,59.7504703 35.5337744,59.8726964 35.4732788,60.0238001 L35.1322429,60.8766966 C35.0717473,61.0274645 34.9015618,61.1496907 34.752317,61.1496907" id="Fill-145" fill="#BFD9FF"></path>
                    <path d="M21.0245274,65.1722393 L20.18058,65.1722393 C20.0313353,65.1722393 19.9588735,65.0500132 20.0193691,64.8992453 L20.360405,64.0463488 C20.4209006,63.8955809 20.5907537,63.773019 20.7403309,63.773019 L21.5842782,63.773019 C21.733523,63.773019 21.8059848,63.8955809 21.7454891,64.0463488 L21.4044533,64.8992453 C21.3439577,65.0500132 21.1737721,65.1722393 21.0245274,65.1722393" id="Fill-147" fill="#BFD9FF"></path>
                    <path d="M17.5619832,65.1722393 L16.7180358,65.1722393 C16.5687911,65.1722393 16.4963292,65.0500132 16.5568249,64.8992453 L16.8978607,64.0463488 C16.9583564,63.8955809 17.1282095,63.773019 17.2777866,63.773019 L18.121734,63.773019 C18.2709787,63.773019 18.3434405,63.8955809 18.2829449,64.0463488 L17.9419091,64.8992453 C17.8814134,65.0500132 17.7112279,65.1722393 17.5619832,65.1722393" id="Fill-149" fill="#BFD9FF"></path>
                    <path d="M25.3527908,65.1722393 L24.5088434,65.1722393 C24.3595987,65.1722393 24.2871369,65.0500132 24.3476325,64.8992453 L24.6886684,64.0463488 C24.749164,63.8955809 24.9190171,63.773019 25.0685943,63.773019 L25.9125416,63.773019 C26.0617864,63.773019 26.1339158,63.8955809 26.0734201,64.0463488 L25.7327167,64.8992453 C25.6722211,65.0500132 25.5020355,65.1722393 25.3527908,65.1722393" id="Fill-151" fill="#BFD9FF"></path>
                    <path d="M29.6810542,65.1722393 L28.8371068,65.1722393 C28.6875297,65.1722393 28.6154003,65.0500132 28.6758959,64.8992453 L29.0165994,64.0463488 C29.077095,63.8955809 29.2469481,63.773019 29.3968577,63.773019 L30.240805,63.773019 C30.3900498,63.773019 30.4621792,63.8955809 30.4016835,64.0463488 L30.0609801,64.8992453 C30.0004845,65.0500132 29.8302989,65.1722393 29.6810542,65.1722393" id="Fill-153" fill="#FF8D02"></path>
                    <path d="M19.4157756,69.194788 L18.5718282,69.194788 C18.4225835,69.194788 18.3501217,69.0725619 18.4106173,68.921794 L18.7516531,68.0688975 C18.8121488,67.9181295 18.9816695,67.7955676 19.131579,67.7955676 L19.9755264,67.7955676 C20.1247711,67.7955676 20.1969006,67.9181295 20.1364049,68.0688975 L19.7957015,68.921794 C19.7352058,69.0725619 19.5650203,69.194788 19.4157756,69.194788" id="Fill-155" fill="#FF8D02"></path>
                    <polygon id="Fill-157" fill="url(#linearGradient-31)" points="42.9530989 40.1883153 19.0011478 40.1883153 22.9622824 32.3708808 46.914566 32.3708808"></polygon>
                    <path d="M42.2509839,36.2477655 C41.8175427,38.0035906 40.0571861,39.4269876 38.3194323,39.4269876 C36.5813461,39.4269876 35.5236696,38.0035906 35.9567785,36.2477655 C36.3902198,34.4919404 38.1505763,33.0685434 39.8886625,33.0685434 C41.6264163,33.0685434 42.6844252,34.4919404 42.2509839,36.2477655" id="Fill-159" fill="url(#linearGradient-32)"></path>
                    <path d="M38.8853601,37.2349372 C38.8483366,37.2349372 38.814916,37.2137541 38.7937952,37.1715735 L38.4896558,36.5658092 C38.4474142,36.4814481 38.4701501,36.3445008 38.5407184,36.2599539 C38.6112867,36.1755929 38.7027273,36.1755929 38.7452174,36.2599539 L38.9724523,36.7126048 L39.7841121,35.7409663 C39.8548046,35.6564194 39.9462452,35.6564194 39.9887353,35.7409663 C40.0312254,35.8253273 40.008241,35.9622746 39.9377969,36.0468215 L38.99817,37.1715735 C38.9628858,37.2137541 38.9223836,37.2349372 38.8853601,37.2349372" id="Fill-161" fill="#FFFFFF"></path>
                    <g id="Group-165" transform="translate(0.000000, 85.289650)">
                        <mask id="mask-34" fill="white">
                            <use xlink:href="#path-33"></use>
                        </mask>
                        <g id="Clip-164"></g>
                        <path d="M32.4602969,1.64541868 C32.4602969,2.40563823 25.1938402,3.02214137 16.2301817,3.02214137 C7.26652319,3.02214137 6.64787221e-05,2.40563823 6.64787221e-05,1.64541868 C6.64787221e-05,0.884863331 7.26652319,0.268360191 16.2301817,0.268360191 C25.1938402,0.268360191 32.4602969,0.884863331 32.4602969,1.64541868" id="Fill-163" fill="#BFD9FF" mask="url(#mask-34)"></path>
                    </g>
                    <path d="M10.3002797,82.4793226 C10.3002797,82.4793226 10.6446395,81.7338776 11.9236901,81.9326629 C13.2024083,82.1314483 13.3499911,82.3799299 13.4975738,83.0259822 C13.6451566,83.6720345 14.0879049,84.3677832 14.382738,84.5165364 C14.6782359,84.6659612 15.7601771,85.4110704 16.6456737,85.5601594 C17.5311703,85.7092484 17.6295588,86.255908 17.4327818,86.5043897 C17.2356724,86.7528713 13.8911278,86.9513209 13.153214,86.8519282 C13.153214,86.8519282 10.6446395,86.8025676 10.0543084,86.6037823 C9.46397735,86.4046612 10.2510854,82.7278042 10.3002797,82.4793226" id="Fill-166" fill="#16142A"></path>
                    <path d="M16.7089282,82.4793226 C16.7089282,82.4793226 17.053288,81.7338776 18.3323386,81.9326629 C19.6110568,82.1314483 19.7586396,82.3799299 19.9062223,83.0259822 C20.0538051,83.6720345 20.4965534,84.3677832 20.7917189,84.5165364 C21.0868844,84.6659612 22.169158,85.4110704 23.0543222,85.5601594 C23.9398188,85.7092484 24.0382073,86.255908 23.8414303,86.5043897 C23.6446533,86.7528713 20.2997764,86.9513209 19.5618626,86.8519282 C19.5618626,86.8519282 17.053288,86.8025676 16.4629569,86.6037823 C15.8726259,86.4046612 16.6600663,82.7278042 16.7089282,82.4793226" id="Fill-168" fill="#16142A"></path>
                    <path d="M16.7647371,11.2431906 C16.7647371,11.2431906 18.2202887,11.6196067 19.0442925,13.8767604 C19.4795342,15.0682132 19.532017,16.9670559 19.4037037,18.5777027 L19.4123415,18.592057 C19.5471175,18.8174613 19.6931248,19.1062532 19.6931248,19.2995368 C19.6931248,19.5015371 19.4773355,19.5898627 19.2886256,19.6284835 C19.1557998,20.5774398 18.962788,21.2975387 18.7697353,21.4957453 C18.4822198,21.7911151 17.8878846,21.8728018 17.0548852,21.7729452 L17.0542187,23.8030654 C17.0542187,23.8030654 14.5948384,24.3000287 11.545127,23.7036727 L12.5539323,20.0511953 C11.362529,18.904866 10.842046,17.219832 10.5253766,15.9932197 C9.68840952,12.7481836 12.481513,9.40912734 16.7647371,11.2431906 Z" id="Combined-Shape" fill="url(#linearGradient-35)"></path>
                    <path d="M14.1520236,46.7105894 C11.9386145,45.0706105 9.43003996,44.9218573 8.24937786,46.7105894 C8.24937786,46.7105894 7.36388128,51.9280326 8.24937786,57.8912567 C8.55318562,59.9378725 8.96169737,61.3522032 9.43236672,62.32699 C8.96435652,63.1207882 9.1162604,63.9777141 9.1162604,63.9777141 C9.1162604,63.9777141 8.80613716,65.2123993 8.67484168,68.0766541 C8.54354621,70.9409089 10.2959253,82.702486 10.2959253,82.702486 C10.9314619,83.0809168 13.5527179,83.0208111 13.5527179,83.0208111 C13.5527179,83.0208111 14.7543208,65.2966816 14.1031617,63.4196378 C14.0340239,63.2208524 13.9678775,63.0341554 13.9020636,62.8561888 C14.4604849,61.2749724 14.7044618,58.9043231 14.8899374,57.5927429 C15.1847705,55.5058327 16.3654326,48.3505683 14.1520236,46.7105894" id="Fill-176" fill="url(#linearGradient-36)"></path>
                    <path d="M10.9202602,23.6810407 C10.9202602,23.6810407 11.2496623,22.5111622 11.5451602,22.4117696 C11.8403258,22.3123769 15.4800358,21.9148062 17.447806,23.1075182 C18.3333025,23.8029311 18.2345816,24.2998944 18.2345816,24.2998944 C18.2345816,24.2998944 12.3618513,23.1615797 10.9202602,23.6810407" id="Fill-178" fill="#FFFFFF"></path>
                    <path d="M22.2447111,64.1999709 C22.7921634,60.0167486 22.5880737,51.3581702 21.9731455,48.499288 C21.2352317,45.0705769 18.8739075,44.7727347 15.7753343,46.8596448 C12.6764286,48.946555 14.4470894,53.717067 14.4470894,53.717067 C15.4166816,57.743813 16.5238847,60.7930859 17.5892062,62.9313713 C17.2046268,63.6052938 17.2511619,64.3013783 17.2511619,64.3013783 C17.2511619,64.3013783 16.8084136,65.4940902 16.3653329,68.3261096 C15.9225846,71.1588005 16.5996704,82.861615 16.5996704,82.861615 C17.1900015,83.3085462 20.0864794,83.1399816 20.0864794,83.1399816 C20.0864794,83.1399816 22.7107269,66.2391994 22.2683111,64.3013783 C22.2603336,64.2664565 22.2523562,64.2342211 22.2447111,64.1999709" id="Fill-180" fill="url(#linearGradient-37)"></path>
                    <path d="M8.22218806,35.9697011 C8.02541105,34.5782038 7.43507999,27.7211174 7.6321894,26.7271908 C7.81567068,25.7980709 8.60144917,24.0882484 10.2291807,23.5439393 C10.3431917,23.5056597 10.460859,23.4734242 10.5835123,23.4475687 C10.5835123,23.4475687 16.6826026,23.049998 21.0113646,24.9381229 C21.0113646,24.9381229 22.4931753,26.1818743 22.7670677,32.5171492 C22.7670677,32.5171492 22.6859636,33.5856203 22.4486346,35.8598991 C22.2116379,38.1341778 22.5672991,39.8100859 22.9229603,42.0843646 C23.278289,44.3583076 23.9274538,49.44513 21.3204907,49.9239609 C18.495145,52.4843294 8.78293608,49.1513173 7.85854945,51.8127573 C7.0292274,51.2140508 8.34849764,44.2387677 8.34849764,42.0843646 C8.34849764,39.9296257 8.22218806,35.9697011 8.22218806,35.9697011" id="Fill-182" fill="url(#linearGradient-38)"></path>
                    <path d="M13.8569578,52.5989667 C13.8569578,52.5989667 15.9227841,59.3072999 17.4724031,62.586922" id="Stroke-184" stroke="#2A2E59" stroke-width="0.5"></path>
                    <line x1="13.4142095" y1="64.9718758" x2="12.9714612" y2="80.1772743" id="Stroke-186" stroke="#2A2E59" stroke-width="0.5"></line>
                    <path d="M18.695678,10.6878677 C18.7757849,10.8470303 18.8352834,11.0166022 18.928686,11.1680417 C19.1464038,11.5209528 19.5439465,11.7741355 19.6283745,12.1814439 C19.7347405,12.6951965 19.4153102,12.7267604 19.9281936,12.9064059 C20.2446323,13.0172153 20.5580794,13.0014334 20.6408455,13.419487 C20.7688936,14.0662618 19.7079231,15.0443146 18.4030387,15.3988948 C18.2223095,15.5852407 18.0693749,15.7526594 18.0177945,15.8916109 C17.8602399,16.3163802 18.2215518,16.8496084 18.0636648,17.1148793 C17.9064427,17.3804861 17.8562512,17.9231163 17.8562512,17.9231163 L17.9104314,18.5241733 C17.930375,18.7437773 17.7827922,18.9432342 17.5683984,18.9865506 L17.4424212,19.0117346 C17.2612667,19.0483353 17.0804445,18.9506215 17.0123038,18.7770202 C16.8235043,18.2975177 16.4332742,17.4019764 16.1268073,17.3244098 C15.7066617,17.2183014 15.2861838,17.9613959 15.1286293,18.3327752 C15.0398802,18.5423057 14.8168441,19.1077694 14.6390135,19.5617521 C14.4831209,19.958987 14.1158259,20.2286231 13.6943508,20.2591797 C13.2399688,20.2920867 12.6951756,20.3149201 12.4950747,20.257165 C12.1439005,20.155897 10.4121444,16.9484252 10.2092236,15.1798772 C10.0155983,15.1078427 9.99381732,14.9006382 9.98364152,14.6430913 C9.96004158,14.0326323 9.93610924,13.3459498 10.0936638,12.746236 C10.2901084,11.997769 10.7541299,11.3345916 11.2656837,10.7711426 C12.7318719,9.15534026 14.7757602,10.0528963 15.3089196,9.91824611 C15.9052337,9.94141535 16.3622749,9.59589153 16.9040765,9.55794771 C17.6187228,9.50825137 18.3855548,10.0713645 18.695678,10.6878677 Z" id="Combined-Shape" fill="url(#linearGradient-39)"></path>
                    <path d="M37.1907233,33.9802361 C37.165129,33.9708341 37.1421938,33.9674762 37.1259066,33.9775498 C36.9035352,34.1122 35.7926758,35.2343969 35.7926758,35.2343969 L34.4597774,35.4140424 L34.9041877,37.1644949 L36.3703759,36.5808988 C36.3703759,36.5808988 36.5924148,36.7605444 37.2591964,36.6708895 C37.7724121,36.6017176 38.2823039,36.2407476 38.4913795,35.9959596 L38.4142642,36.1322887 C38.1031438,36.6258942 38.4142642,36.7605444 38.4142642,36.7605444 L39.258544,35.8626525 C39.258544,35.8626525 39.1039809,34.9587166 38.9234912,34.6323325 C39.2508989,34.5880088 39.5460644,34.5450282 39.7029542,34.5161506 C40.1915728,34.4264957 40.2806543,34.1122 40.2806543,34.1122 L37.1907233,33.9802361 Z" id="Fill-192" fill="url(#linearGradient-40)"></path>
                    <path d="M20.5957064,24.8962755 C20.5957064,24.8962755 17.619454,24.8653916 17.7082031,28.546278 C17.7972846,32.2271644 24.018031,38.2417637 25.706257,38.96001 C27.3948177,39.6779205 34.5928013,37.7031629 35.2150422,37.3442076 C35.837283,36.9849166 35.6594524,35.4587691 34.6818828,35.0998138 L27.3060686,34.7405228 C27.3060686,34.7405228 22.6834707,25.1964766 20.5957064,24.8962755" id="Fill-194" fill="#FFFFFF"></path>
                    <path d="M58.9706152,19.8868937 C58.7063623,19.8868937 58.535512,19.6021472 58.3693152,19.3247879 C58.1888254,19.0242594 57.9647921,18.649858 57.5735649,18.4275676 C57.1344729,18.1784144 56.8233525,18.3896238 56.2679228,18.8187584 C55.9135912,19.0927598 55.5117273,19.4036976 54.9636102,19.6112134 C54.14426,19.9218154 53.9301985,19.538012 53.7028413,19.1323825 C53.5200248,18.8066701 53.3129436,18.4373054 52.725604,18.2714271 C51.9813748,18.0605535 51.5476011,18.3338833 50.9476306,18.7123142 C50.5038852,18.9923597 49.951447,19.3409056 49.1347559,19.5588308 C47.1603378,20.087358 46.7840683,19.0192226 46.7691105,18.9735557 C46.747505,18.9074059 46.7824063,18.8362192 46.8478878,18.8140574 C46.9127046,18.7922313 46.983172,18.8274888 47.00511,18.8929671 C47.0187381,18.9309109 47.3385008,19.7784348 49.0712687,19.3157217 C49.8510641,19.1068628 50.3636151,18.7838366 50.8156704,18.4987543 C51.4448915,18.1018552 51.9414875,17.7882311 52.7930799,18.0286538 C53.4791404,18.2227382 53.7234497,18.6582526 53.9198943,19.0084775 C54.1372797,19.3959745 54.2562766,19.6098702 54.8761907,19.3754916 C55.3894064,19.1807357 55.7756478,18.8822219 56.1163513,18.6189657 C56.6392064,18.2143435 57.0902645,17.8637829 57.6955533,18.2082994 C58.1442847,18.4628252 58.3872644,18.8684547 58.5827119,19.1941671 C58.8240296,19.5974461 58.9081252,19.6887799 59.074322,19.6044977 C59.1358148,19.5732696 59.2112682,19.5984535 59.241516,19.6609097 C59.2724286,19.7230301 59.2474991,19.798582 59.1860063,19.8298101 C59.1075614,19.8694328 59.0360967,19.8868937 58.9706152,19.8868937" id="Fill-198" fill="url(#linearGradient-41)"></path>
                    <polygon id="Fill-200" fill="#DDE5F9" points="47.3141364 21.5772741 47.2356915 21.5504112 48.5100886 17.7449482 48.5885335 17.7718111"></polygon>
                    <polygon id="Fill-202" fill="#DDE5F9" points="49.4649557 21.5772741 49.3685615 21.5443671 50.9318087 16.9048116 51.0282028 16.9377186"></polygon>
                    <polygon id="Fill-204" fill="#DDE5F9" points="51.583965 21.5772741 51.4875708 21.5443671 53.050818 16.9048116 53.1472121 16.9377186"></polygon>
                    <polygon id="Fill-206" fill="#DDE5F9" points="53.5643661 21.5772741 53.4679719 21.5443671 55.0312191 16.9048116 55.1276132 16.9377186"></polygon>
                    <polygon id="Fill-208" fill="#DDE5F9" points="55.8635327 21.5772741 55.7671385 21.5443671 57.3303857 16.9048116 57.4267798 16.9377186"></polygon>
                </g>
            </g>
        </g>
    </g>
</svg>