<?xml version="1.0" encoding="UTF-8"?>
<svg width="743px" height="183px" viewBox="0 0 743 183" version="1.1" xmlns="http://www.w3.org/2000/svg" xmlns:xlink="http://www.w3.org/1999/xlink">
    <!-- Generator: Sketch 61 (89581) - https://sketch.com -->
    <title>Group 22</title>
    <desc>Created with Sketch.</desc>
    <g id="Page-1" stroke="none" stroke-width="1" fill="none" fill-rule="evenodd">
        <g id="WP-ERP-PRO-Page-Design" transform="translate(-356.000000, -4000.000000)">
            <g id="Group-6" transform="translate(278.000000, 3913.000000)">
                <g id="Group-22" transform="translate(78.000000, 87.000000)">
                    <g id="Group-5-Copy-6" transform="translate(586.000000, 148.000000)" fill="#30CFEC">
                        <polygon id="Fill-1" points="19.0486064 0.000143999988 13.0927669 4.55126361 6.22540746 0.000143999988 0.000287999974 4.86734358 0.887327924 6.00206348 6.29452746 1.77278385 13.1518069 6.31742346 19.1004464 1.77278385 25.8230858 6.31742346 31.9056453 1.77278385 38.4922047 6.31742346 44.7122842 1.77278385 51.1620436 6.31742346 57.516763 1.77278385 63.8326025 6.31742346 70.7453219 1.47614387 69.919482 0.296783974 63.8434025 4.55126361 57.519643 0.000863999926 51.1562836 4.55126361 44.6964442 0.000863999926 38.4684447 4.55126361 31.8718053 0.000863999926 25.7806058 4.55126361"></polygon>
                        <polygon id="Fill-2" points="13.0928389 13.9269588 6.22547946 9.37511919 0.00035999997 14.2423188 0.887399924 15.3770387 6.29459946 11.149199 13.1518789 15.6923986 19.1005184 11.149199 25.8231578 15.6923986 31.9057173 11.148479 38.4922767 15.6923986 44.7123562 11.148479 51.1621156 15.6923986 57.516835 11.148479 63.8326745 15.6923986 70.7453939 10.8525591 69.919554 9.67247917 63.8434745 13.9269588 57.519715 9.37583919 51.1563556 13.9269588 44.6965162 9.37583919 38.4685167 13.9269588 31.8718773 9.37583919 25.7806778 13.9269588 19.0486784 9.37511919"></polygon>
                        <polygon id="Fill-3" points="13.0928389 23.301574 6.22547946 18.7497344 0.00035999997 23.616934 0.887399924 24.7516539 6.29459946 20.5238142 13.1518789 25.0677338 19.1005184 20.5238142 25.8231578 25.0677338 31.9057173 20.5230942 38.4922767 25.0677338 44.7123562 20.5230942 51.1621156 25.0677338 57.516835 20.5230942 63.8326745 25.0677338 70.7453939 20.2264543 69.919554 19.0470944 63.8434745 23.301574 57.519715 18.7504544 51.1563556 23.301574 44.6965162 18.7504544 38.4685167 23.301574 31.8718773 18.7504544 25.7806778 23.301574 19.0486784 18.7497344"></polygon>
                        <polygon id="Fill-4" points="13.0928389 32.6768372 6.22547946 28.1257176 0.00035999997 32.9921972 0.887399924 34.1276371 6.29459946 29.8990774 13.1518789 34.442997 19.1005184 29.8990774 25.8231578 34.442997 31.9057173 29.8983574 38.4922767 34.442997 44.7123562 29.8983574 51.1621156 34.442997 57.516835 29.8983574 63.8326745 34.442997 70.7453939 29.6017175 69.919554 28.4230776 63.8434745 32.6768372 57.519715 28.1264376 51.1563556 32.6768372 44.6965162 28.1264376 38.4685167 32.6768372 31.8718773 28.1264376 25.7806778 32.6768372 19.0486784 28.1257176"></polygon>
                    </g>
                    <g id="Group-5-Copy-8" transform="translate(0.000000, 17.000000)" fill="#02AEFF">
                        <polygon id="Fill-1" points="19.0486064 0.000143999988 13.0927669 4.55126361 6.22540746 0.000143999988 0.000287999974 4.86734358 0.887327924 6.00206348 6.29452746 1.77278385 13.1518069 6.31742346 19.1004464 1.77278385 25.8230858 6.31742346 31.9056453 1.77278385 38.4922047 6.31742346 44.7122842 1.77278385 51.1620436 6.31742346 57.516763 1.77278385 63.8326025 6.31742346 70.7453219 1.47614387 69.919482 0.296783974 63.8434025 4.55126361 57.519643 0.000863999926 51.1562836 4.55126361 44.6964442 0.000863999926 38.4684447 4.55126361 31.8718053 0.000863999926 25.7806058 4.55126361"></polygon>
                        <polygon id="Fill-2" points="13.0928389 13.9269588 6.22547946 9.37511919 0.00035999997 14.2423188 0.887399924 15.3770387 6.29459946 11.149199 13.1518789 15.6923986 19.1005184 11.149199 25.8231578 15.6923986 31.9057173 11.148479 38.4922767 15.6923986 44.7123562 11.148479 51.1621156 15.6923986 57.516835 11.148479 63.8326745 15.6923986 70.7453939 10.8525591 69.919554 9.67247917 63.8434745 13.9269588 57.519715 9.37583919 51.1563556 13.9269588 44.6965162 9.37583919 38.4685167 13.9269588 31.8718773 9.37583919 25.7806778 13.9269588 19.0486784 9.37511919"></polygon>
                        <polygon id="Fill-3" points="13.0928389 23.301574 6.22547946 18.7497344 0.00035999997 23.616934 0.887399924 24.7516539 6.29459946 20.5238142 13.1518789 25.0677338 19.1005184 20.5238142 25.8231578 25.0677338 31.9057173 20.5230942 38.4922767 25.0677338 44.7123562 20.5230942 51.1621156 25.0677338 57.516835 20.5230942 63.8326745 25.0677338 70.7453939 20.2264543 69.919554 19.0470944 63.8434745 23.301574 57.519715 18.7504544 51.1563556 23.301574 44.6965162 18.7504544 38.4685167 23.301574 31.8718773 18.7504544 25.7806778 23.301574 19.0486784 18.7497344"></polygon>
                        <polygon id="Fill-4" points="13.0928389 32.6768372 6.22547946 28.1257176 0.00035999997 32.9921972 0.887399924 34.1276371 6.29459946 29.8990774 13.1518789 34.442997 19.1005184 29.8990774 25.8231578 34.442997 31.9057173 29.8983574 38.4922767 34.442997 44.7123562 29.8983574 51.1621156 34.442997 57.516835 29.8983574 63.8326745 34.442997 70.7453939 29.6017175 69.919554 28.4230776 63.8434745 32.6768372 57.519715 28.1264376 51.1563556 32.6768372 44.6965162 28.1264376 38.4685167 32.6768372 31.8718773 28.1264376 25.7806778 32.6768372 19.0486784 28.1257176"></polygon>
                    </g>
                    <g id="Group-5-Copy-9" opacity="0.558942522" transform="translate(224.000000, 134.500000) rotate(-90.000000) translate(-224.000000, -134.500000) translate(209.000000, 127.000000)" fill="#02AEFF">
                        <polygon id="Fill-1" points="8.04274421 6.07999892e-05 5.52805664 1.92164447 2.62850515 6.07999892e-05 0.000121599979 2.05510044 0.374649535 2.53420436 2.65768914 0.748508671 5.55298464 2.66735634 8.06463221 0.748508671 10.9030797 2.66735634 13.4712713 0.748508671 16.2522628 2.66735634 18.8785183 0.748508671 21.6017499 2.66735634 24.2848534 0.748508671 26.9515409 2.66735634 29.8702444 0.623260692 29.5215565 0.125308778 26.9561009 1.92164447 24.2860694 0.000364799937 21.5993179 1.92164447 18.8718303 0.000364799937 16.2422308 1.92164447 13.4569833 0.000364799937 10.8851437 1.92164447"></polygon>
                        <polygon id="Fill-2" points="5.52808704 5.88027098 2.62853555 3.95838332 0.000151999974 6.01342296 0.374679935 6.49252688 2.65771954 4.70743919 5.55301504 6.62567886 8.06466261 4.70743919 10.9031101 6.62567886 13.4713017 4.70713519 16.2522932 6.62567886 18.8785487 4.70713519 21.6017803 6.62567886 24.2848838 4.70713519 26.9515713 6.62567886 29.8702748 4.58219121 29.5215869 4.08393529 26.9561313 5.88027098 24.2860998 3.95868732 21.5993483 5.88027098 18.8718607 3.95868732 16.2422612 5.88027098 13.4570137 3.95868732 10.8851741 5.88027098 8.04277461 3.95838332"></polygon>
                        <polygon id="Fill-3" points="5.52808704 9.8384415 2.62853555 7.91655383 0.000151999974 9.97159348 0.374679935 10.4506974 2.65771954 8.6656097 5.55301504 10.5841534 8.06466261 8.6656097 10.9031101 10.5841534 13.4713017 8.6653057 16.2522932 10.5841534 18.8785487 8.6653057 21.6017803 10.5841534 24.2848838 8.6653057 26.9515713 10.5841534 29.8702748 8.54005772 29.5215869 8.04210581 26.9561313 9.8384415 24.2860998 7.91685783 21.5993483 9.8384415 18.8718607 7.91685783 16.2422612 9.8384415 13.4570137 7.91685783 10.8851741 9.8384415 8.04277461 7.91655383"></polygon>
                        <polygon id="Fill-4" points="5.52808704 13.7968856 2.62853555 11.8753019 0.000151999974 13.9300376 0.374679935 14.4094455 2.65771954 12.6240538 5.55301504 14.5425975 8.06466261 12.6240538 10.9031101 14.5425975 13.4713017 12.6237498 16.2522932 14.5425975 18.8785487 12.6237498 21.6017803 14.5425975 24.2848838 12.6237498 26.9515713 14.5425975 29.8702748 12.4985018 29.5215869 12.0008539 26.9561313 13.7968856 24.2860998 11.8756059 21.5993483 13.7968856 18.8718607 11.8756059 16.2422612 13.7968856 13.4570137 11.8756059 10.8851741 13.7968856 8.04277461 11.8753019"></polygon>
                    </g>
                    <g id="Group-21-Copy-6" transform="translate(692.000000, 0.000000)" fill="#6DE4AB">
                        <polygon id="Fill-1" points="4.53840368 0 2.87999975 1.65816933 1.22159582 0 0 1.22142301 1.65840393 2.87959234 0 4.53776167 1.22159582 5.7599995 2.87999975 4.10183017 4.53840368 5.7599995 5.7599995 4.53776167 4.10241051 2.87959234 5.7599995 1.22142301"></polygon>
                        <polygon id="Fill-2" points="19.6584024 0 17.9999985 1.65816933 16.3415945 0 15.1199987 1.22142301 16.7784026 2.87959234 15.1199987 4.53776167 16.3415945 5.7599995 17.9999985 4.10183017 19.6584024 5.7599995 20.8799982 4.53776167 19.2224092 2.87959234 20.8799982 1.22142301"></polygon>
                        <polygon id="Fill-3" points="34.0584011 0 32.3991823 1.65816933 30.7415933 0 29.5199975 1.22142301 31.1775864 2.87959234 29.5199975 4.53776167 30.7415933 5.7599995 32.3991823 4.10183017 34.0584011 5.7599995 35.279997 4.53776167 33.621593 2.87959234 35.279997 1.22142301"></polygon>
                        <polygon id="Fill-4" points="49.1783998 0 47.5199959 1.65816933 45.861592 0 44.6399962 1.22142301 46.2984001 2.87959234 44.6399962 4.53776167 45.861592 5.7599995 47.5199959 4.10183017 49.1783998 5.7599995 50.3999957 4.53776167 48.7415917 2.87959234 50.3999957 1.22142301"></polygon>
                        <polygon id="Fill-5" points="2.87999975 18.2181679 1.22159582 16.5599986 0 17.7814216 1.65840393 19.4395909 0 21.0977602 1.22159582 22.3199981 2.87999975 20.6618287 4.53840368 22.3199981 5.7599995 21.0977602 4.10159557 19.4395909 5.7599995 17.7814216 4.53840368 16.5599986"></polygon>
                        <polygon id="Fill-6" points="20.8799982 21.0977602 19.2215943 19.4395909 20.8799982 17.7814216 19.6575874 16.5599986 17.9999985 18.2181679 16.3415945 16.5599986 15.1199987 17.7814216 16.7775877 19.4395909 15.1199987 21.0977602 16.3415945 22.3199981 17.9999985 20.6618287 19.6575874 22.3199981"></polygon>
                        <polygon id="Fill-7" points="35.279997 21.0977602 33.621593 19.4395909 35.279997 17.7814216 34.0584011 16.5599986 32.3999972 18.2181679 30.7415933 16.5599986 29.5199975 17.7814216 31.1775864 19.4395909 29.5199975 21.0977602 30.7415933 22.3199981 32.3999972 20.6618287 34.0584011 22.3199981"></polygon>
                        <polygon id="Fill-8" points="47.5199959 18.2181679 45.861592 16.5599986 44.6399962 17.7814216 46.2984001 19.4395909 44.6399962 21.0977602 45.861592 22.3199981 47.5199959 20.6618287 49.1783998 22.3199981 50.3999957 21.0977602 48.7415917 19.4395909 50.3999957 17.7814216 49.1783998 16.5599986"></polygon>
                        <polygon id="Fill-9" points="2.87999975 32.6181667 1.22159582 30.9599973 0 32.1814203 1.65840393 33.8395897 0 35.497759 1.22159582 36.7199968 2.87999975 35.0618275 4.53840368 36.7199968 5.7599995 35.497759 4.10159557 33.8395897 5.7599995 32.1814203 4.53840368 30.9599973"></polygon>
                        <polygon id="Fill-10" points="20.8799982 35.498401 19.2215943 33.8399971 20.8799982 32.1815932 19.6575874 30.9599973 17.9999985 32.6175863 16.3415945 30.9599973 15.1199987 32.1815932 16.7775877 33.8399971 15.1199987 35.498401 16.3415945 36.7199968 17.9999985 35.0615929 19.6575874 36.7199968"></polygon>
                        <polygon id="Fill-11" points="35.279997 35.498401 33.621593 33.8399971 35.279997 32.1815932 34.0584011 30.9599973 32.3999972 32.6175863 30.7415933 30.9599973 29.5199975 32.1815932 31.1775864 33.8399971 29.5199975 35.498401 30.7415933 36.7199968 32.3999972 35.0615929 34.0584011 36.7199968"></polygon>
                        <polygon id="Fill-12" points="47.5199959 32.6181667 45.861592 30.9599973 44.6399962 32.1814203 46.2984001 33.8395897 44.6399962 35.497759 45.861592 36.7199968 47.5199959 35.0618275 49.1783998 36.7199968 50.3999957 35.497759 48.7415917 33.8395897 50.3999957 32.1814203 49.1783998 30.9599973"></polygon>
                        <polygon id="Fill-13" points="2.87999975 49.1781652 1.22159582 47.5199959 0 48.7414189 1.65840393 50.3995882 0 52.0577576 1.22159582 53.2799954 2.87999975 51.6218261 4.53840368 53.2799954 5.7599995 52.0577576 4.10159557 50.3995882 5.7599995 48.7414189 4.53840368 47.5199959"></polygon>
                        <polygon id="Fill-14" points="20.8799982 52.0577576 19.2215943 50.3995882 20.8799982 48.7414189 19.6575874 47.5199959 17.9999985 49.1781652 16.3415945 47.5199959 15.1199987 48.7414189 16.7775877 50.3995882 15.1199987 52.0577576 16.3415945 53.2799954 17.9999985 51.6210113 19.6575874 53.2799954"></polygon>
                        <polygon id="Fill-15" points="35.279997 52.0577576 33.621593 50.3995882 35.279997 48.7414189 34.0584011 47.5199959 32.3999972 49.1781652 30.7415933 47.5199959 29.5199975 48.7414189 31.1775864 50.3995882 29.5199975 52.0577576 30.7415933 53.2799954 32.3999972 51.6210113 34.0584011 53.2799954"></polygon>
                        <polygon id="Fill-16" points="47.5199959 49.1781652 45.861592 47.5199959 44.6399962 48.7414189 46.2984001 50.3995882 44.6399962 52.0577576 45.861592 53.2799954 47.5199959 51.6218261 49.1783998 53.2799954 50.3999957 52.0577576 48.7415917 50.3995882 50.3999957 48.7414189 49.1783998 47.5199959"></polygon>
                        <polygon id="Fill-17" points="2.87999975 62.1381641 1.22159582 60.4799948 0 61.7022326 1.65840393 63.3595871 0 65.0177565 1.22159582 66.2399943 2.87999975 64.581825 4.53840368 66.2399943 5.7599995 65.0177565 4.10159557 63.3595871 5.7599995 61.7022326 4.53840368 60.4799948"></polygon>
                        <polygon id="Fill-18" points="17.9999985 62.1381641 16.3415945 60.4799948 15.1199987 61.7022326 16.7784026 63.3595871 15.1199987 65.0177565 16.3415945 66.2399943 17.9999985 64.581825 19.6584024 66.2399943 20.8799982 65.0177565 19.2215943 63.3595871 20.8799982 61.7022326 19.6584024 60.4799948"></polygon>
                        <polygon id="Fill-19" points="32.3995897 62.1381641 30.7417661 60.4799948 29.5199975 61.7022326 31.177821 63.3595871 29.5199975 65.0177565 30.7417661 66.2399943 32.3995897 64.581825 34.0590433 66.2399943 35.279997 65.0177565 33.6221734 63.3595871 35.279997 61.7022326 34.0590433 60.4799948"></polygon>
                        <polygon id="Fill-20" points="47.5199959 62.1381641 45.861592 60.4799948 44.6399962 61.7022326 46.2984001 63.3595871 44.6399962 65.0177565 45.861592 66.2399943 47.5199959 64.581825 49.1783998 66.2399943 50.3999957 65.0177565 48.7415917 63.3595871 50.3999957 61.7022326 49.1783998 60.4799948"></polygon>
                    </g>
                    <g id="Group-21-Copy-7" opacity="0.342540923" transform="translate(573.000000, 71.000000)" fill="#6DE4AB">
                        <polygon id="Fill-1" points="1.8153615 0 1.15199992 0.663267742 0.488638335 0 0 0.488569211 0.663361583 1.15183695 0 1.81510469 0.488638335 2.30399984 1.15199992 1.64073209 1.8153615 2.30399984 2.30399984 1.81510469 1.64096423 1.15183695 2.30399984 0.488569211"></polygon>
                        <polygon id="Fill-2" points="7.86336107 0 7.19999949 0.663267742 6.5366379 0 6.04799957 0.488569211 6.71136115 1.15183695 6.04799957 1.81510469 6.5366379 2.30399984 7.19999949 1.64073209 7.86336107 2.30399984 8.35199941 1.81510469 7.6889638 1.15183695 8.35199941 0.488569211"></polygon>
                        <polygon id="Fill-3" points="13.6233607 0 12.9596731 0.663267742 12.2966375 0 11.8079992 0.488569211 12.4710348 1.15183695 11.8079992 1.81510469 12.2966375 2.30399984 12.9596731 1.64073209 13.6233607 2.30399984 14.111999 1.81510469 13.4486374 1.15183695 14.111999 0.488569211"></polygon>
                        <polygon id="Fill-4" points="19.6713602 0 19.0079986 0.663267742 18.3446371 0 17.8559987 0.488569211 18.5193603 1.15183695 17.8559987 1.81510469 18.3446371 2.30399984 19.0079986 1.64073209 19.6713602 2.30399984 20.1599986 1.81510469 19.496637 1.15183695 20.1599986 0.488569211"></polygon>
                        <polygon id="Fill-5" points="1.15199992 7.28726727 0.488638335 6.62399953 0 7.11256874 0.663361583 7.77583648 0 8.43910422 0.488638335 8.92799936 1.15199992 8.26473162 1.8153615 8.92799936 2.30399984 8.43910422 1.64063825 7.77583648 2.30399984 7.11256874 1.8153615 6.62399953"></polygon>
                        <polygon id="Fill-6" points="8.35199941 8.43910422 7.68863782 7.77583648 8.35199941 7.11256874 7.86303509 6.62399953 7.19999949 7.28726727 6.5366379 6.62399953 6.04799957 7.11256874 6.71103518 7.77583648 6.04799957 8.43910422 6.5366379 8.92799936 7.19999949 8.26473162 7.86303509 8.92799936"></polygon>
                        <polygon id="Fill-7" points="14.111999 8.43910422 13.4486374 7.77583648 14.111999 7.11256874 13.6233607 6.62399953 12.9599991 7.28726727 12.2966375 6.62399953 11.8079992 7.11256874 12.4710348 7.77583648 11.8079992 8.43910422 12.2966375 8.92799936 12.9599991 8.26473162 13.6233607 8.92799936"></polygon>
                        <polygon id="Fill-8" points="19.0079986 7.28726727 18.3446371 6.62399953 17.8559987 7.11256874 18.5193603 7.77583648 17.8559987 8.43910422 18.3446371 8.92799936 19.0079986 8.26473162 19.6713602 8.92799936 20.1599986 8.43910422 19.496637 7.77583648 20.1599986 7.11256874 19.6713602 6.62399953"></polygon>
                        <polygon id="Fill-9" points="1.15199992 13.0472669 0.488638335 12.3839991 0 12.8725683 0.663361583 13.5358361 0 14.1991038 0.488638335 14.687999 1.15199992 14.0247312 1.8153615 14.687999 2.30399984 14.1991038 1.64063825 13.5358361 2.30399984 12.8725683 1.8153615 12.3839991"></polygon>
                        <polygon id="Fill-10" points="8.35199941 14.1993606 7.68863782 13.535999 8.35199941 12.8726375 7.86303509 12.3839991 7.19999949 13.0470347 6.5366379 12.3839991 6.04799957 12.8726375 6.71103518 13.535999 6.04799957 14.1993606 6.5366379 14.687999 7.19999949 14.0246374 7.86303509 14.687999"></polygon>
                        <polygon id="Fill-11" points="14.111999 14.1993606 13.4486374 13.535999 14.111999 12.8726375 13.6233607 12.3839991 12.9599991 13.0470347 12.2966375 12.3839991 11.8079992 12.8726375 12.4710348 13.535999 11.8079992 14.1993606 12.2966375 14.687999 12.9599991 14.0246374 13.6233607 14.687999"></polygon>
                        <polygon id="Fill-12" points="19.0079986 13.0472669 18.3446371 12.3839991 17.8559987 12.8725683 18.5193603 13.5358361 17.8559987 14.1991038 18.3446371 14.687999 19.0079986 14.0247312 19.6713602 14.687999 20.1599986 14.1991038 19.496637 13.5358361 20.1599986 12.8725683 19.6713602 12.3839991"></polygon>
                        <polygon id="Fill-13" points="1.15199992 19.6712664 0.488638335 19.0079986 0 19.4965679 0.663361583 20.1598356 0 20.8231033 0.488638335 21.3119985 1.15199992 20.6487307 1.8153615 21.3119985 2.30399984 20.8231033 1.64063825 20.1598356 2.30399984 19.4965679 1.8153615 19.0079986"></polygon>
                        <polygon id="Fill-14" points="8.35199941 20.8231033 7.68863782 20.1598356 8.35199941 19.4965679 7.86303509 19.0079986 7.19999949 19.6712664 6.5366379 19.0079986 6.04799957 19.4965679 6.71103518 20.1598356 6.04799957 20.8231033 6.5366379 21.3119985 7.19999949 20.6484048 7.86303509 21.3119985"></polygon>
                        <polygon id="Fill-15" points="14.111999 20.8231033 13.4486374 20.1598356 14.111999 19.4965679 13.6233607 19.0079986 12.9599991 19.6712664 12.2966375 19.0079986 11.8079992 19.4965679 12.4710348 20.1598356 11.8079992 20.8231033 12.2966375 21.3119985 12.9599991 20.6484048 13.6233607 21.3119985"></polygon>
                        <polygon id="Fill-16" points="19.0079986 19.6712664 18.3446371 19.0079986 17.8559987 19.4965679 18.5193603 20.1598356 17.8559987 20.8231033 18.3446371 21.3119985 19.0079986 20.6487307 19.6713602 21.3119985 20.1599986 20.8231033 19.496637 20.1598356 20.1599986 19.4965679 19.6713602 19.0079986"></polygon>
                        <polygon id="Fill-17" points="1.15199992 24.855266 0.488638335 24.1919983 0 24.6808934 0.663361583 25.3438352 0 26.007103 0.488638335 26.4959981 1.15199992 25.8327304 1.8153615 26.4959981 2.30399984 26.007103 1.64063825 25.3438352 2.30399984 24.6808934 1.8153615 24.1919983"></polygon>
                        <polygon id="Fill-18" points="7.19999949 24.855266 6.5366379 24.1919983 6.04799957 24.6808934 6.71136115 25.3438352 6.04799957 26.007103 6.5366379 26.4959981 7.19999949 25.8327304 7.86336107 26.4959981 8.35199941 26.007103 7.68863782 25.3438352 8.35199941 24.6808934 7.86336107 24.1919983"></polygon>
                        <polygon id="Fill-19" points="12.9598361 24.855266 12.2967066 24.1919983 11.8079992 24.6808934 12.4711286 25.3438352 11.8079992 26.007103 12.2967066 26.4959981 12.9598361 25.8327304 13.6236175 26.4959981 14.111999 26.007103 13.4488696 25.3438352 14.111999 24.6808934 13.6236175 24.1919983"></polygon>
                        <polygon id="Fill-20" points="19.0079986 24.855266 18.3446371 24.1919983 17.8559987 24.6808934 18.5193603 25.3438352 17.8559987 26.007103 18.3446371 26.4959981 19.0079986 25.8327304 19.6713602 26.4959981 20.1599986 26.007103 19.496637 25.3438352 20.1599986 24.6808934 19.6713602 24.1919983"></polygon>
                    </g>
                    <g id="Group-21-Copy-9" transform="translate(97.000000, 112.000000)" fill="#FEB71E">
                        <polygon id="Fill-1" points="3.97110322 0 2.51999978 1.45089816 1.06889634 0 0 1.06874513 1.45110344 2.5196433 0 3.97054146 1.06889634 5.03999957 2.51999978 3.5891014 3.97110322 5.03999957 5.03999957 3.97054146 3.5896092 2.5196433 5.03999957 1.06874513"></polygon>
                        <polygon id="Fill-2" points="16.9311021 0 15.4799987 1.45089816 14.0288952 0 12.9599989 1.06874513 14.4111023 2.5196433 12.9599989 3.97054146 14.0288952 5.03999957 15.4799987 3.5891014 16.9311021 5.03999957 17.9999985 3.97054146 16.5496081 2.5196433 17.9999985 1.06874513"></polygon>
                        <polygon id="Fill-3" points="29.891101 0 28.4392845 1.45089816 26.9888941 0 25.9199978 1.06874513 27.3703881 2.5196433 25.9199978 3.97054146 26.9888941 5.03999957 28.4392845 3.5891014 29.891101 5.03999957 30.9599973 3.97054146 29.5088939 2.5196433 30.9599973 1.06874513"></polygon>
                        <polygon id="Fill-4" points="42.8510999 0 41.3999964 1.45089816 39.948893 0 38.8799967 1.06874513 40.3311001 2.5196433 38.8799967 3.97054146 39.948893 5.03999957 41.3999964 3.5891014 42.8510999 5.03999957 43.9199962 3.97054146 42.4688928 2.5196433 43.9199962 1.06874513"></polygon>
                        <polygon id="Fill-5" points="2.51999978 15.8508969 1.06889634 14.3999988 0 15.4687439 1.45110344 16.9196421 0 18.3705402 1.06889634 19.4399983 2.51999978 17.9891002 3.97110322 19.4399983 5.03999957 18.3705402 3.58889613 16.9196421 5.03999957 15.4687439 3.97110322 14.3999988"></polygon>
                        <polygon id="Fill-6" points="17.9999985 18.3705402 16.548895 16.9196421 17.9999985 15.4687439 16.930389 14.3999988 15.4799987 15.8508969 14.0288952 14.3999988 12.9599989 15.4687439 14.4103893 16.9196421 12.9599989 18.3705402 14.0288952 19.4399983 15.4799987 17.9891002 16.930389 19.4399983"></polygon>
                        <polygon id="Fill-7" points="30.9599973 18.3705402 29.5088939 16.9196421 30.9599973 15.4687439 29.891101 14.3999988 28.4399976 15.8508969 26.9888941 14.3999988 25.9199978 15.4687439 27.3703881 16.9196421 25.9199978 18.3705402 26.9888941 19.4399983 28.4399976 17.9891002 29.891101 19.4399983"></polygon>
                        <polygon id="Fill-8" points="41.3999964 15.8508969 39.948893 14.3999988 38.8799967 15.4687439 40.3311001 16.9196421 38.8799967 18.3705402 39.948893 19.4399983 41.3999964 17.9891002 42.8510999 19.4399983 43.9199962 18.3705402 42.4688928 16.9196421 43.9199962 15.4687439 42.8510999 14.3999988"></polygon>
                        <polygon id="Fill-9" points="2.51999978 28.0908959 1.06889634 26.6399977 0 27.7087428 1.45110344 29.159641 0 30.6105392 1.06889634 31.6799973 2.51999978 30.2290991 3.97110322 31.6799973 5.03999957 30.6105392 3.58889613 29.159641 5.03999957 27.7087428 3.97110322 26.6399977"></polygon>
                        <polygon id="Fill-10" points="17.9999985 30.6111009 16.548895 29.1599975 17.9999985 27.708894 16.930389 26.6399977 15.4799987 28.0903881 14.0288952 26.6399977 12.9599989 27.708894 14.4103893 29.1599975 12.9599989 30.6111009 14.0288952 31.6799973 15.4799987 30.2288938 16.930389 31.6799973"></polygon>
                        <polygon id="Fill-11" points="30.9599973 30.6111009 29.5088939 29.1599975 30.9599973 27.708894 29.891101 26.6399977 28.4399976 28.0903881 26.9888941 26.6399977 25.9199978 27.708894 27.3703881 29.1599975 25.9199978 30.6111009 26.9888941 31.6799973 28.4399976 30.2288938 29.891101 31.6799973"></polygon>
                        <polygon id="Fill-12" points="41.3999964 28.0908959 39.948893 26.6399977 38.8799967 27.7087428 40.3311001 29.159641 38.8799967 30.6105392 39.948893 31.6799973 41.3999964 30.2290991 42.8510999 31.6799973 43.9199962 30.6105392 42.4688928 29.159641 43.9199962 27.7087428 42.8510999 26.6399977"></polygon>
                        <polygon id="Fill-13" points="2.51999978 42.4908946 1.06889634 41.0399965 0 42.1087416 1.45110344 43.5596398 0 45.0105379 1.06889634 46.079996 2.51999978 44.6290979 3.97110322 46.079996 5.03999957 45.0105379 3.58889613 43.5596398 5.03999957 42.1087416 3.97110322 41.0399965"></polygon>
                        <polygon id="Fill-14" points="17.9999985 45.0105379 16.548895 43.5596398 17.9999985 42.1087416 16.930389 41.0399965 15.4799987 42.4908946 14.0288952 41.0399965 12.9599989 42.1087416 14.4103893 43.5596398 12.9599989 45.0105379 14.0288952 46.079996 15.4799987 44.6283849 16.930389 46.079996"></polygon>
                        <polygon id="Fill-15" points="30.9599973 45.0105379 29.5088939 43.5596398 30.9599973 42.1087416 29.891101 41.0399965 28.4399976 42.4908946 26.9888941 41.0399965 25.9199978 42.1087416 27.3703881 43.5596398 25.9199978 45.0105379 26.9888941 46.079996 28.4399976 44.6283849 29.891101 46.079996"></polygon>
                        <polygon id="Fill-16" points="41.3999964 42.4908946 39.948893 41.0399965 38.8799967 42.1087416 40.3311001 43.5596398 38.8799967 45.0105379 39.948893 46.079996 41.3999964 44.6290979 42.8510999 46.079996 43.9199962 45.0105379 42.4688928 43.5596398 43.9199962 42.1087416 42.8510999 41.0399965"></polygon>
                        <polygon id="Fill-17" points="2.51999978 54.0108936 1.06889634 52.5599955 0 53.6294536 1.45110344 55.0796388 0 56.5305369 1.06889634 57.599995 2.51999978 56.1490969 3.97110322 57.599995 5.03999957 56.5305369 3.58889613 55.0796388 5.03999957 53.6294536 3.97110322 52.5599955"></polygon>
                        <polygon id="Fill-18" points="15.4799987 54.0108936 14.0288952 52.5599955 12.9599989 53.6294536 14.4111023 55.0796388 12.9599989 56.5305369 14.0288952 57.599995 15.4799987 56.1490969 16.9311021 57.599995 17.9999985 56.5305369 16.548895 55.0796388 17.9999985 53.6294536 16.9311021 52.5599955"></polygon>
                        <polygon id="Fill-19" points="28.439641 54.0108936 26.9890454 52.5599955 25.9199978 53.6294536 27.3705934 55.0796388 25.9199978 56.5305369 26.9890454 57.599995 28.439641 56.1490969 29.8916629 57.599995 30.9599973 56.5305369 29.5094017 55.0796388 30.9599973 53.6294536 29.8916629 52.5599955"></polygon>
                        <polygon id="Fill-20" points="41.3999964 54.0108936 39.948893 52.5599955 38.8799967 53.6294536 40.3311001 55.0796388 38.8799967 56.5305369 39.948893 57.599995 41.3999964 56.1490969 42.8510999 57.599995 43.9199962 56.5305369 42.4688928 55.0796388 43.9199962 53.6294536 42.8510999 52.5599955"></polygon>
                    </g>
                </g>
            </g>
        </g>
    </g>
</svg>