<?xml version="1.0" encoding="UTF-8"?>
<svg width="174px" height="183px" viewBox="0 0 174 183" version="1.1" xmlns="http://www.w3.org/2000/svg" xmlns:xlink="http://www.w3.org/1999/xlink">
    <!-- Generator: Sketch 61 (89581) - https://sketch.com -->
    <title>Group 4 Copy 2</title>
    <desc>Created with Sketch.</desc>
    <defs>
        <linearGradient x1="50%" y1="0%" x2="50%" y2="100%" id="linearGradient-1">
            <stop stop-color="#D17AFF" offset="0%"></stop>
            <stop stop-color="#816DFF" offset="100%"></stop>
        </linearGradient>
        <path d="M4.00000006,12.0000002 L120.748619,12.0000002 C122.957758,12.0000002 124.748619,13.7908612 124.748619,16.0000002 L124.748619,140 C124.748619,142.209139 122.957758,144 120.748619,144 L4.00000006,144 C1.79086103,144 -7.14618076e-14,142.209139 -7.95807876e-14,140 L-7.95807876e-14,16.0000002 C-7.98513291e-14,13.7908612 1.79086103,12.0000002 4.00000006,12.0000002 Z" id="path-2"></path>
        <filter x="-34.9%" y="-23.9%" width="169.7%" height="165.9%" filterUnits="objectBoundingBox" id="filter-3">
            <feOffset dx="0" dy="12" in="SourceAlpha" result="shadowOffsetOuter1"></feOffset>
            <feGaussianBlur stdDeviation="12.5" in="shadowOffsetOuter1" result="shadowBlurOuter1"></feGaussianBlur>
            <feColorMatrix values="0 0 0 0 0.023476723   0 0 0 0 0.130690339   0 0 0 0 0.27513587  0 0 0 0.168597028 0" type="matrix" in="shadowBlurOuter1"></feColorMatrix>
        </filter>
        <path d="M22.4012634,49.2000007 C25.9312108,49.2000007 28.7928757,52.0656504 28.7928757,55.6001485 C28.7928757,58.7430604 26.5301721,61.3568836 23.5469188,61.8974762 L21.6888139,64.800001 L19.610202,61.8043642 C16.8414162,61.1020943 14.7928757,58.5906268 14.7928757,55.6001485 C14.7928757,52.0656504 17.6545405,49.2000007 21.1847829,49.2000007 L21.1847829,49.2000007 Z" id="path-4"></path>
        <filter x="-200.0%" y="-128.2%" width="500.0%" height="459.0%" filterUnits="objectBoundingBox" id="filter-5">
            <feOffset dx="0" dy="8" in="SourceAlpha" result="shadowOffsetOuter1"></feOffset>
            <feGaussianBlur stdDeviation="8" in="shadowOffsetOuter1" result="shadowBlurOuter1"></feGaussianBlur>
            <feColorMatrix values="0 0 0 0 0.023476723   0 0 0 0 0.130690339   0 0 0 0 0.27513587  0 0 0 0.11 0" type="matrix" in="shadowBlurOuter1"></feColorMatrix>
        </filter>
        <linearGradient x1="2.28595344%" y1="20.095884%" x2="100%" y2="81.3368056%" id="linearGradient-6">
            <stop stop-color="#FFA8A8" offset="0%"></stop>
            <stop stop-color="#FCFF00" offset="100%"></stop>
        </linearGradient>
        <linearGradient x1="50%" y1="0%" x2="50%" y2="100%" id="linearGradient-7">
            <stop stop-color="#FFFFFF" stop-opacity="0" offset="0%"></stop>
            <stop stop-color="#FFFFFF" offset="100%"></stop>
        </linearGradient>
        <linearGradient x1="103.535778%" y1="-5.07766951%" x2="55.2134396%" y2="85.4997203%" id="linearGradient-8">
            <stop stop-color="#0ACEFE" offset="0%"></stop>
            <stop stop-color="#2639F6" offset="100%"></stop>
        </linearGradient>
        <linearGradient x1="78.9913949%" y1="1.99179488%" x2="15.7778721%" y2="96.9014359%" id="linearGradient-9">
            <stop stop-color="#0ACEFE" offset="0%"></stop>
            <stop stop-color="#495AFF" offset="100%"></stop>
        </linearGradient>
        <linearGradient x1="50%" y1="0%" x2="50%" y2="100%" id="linearGradient-10">
            <stop stop-color="#C2E998" offset="0%"></stop>
            <stop stop-color="#02CC87" offset="100%"></stop>
        </linearGradient>
        <linearGradient x1="45.8678033%" y1="11.0199068%" x2="58.2562399%" y2="87.7049655%" id="linearGradient-11">
            <stop stop-color="#8BE193" offset="0.0218531469%"></stop>
            <stop stop-color="#009663" offset="100%"></stop>
        </linearGradient>
        <linearGradient x1="50%" y1="0%" x2="50%" y2="100%" id="linearGradient-12">
            <stop stop-color="#FEE5AC" offset="0%"></stop>
            <stop stop-color="#FFB181" offset="100%"></stop>
        </linearGradient>
        <linearGradient x1="83.8493418%" y1="9.97229917%" x2="50%" y2="90.0277008%" id="linearGradient-13">
            <stop stop-color="#C2E998" stop-opacity="0" offset="0%"></stop>
            <stop stop-color="#02CC87" offset="100%"></stop>
        </linearGradient>
        <linearGradient x1="50%" y1="0%" x2="50%" y2="100%" id="linearGradient-14">
            <stop stop-color="#FEE5AC" offset="0%"></stop>
            <stop stop-color="#FFB181" offset="100%"></stop>
        </linearGradient>
        <linearGradient x1="40.861729%" y1="-85.8630405%" x2="50%" y2="82.8125964%" id="linearGradient-15">
            <stop stop-color="#746761" offset="0%"></stop>
            <stop stop-color="#121A4B" offset="100%"></stop>
        </linearGradient>
        <linearGradient x1="50%" y1="0%" x2="50%" y2="100%" id="linearGradient-16">
            <stop stop-color="#FEE5AC" offset="0%"></stop>
            <stop stop-color="#FFB181" offset="100%"></stop>
        </linearGradient>
        <linearGradient x1="68.3652878%" y1="7.3273283%" x2="68.3652878%" y2="126.068975%" id="linearGradient-17">
            <stop stop-color="#F9FBFE" offset="0%"></stop>
            <stop stop-color="#C2D7F3" offset="100%"></stop>
        </linearGradient>
        <linearGradient x1="-50.446218%" y1="100%" x2="100%" y2="100%" id="linearGradient-18">
            <stop stop-color="#FFF6B7" offset="0%"></stop>
            <stop stop-color="#F6416C" offset="100%"></stop>
        </linearGradient>
        <linearGradient x1="50%" y1="0%" x2="50%" y2="100%" id="linearGradient-19">
            <stop stop-color="#FED253" offset="0%"></stop>
            <stop stop-color="#FCA529" offset="100%"></stop>
        </linearGradient>
        <path d="M125.453393,44.0000007 C130.210562,44.0000007 134.067399,47.8946719 134.067399,52.6991737 C134.067399,57.0783874 130.863146,60.7017156 126.693473,61.3088662 L124.272124,64.800001 L121.965885,61.1977061 C118.096693,60.3435929 115.200002,56.8630752 115.200002,52.6991737 C115.200002,47.8946719 119.056543,44.0000007 123.813713,44.0000007 L125.453393,44.0000007 Z" id="path-20"></path>
        <filter x="-169.6%" y="-62.5%" width="365.0%" height="350.0%" filterUnits="objectBoundingBox" id="filter-21">
            <feOffset dx="-7" dy="14" in="SourceAlpha" result="shadowOffsetOuter1"></feOffset>
            <feGaussianBlur stdDeviation="6" in="shadowOffsetOuter1" result="shadowBlurOuter1"></feGaussianBlur>
            <feColorMatrix values="0 0 0 0 0   0 0 0 0 0   0 0 0 0 0  0 0 0 0.146498033 0" type="matrix" in="shadowBlurOuter1"></feColorMatrix>
        </filter>
        <linearGradient x1="89.1088048%" y1="100%" x2="11.4530261%" y2="6.9797213%" id="linearGradient-22">
            <stop stop-color="#0096FF" offset="0%"></stop>
            <stop stop-color="#00E9F0" offset="100%"></stop>
        </linearGradient>
        <path d="M46.5384264,0 C51.9844375,0 56.4000008,4.45145523 56.4000008,9.94285729 C56.4000008,14.6185264 53.198256,18.5408547 48.8849016,19.6024791 L45.7887497,24.0000004 L43.0284488,19.7499994 C38.3591684,18.9653747 34.8000005,14.8728829 34.8000005,9.94285729 C34.8000005,4.45145523 39.2150651,0 44.661575,0 L46.5384264,0 Z" id="path-23"></path>
        <filter x="-115.7%" y="-54.2%" width="313.0%" height="291.7%" filterUnits="objectBoundingBox" id="filter-24">
            <feOffset dx="-2" dy="10" in="SourceAlpha" result="shadowOffsetOuter1"></feOffset>
            <feGaussianBlur stdDeviation="6" in="shadowOffsetOuter1" result="shadowBlurOuter1"></feGaussianBlur>
            <feColorMatrix values="0 0 0 0 0   0 0 0 0 0   0 0 0 0 0  0 0 0 0.130681818 0" type="matrix" in="shadowBlurOuter1"></feColorMatrix>
        </filter>
    </defs>
    <g id="Page-1" stroke="none" stroke-width="1" fill="none" fill-rule="evenodd">
        <g id="WP-ERP-PRO-Page-Design" transform="translate(-405.000000, -1126.000000)">
            <g id="Group-4-Copy-2" transform="translate(430.000000, 1128.000000)">
                <g id="Rectangle-Copy-50">
                    <use fill="black" fill-opacity="1" filter="url(#filter-3)" xlink:href="#path-2"></use>
                    <use fill="url(#linearGradient-1)" fill-rule="evenodd" xlink:href="#path-2"></use>
                </g>
                <g id="Combined-Shape">
                    <use fill="black" fill-opacity="1" filter="url(#filter-5)" xlink:href="#path-4"></use>
                    <use fill="#FFFFFF" fill-rule="evenodd" xlink:href="#path-4"></use>
                </g>
                <polygon id="Fill-28" fill="#BD77FF" transform="translate(23.800000, 57.400001) scale(-1, 1) translate(-23.800000, -57.400001) " points="23.2000003 58.8000009 24.4000004 58.8000009 24.4000004 56.0000008 23.2000003 56.0000008"></polygon>
                <polygon id="Fill-30" fill="#BD77FF" transform="translate(21.800000, 55.600001) scale(-1, 1) translate(-21.800000, -55.600001) " points="21.2000003 58.8000009 22.4000003 58.8000009 22.4000003 52.4000008 21.2000003 52.4000008"></polygon>
                <polygon id="Fill-31" fill="#BD77FF" transform="translate(19.400000, 56.200001) scale(-1, 1) translate(-19.400000, -56.200001) " points="18.8000003 58.8000009 20.0000003 58.8000009 20.0000003 53.6000008 18.8000003 53.6000008"></polygon>
                <path d="M29.9928758,90.4000013 L29.7550448,92.001411 C30.0319251,91.9928007 30.9625478,92.0067402 31.6489421,92.549884 C32.1426874,92.9401933 32.3928758,93.497343 32.3928758,94.2070238 C32.3928758,94.848507 32.1493189,95.3676 31.6706452,95.7502979 C30.9429888,96.331195 29.877126,96.4000014 29.4168396,96.4000014 C29.2878268,96.4000014 29.2067416,96.3939124 29.1928758,96.3933035 L29.1928758,96.3933035 L29.2748652,95.5295692 C29.2857167,95.5295692 30.3904643,95.5928955 30.9921222,95.1127726 C31.2606979,94.8984374 31.3918208,94.6025087 31.3918208,94.2070238 C31.3918208,93.7539971 31.2531621,93.4124005 30.9782563,93.1934985 C30.5119413,92.8214565 29.7728305,92.8698645 29.7646919,92.8689512 L29.7646919,92.8689512 L29.7088757,92.3300013 L28.873126,98.0000015 L23.8595862,98.0000015 L22.7928757,90.4000013 L29.9928758,90.4000013 Z" id="Combined-Shape" fill="url(#linearGradient-6)"></path>
                <path d="M23.6108178,89.0421965 C23.0487032,88.5698845 22.5991942,88.0856152 22.1779887,87.4991113 C21.7747392,86.914102 21.4259665,86.2424026 21.2683188,85.4457498 C21.1100624,84.6580649 21.19406,83.7253981 21.5842229,82.9451865 C21.9552124,82.1500283 22.5413698,81.5443928 23.1384833,81.0550417 C23.3058699,80.9211203 23.4050845,80.8320387 23.5201247,80.7321955 L23.8536805,80.4341607 C24.071283,80.2347733 24.2806684,80.0335923 24.4727065,79.8321123 C24.8528261,79.4384193 25.1936861,79.0043706 25.2895529,78.7215812 C25.3348995,78.587062 25.3062916,78.5150195 25.2463368,78.5930406 C25.1894253,78.6644853 25.1903383,78.8154458 25.1456005,78.7951184 C25.0734721,78.7646274 24.7030912,78.4088987 24.2590603,78.0824654 C23.2380022,77.3324459 23.0295299,75.9119227 23.793117,74.9093059 C24.5563997,73.9066891 26.0029241,73.701921 27.0236778,74.4516415 C27.1743257,74.5625452 27.307322,74.6874986 27.4220579,74.8241104 L27.4935776,74.9108006 C27.7190929,75.1825294 27.9564775,75.4733899 28.2042097,75.8210474 C28.4485941,76.17289 28.7154996,76.5704691 28.9373629,77.1387381 C29.1574001,77.6830927 29.2800488,78.4758594 29.1199664,79.1648969 C28.9735792,79.8652937 28.6448929,80.3642107 28.341771,80.7471421 C27.7145279,81.4959659 27.0933715,81.9028119 26.4901712,82.2944123 C26.187658,82.4854296 25.8869708,82.6570164 25.5871967,82.820532 L24.7362642,83.2686306 C24.3056242,83.5020962 23.9349391,83.7729283 23.7054673,84.0853118 C23.4595612,84.3926136 23.3378255,84.7555166 23.3271736,85.2039141 C23.3192608,86.0992144 23.8670714,87.2297739 24.5408784,88.0960778 L24.5777035,88.1436079 C24.8023058,88.431778 24.7460031,88.8446026 24.4523157,89.0649153 C24.1969751,89.2568294 23.8454633,89.2397903 23.6108178,89.0421965" id="Fill-34" fill="url(#linearGradient-7)" opacity="0.433849516" transform="translate(25.192876, 81.600001) scale(-1, 1) translate(-25.192876, -81.600001) "></path>
                <path d="M38.3928759,144.000002 C38.3928759,144.000002 43.3757534,143.82398 48.9195619,143.82398 C54.0581543,143.82398 59.1928762,144.000002 59.1928762,144.000002 L58.7897443,143.124263 C57.0185242,139.275093 50.3147438,140.772446 48.7927272,136.800002 C47.52438,140.772446 40.5672278,139.275093 38.7960078,143.124263 L38.3928759,144.000002 Z" id="Fill-35" fill="#FBE5F5" transform="translate(48.792876, 140.400002) scale(-1, 1) translate(-48.792876, -140.400002) "></path>
                <polygon id="Fill-36" fill="#FBE5F5" transform="translate(48.592876, 125.600002) scale(-1, 1) translate(-48.592876, -125.600002) " points="47.192876 139.200002 49.9928761 139.200002 49.9928761 112.000002 47.192876 112.000002"></polygon>
                <polygon id="Fill-37" fill="#FBE5F5" transform="translate(48.592876, 114.000002) scale(-1, 1) translate(-48.592876, -114.000002) " points="43.592876 116.000002 53.5928761 116.000002 53.5928761 112.000002 43.592876 112.000002"></polygon>
                <path d="M35.9928759,113.200002 L60.7928762,113.200002 L60.7928762,112.527759 C60.7928762,110.248003 58.9477588,108.400002 56.6719265,108.400002 L40.1138256,108.400002 C37.8376973,108.400002 35.9928759,110.248003 35.9928759,112.527759 L35.9928759,113.200002 Z" id="Fill-38" fill="#FCA529" transform="translate(48.392876, 110.800002) scale(-1, 1) translate(-48.392876, -110.800002) "></path>
                <path d="M57.1209774,108.400001 C57.1209774,108.400001 59.3424343,106.143019 57.9136927,98.4000015 L39.6716707,98.4000015 C39.6716707,98.4000015 39.4133131,102.507033 39.8322472,108.400001 L57.1209774,108.400001 Z" id="Fill-39" fill="#0ACEFE" transform="translate(48.992876, 103.400002) scale(-1, 1) translate(-48.992876, -103.400002) "></path>
                <path d="M80.1254178,101.205331 C70.9989474,101.773006 54.0091115,103.952078 50.9074606,109.645839 C49.976249,111.354535 49.4440855,113.650604 50.873734,115.01577 C56.4153383,120.304817 58.0088443,122.507168 67.7143373,131.961552 C67.7829843,132.028706 67.6233054,131.994085 67.7143373,131.961552 L71.5287232,129.693539 C71.6812389,129.640114 71.6149797,129.830533 71.5287232,129.693539 C63.5349284,117.04561 61.7542847,115.271253 58.7621706,113.499881 C61.6405695,112.103973 69.9952087,109.968477 79.1109344,109.096371 C81.1052792,108.905952 82.5668635,107.123835 82.3761442,105.129212 C82.1842311,103.128024 82.1134948,101.081768 80.1254178,101.205331" id="Fill-40" fill="url(#linearGradient-8)" transform="translate(66.192876, 116.600002) scale(-1, 1) translate(-66.192876, -116.600002) "></path>
                <path d="M73.9419424,102.093167 C73.67316,100.23014 70.8830851,99.903414 69.0078869,100.021407 C48.3741286,101.328311 45.4578844,104.252075 44.5008517,105.393969 C43.7193197,106.326531 43.686133,107.480404 43.5554791,108.659732 C42.8501869,115.031339 41.8740194,126.192433 40.3928759,135.349747 C41.9119898,135.615979 44.7962432,136.03704 46.8675719,136.400002 C46.8675719,136.400002 50.01702,121.399952 50.9333916,112.303132 C54.6903656,111.508029 64.9612019,110.570076 73.1983809,108.941537 C76.0090854,108.385714 74.3282237,104.76747 73.9419424,102.093167" id="Fill-41" fill="url(#linearGradient-9)" transform="translate(57.592876, 118.200002) scale(-1, 1) translate(-57.592876, -118.200002) "></path>
                <path d="M81.4053714,143.600002 L82.3928765,136.400002 L77.5321404,136.496412 L76.8488048,139.270245 L70.926762,140.662969 C69.9398545,140.913288 69.2687693,141.701704 69.1928763,142.690201 L69.1928763,143.600002 L81.4053714,143.600002 Z" id="Fill-42" fill="#1C1C1C" transform="translate(75.792876, 140.000002) scale(-1, 1) translate(-75.792876, -140.000002) "></path>
                <polygon id="Fill-43" fill="#35547F" transform="translate(71.592876, 135.800002) scale(-1, 1) translate(-71.592876, -135.800002) " points="67.6885605 133.600002 75.9928765 134.991304 75.4971922 138.000002 67.1928763 136.609289"></polygon>
                <path d="M67.0389105,134.695503 L63.2078051,130.000002 L59.3203687,132.429227 L61.4292259,134.721611 L57.0226542,138.632678 C56.244396,139.159035 55.873204,140.0458 56.0270767,140.959272 C56.0522775,141.108117 56.1169099,141.247658 56.1978488,141.374296 L56.8542539,142.400002 C56.8542539,142.400002 66.8079532,136.154238 66.8559828,136.035403 C66.8559828,136.035403 67.4711773,135.274676 67.0389105,134.695503" id="Fill-44" fill="#1C1C1C" transform="translate(61.592876, 136.200002) scale(-1, 1) translate(-61.592876, -136.200002) "></path>
                <polygon id="Fill-45" fill="#35547F" transform="translate(62.792876, 130.600002) scale(-1, 1) translate(-62.792876, -130.600002) " points="58.7928762 131.448178 65.0568837 127.200002 66.7928763 129.752421 60.5288688 134.000002"></polygon>
                <path d="M69.4290076,96.0107628 L53.0520459,96.8000014 L52.7928761,91.4786512 L67.464035,90.7716311 C69.4436382,85.9349844 73.5928764,79.0000012 73.5928764,79.0000012 L77.8932296,79.6000012 C78.369469,80.8157671 77.2668032,81.0428327 71.779152,94.359862 C71.4115967,95.2517996 70.5904943,95.8718521 69.6392098,95.9923601 C69.5699387,96.0012646 69.5000703,96.0074978 69.4290076,96.0107628 Z" id="Fill-46" fill="url(#linearGradient-10)" transform="translate(65.392876, 87.900001) scale(-1, 1) translate(-65.392876, -87.900001) "></path>
                <path d="M50.8581955,77.2000012 L51.3745541,77.3220789 C53.6417327,77.8575022 55.3697417,79.6954827 55.7652315,81.9915509 L58.7928762,100.807814 C45.4656107,104.202581 39.1928759,101.113008 39.1928759,101.113008 L39.7427104,82.3459318 C39.6248041,80.1760896 40.8921489,78.1692151 42.9024813,77.3440054 L50.8581955,77.2000012 Z" id="Fill-47" fill="url(#linearGradient-11)" transform="translate(48.992876, 89.800001) scale(-1, 1) translate(-48.992876, -89.800001) "></path>
                <path d="M53.5928761,68.800001 L53.447876,77.303001 L54.560843,77.3230138 C54.560843,77.3230138 55.8545811,80.3393885 52.3322921,80.7560615 L52.0956869,80.7794924 C47.9226628,81.116003 47.592876,77.2000012 47.592876,77.2000012 L47.592876,77.2000012 L49.219876,77.229001 L49.351476,69.4641209 L53.5928761,68.800001 Z" id="Combined-Shape" fill="url(#linearGradient-12)"></path>
                <path d="M71.9928764,96.2165233 C71.9835753,97.6524275 70.8120811,98.8089611 69.3761118,98.7999492 C67.9401426,98.7906368 66.7839677,97.6193836 66.7928763,96.1834795 C66.8021774,94.7475754 67.9736717,93.5910418 69.4093519,93.6000537 C70.8453211,93.6090657 72.001785,94.7809196 71.9928764,96.2165233" id="Fill-50" fill="#E7C1AD" transform="translate(69.392876, 96.200001) scale(-1, 1) translate(-69.392876, -96.200001) "></path>
                <path d="M67.8201038,97.1999737 L64.9484553,97.183803 C64.1982352,97.1798998 63.5882977,96.6398565 63.5928763,95.9843884 C63.5978136,95.3286415 64.2154252,94.7955683 64.9659523,94.8000292 L67.8376007,94.8156422 C68.5878208,94.8201031 69.1977583,95.3598675 69.1928763,96.0156145 C69.1882424,96.6713614 68.5703238,97.2044345 67.8201038,97.1999737" id="Fill-51" fill="#E7C1AD" transform="translate(66.392876, 96.000001) scale(-1, 1) translate(-66.392876, -96.000001) "></path>
                <path d="M43.1223785,99.2000015 L42.792876,94.0147141 L57.6090882,93.1399713 L60.384052,80.4700382 C60.9155175,79.13025 62.4721021,78.4597542 63.8612345,78.9720262 C65.2503669,79.484599 65.9456834,80.9859199 65.414518,82.3257082 L62.0198613,96.5580256 C61.6426438,97.5094738 60.7237578,98.1604172 59.6692295,98.2229848 L43.1223785,99.2000015 Z" id="Fill-52" fill="url(#linearGradient-13)" transform="translate(54.192876, 89.000001) scale(-1, 1) translate(-54.192876, -89.000001) "></path>
                <path d="M54.0547435,75.5937991 L53.4590662,75.5641097 C50.7511445,75.4288579 48.6650838,73.1064855 48.7989773,70.3771582 L49.191434,62.4000009 L59.5928762,62.9197157 L59.200717,70.8971728 C59.0668235,73.6265002 56.7626652,75.7293508 54.0547435,75.5937991" id="Fill-54" fill="url(#linearGradient-14)" transform="translate(54.192876, 69.000001) scale(-1, 1) translate(-54.192876, -69.000001) "></path>
                <path d="M54.3119939,56.3055185 C54.5530728,56.3770173 54.7881455,56.4748359 55.0373018,56.5063368 C55.5161459,56.5668517 55.9867054,56.3788825 56.4616143,56.2918405 C56.9363161,56.2045913 57.5062897,56.2574382 57.7800924,56.6553443 C57.9128515,56.8480801 57.9590376,57.101538 58.1346689,57.2563483 C58.3869319,57.4789271 58.7804456,57.3989314 59.0960851,57.5147801 C59.7306777,57.7479282 59.8578448,58.6660137 60.4636488,58.9661012 C60.7107339,59.0883744 61.0011056,59.0867165 61.2602033,59.1808047 C61.7651436,59.364629 62.0890675,59.9478102 61.9782623,60.4737923 C61.8931065,60.8781786 61.5596311,61.2096134 61.166418,61.3251132 C61.1956051,61.5680984 61.2012337,61.8278999 61.1804257,62.1033461 C60.914744,65.622674 52.7967837,63.7212061 52.1617768,63.5669829 C52.1448365,63.5886518 52.1287416,63.6120625 52.1138744,63.6362738 C51.856614,66.939449 49.6435839,68.800001 49.6435839,68.800001 L49.6435839,68.800001 L48.1492009,67.4202049 C45.7707318,65.578768 46.2709702,63.7680871 46.9807719,62.6690143 C47.0575082,62.5501391 47.1426059,62.4381293 47.2350271,62.3332885 C46.956058,60.9459087 48.4225847,59.0378379 49.2248972,58.1827235 C49.8764731,57.4880458 50.640511,56.8831041 51.5192893,56.5166989 C52.3980675,56.1498792 53.3992492,56.0350667 54.3119939,56.3055185 Z" id="Combined-Shape" fill="url(#linearGradient-15)"></path>
                <path d="M49.9906341,68.6890823 C49.9414828,69.6819379 49.0966768,70.4469104 48.1035234,70.3977591 C47.1106678,70.3486078 46.3456953,69.5038018 46.3951445,68.5109462 C46.4442958,67.5177928 47.2891018,66.7528203 48.2819574,66.8022695 C49.2748129,66.8514207 50.0397854,67.6962267 49.9906341,68.6890823" id="Fill-62" fill="url(#linearGradient-16)" transform="translate(48.192876, 68.600001) scale(-1, 1) translate(-48.192876, -68.600001) "></path>
                <path d="M73.1928764,79.6000012 L74.1608206,79.6000012 C74.6807956,79.6000012 75.1455859,79.9255297 75.3255999,80.4156014 L81.1928764,96.4000014 L79.4151643,96.4000014 L73.1928764,79.6000012 Z" id="Fill-64" fill="#6B82EB" transform="translate(77.192876, 88.000001) scale(-1, 1) translate(-77.192876, -88.000001) "></path>
                <path d="M93.7074763,79.6000012 L99.9928764,96.4000014 L79.5653998,96.4000014 L74.0792006,81.4692703 C73.7453306,80.5614666 74.4214173,79.6000012 75.3932175,79.6000012 L93.7074763,79.6000012 Z" id="Fill-63" fill="url(#linearGradient-17)" transform="translate(86.992877, 88.000001) scale(-1, 1) translate(-86.992877, -88.000001) "></path>
                <path d="M75.4696361,98.0000015 L94.3928767,98.0000015 L94.3928767,96.4000014 L73.9928764,96.4000014 L73.9928764,96.5503311 C73.9928764,97.3509172 74.6540898,98.0000015 75.4696361,98.0000015" id="Fill-65" fill="#6B82EB" transform="translate(84.192877, 97.200001) scale(-1, 1) translate(-84.192877, -97.200001) "></path>
                <path d="M60.3928762,98.0000015 L73.1681763,98.0000015 C73.6237249,98.0000015 73.9928764,97.6416132 73.9928764,97.2002945 C73.9928764,96.7583897 73.6237249,96.4000014 73.1681763,96.4000014 L60.3928762,96.4000014 L60.3928762,98.0000015 Z" id="Fill-66" fill="#6B82EB" transform="translate(67.192876, 97.200001) scale(-1, 1) translate(-67.192876, -97.200001) "></path>
                <path d="M89.0626639,88.0211777 C89.433156,89.1929962 88.9860498,90.4022292 88.0638218,90.7218977 C87.1418797,91.0415662 86.0938673,90.3510463 85.7230894,89.1789284 C85.3525973,88.0071099 85.7997035,86.7978769 86.7219315,86.4782084 C87.6441594,86.1582406 88.6921718,86.8490598 89.0626639,88.0211777" id="Fill-67" fill="#FFFFFF" transform="translate(87.392877, 88.600001) scale(-1, 1) translate(-87.392877, -88.600001) "></path>
                <polygon id="Fill-68" fill="url(#linearGradient-18)" transform="translate(72.792876, 99.400001) scale(-1, 1) translate(-72.792876, -99.400001) " points="35.9928759 100.800002 109.592877 100.800002 109.592877 98.0000015 35.9928759 98.0000015"></polygon>
                <polygon id="Fill-69" fill="#BC143C" transform="translate(25.392876, 99.400001) scale(-1, 1) translate(-25.392876, -99.400001) " points="14.7928755 100.800002 35.9928759 100.800002 35.9928759 98.0000015 14.7928755 98.0000015"></polygon>
                <polygon id="Fill-70" fill="#FCB69C" transform="translate(102.992877, 122.400002) scale(-1, 1) translate(-102.992877, -122.400002) " points="101.992877 144.000002 103.992877 144.000002 103.992877 100.800002 101.992877 100.800002"></polygon>
                <polygon id="Fill-71" fill="#FCB69C" transform="translate(88.992877, 122.400002) scale(-1, 1) translate(-88.992877, -122.400002) " points="87.9928766 144.000002 89.9928767 144.000002 89.9928767 100.800002 87.9928766 100.800002"></polygon>
                <polygon id="Fill-72" fill="#FCB69C" transform="translate(34.992876, 122.400002) scale(-1, 1) translate(-34.992876, -122.400002) " points="33.9928758 144.000002 35.9928759 144.000002 35.9928759 100.800002 33.9928758 100.800002"></polygon>
                <polygon id="Fill-73" fill="#FCB69C" transform="translate(20.992876, 122.400002) scale(-1, 1) translate(-20.992876, -122.400002) " points="19.9928756 144.000002 21.9928756 144.000002 21.9928756 100.800002 19.9928756 100.800002"></polygon>
                <g id="Combined-Shape">
                    <use fill="black" fill-opacity="1" filter="url(#filter-21)" xlink:href="#path-20"></use>
                    <use fill="url(#linearGradient-19)" fill-rule="evenodd" xlink:href="#path-20"></use>
                </g>
                <g id="Combined-Shape">
                    <use fill="black" fill-opacity="1" filter="url(#filter-24)" xlink:href="#path-23"></use>
                    <use fill="url(#linearGradient-22)" fill-rule="evenodd" xlink:href="#path-23"></use>
                </g>
                <polygon id="Fill-14" fill="#FFFFFF" points="50.4000008 7.59274205 48.4646495 5.60000008 44.5727999 9.60725821 42.7353519 7.7153227 40.8000006 9.70806466 42.6374486 11.6000002 42.6303996 11.6072582 44.5657508 13.6000002 44.5727999 13.5927421 44.5798489 13.6000002 46.5152002 11.6072582 46.5081511 11.6000002"></polygon>
                <path d="M120.000002,50.0000007 L124.507368,53.1018473 C124.594758,53.1616778 124.697226,53.191739 124.800002,53.191739 C124.900008,53.191739 125.000322,53.1631371 125.086482,53.1056415 L125.086482,53.1056415 L129.600002,50.0890169 L129.600002,55.2000008 L120.000002,55.2000008 L120.000002,50.0000007 Z M128.800002,49.2000007 L124.741461,52.0000008 L120.800002,49.2000007 L128.800002,49.2000007 Z" id="Combined-Shape" fill="#FFFFFF"></path>
                <g id="Group-3-Copy" transform="translate(47.200001, 56.000001)"></g>
            </g>
        </g>
    </g>
</svg>