<?xml version="1.0" encoding="UTF-8"?>
<svg width="155px" height="105px" viewBox="0 0 155 105" version="1.1" xmlns="http://www.w3.org/2000/svg" xmlns:xlink="http://www.w3.org/1999/xlink">
    <!-- Generator: Sketch 61 (89581) - https://sketch.com -->
    <title>Group 21</title>
    <desc>Created with Sketch.</desc>
    <defs>
        <polygon id="path-1" points="0.0321573911 0.101266227 120.046002 0.101266227 120.046002 100.666908 0.0321573911 100.666908"></polygon>
        <linearGradient x1="80.8393916%" y1="1.68238546%" x2="0%" y2="97.4559121%" id="linearGradient-3">
            <stop stop-color="#CEDAFF" offset="0%"></stop>
            <stop stop-color="#FFFFFF" offset="100%"></stop>
        </linearGradient>
        <linearGradient x1="80.8393916%" y1="7.91569377%" x2="0%" y2="91.3337694%" id="linearGradient-4">
            <stop stop-color="#CEDAFF" offset="0%"></stop>
            <stop stop-color="#FFFFFF" offset="100%"></stop>
        </linearGradient>
        <polygon id="path-5" points="0.216540332 0.109297146 11.5153962 0.109297146 11.5153962 7.52519597 0.216540332 7.52519597"></polygon>
        <linearGradient x1="80.8393916%" y1="20.3563737%" x2="0%" y2="79.1149581%" id="linearGradient-7">
            <stop stop-color="#CEDAFF" offset="0%"></stop>
            <stop stop-color="#FFFFFF" offset="100%"></stop>
        </linearGradient>
        <path d="M31.0292049,22.9487122 L1.14696529,22.9477716 C0.513908175,22.9477716 -3.89437891e-13,22.4341769 -3.89437891e-13,21.8008063 L0.000940649496,1.14696529 C0.000940649496,0.513281075 0.514535274,-2.8512417e-13 1.14790594,-2.8512417e-13 L31.029832,0.000940649496 C31.6632027,0.000940649496 32.1767973,0.514535274 32.1767973,1.14790594 L32.1761702,21.8017469 C32.1761702,22.4351176 31.6628891,22.9487122 31.0292049,22.9487122" id="path-8"></path>
        <filter x="-55.9%" y="-56.6%" width="224.3%" height="274.3%" filterUnits="objectBoundingBox" id="filter-9">
            <feOffset dx="2" dy="7" in="SourceAlpha" result="shadowOffsetOuter1"></feOffset>
            <feGaussianBlur stdDeviation="5.5" in="shadowOffsetOuter1" result="shadowBlurOuter1"></feGaussianBlur>
            <feColorMatrix values="0 0 0 0 0.146921939   0 0 0 0 0.162098605   0 0 0 0 0.423884737  0 0 0 0.24341674 0" type="matrix" in="shadowBlurOuter1"></feColorMatrix>
        </filter>
        <linearGradient x1="50%" y1="0%" x2="50%" y2="168.252721%" id="linearGradient-10">
            <stop stop-color="#4AE15E" offset="0%"></stop>
            <stop stop-color="#24C030" stop-opacity="0" offset="100%"></stop>
        </linearGradient>
        <linearGradient x1="50%" y1="0%" x2="50%" y2="126.691058%" id="linearGradient-11">
            <stop stop-color="#FF74C1" offset="0%"></stop>
            <stop stop-color="#FE408E" stop-opacity="0" offset="100%"></stop>
        </linearGradient>
        <linearGradient x1="50%" y1="100%" x2="50%" y2="3.061617e-15%" id="linearGradient-12">
            <stop stop-color="#EA8FE6" stop-opacity="0.133249563" offset="0%"></stop>
            <stop stop-color="#D156C9" stop-opacity="0.303267045" offset="100%"></stop>
        </linearGradient>
        <linearGradient x1="50%" y1="100%" x2="50%" y2="3.061617e-15%" id="linearGradient-13">
            <stop stop-color="#8FC4EA" stop-opacity="0.15234375" offset="0%"></stop>
            <stop stop-color="#5691D1" stop-opacity="0.448754371" offset="100%"></stop>
        </linearGradient>
        <linearGradient x1="50%" y1="18.2213309%" x2="39.3810698%" y2="114.291165%" id="linearGradient-14">
            <stop stop-color="#FFAF92" offset="0%"></stop>
            <stop stop-color="#FF7759" offset="100%"></stop>
        </linearGradient>
        <linearGradient x1="-1.85315608%" y1="-53.2740754%" x2="50%" y2="100%" id="linearGradient-15">
            <stop stop-color="#FF74C1" offset="0%"></stop>
            <stop stop-color="#FE408E" offset="100%"></stop>
        </linearGradient>
        <linearGradient x1="-30.989666%" y1="-53.2740754%" x2="50%" y2="100%" id="linearGradient-16">
            <stop stop-color="#FF74C1" offset="0%"></stop>
            <stop stop-color="#FE408E" offset="100%"></stop>
        </linearGradient>
        <linearGradient x1="50%" y1="0%" x2="19.5295834%" y2="160.620579%" id="linearGradient-17">
            <stop stop-color="#FFC4AE" offset="0%"></stop>
            <stop stop-color="#FF7759" offset="100%"></stop>
        </linearGradient>
        <linearGradient x1="50%" y1="-13.3309089%" x2="50%" y2="100%" id="linearGradient-18">
            <stop stop-color="#111377" offset="0%"></stop>
            <stop stop-color="#070842" offset="100%"></stop>
        </linearGradient>
        <linearGradient x1="50%" y1="41.6432282%" x2="39.3810698%" y2="66.9065166%" id="linearGradient-19">
            <stop stop-color="#FFAF92" offset="0%"></stop>
            <stop stop-color="#FF7759" offset="100%"></stop>
        </linearGradient>
        <linearGradient x1="-2.14412197%" y1="-46.2145422%" x2="50%" y2="84.9568036%" id="linearGradient-20">
            <stop stop-color="#FF74C1" offset="0%"></stop>
            <stop stop-color="#F93586" offset="100%"></stop>
        </linearGradient>
        <linearGradient x1="70.3938023%" y1="-18.8128837%" x2="-319.16676%" y2="342.488668%" id="linearGradient-21">
            <stop stop-color="#B8CAFF" offset="0%"></stop>
            <stop stop-color="#FFFFFF" offset="100%"></stop>
        </linearGradient>
        <path d="M27.8989413,29.362746 L3.07869405,29.362746 C1.37833137,29.362746 6.06329801e-13,28.2966989 6.06329801e-13,26.9815822 L6.06329801e-13,2.38152526 C6.06329801e-13,1.06640855 1.37833137,0 3.07869405,0 L27.8989413,0 C29.599304,0 30.9776354,1.06640855 30.9776354,2.38152526 L30.9776354,26.9815822 C30.9776354,28.2966989 29.599304,29.362746 27.8989413,29.362746" id="path-22"></path>
        <filter x="-79.1%" y="-59.6%" width="277.5%" height="287.3%" filterUnits="objectBoundingBox" id="filter-23">
            <feOffset dx="3" dy="10" in="SourceAlpha" result="shadowOffsetOuter1"></feOffset>
            <feGaussianBlur stdDeviation="7.5" in="shadowOffsetOuter1" result="shadowBlurOuter1"></feGaussianBlur>
            <feColorMatrix values="0 0 0 0 0.146921939   0 0 0 0 0.162098605   0 0 0 0 0.423884737  0 0 0 0.24341674 0" type="matrix" in="shadowBlurOuter1"></feColorMatrix>
        </filter>
        <linearGradient x1="-78.7976872%" y1="-53.2543976%" x2="50%" y2="99.990473%" id="linearGradient-24">
            <stop stop-color="#FF74C1" offset="0%"></stop>
            <stop stop-color="#FE408E" offset="100%"></stop>
        </linearGradient>
        <linearGradient x1="-78.7976872%" y1="-53.2740754%" x2="50%" y2="100%" id="linearGradient-25">
            <stop stop-color="#FF74C1" offset="0%"></stop>
            <stop stop-color="#FE408E" offset="100%"></stop>
        </linearGradient>
    </defs>
    <g id="Page-1" stroke="none" stroke-width="1" fill="none" fill-rule="evenodd">
        <g id="WP-ERP-PRO-Page-Design" transform="translate(-944.000000, -2574.000000)">
            <g id="Group-21" transform="translate(949.000000, 2574.000000)">
                <g id="Group-91" transform="translate(69.000000, 52.500000) scale(-1, 1) translate(-69.000000, -52.500000) ">
                    <g id="Group-3" transform="translate(16.931691, 1.517088)">
                        <mask id="mask-2" fill="white">
                            <use xlink:href="#path-1"></use>
                        </mask>
                        <g id="Clip-2"></g>
                        <path d="M113.616945,46.6105308 C111.025456,42.3277536 107.804045,37.9186159 104.104157,33.6004076 C104.376945,33.8095454 104.652869,34.0164882 104.920954,34.2287615 C105.862858,34.9919418 106.794414,35.7591982 107.667337,36.5672161 C108.552488,37.3658275 109.387158,38.1967346 110.174482,39.0486495 C110.970898,39.8955476 111.684224,40.7857156 112.342679,41.6871713 L112.582858,42.0276865 L112.702947,42.197944 L112.763149,42.282916 C112.781335,42.3101948 112.791996,42.3321433 112.807046,42.3572273 L112.977617,42.6456932 C113.032802,42.7422665 113.10241,42.8338231 113.139409,42.9363539 C113.327852,43.3314267 113.486822,43.7333975 113.575557,44.1573169 C113.751144,44.9261411 113.756475,45.7542262 113.616945,46.6105308 M45.877953,96.6273729 C45.7211781,96.6950997 45.5681657,96.760318 45.4138992,96.8261635 C43.2425666,97.7263651 33.9332721,101.215234 28.4834625,97.3617066 C28.0918387,97.0462755 27.6861053,96.6982352 27.2706517,96.3244838 C32.8465084,96.1974961 40.177617,95.5484479 48.2813124,94.4105756 C49.3997447,94.2538007 50.5338544,94.0866786 51.6789384,93.9110907 C49.5809765,94.9505084 47.6438656,95.8645062 45.877953,96.6273729 M7.65936394,64.0925017 C7.18182755,62.7062979 6.72592609,61.2862307 6.30263382,59.8275969 C5.79969989,58.072972 5.35226428,56.2644166 4.96879283,54.4088287 C4.58438074,52.5535543 4.27396641,50.648112 4.07172676,48.7028488 C3.86729227,46.7578992 3.76131243,44.7731288 3.79580291,42.7667234 C3.86415677,38.7611243 4.50191713,34.6391982 6.08189474,30.7938231 C6.86953191,28.8745845 7.89045017,27.0327928 9.15593729,25.3377424 C10.4298903,23.6458275 11.9405733,22.1144502 13.6619619,20.7558387 C14.3254334,20.2287615 15.015243,19.7280224 15.7276282,19.2520538 C9.11423516,32.0185487 6.97739306,49.2227144 7.65936394,64.0925017 M119.683507,60.02043 C118.959834,57.3561971 117.830114,54.505402 116.350786,51.5476865 C116.353922,51.5411019 116.357684,51.5342038 116.361133,51.5273057 C116.93587,50.3486719 117.429711,49.0762867 117.71755,47.6797357 C118.005389,46.2900829 118.068099,44.7536887 117.738244,43.2364211 C117.58241,42.4785711 117.31213,41.7407884 116.979454,41.0418858 C116.905142,40.860654 116.801044,40.70043 116.706979,40.5326809 L116.415691,40.0350773 L116.342007,39.9137335 L116.272085,39.8112027 L116.131301,39.6064546 L115.848479,39.196645 C115.080282,38.120542 114.260976,37.0873953 113.37708,36.1279328 C109.854661,32.265626 105.705769,29.0862307 101.306038,26.2116058 C97.8983785,23.9941814 94.3094871,21.9924793 90.5895319,20.162916 C72.7629698,5.03978052 50.1616708,-5.06969317 31.956654,2.89102352 C27.401402,4.88269205 23.5895767,8.01505487 20.4340112,11.9435207 C17.0291736,13.3679776 13.8397447,15.2176081 11.0435073,17.4946069 C9.08570213,19.0783471 7.32386562,20.9085375 5.8646047,22.9080448 C4.40847928,24.9138231 3.24991265,27.0832744 2.37855767,29.3066562 C1.50500784,31.5312923 0.914907055,33.8076641 0.546486002,36.0627144 C0.1777514,38.3193326 0.0275610302,40.5552564 0.0321573911,42.739131 C0.037281075,44.9236327 0.19625084,47.0567122 0.459632699,49.1277088 C0.720819709,51.2002732 1.09551176,53.2098141 1.54670997,55.1538231 C1.99696753,57.0981456 2.51307055,58.9806988 3.08592609,60.7980336 C3.66442553,62.6134871 4.28995745,64.3662307 4.9459037,66.0584591 C6.08064054,68.9465666 7.31226428,71.6490526 8.59625084,74.1734423 C10.2599462,85.7487615 13.7372139,94.3763987 17.9557133,95.6701053 C19.3585353,96.0999821 21.7148623,96.3222889 24.7917268,96.3451781 C27.0461501,98.4939351 31.0859261,101.482692 37.8034177,100.459892 C38.8086585,100.357048 40.0123763,100.16202 41.3844703,99.8321657 C42.9045599,99.469075 44.626262,98.9463875 46.5257469,98.2710011 C48.4274267,97.5987503 50.5024994,96.7656484 52.7440672,95.7970929 C54.9762284,94.8366898 57.3679866,93.740206 59.916206,92.5230056 C69.9814692,90.6718074 80.4784905,88.1734423 89.831682,85.0793326 C108.433339,78.9331288 122.51204,70.4390638 119.683507,60.02043" id="Fill-1" fill="url(#linearGradient-3)" opacity="0.730259487" mask="url(#mask-2)"></path>
                    </g>
                    <path d="M39.0021814,1.72898544 C40.1986876,3.80123628 38.3289899,7.12078835 34.8256976,9.14349832 C31.3224054,11.1662083 27.5124614,11.1257604 26.3159552,9.05350952 C25.1197626,6.98094513 26.9891467,3.66139306 30.4927525,1.63868309 C33.9957312,-0.383713326 37.8059888,-0.343265398 39.0021814,1.72898544" id="Fill-4" fill="url(#linearGradient-4)" opacity="0.598818824"></path>
                    <g id="Group-10" transform="translate(77.133259, 96.836237)">
                        <mask id="mask-6" fill="white">
                            <use xlink:href="#path-5"></use>
                        </mask>
                        <g id="Clip-9"></g>
                        <path d="M11.4226517,2.10297872 C11.9826517,3.91843225 9.94896753,6.15780515 6.87994177,7.10441209 C3.81122956,8.05101904 0.869191489,7.34678611 0.309191489,5.53164614 C-0.250494961,3.71619261 1.78318925,1.47681971 4.85190146,0.529899216 C7.92092721,-0.416394177 10.8626517,0.287838746 11.4226517,2.10297872" id="Fill-8" fill="url(#linearGradient-7)" opacity="0.598818824" mask="url(#mask-6)"></path>
                    </g>
                    <g id="Group-16" transform="translate(16.729460, 46.977044) scale(-1, 1) translate(-16.729460, -46.977044) translate(0.229460, 35.477044)">
                        <g id="Fill-13">
                            <use fill="black" fill-opacity="1" filter="url(#filter-9)" xlink:href="#path-8"></use>
                            <use fill="#FFFFFF" fill-rule="evenodd" xlink:href="#path-8"></use>
                        </g>
                        <path d="M29.146056,21.2842331 L3.24715342,21.2832923 C2.57929227,21.2832923 2.03779171,20.7417917 2.03779171,20.0739306 L2.03810526,5.19254199 C2.03810526,4.5243673 2.57960582,3.98255319 3.24778052,3.98286661 L29.1463695,3.98318029 C29.8145442,3.98349384 30.3560448,4.5249944 30.3560448,5.19316909 L30.3554177,20.0748712 C30.3554177,20.7427324 29.8139171,21.2845465 29.146056,21.2842331" id="Fill-15" fill="#DADAFF"></path>
                        <path d="M3.54979171,2.08494961 C3.64981411,2.50134378 3.28358791,2.86694289 2.86719373,2.76535274 C2.67185218,2.71800672 2.51162822,2.5574692 2.46522284,2.36181411 C2.36582755,1.94604703 2.7311131,1.58107503 3.14688018,1.68172452 C3.34253527,1.72907055 3.50275924,1.88929451 3.54979171,2.08494961" id="Fill-17" fill="#C3C3F3"></path>
                        <path d="M5.77160582,2.08451064 C5.87194177,2.50090482 5.50665622,2.86650392 5.09026204,2.76585442 C4.89492049,2.71882195 4.73438298,2.55828443 4.6873505,2.36294289 C4.58732811,1.94686226 4.95261366,1.58157671 5.36869429,1.6815991 C5.56403583,1.72863158 5.72457335,1.88885554 5.77160582,2.08451064" id="Fill-19" fill="#C3C3F3"></path>
                        <path d="M7.99370213,2.08463606 C8.09435162,2.50071669 7.72875252,2.86631579 7.31298544,2.76597984 C7.11733035,2.71863382 6.95679283,2.55840985 6.90976036,2.36306831 C6.80942441,1.94730123 7.17470997,1.58170213 7.59047704,1.68172452 C7.78613214,1.728757 7.94666965,1.88898096 7.99370213,2.08463606" id="Fill-21" fill="#C3C3F3"></path>
                        <polygon id="Fill-23" fill="url(#linearGradient-10)" opacity="0.494210379" points="9.30882419 19.4026204 6.03034714 19.4026204 6.03066069 13.3884211 9.30913774 13.3884211"></polygon>
                        <polygon id="Fill-25" fill="url(#linearGradient-11)" points="14.9212094 19.4029339 11.6427324 19.4029339 11.6430459 10.7467637 14.9218365 10.7467637"></polygon>
                        <polygon id="Fill-27" fill="url(#linearGradient-12)" points="20.5338455 19.4029339 17.2553684 19.4029339 17.2553684 13.432318 20.534159 13.432318"></polygon>
                        <polygon id="Fill-29" fill="url(#linearGradient-13)" points="26.1462307 19.4032161 22.8677536 19.4029026 22.8680672 5.86444793 26.1468578 5.86444793"></polygon>
                        <path d="M5.00610553,5.9602374 C5.00641881,6.29479507 4.73519821,6.56601595 4.40032699,6.56601595 C4.06545577,6.56632923 3.79454871,6.29479507 3.79454871,5.9602374 C3.79454871,5.62567973 4.06576932,5.35445913 4.40032699,5.35414558 C4.73519821,5.35414558 5.00641881,5.62567973 5.00610553,5.9602374" id="Fill-31" fill="#EBEBEB"></path>
                        <path d="M12.3390011,6.19753191 L6.03382755,6.19753191 C5.90276372,6.19753191 5.79678387,6.09123852 5.79678387,5.96048824 L5.79678387,5.96017469 C5.79678387,5.82942441 5.90307727,5.72313102 6.03382755,5.72313102 L12.3390011,5.72344457 C12.4700649,5.72344457 12.5760448,5.82942441 12.5760448,5.96048824 C12.5760448,6.09155207 12.4697514,6.19753191 12.3390011,6.19753191" id="Fill-33" fill="#EBEBEB"></path>
                        <path d="M5.00610553,7.68673684 C5.00641881,8.02129451 4.73488466,8.29282867 4.40001344,8.29251539 C4.06576932,8.29282867 3.79454871,8.02129451 3.79454871,7.68673684 C3.79454871,7.35217917 4.06545577,7.08064502 4.40032699,7.08064502 C4.73519821,7.08064502 5.00610553,7.35217917 5.00610553,7.68673684" id="Fill-35" fill="#EBEBEB"></path>
                        <path d="M12.3390011,7.92406271 L6.033514,7.92406271 C5.90276372,7.92406271 5.79678387,7.81776932 5.79678387,7.68701904 L5.79678387,7.68670549 C5.79678387,7.55564166 5.90276372,7.44966181 6.03382755,7.44966181 L12.3390011,7.44997536 C12.4697514,7.44997536 12.5760448,7.55626876 12.5760448,7.68701904 C12.5760448,7.81808287 12.4697514,7.92406271 12.3390011,7.92406271" id="Fill-37" fill="#EBEBEB"></path>
                    </g>
                    <path d="M72.9528242,48.4757536 C72.9528242,48.4757536 75.7848063,62.6576125 86.7371019,66.7999194 C86.7371019,66.7999194 88.5622755,65.3256081 89.8261948,65.6065487 C91.0901142,65.8871758 93.4066204,68.6254065 93.4066204,68.6254065 L86.2457693,68.6254065 C86.2457693,68.6254065 74.5208869,67.502271 68.4831713,56.0583292 L68.1319955,51.7755521 L72.9528242,48.4757536 Z" id="Fill-39" fill="url(#linearGradient-14)"></path>
                    <path d="M66.7746069,36.4001344 C66.7746069,36.4001344 73.8890526,45.4570213 74.731561,47.8437626 C74.731561,47.8437626 70.2383919,51.564972 68.8340022,52.8288914 C68.8340022,52.8288914 63.5055364,42.3895633 64.4110683,39.4892273 C65.2535767,36.7905039 66.7746069,36.4001344 66.7746069,36.4001344" id="Fill-41" fill="url(#linearGradient-15)"></path>
                    <path d="M56.0095006,34.0598298 C56.0095006,34.0598298 45.2440806,35.5576573 43.3718746,42.6717895 C41.4999821,49.7862352 56.0800493,71.2230101 56.0800493,71.2230101 L72.9527928,71.2230101 C72.9527928,71.2230101 68.8340022,37.710804 66.7746069,36.4001657 C64.7155252,35.0895274 62.0004972,32.8429429 56.0095006,34.0598298" id="Fill-43" fill="url(#linearGradient-16)"></path>
                    <path d="M55.3543695,17.8643852 L67.8512116,20.6734782 L67.8507774,20.6964285 C67.8385639,21.2725399 67.5250369,32.5044249 61.6403287,32.7654069 L61.4097066,36.5205062 C59.8902441,37.4583337 54.4191131,35.6500918 54.4191131,35.6500918 L55.1659888,28.4246495 C55.1673116,28.4246926 55.1666402,28.4230268 55.1659694,28.4213609 C52.5460918,28.1245823 52.78,24.2773259 53.7629787,23.7157581 C54.0082047,23.5756625 54.2301112,23.554994 54.4250714,23.602884 C54.4979383,20.5224413 55.3543695,17.8643852 55.3543695,17.8643852 Z" id="Combined-Shape" fill="url(#linearGradient-17)"></path>
                    <path d="M53.762916,23.7158835 C53.762916,23.7158835 55.2137111,23.4816618 55.7050437,24.8158163 L56.4773169,19.8310011 C56.4773169,19.8310011 61.4082016,21.2350773 64.1031624,19.8310011 C64.1031624,19.8310011 66.1487615,22.5284703 67.7020873,22.7946741 C69.2554132,23.0605644 71.5549877,16.671673 67.7020873,15.4077536 C67.7020873,15.4077536 59.1145845,4.87686898 54.2153684,15.4077536 C54.2153684,15.4077536 51.0011691,15.6184591 50.5800717,19.4798253 C50.1589742,23.341505 53.0950549,26.0019754 53.0950549,26.0019754 C53.0950549,26.0019754 53.0138455,24.090262 53.762916,23.7158835" id="Fill-51" fill="url(#linearGradient-18)"></path>
                    <path d="M55.2841344,60.1304009 C55.2841344,60.1304009 64.8323539,69.8893259 74.240103,69.8893259 L84.0695767,69.8893259 L92.9157581,69.8893259 C92.9157581,69.8893259 88.5624323,64.202159 86.456318,65.0098634 C84.3502038,65.8172542 82.9461277,67.0106249 82.9461277,67.0106249 C82.9461277,67.0106249 69.5133393,64.4649138 61.1349742,54.5046898 C61.1349742,54.5046898 57.0726226,54.5147234 55.2841344,60.1304009" id="Fill-53" fill="url(#linearGradient-19)"></path>
                    <path d="M43.372,42.6718835 C43.372,42.6718835 43.5595028,55.9645151 54.9799283,61.9555118 C54.9799283,61.9555118 59.5204434,55.1978858 61.1349115,54.5046271 C61.1349115,54.5046271 55.5229966,41.7541232 51.797084,39.3018499 C49.9019888,38.0548623 45.992963,38.4593415 43.372,42.6718835" id="Fill-55" fill="url(#linearGradient-20)"></path>
                    <path d="M73.7018007,69.8893259 C73.7018007,69.8893259 73.2339843,70.3806585 73.2807032,71.2231669 L103.563346,71.2231669 C103.563346,71.2231669 103.236,69.959561 102.814903,69.8893259 L73.7018007,69.8893259 Z" id="Fill-57" fill="#ADD3FF"></path>
                    <polygon id="Fill-59" fill="url(#linearGradient-21)" points="92.9156013 71.2231355 100.802007 46.7907055 112.784 46.7907055 104.827359 71.2231355"></polygon>
                    <path d="M106.608918,58.1146831 C106.374697,59.0750862 105.696488,59.7347951 105.093532,59.5877402 C104.490576,59.4406853 104.192076,58.5429922 104.426611,57.582589 C104.66052,56.6215588 105.339041,55.9621635 105.941998,56.1092184 C106.544641,56.2562732 106.843454,57.15428 106.608918,58.1146831" id="Fill-61" fill="#FFFFFF"></path>
                    <path d="M117.659731,74.3123852 L28.756439,74.3123852 C28.756439,72.6063606 30.1395073,71.2229787 31.8455319,71.2229787 L114.570638,71.2229787 C116.276976,71.2229787 117.659731,72.6063606 117.659731,74.3123852" id="Fill-63" fill="#7384E6"></path>
                    <path d="M35.4357686,97.9981441 L35.7236975,98.8510638 L36.0116263,97.9981441 C36.3828257,96.9002138 37.1539589,95.9821028 38.1702128,95.4258035 C37.1539589,94.8695043 36.3828257,93.9508501 36.0116263,92.8529197 L35.7236975,92 L35.4357686,92.8529197 C35.0645692,93.9508501 34.2946088,94.8695043 33.2765957,95.4258035 C34.2946088,95.9821028 35.0645692,96.9002138 35.4357686,97.9981441" id="Fill-65" fill="#FFCF00"></path>
                    <path d="M120.526285,97.3628626 L120.871617,98.459346 L121.217516,97.3628626 C121.662812,95.9506822 122.587483,94.7696371 123.807503,94.0553726 C122.587483,93.3399806 121.662812,92.1594992 121.217516,90.7478825 L120.871617,89.6508354 L120.526285,90.7478825 C120.080989,92.1594992 119.156318,93.3399806 117.935162,94.0553726 C119.156318,94.7696371 120.080989,95.9506822 120.526285,97.3628626" id="Fill-67" fill="#6DE4AB"></path>
                    <path d="M108.731212,5.06151848 L108.92185,5.6713729 L109.112802,5.06151848 C109.358625,4.2763897 109.869084,3.6195028 110.542589,3.22192161 C109.869084,2.82434043 109.358625,2.16745353 109.112802,1.38232475 L108.92185,0.772470325 L108.731212,1.38232475 C108.485389,2.16745353 107.974929,2.82434043 107.300797,3.22192161 C107.974929,3.6195028 108.485389,4.2763897 108.731212,5.06151848" id="Fill-69" fill="#FF5F4A"></path>
                    <path d="M10.1714222,22.679776 L10.4401344,23.5389026 L10.7091601,22.679776 C11.0553191,21.5738858 11.7739754,20.6486002 12.7234043,20.0886002 C11.7739754,19.5286002 11.0553191,18.6036282 10.7091601,17.4974244 L10.4401344,16.6382979 L10.1714222,17.4974244 C9.82526316,18.6036282 9.10629339,19.5286002 8.1574916,20.0886002 C9.10629339,20.6486002 9.82526316,21.5738858 10.1714222,22.679776" id="Fill-71" fill="#4BBDFF"></path>
                </g>
                <g id="Group-18" transform="translate(7.000000, 11.000000)">
                    <g id="Fill-73">
                        <use fill="black" fill-opacity="1" filter="url(#filter-23)" xlink:href="#path-22"></use>
                        <use fill="#FFFFFF" fill-rule="evenodd" xlink:href="#path-22"></use>
                    </g>
                    <path d="M7.97661632,11.8536506 L5.57344317,11.8536506 C4.99934706,11.8536506 4.53332113,11.3880519 4.53332113,10.8135286 L4.53332113,8.41078261 C4.53332113,7.83625934 4.99934706,7.37066056 5.57344317,7.37066056 L7.97661632,7.37066056 C8.55113959,7.37066056 9.01673837,7.83625934 9.01673837,8.41078261 L9.01673837,10.8135286 C9.01673837,11.3880519 8.55113959,11.8536506 7.97661632,11.8536506" id="Fill-75" fill="url(#linearGradient-24)"></path>
                    <path d="M25.8853822,8.48814035 L11.7952525,8.48814035 C11.4864195,8.48814035 11.2361068,8.23825477 11.2361068,7.92942182 C11.2361068,7.62101602 11.4864195,7.37070328 11.7952525,7.37070328 L25.8853822,7.37070328 C26.1942151,7.37070328 26.4445278,7.62101602 26.4445278,7.92942182 C26.4445278,8.23825477 26.1942151,8.48814035 25.8853822,8.48814035" id="Fill-77" fill="#B6B6FF"></path>
                    <path d="M23.3167569,11.8536506 L11.6972111,11.8536506 C11.4425293,11.8536506 11.2361068,11.6037651 11.2361068,11.2949321 C11.2361068,10.9865263 11.4425293,10.7362136 11.6972111,10.7362136 L23.3167569,10.7362136 C23.5714386,10.7362136 23.7778612,10.9865263 23.7778612,11.2949321 C23.7778612,11.6037651 23.5714386,11.8536506 23.3167569,11.8536506" id="Fill-79" fill="#B6B6FF" opacity="0.509974888"></path>
                    <path d="M8.08088482,21.9921281 L5.46926011,21.9921281 C4.9528299,21.9921281 4.53336384,21.5735164 4.53336384,21.056659 L4.53336384,18.4446072 C4.53336384,17.9277498 4.9528299,17.5091381 5.46926011,17.5091381 L8.08088482,17.5091381 C8.59774218,17.5091381 9.01635393,17.9277498 9.01635393,18.4446072 L9.01635393,21.056659 C9.01635393,21.5735164 8.59774218,21.9921281 8.08088482,21.9921281" id="Fill-81" fill="url(#linearGradient-25)"></path>
                    <path d="M25.8853822,18.6266178 L11.7952525,18.6266178 C11.4864195,18.6266178 11.2361068,18.3767323 11.2361068,18.0678993 C11.2361068,17.7594935 11.4864195,17.5091808 11.7952525,17.5091808 L25.8853822,17.5091808 C26.1942151,17.5091808 26.4445278,17.7594935 26.4445278,18.0678993 C26.4445278,18.3767323 26.1942151,18.6266178 25.8853822,18.6266178" id="Fill-83" fill="#B6B6FF"></path>
                    <path d="M20.2262952,21.9921281 L11.5792518,21.9921281 C11.3897225,21.9921281 11.2361068,21.7422426 11.2361068,21.4334096 C11.2361068,21.1250038 11.3897225,20.8746911 11.5792518,20.8746911 L20.2262952,20.8746911 C20.4158244,20.8746911 20.5694401,21.1250038 20.5694401,21.4334096 C20.5694401,21.7422426 20.4158244,21.9921281 20.2262952,21.9921281" id="Fill-85" fill="#B6B6FF" opacity="0.509974888"></path>
                    <path d="M6.70472006,10.149431 L5.72824409,9.30494584 C5.48818307,9.0982029 5.46212662,8.73554844 5.66929672,8.49591457 L5.66929672,8.49548741 C5.87689397,8.25585355 6.23869413,8.22936995 6.47875515,8.4369672 L6.55009001,8.4984775 C6.79698551,8.71162777 7.17160031,8.67660107 7.37449886,8.42073532 L8.59317162,6.88511365 C8.79051716,6.63650953 9.15146301,6.59507551 9.39963997,6.79242105 C9.64781693,6.98933944 9.68925095,7.35028528 9.49233257,7.59846224 L7.52954613,10.0721159 C7.32665751,10.3275545 6.95161556,10.3630084 6.70472006,10.149431" id="Fill-87" fill="#FFFFFF"></path>
                    <path d="M6.70472006,20.0328116 L5.72824409,19.1883265 C5.48818307,18.9815835 5.46212662,18.6189291 5.66929672,18.3792952 L5.66929672,18.378868 C5.87689397,18.1392342 6.23869413,18.1127506 6.47875515,18.3203478 L6.55009001,18.3818581 C6.79698551,18.5950084 7.17160031,18.5599817 7.37449886,18.3041159 L8.59317162,16.7684943 C8.79051716,16.5198902 9.15146301,16.4784561 9.39963997,16.6758017 C9.64781693,16.8727201 9.68925095,17.2336659 9.49233257,17.4818429 L7.52954613,19.9554966 C7.32665751,20.2109352 6.95161556,20.246389 6.70472006,20.0328116" id="Fill-89" fill="#FFFFFF"></path>
                </g>
            </g>
        </g>
    </g>
</svg>