<?xml version="1.0" encoding="UTF-8"?>
<svg width="90px" height="82px" viewBox="0 0 90 82" version="1.1" xmlns="http://www.w3.org/2000/svg" xmlns:xlink="http://www.w3.org/1999/xlink">
    <!-- Generator: Sketch 63.1 (92452) - https://sketch.com -->
    <title>Group 26</title>
    <desc>Created with Sketch.</desc>
    <defs>
        <path d="M2.89838976,0.0560268885 C1.30622959,0.0560268885 0.0152809761,1.3582815 0.0152809761,2.96438563 L0.0152809761,2.96438563 L13.2530143,2.96438563 C13.2530143,1.3582815 11.9623595,0.0560268885 10.3701993,0.0560268885 L10.3701993,0.0560268885 L2.89838976,0.0560268885 Z" id="path-1"></path>
        <polygon id="path-3" points="3.35180341 0.00366480027 0 11.1043448 16.7904522 11.1043448 13.4386487 0.00366480027"></polygon>
        <linearGradient x1="50%" y1="120.227646%" x2="50%" y2="-42.2602363%" id="linearGradient-5">
            <stop stop-color="#C9C7FF" offset="0%"></stop>
            <stop stop-color="#544EFA" offset="100%"></stop>
        </linearGradient>
        <polygon id="path-6" points="0.0237294913 0.00366480027 4.43688949 0.00366480027 4.43688949 11.1043176 0.0237294913 11.1043176"></polygon>
        <linearGradient x1="100%" y1="20.5263159%" x2="64.3364228%" y2="96.1725943%" id="linearGradient-8">
            <stop stop-color="#FF875D" offset="0%"></stop>
            <stop stop-color="#BE6977" offset="100%"></stop>
        </linearGradient>
        <linearGradient x1="100%" y1="50%" x2="0%" y2="50%" id="linearGradient-9">
            <stop stop-color="#F4926F" offset="0%"></stop>
            <stop stop-color="#BE6977" offset="100%"></stop>
        </linearGradient>
        <linearGradient x1="100%" y1="50%" x2="0%" y2="50%" id="linearGradient-10">
            <stop stop-color="#F4926F" offset="0%"></stop>
            <stop stop-color="#BE6977" offset="100%"></stop>
        </linearGradient>
        <linearGradient x1="50%" y1="0%" x2="50%" y2="100%" id="linearGradient-11">
            <stop stop-color="#FFDAAF" offset="0%"></stop>
            <stop stop-color="#FEB377" offset="100%"></stop>
        </linearGradient>
        <linearGradient x1="50%" y1="0%" x2="50%" y2="100%" id="linearGradient-12">
            <stop stop-color="#FFDAAF" offset="0%"></stop>
            <stop stop-color="#FEB377" offset="100%"></stop>
        </linearGradient>
        <linearGradient x1="50%" y1="-310.440288%" x2="50%" y2="100%" id="linearGradient-13">
            <stop stop-color="#FFDAAF" offset="0%"></stop>
            <stop stop-color="#FEB377" offset="100%"></stop>
        </linearGradient>
        <linearGradient x1="50%" y1="0%" x2="50%" y2="100%" id="linearGradient-14">
            <stop stop-color="#FFDAAF" offset="0%"></stop>
            <stop stop-color="#FEB377" offset="100%"></stop>
        </linearGradient>
        <linearGradient x1="50%" y1="0%" x2="50%" y2="100%" id="linearGradient-15">
            <stop stop-color="#FFDAAF" offset="0%"></stop>
            <stop stop-color="#FEB377" offset="100%"></stop>
        </linearGradient>
        <linearGradient x1="50%" y1="0%" x2="50%" y2="100%" id="linearGradient-16">
            <stop stop-color="#FFDAAF" offset="0%"></stop>
            <stop stop-color="#FEB377" offset="100%"></stop>
        </linearGradient>
        <linearGradient x1="100%" y1="50%" x2="0%" y2="50%" id="linearGradient-17">
            <stop stop-color="#4E72A2" offset="0%"></stop>
            <stop stop-color="#86ABCF" offset="100%"></stop>
        </linearGradient>
        <linearGradient x1="100%" y1="50%" x2="0%" y2="50%" id="linearGradient-18">
            <stop stop-color="#F4926F" offset="0%"></stop>
            <stop stop-color="#BE6977" offset="100%"></stop>
        </linearGradient>
        <linearGradient x1="100%" y1="50%" x2="-32.1436296%" y2="51.6522685%" id="linearGradient-19">
            <stop stop-color="#FF632B" offset="0%"></stop>
            <stop stop-color="#BE6977" offset="100%"></stop>
        </linearGradient>
        <linearGradient x1="51.8465887%" y1="50%" x2="46.96629%" y2="1000.97164%" id="linearGradient-20">
            <stop stop-color="#FF632B" offset="0%"></stop>
            <stop stop-color="#BE6977" offset="100%"></stop>
        </linearGradient>
        <linearGradient x1="51.8464561%" y1="50%" x2="46.9665079%" y2="1000.97164%" id="linearGradient-21">
            <stop stop-color="#FF632B" offset="0%"></stop>
            <stop stop-color="#BE6977" offset="100%"></stop>
        </linearGradient>
        <linearGradient x1="50%" y1="0%" x2="50%" y2="100%" id="linearGradient-22">
            <stop stop-color="#D4DCFF" offset="0%"></stop>
            <stop stop-color="#C5D0FF" offset="100%"></stop>
        </linearGradient>
    </defs>
    <g id="Page-1" stroke="none" stroke-width="1" fill="none" fill-rule="evenodd">
        <g id="WP-ERP-PRO-Page-Design" transform="translate(-304.000000, -2915.000000)">
            <g id="Group-26" transform="translate(304.000000, 2915.000000)">
                <g id="Group-2" transform="translate(0.000000, 6.847826)">
                    <g id="Group-7">
                        <polygon id="Fill-1" fill="#D8E9F0" points="0.000115783204 7.05721787 7.1617701 7.05721787 7.1617701 3.29075659e-15 0.000115783204 3.29075659e-15"></polygon>
                        <polygon id="Fill-2" fill="#FFFFFF" points="0.463132817 6.54140369 6.69863728 6.54140369 6.69863728 0.515814175 0.463132817 0.515814175"></polygon>
                        <polygon id="Fill-3" fill="#B2AFFE" opacity="0.487002418" points="1.29711924 5.79633877 5.86465086 5.79633877 5.86465086 1.26087909 1.29711924 1.26087909"></polygon>
                        <polygon id="Fill-4" fill="#D8E9F0" points="0.000115783204 16.4373942 7.1617701 16.4373942 7.1617701 9.3801763 0.000115783204 9.3801763"></polygon>
                        <polygon id="Fill-5" fill="#FFFFFF" points="0.463132817 15.92158 6.69863728 15.92158 6.69863728 9.89599047 0.463132817 9.89599047"></polygon>
                        <polygon id="Fill-6" fill="#B2AFFE" opacity="0.487002418" points="1.29711924 15.1765151 5.86465086 15.1765151 5.86465086 10.6410554 1.29711924 10.6410554"></polygon>
                    </g>
                    <g id="Group-7-Copy" transform="translate(9.725789, 0.000000)">
                        <polygon id="Fill-1" fill="#D8E9F0" points="0.000115783204 7.05721787 7.1617701 7.05721787 7.1617701 3.29075659e-15 0.000115783204 3.29075659e-15"></polygon>
                        <polygon id="Fill-2" fill="#FFFFFF" points="0.463132817 6.54140369 6.69863728 6.54140369 6.69863728 0.515814175 0.463132817 0.515814175"></polygon>
                        <polygon id="Fill-3" fill="#B2AFFE" opacity="0.487002418" points="1.29711924 5.79633877 5.86465086 5.79633877 5.86465086 1.26087909 1.29711924 1.26087909"></polygon>
                        <polygon id="Fill-4" fill="#D8E9F0" points="0.000115783204 16.4373942 7.1617701 16.4373942 7.1617701 9.3801763 0.000115783204 9.3801763"></polygon>
                        <polygon id="Fill-5" fill="#FFFFFF" points="0.463132817 15.92158 6.69863728 15.92158 6.69863728 9.89599047 0.463132817 9.89599047"></polygon>
                        <polygon id="Fill-6" fill="#B2AFFE" opacity="0.487002418" points="1.29711924 15.1765151 5.86465086 15.1765151 5.86465086 10.6410554 1.29711924 10.6410554"></polygon>
                    </g>
                </g>
                <g id="Group-19-Copy" transform="translate(72.391304, 0.978261)">
                    <polygon id="Fill-1" fill="#56538F" points="7.82608696 64.5652174 8.80434783 64.5652174 8.80434783 5.86956522 7.82608696 5.86956522"></polygon>
                    <g id="Group-4" transform="translate(1.956522, 64.565217)">
                        <mask id="mask-2" fill="white">
                            <use xlink:href="#path-1"></use>
                        </mask>
                        <g id="Clip-3"></g>
                        <path d="M2.89838976,0.0560268885 C1.30622959,0.0560268885 0.0152809761,1.3582815 0.0152809761,2.96438563 L0.0152809761,2.96438563 L13.2530143,2.96438563 C13.2530143,1.3582815 11.9623595,0.0560268885 10.3701993,0.0560268885 L10.3701993,0.0560268885 L2.89838976,0.0560268885 Z" id="Fill-2" fill="#7873FC" mask="url(#mask-2)"></path>
                    </g>
                    <g id="Group-8" transform="translate(10.760870, 8.804348)">
                        <polygon id="Fill-5" fill="#56538F" points="0.424263913 5.42433085 0.62870087 5.42433085 0.62870087 0.0397891754 0.424263913 0.0397891754"></polygon>
                        <path d="M0.526514087,6.81406533 L0.526514087,6.81406533 C0.306229304,6.81406533 0.12714887,6.66739151 0.12714887,6.48638977 L0.12714887,5.28985384 C0.12714887,5.10859204 0.306229304,4.96217828 0.526514087,4.96217828 C0.74679887,4.96217828 0.925879304,5.10859204 0.925879304,5.28985384 L0.925879304,6.48638977 C0.925879304,6.66739151 0.74679887,6.81406533 0.526514087,6.81406533" id="Fill-7" fill="#FFD250"></path>
                    </g>
                    <g id="Group-11">
                        <mask id="mask-4" fill="white">
                            <use xlink:href="#path-3"></use>
                        </mask>
                        <g id="Clip-10"></g>
                        <polygon id="Fill-9" fill="url(#linearGradient-5)" mask="url(#mask-4)" points="3.35180341 0.00366480027 0 11.1043448 16.7904522 11.1043448 13.4386487 0.00366480027"></polygon>
                    </g>
                    <g id="Group-18" transform="translate(0.978261, 0.000000)">
                        <g id="Group-17">
                            <mask id="mask-7" fill="white">
                                <use xlink:href="#path-6"></use>
                            </mask>
                            <g id="Clip-16"></g>
                        </g>
                    </g>
                </g>
                <g id="Group-25" transform="translate(4.891304, 0.000000)">
                    <g id="Group-24" transform="translate(35.426957, 41.000000) scale(-1, 1) translate(-35.426957, -41.000000) translate(0.426957, 0.000000)">
                        <path d="M18.4342781,37.9557294 C18.3616396,37.8853888 18.2758176,37.832892 18.1837916,37.792291 C18.1212346,37.7648789 18.0550587,37.744449 17.9873317,37.7299672 C17.9557947,37.7232434 17.9239992,37.7170369 17.8916867,37.7134164 C17.6885057,37.6872973 17.4793793,37.7240192 17.2904158,37.7966873 C17.1006768,37.8690967 16.9298084,37.9792625 16.7855654,38.1127027 C16.7137024,38.1796815 16.6475264,38.2520909 16.5896224,38.3304483 C16.5609289,38.3700148 16.5340449,38.4103572 16.5094874,38.4525099 C16.4919094,38.4840597 16.4763994,38.5158681 16.4621819,38.550004 C16.4479644,38.5158681 16.4324544,38.4840597 16.4148764,38.4525099 C16.3903189,38.4103572 16.3631764,38.3700148 16.334483,38.3304483 C16.2768375,38.2520909 16.2106615,38.1796815 16.139057,38.1127027 C15.9945555,37.9792625 15.823687,37.8690967 15.6339481,37.7966873 C15.4452431,37.7240192 15.2358581,37.6872973 15.0329357,37.7134164 C15.0003647,37.7170369 14.9685692,37.7232434 14.9370322,37.7299672 C14.8693052,37.744449 14.8031292,37.7648789 14.7403137,37.792291 C14.6482877,37.832892 14.5624658,37.8853888 14.4898273,37.9557294 L14.4624263,37.9859862 C14.4541543,37.9880551 14.6806002,37.9901239 14.7697827,37.9919342 C14.8587067,37.9932272 14.9507327,37.9958132 15.0347452,38.002537 C15.0370717,38.0030542 15.0430172,38.0030542 15.0456022,38.0033128 L15.0489627,38.0030542 C15.2128516,38.0175361 15.3726046,38.0415863 15.5302896,38.0914971 C15.6900426,38.1421837 15.845918,38.2138173 15.9986915,38.3014845 C16.075466,38.3446715 16.1506895,38.3922549 16.2256545,38.4429415 C16.2633955,38.4682848 16.3006195,38.4941453 16.3378435,38.5215574 C16.3737749,38.5476766 16.4138424,38.5766403 16.4456379,38.6043111 L16.4621819,38.6177586 L16.4787259,38.6043111 C16.5110384,38.5766403 16.5503304,38.5476766 16.5867789,38.5215574 C16.6237444,38.4941453 16.6612269,38.4682848 16.6984509,38.4429415 C16.7736744,38.3922549 16.8486394,38.3446715 16.9256724,38.3014845 C17.0781873,38.2138173 17.2340628,38.1421837 17.3943328,38.0914971 C17.5517592,38.0415863 17.7112537,38.0175361 17.8754012,38.0030542 L17.8787617,38.0033128 C17.8810882,38.0030542 17.8872922,38.0030542 17.8898772,38.002537 C17.9736312,37.9958132 18.0659157,37.9932272 18.1545811,37.9919342 C18.2440221,37.9901239 18.4707266,37.9880551 18.4619376,37.9859862 L18.4342781,37.9557294 Z" id="Fill-7" fill="#FFFFFF"></path>
                        <path d="M12.4930702,25.0817715 C12.4025952,24.994363 12.2958347,24.9294531 12.1815778,24.8790251 C12.1037693,24.8446306 12.0215663,24.8190287 11.9375538,24.8009263 C11.8980033,24.792651 11.8587113,24.78541 11.8183853,24.7802379 C11.5655724,24.7479123 11.3052629,24.793944 11.070545,24.88368 C10.834793,24.9741918 10.621789,25.1112525 10.4426486,25.2770184 C10.3532076,25.3602892 10.2707461,25.4505424 10.1991416,25.5480365 C10.1632101,25.5971715 10.1301221,25.6473409 10.0993606,25.6995791 C10.0773881,25.7386285 10.0580006,25.7781951 10.0404226,25.8206063 C10.0231031,25.7781951 10.0037156,25.7386285 9.98174314,25.6995791 C9.95124015,25.6473409 9.91789365,25.5971715 9.88170366,25.5480365 C9.81035767,25.4505424 9.72815468,25.3602892 9.6387137,25.2770184 C9.45931473,25.1112525 9.24656927,24.9741918 9.01081731,24.88368 C8.77584085,24.793944 8.51553139,24.7479123 8.26323543,24.7802379 C8.22265094,24.78541 8.18310045,24.792651 8.14380846,24.8009263 C8.05979597,24.8190287 7.97759298,24.8446306 7.899526,24.8790251 C7.78526902,24.9294531 7.67850853,24.994363 7.58803355,25.0817715 L7.55391156,25.1195278 C7.54357156,25.1221139 7.82533651,25.1246999 7.93597449,25.1267688 C8.04661247,25.1283204 8.16112795,25.1316823 8.26556193,25.1402162 C8.26840543,25.1407335 8.27590193,25.1407335 8.27900393,25.1409921 L8.28339843,25.1407335 C8.4873549,25.1590944 8.68562436,25.1885754 8.88182583,25.2508992 C9.08035379,25.3134817 9.27448726,25.4027005 9.46422623,25.5118318 C9.55987121,25.5653631 9.6531897,25.6248423 9.74676668,25.6876833 C9.79329667,25.7194917 9.83982666,25.7515588 9.88583966,25.7851774 C9.93081865,25.8180203 9.98019214,25.854225 10.0202596,25.8886195 L10.0404226,25.9049116 L10.0611026,25.8886195 C10.1011701,25.854225 10.1502851,25.8180203 10.1952641,25.7851774 C10.2415356,25.7515588 10.2880656,25.7194917 10.3345956,25.6876833 C10.4281726,25.6248423 10.5212325,25.5653631 10.6168775,25.5118318 C10.8066165,25.4027005 11.0010085,25.3134817 11.1992779,25.2508992 C11.3954794,25.1885754 11.5940074,25.1590944 11.7979638,25.1407335 L11.8020998,25.1409921 C11.8052018,25.1407335 11.8126983,25.1407335 11.8160588,25.1402162 C11.9199758,25.1316823 12.0350083,25.1283204 12.1451293,25.1267688 C12.2562843,25.1246999 12.5380492,25.1221139 12.5274507,25.1195278 L12.4930702,25.0817715 Z" id="Fill-9" fill="#FFFFFF"></path>
                        <path d="M21.3747151,23.9172985 C21.3067296,23.8518714 21.2271116,23.8032536 21.1412896,23.7649801 C21.0828686,23.7393781 21.0210871,23.7202414 20.9580132,23.7070525 C20.9285442,23.7005874 20.8988167,23.6951567 20.8688307,23.6915362 C20.6793502,23.6667101 20.4841827,23.7013632 20.3078858,23.7691177 C20.1310718,23.8368723 19.9710603,23.9397971 19.8374159,24.0634104 C19.7704644,24.12651 19.7084244,24.1937473 19.6543979,24.2671912 C19.6280309,24.3033959 19.6029564,24.3416695 19.5799499,24.3807189 C19.5634059,24.4096826 19.5489299,24.4399394 19.5354879,24.4717479 C19.5225629,24.4399394 19.5080869,24.4096826 19.4915429,24.3807189 C19.4687949,24.3416695 19.4434619,24.3033959 19.4163194,24.2671912 C19.3630684,24.1937473 19.3012869,24.12651 19.234594,24.0634104 C19.099657,23.9397971 18.9401625,23.8368723 18.76309,23.7691177 C18.5873101,23.7013632 18.3921426,23.6667101 18.2026621,23.6915362 C18.1724176,23.6951567 18.1424316,23.7005874 18.1134796,23.7070525 C18.0501472,23.7202414 17.9881072,23.7393781 17.9299447,23.7649801 C17.8446397,23.8032536 17.7642462,23.8518714 17.6965192,23.9172985 L17.6709277,23.945745 C17.6631727,23.9475553 17.8743672,23.9493655 17.9573457,23.9509171 C18.0405827,23.9527274 18.1266631,23.9550548 18.2044716,23.9612613 C18.2067981,23.9615199 18.2124851,23.9615199 18.2140361,23.9617786 L18.2179136,23.9612613 C18.3709456,23.975226 18.5195831,23.9979833 18.6664111,24.0445322 C18.815824,24.0913397 18.9613595,24.1583184 19.1035345,24.2397791 C19.1748805,24.2801215 19.245451,24.3246015 19.3155044,24.3719263 C19.3501434,24.395718 19.3850409,24.4195096 19.4199384,24.4445943 C19.4530264,24.4694204 19.4902504,24.4963153 19.5202364,24.5224345 L19.5354879,24.5348475 L19.5509979,24.5224345 C19.5809839,24.4963153 19.6179494,24.4694204 19.6515544,24.4445943 C19.6859349,24.4195096 19.7208324,24.395718 19.7557299,24.3719263 C19.8263004,24.3246015 19.8963538,24.2801215 19.9679583,24.2397791 C20.1098748,24.1583184 20.2559273,24.0913397 20.4045648,24.0445322 C20.5513927,23.9979833 20.7008057,23.975226 20.8533207,23.9612613 L20.8564227,23.9617786 C20.8587492,23.9615199 20.8644362,23.9615199 20.8672797,23.9612613 C20.9448297,23.9550548 21.0309101,23.9527274 21.1138886,23.9509171 C21.1971256,23.9493655 21.4085786,23.9475553 21.4008236,23.945745 L21.3747151,23.9172985 Z" id="Fill-11" fill="#FFFFFF"></path>
                        <path d="M37.6218509,31.0153109 C37.5794569,30.9744513 37.5293079,30.9439359 37.4757984,30.9198856 C37.4390914,30.9035935 37.4005749,30.8916977 37.360766,30.8834223 C37.3424125,30.8798018 37.3238005,30.8761814 37.30493,30.8738539 C37.1862785,30.8583376 37.0642665,30.8803191 36.9536285,30.9224717 C36.842732,30.9648829 36.7429511,31.0295342 36.6586801,31.1068571 C36.6168031,31.1461651 36.5780281,31.1885764 36.5444231,31.2346081 C36.5278791,31.2573653 36.5118521,31.2808984 36.4973761,31.3054659 C36.4870361,31.3238268 36.4779886,31.342705 36.4697166,31.3626176 C36.4617031,31.342705 36.4526556,31.3238268 36.4423156,31.3054659 C36.4280981,31.2808984 36.4120711,31.2573653 36.3952686,31.2346081 C36.3616636,31.1885764 36.3231471,31.1461651 36.2810116,31.1068571 C36.1964822,31.0295342 36.0969597,30.9648829 35.9858047,30.9224717 C35.8756837,30.8803191 35.7534132,30.8583376 35.6347617,30.8738539 C35.6156327,30.8761814 35.5970208,30.8798018 35.5789258,30.8834223 C35.5391168,30.8916977 35.5003418,30.9035935 35.4638933,30.9198856 C35.4101253,30.9439359 35.3599763,30.9744513 35.3175823,31.0153109 L35.3015553,31.0331547 C35.2966438,31.0344477 35.4289958,31.0354821 35.4809543,31.0362579 C35.5331713,31.0372924 35.5869393,31.0391026 35.6360542,31.0427231 C35.6373467,31.0429817 35.6409657,31.0429817 35.6419997,31.0429817 L35.6443262,31.0427231 C35.7399712,31.0515157 35.8332897,31.0657389 35.9255742,31.0952199 C36.0186342,31.1241837 36.1098847,31.1663363 36.1990671,31.2172815 C36.2437876,31.2426248 36.2879911,31.2702956 36.3319361,31.3002938 C36.3536501,31.3147757 36.3756226,31.3300334 36.3973366,31.3455497 C36.4182751,31.3613246 36.4415401,31.3781339 36.4604106,31.394426 L36.4697166,31.4019256 L36.4795396,31.394426 C36.4981516,31.3781339 36.5214166,31.3613246 36.5423551,31.3455497 C36.5640691,31.3300334 36.5857831,31.3147757 36.6077556,31.3002938 C36.6517006,31.2702956 36.6959041,31.2426248 36.7406246,31.2172815 C36.829807,31.1663363 36.9210575,31.1241837 37.014376,31.0952199 C37.106402,31.0657389 37.1997205,31.0515157 37.2953655,31.0427231 L37.297175,31.0429817 C37.298726,31.0429817 37.3026035,31.0429817 37.3041545,31.0427231 C37.352494,31.0391026 37.4065204,31.0372924 37.4584789,31.0362579 C37.5106959,31.0354821 37.6427894,31.0344477 37.6378779,31.0331547 L37.6218509,31.0153109 Z" id="Fill-15" fill="#B1B2B5"></path>
                        <path d="M28.4993616,54.402912 L30.1343738,54.402912 C33.6543677,54.402912 36.5082072,51.3009435 36.5082072,47.4743635 L37.5533226,33.7902732 C37.5533226,31.1548284 39.5192147,29.0179742 41.9439443,29.0179742 L52.81516,29.0179742 C55.240148,29.0179742 57.2057817,31.1548284 57.2057817,33.7902732 L57.2057817,53.5743412 C57.2057817,56.2100446 55.240148,58.3468987 52.81516,58.3468987 L28.4993616,58.3468987 C27.4976743,58.3468987 26.6854674,57.4640209 26.6854674,56.3747761 C26.6854674,55.2855313 27.4976743,54.402912 28.4993616,54.402912" id="Fill-30" fill="url(#linearGradient-8)"></path>
                        <polygon id="Fill-39" fill="url(#linearGradient-9)" points="26.7757098 81.4294233 25.333797 81.4294233 30.3106967 58.346847 33.3224796 58.346847"></polygon>
                        <polygon id="Fill-40" fill="url(#linearGradient-10)" points="56.6427946 81.4294233 58.0849659 81.4294233 53.1078078 58.346847 50.0960248 58.346847"></polygon>
                        <polygon id="Fill-41" fill="url(#linearGradient-11)" points="34.536809 79.2893625 36.6857192 79.2893625 36.6857192 77.8365189 34.536809 77.8365189"></polygon>
                        <path d="M35.2779284,24.5587685 C34.3543081,24.8618537 33.8693621,28.1052792 32.8935248,32.9259373 C32.5618694,34.564718 31.625841,37.6770307 31.625841,37.6770307 C31.2722131,40.5876314 31.4454081,42.7221581 32.8935248,42.9479204 C37.3547171,43.6433095 40.618796,22.8064602 35.2779284,24.5587685" id="Fill-42" fill="#EC9458"></path>
                        <path d="M32.8936282,42.9479979 C28.6961059,42.4375114 24.9183876,36.958186 21.6106221,36.7404405 L22.291511,35.2625122 C24.3385722,35.0525249 29.9524157,37.2297214 31.6264614,37.6768497 C34.205774,38.5571415 33.7081616,43.0470437 32.8936282,42.9479979" id="Fill-43" fill="#EC9458"></path>
                        <path d="M18.6713226,36.7899634 C18.6713226,36.7899634 18.6752001,37.6485324 18.7545595,37.8585198 C18.849946,38.1101426 19.7138529,39.2555047 19.9713188,39.162924 C20.3417493,39.0294838 19.8229399,38.3917635 19.8229399,38.3917635 L21.3535181,36.600923 L18.6713226,36.7899634 Z" id="Fill-44" fill="#D77239"></path>
                        <path d="M23.0885439,35.2590469 C22.0372246,35.2086189 20.9799598,35.3927458 20.1739569,35.5603219 C19.4726466,35.7061752 18.9556467,35.8248749 18.8680152,35.9624528 C18.6886162,36.2456255 18.6712967,36.7899892 18.6712967,36.7899892 C18.6712967,36.7899892 18.2579553,37.0850577 17.8572803,37.3278879 C17.3793139,37.6177843 16.779077,37.9025085 16.914531,38.0853423 C17.170446,38.4298043 18.6133927,37.5006361 19.2924721,37.240738 C20.1380255,36.9174816 20.4792454,36.8212805 20.6183184,36.9441179 C20.7863433,37.0922986 20.4192734,37.6384727 20.2331534,37.8236339 C20.0470335,38.0087952 19.5512306,38.3972201 19.810506,38.6206549 C20.069523,38.8440898 20.6059104,38.2588664 20.9665178,37.9666426 C21.3273837,37.6744188 22.778861,37.1460885 22.9724775,36.4956966 C23.0205585,36.3338098 23.5367829,35.2802525 23.0885439,35.2590469" id="Fill-45" fill="#EC9458"></path>
                        <polygon id="Fill-46" fill="#2A2E3D" points="35.4988166 45.8083258 52.2012743 45.9554721 36.4320015 49.8539444"></polygon>
                        <path d="M34.3875512,46.2497647 C39.7033442,44.5450398 42.8947847,46.2673499 42.9376957,53.6603532 L21.7458693,53.3883006 C21.7458693,53.3883006 21.0432664,50.3383118 23.5514915,48.9224487 C24.8432158,48.1936995 30.5782958,46.8649863 34.3875512,46.2497647" id="Fill-47" fill="#09054B"></path>
                        <path d="M36.432079,49.8538151 C36.432079,49.8538151 34.2606794,50.6658352 30.9629954,51.1812352 C27.6653115,51.6966352 26.6465632,51.739305 26.4428652,52.3108224 C26.2396843,52.8823397 27.560102,60.7721235 27.6482505,63.2461987 C27.723991,65.3817598 26.1740253,74.9017903 25.8599478,77.9693643 L26.9306546,77.9693643 C26.9306546,77.9693643 29.8271466,67.6217974 29.4804982,62.4302995 C29.1966652,58.1814173 28.6140063,55.2361636 28.6140063,55.2361636 L34.8306718,55.2361636 C36.1738376,54.9002355 36.432079,49.8538151 36.432079,49.8538151" id="Fill-48" fill="#09054B"></path>
                        <path d="M51.7784976,46.0765252 C51.6955191,48.1714853 51.6221051,52.1185753 49.555398,53.2590239 C48.8605501,53.6427939 48.0550642,53.7635625 47.2671564,53.8576948 C42.2313187,54.4605033 37.1378356,54.2448267 32.070978,54.027857 C30.6585342,53.967602 30.7415127,52.988523 30.7306557,51.7971292 C30.7210912,50.7386584 30.8570622,49.4738207 31.6886565,48.7176593 C33.5472712,47.0276748 45.6737626,46.2184994 51.7784976,46.0765252" id="Fill-49" fill="#09054B"></path>
                        <path d="M21.7458176,53.3884299 C24.1144527,67.0751062 24.6198201,77.9693643 24.6198201,77.9693643 L26.9638977,77.9693643 C26.9638977,77.9693643 29.2754043,66.3717003 28.8561174,62.4302995 C28.4368305,58.4891574 27.9335311,51.7711135 27.9335311,51.7711135 L21.7458176,53.3884299 Z" id="Fill-50" fill="#09054B"></path>
                        <path d="M30.9432461,53.7240735 C33.6699036,71.2693969 33.5657281,71.2872406 34.3021945,77.9693385 L36.964227,77.9693385 C36.964227,77.9693385 38.9327042,65.6607689 38.6700682,61.7196268 C38.4069153,57.7784847 36.5069406,51.7710876 36.5069406,51.7710876 L30.9432461,53.7240735 Z" id="Fill-51" fill="#09054B"></path>
                        <path d="M34.3875512,46.2497647 C34.3875512,46.2497647 36.1564664,46.1809758 36.6889763,47.1313496 L41.4143555,46.5683663 C41.4143555,46.5683663 36.3893748,45.3120626 34.3875512,46.2497647" id="Fill-52" fill="#23233A"></path>
                        <path d="M46.4620841,5.77907115 C44.060361,5.32004705 42.9645797,6.72841056 42.4188863,8.66044946 C43.6470196,10.5317161 43.5133751,13.4027502 43.5133751,13.4027502 L44.052606,13.3132729 C44.1609175,12.7978729 44.5670209,12.3724674 45.1155578,12.2801454 C45.8243647,12.1606698 46.4881926,12.6380549 46.5977966,13.3468915 C46.7076591,14.0554696 46.2221961,14.7268085 45.5136478,14.8462841 C45.0504158,14.9241242 44.6225984,14.7309462 44.340058,14.4012246 C44.3439355,14.5243207 44.3485885,14.6256939 44.352466,14.752669 C44.2979225,15.8222598 44.229937,16.5135113 44.0776805,17.063823 C46.9131665,16.6991898 49.5961376,9.28032594 46.4620841,5.77907115" id="Fill-53" fill="#EC9458"></path>
                        <path d="M46.4620841,5.77907115 C44.060361,5.32004705 42.9645797,6.72841056 42.4188863,8.66044946 C43.6470196,10.5317161 43.5133751,13.4027502 43.5133751,13.4027502 L44.052606,13.3132729 C44.1609175,12.7978729 44.5670209,12.3724674 45.1155578,12.2801454 C45.8243647,12.1606698 46.4881926,12.6380549 46.5977966,13.3468915 C46.7076591,14.0554696 46.2221961,14.7268085 45.5136478,14.8462841 C45.0504158,14.9241242 44.6225984,14.7309462 44.340058,14.4012246 C44.3439355,14.5243207 44.3485885,14.6256939 44.352466,14.752669 C44.2979225,15.8222598 44.229937,16.5135113 44.0776805,17.063823 C46.9131665,16.6991898 54.119064,8.35141633 46.4620841,5.77907115 C48.3385248,5.82995319 48.807635,4.95420475 47.8694146,3.15182585 C46.4620841,0.448257488 41.8681774,1.16479294 41.4143555,2.15830939 C40.9605335,3.15182585 40.9747597,-1.14743596 37.6380112,0.505436714 C34.3012628,2.15830939 32.3440067,4.6482243 33.3226347,5.69176981 C34.3012628,6.73531532 29.9046449,5.32503625 31.1460134,8.35141633 C32.3873819,11.3777964 31.8222234,11.3388922 33.66052,10.3735621 C35.4988166,9.40823204 37.3027063,7.43866766 39.1316199,9.40823204 C40.9605335,11.3777964 42.2876459,12.3957079 42.4188863,10.3735621" id="Fill-54" fill="#09054B"></path>
                        <path d="M32.3873819,12.6225127 C31.4278301,9.22237253 33.0737768,4.08569892 35.9883638,3.12704972 C36.8357267,2.8482734 37.7549525,2.87465112 38.6167914,2.64500977 C39.3038843,2.46191734 39.9625422,2.11538647 40.6736755,2.11305903 C41.084432,2.1115074 41.4861409,2.22632807 41.8775098,2.35097574 C43.2958991,2.80353471 48.9832513,5.11721157 48.6528883,7.11984966 C48.3225254,9.12248775 45.1914229,9.31650076 44.0348941,9.954221 C40.9719282,11.6426539 36.1036548,12.6225127 36.1036548,12.6225127 C36.1036548,12.6225127 33.3469337,16.0226529 32.3873819,12.6225127 Z" id="Fill-55" fill="#09054B"></path>
                        <path d="M34.846492,24.6804939 C32.7278263,26.1654045 31.5780185,35.290545 31.5780185,35.290545 L35.5485779,36.077739 L36.0588568,33.7908939 C36.0588568,33.7908939 36.3470842,30.8040047 36.0684213,28.4744897 C35.7894998,26.1447161 34.846492,24.6804939 34.846492,24.6804939" id="Fill-56" fill="#1AC3C7"></path>
                        <path d="M51.462197,51.429703 C53.7160581,49.0701898 53.5650942,29.0104488 51.0392911,23.0677031 C51.0392911,23.0677031 47.9504751,21.5323644 41.6883137,22.2799918 C37.0637495,22.8323724 34.8481464,24.6707962 34.8481464,24.6707962 C33.8105276,26.9837605 35.0583068,32.9089211 35.9777912,39.1032897 C36.9003775,45.3191225 34.3874995,46.2498423 34.3874995,46.2498423 C34.3874995,46.2498423 37.8141749,45.7807326 42.8768965,47.2436618 C47.7330767,48.6471118 51.462197,51.429703 51.462197,51.429703" id="Fill-57" fill="#7ED321"></path>
                        <path d="M47.8383896,22.2651479 C46.3248723,22.060074 44.2987497,21.9685278 41.6884171,22.280147 C39.8153264,22.5038404 38.3573867,22.9380384 37.2618639,23.3758569 C37.7439663,24.278906 39.2233615,26.4351556 42.284518,26.196463 C45.4004765,25.9536328 47.2435812,23.2840521 47.8383896,22.2651479" id="Fill-58" fill="#FFFFFF"></path>
                        <path d="M51.0393428,23.0677289 C51.0393428,23.0677289 50.0950425,22.6208593 48.2591758,22.3270838 C48.1526738,24.445577 47.4027654,33.9746587 42.4550763,35.9886754 C38.7613704,37.4922056 36.2588323,35.5544774 35.262315,34.5275564 C35.493931,36.0003126 35.7462269,37.5431508 35.9775844,39.1033155 C36.9004292,45.3191483 34.3875512,46.2498682 34.3875512,46.2498682 C34.3875512,46.2498682 37.8142266,45.7807585 42.8769482,47.2436877 C47.7331284,48.6471377 51.4622487,51.4297288 51.4622487,51.4297288 C53.7158513,49.0702157 53.5651459,29.0102161 51.0393428,23.0677289" id="Fill-59" fill="#7ED321"></path>
                        <path d="M45.0153374,12.7414711 C45.0153374,12.7414711 44.167199,19.0873823 45.6871788,22.2788281 C43.8272716,23.1673953 40.1720822,24.4790405 39.3774534,22.7515583 C39.3774534,22.7515583 39.5889063,21.7011043 39.1316199,18.9324778 L45.0153374,12.7414711 Z" id="Fill-60" fill="url(#linearGradient-12)"></path>
                        <path d="M37.9414344,23.1177431 C37.9414344,23.1177431 39.0798682,25.8592161 42.3286957,25.6057831 C45.5772646,25.3526086 47.1853928,22.1792651 47.1853928,22.1792651 C47.1853928,22.1792651 42.3299881,21.4313791 37.9414344,23.1177431" id="Fill-61" fill="url(#linearGradient-13)"></path>
                        <path d="M46.5979,13.346814 C46.487779,12.6382359 45.8244681,12.1605922 45.1156612,12.2800678 C44.7705638,12.338254 44.4792343,12.5278115 44.2830329,12.7884855 C44.0780424,8.33090894 43.4700505,6.74126324 39.0939048,6.95331944 C36.9245731,7.05857173 35.2665544,8.09712991 35.3084314,9.53807767 C35.3508254,10.9999724 35.6667123,12.1241289 35.7920848,13.397242 C35.8574853,14.0592711 35.7993228,14.698543 35.9161648,15.6292628 C36.0037963,16.3262036 36.4489332,17.5677668 37.2420111,18.7508853 C37.943063,19.7974602 37.9947629,20.2753625 38.4890149,20.5267267 C38.9832668,20.7780908 40.787855,20.6518915 41.3508679,20.1672655 C43.9790369,17.9044707 44.1889389,17.9665359 44.3523109,14.75285 C44.3492089,14.6452703 44.3458484,14.5423455 44.3427464,14.4376104 C44.6260623,14.7538844 45.0603422,14.9227536 45.5137512,14.8462065 C46.2222995,14.7267309 46.7077625,14.055392 46.5979,13.346814" id="Fill-62" fill="url(#linearGradient-14)"></path>
                        <path d="M50.8194886,24.5587685 C49.8961268,24.8618537 49.4109223,28.1052792 48.435085,32.9259373 C48.1036881,34.564718 47.1674012,37.6770307 47.1674012,37.6770307 C46.8140318,40.5876314 46.9872268,42.7221581 48.435085,42.9479204 C52.8962772,43.6433095 56.1606147,22.8064602 50.8194886,24.5587685" id="Fill-63" fill="url(#linearGradient-15)"></path>
                        <path d="M48.4351626,42.9479979 C44.2378988,42.4375114 42.4550246,39.5341517 37.5823004,37.9724353 L37.174129,36.5663993 C39.712857,36.5795881 45.577187,37.7332256 47.1682543,37.6768497 C49.7473083,38.5571415 49.2499544,43.0470437 48.4351626,42.9479979" id="Fill-64" fill="url(#linearGradient-16)"></path>
                        <path d="M37.1742582,36.5664768 C35.7892155,36.5796657 34.4793962,37.0089502 33.9388728,37.1741989 C33.3986079,37.339189 32.9573485,37.7503711 32.547109,38.0974192 C32.1371281,38.4442087 31.6542502,39.0558098 31.8514856,39.2244203 C32.0482041,39.3935481 32.6388765,38.7180715 32.948301,38.4648971 C33.2577254,38.211464 33.7912693,37.9138095 33.8478808,37.9419975 C33.9039753,37.9701855 33.3753429,38.371282 33.0413609,38.6898835 C32.808194,38.9122839 32.1939981,39.865761 32.3801181,40.017045 C32.589503,40.1872072 33.0977139,39.4349249 33.3799959,39.1137373 C33.6268633,38.8328922 34.1981482,38.3374047 34.2775077,38.4010216 C34.3571257,38.4643799 33.7876503,39.0237427 33.6449583,39.2303682 C33.5020079,39.4369937 33.1791414,40.0206655 33.3559554,40.2122919 C33.5325109,40.4036597 33.9952258,39.6562909 34.1857402,39.4496654 C34.3765132,39.2432985 34.7885621,38.6580751 34.8839486,38.67385 C34.9790766,38.6898835 34.5659937,39.2619181 34.4708657,39.500352 C34.3754792,39.7387859 34.3485952,40.2991832 34.5233412,40.3149581 C34.6980872,40.330733 34.8234596,39.8197293 34.9664101,39.5973289 C35.1093606,39.3749285 35.514947,38.9340068 35.514947,38.9340068 C35.514947,38.9340068 36.5484298,38.7741888 37.5821712,37.9725129 C37.7165911,37.4977139 37.5426207,37.0296386 37.1742582,36.5664768" id="Fill-65" fill="#FEB377"></path>
                        <path d="M51.0393428,23.0677289 C54.8586797,24.4523008 54.3525367,31.4302429 53.5651459,36.9452558 L46.814678,34.4693703 C46.814678,34.4693703 49.4901526,22.5062972 51.0393428,23.0677289" id="Fill-66" fill="#7ED321"></path>
                        <path d="M36.96751,78.7996678 L34.1829484,78.7996678 L33.9042855,79.3993731 C33.6669825,79.9106354 33.2469201,80.3047496 32.7343147,80.4976691 C32.4339377,80.6106795 32.1663903,80.7927375 31.9453728,81.0247063 L37.4537484,81.0247063 L36.96751,78.7996678 Z" id="Fill-67" fill="#AFC3D6"></path>
                        <path d="M31.8641521,81.1147526 C31.8600161,81.1194075 31.8566556,81.1235452 31.8527781,81.1282001 C31.7000047,81.3092237 31.8323566,81.5942065 32.0634556,81.5942065 L37.2352642,81.5942065 C37.4107857,81.5942065 37.5410697,81.4245616 37.5020362,81.2463826 C37.4736012,81.1168215 37.3629632,81.024758 37.2352642,81.024758 L32.0639726,81.024758 C31.9882321,81.024758 31.9143011,81.0557906 31.8641521,81.1147526" id="Fill-68" fill="url(#linearGradient-17)"></path>
                        <polygon id="Fill-69" fill="url(#linearGradient-11)" points="24.7202732 79.2893625 26.8691833 79.2893625 26.8691833 77.8365189 24.7202732 77.8365189"></polygon>
                        <path d="M27.150819,78.7996678 L24.3662575,78.7996678 L24.0875946,79.3993731 C23.8502916,79.9106354 23.4302292,80.3047496 22.9176238,80.4976691 C22.6172468,80.6106795 22.3496994,80.7927375 22.1286819,81.0247063 L27.6370575,81.0247063 L27.150819,78.7996678 Z" id="Fill-70" fill="#AFC3D6"></path>
                        <path d="M22.0474612,81.1147526 C22.0435837,81.1194075 22.0399647,81.1235452 22.0360872,81.1282001 C21.8833138,81.3092237 22.0156657,81.5942065 22.2467647,81.5942065 L27.4185733,81.5942065 C27.5940948,81.5942065 27.7243788,81.4245616 27.6853453,81.2463826 C27.6569103,81.1168215 27.5462723,81.024758 27.4185733,81.024758 L22.2472817,81.024758 C22.1715412,81.024758 22.0976102,81.0557906 22.0474612,81.1147526" id="Fill-71" fill="url(#linearGradient-17)"></path>
                        <path d="M35.5038832,8.47234009 C35.5038832,8.47234009 38.5400427,5.15915304 37.9009533,7.5798524 C37.5196387,9.02416968 40.070092,10.6360027 39.449447,9.65209483 C37.2432274,6.15457717 43.7185387,8.12333521 43.7185387,8.12333521 C43.7185387,8.12333521 43.4196689,4.6134344 37.8246958,4.83919668 C36.793281,4.8805735 34.1558059,7.04949469 34.3075454,8.53104345 L35.5038832,8.47234009 Z" id="Fill-72" fill="#09054B"></path>
                        <path d="M34.4675827,7.69740397 L35.3596661,7.6536997 C35.3596661,7.6536997 36.082432,6.48273569 38.3704151,6.70280866 C40.4650402,6.90452065 40.6012697,8.35141633 40.6012697,8.35141633 C40.6012697,8.35141633 41.2627711,4.77594186 37.0905818,4.9442938 C36.3215444,4.97532642 34.3546183,6.59290148 34.4675827,7.69740397" id="Fill-73" fill="#09054B" transform="translate(37.551263, 6.644973) scale(1, -1) rotate(-111.000000) translate(-37.551263, -6.644973) "></path>
                        <path d="M43.5845143,5.85786813 L42.3881765,5.79916477 C42.3881765,5.79916477 41.4193187,4.22891444 38.3511827,4.5242415 C35.5423222,4.79448385 35.3595627,6.73531532 35.3595627,6.73531532 C35.3595627,6.73531532 34.4721323,1.94051769 40.0673639,2.16602136 C41.0987787,2.20765678 43.7362538,4.37657797 43.5845143,5.85786813" id="Fill-74" fill="#B95606"></path>
                        <path d="M43.5845143,5.85786813 L42.3881765,5.79916477 C42.3881765,5.79916477 41.4193187,4.22891444 38.3511827,4.5242415 C35.5423222,4.79448385 35.3595627,6.73531532 35.3595627,6.73531532 C35.3595627,6.73531532 34.4721323,1.94051769 40.0673639,2.16602136 C41.0987787,2.20765678 43.7362538,4.37657797 43.5845143,5.85786813" id="Fill-75" fill="#09054B"></path>
                        <polygon id="Fill-76" fill="url(#linearGradient-18)" points="40.9126587 81.4294233 42.35483 81.4294233 43.2151178 58.346847 40.2033349 58.346847"></polygon>
                        <path d="M30.4032913,23.4006054 L30.4032913,28.919756 C30.4032913,28.9378584 30.4051008,28.9551849 30.4061348,28.9732873 L36.2417713,28.9732873 L36.2417713,23.4006054 L30.4032913,23.4006054 Z" id="Fill-85" fill="#FBC594"></path>
                        <path d="M33.66052,24.2046863 C33.66052,24.3913992 33.5090391,24.5429418 33.3224021,24.5429418 C33.1357651,24.5429418 32.9845427,24.3913992 32.9845427,24.2046863 C32.9845427,24.018232 33.1357651,23.8666894 33.3224021,23.8666894 C33.5090391,23.8666894 33.66052,24.018232 33.66052,24.2046863" id="Fill-86" fill="#000000"></path>
                        <polygon id="Fill-87" fill="#FFFFFF" points="31.4518706 26.288242 35.1926234 26.288242 35.1926234 25.9580032 31.4518706 25.9580032"></polygon>
                        <polygon id="Fill-88" fill="#FFFFFF" points="31.4518706 25.4687223 35.1926234 25.4687223 35.1926234 25.138225 31.4518706 25.138225"></polygon>
                        <polygon id="Fill-89" fill="#FFFFFF" points="31.4518706 27.116037 35.1926234 27.116037 35.1926234 26.7855396 31.4518706 26.7855396"></polygon>
                        <polygon id="Fill-90" fill="#FFFFFF" points="31.4521291 27.943832 33.3226347 27.943832 33.3226347 27.6133346 31.4521291 27.6133346"></polygon>
                        <polygon id="Fill-100" fill="url(#linearGradient-19)" points="68.1781988 43.9612128 1.26458178 43.9612128 0 41.0666457 69.4427806 41.0666457"></polygon>
                        <polygon id="Fill-101" fill="url(#linearGradient-20)" points="6.20324929 81.4294233 4.69309255 81.4294233 8.73965085 43.9611611 11.8936088 43.9611611"></polygon>
                        <polygon id="Fill-102" fill="url(#linearGradient-21)" points="64.1765161 81.4294233 65.6866728 81.4294233 61.6401145 43.9611611 58.486415 43.9611611"></polygon>
                        <path d="M7.8900649,40.1515973 L7.8900649,21.0970544 C7.8900649,20.19685 8.62653127,19.4598254 9.52662812,19.4598254 L35.9791871,19.4598254 C36.8795424,19.4598254 37.6157503,20.19685 37.6157503,21.0970544 L37.6157503,40.1515973 L7.8900649,40.1515973 Z" id="Fill-103" fill="url(#linearGradient-22)"></path>
                        <path d="M41.8873328,39.5222558 L41.8873328,39.8274099 C41.8873328,40.5481424 41.2982114,41.1372449 40.5780305,41.1372449 L4.95234215,41.1372449 C4.23216128,41.1372449 3.64278138,40.5481424 3.64278138,39.8274099 L3.64278138,39.5222558 L41.8873328,39.5222558 Z" id="Fill-104" fill="#DBE3FF"></path>
                        <path d="M24.5693609,29.8058665 C24.5693609,30.8025306 23.7615486,31.6106717 22.7652898,31.6106717 C21.7685139,31.6106717 20.9607016,30.8025306 20.9607016,29.8058665 C20.9607016,28.8089437 21.7685139,28.0008027 22.7652898,28.0008027 C23.7615486,28.0008027 24.5693609,28.8089437 24.5693609,29.8058665" id="Fill-105" fill="#FFFFFF"></path>
                    </g>
                </g>
            </g>
        </g>
    </g>
</svg>