<?xml version="1.0" encoding="utf-8"?>
<!-- Generator: Adobe Illustrator 24.0.0, SVG Export Plug-In . SVG Version: 6.00 Build 0)  -->
<svg version="1.1" id="afternoon_svg" xmlns="http://www.w3.org/2000/svg" xmlns:xlink="http://www.w3.org/1999/xlink" x="0px" y="0px"
	 viewBox="0 0 37 21" style="enable-background:new 0 0 37 21;" xml:space="preserve">
<style type="text/css">
	.st0{fill:url(#Combined-Shape_1_);}
</style>
<title>Combined Shape</title>
<desc>Created with Sketch.</desc>
<g id="Page-1">

		<linearGradient id="Combined-Shape_1_" gradientUnits="userSpaceOnUse" x1="-278.5278" y1="388.6667" x2="-278.5278" y2="387.6667" gradientTransform="matrix(36 0 0 -21 10045.7305 8162)">
		<stop  offset="0" style="stop-color:#FFB900"/>
		<stop  offset="1" style="stop-color:#FF8300"/>
	</linearGradient>
	<path id="Combined-Shape" class="st0" d="M18.7,6.4c7.5,0,13.1,7.2,11.3,14.6c0,0-21.5,0-22.6,0l0,0C5.6,13.6,11.2,6.4,18.7,6.4z
		 M3.9,17.1c0.6,0,1.1,0.5,1.1,1.1c0,0.6-0.4,1-0.9,1.1l-0.1,0H1.8c-0.6,0-1.1-0.5-1.1-1.1c0-0.6,0.4-1,0.9-1.1l0.1,0H3.9z
		 M35.7,17.1c0.6,0,1.1,0.5,1.1,1.1c0,0.6-0.4,1-0.9,1.1l-0.1,0h-2.1c-0.6,0-1.1-0.5-1.1-1.1c0-0.6,0.4-1,0.9-1.1l0.1,0H35.7z
		 M14.8,11.3h-3.3V19h1.6v-2.9h1.7c0.9,0,1.5-0.2,1.9-0.7s0.7-1,0.7-1.7c0-0.7-0.2-1.3-0.6-1.7c-0.4-0.4-1-0.6-1.7-0.7L14.8,11.3z
		 M20,11.3h-1.4V19h1.5v-5.2l2.2,2.8h0l2.2-2.8V19H26v-7.7h-1.4l-2.2,3L20,11.3z M14.8,12.8c0.3,0,0.6,0.1,0.8,0.3s0.3,0.4,0.3,0.7
		s-0.1,0.5-0.3,0.7c-0.2,0.2-0.4,0.2-0.8,0.2h-1.7v-1.9H14.8z M4.5,8.6l0.1,0.1l1.8,1.1c0.5,0.3,0.7,0.9,0.4,1.5
		c-0.3,0.5-0.9,0.7-1.3,0.4l-0.1-0.1l-1.8-1.1C3,10.2,2.8,9.6,3.1,9.1C3.4,8.6,4,8.4,4.5,8.6z M34.3,9.1c0.3,0.5,0.1,1.1-0.3,1.4
		l-0.1,0.1l-1.8,1.1c-0.5,0.3-1.2,0.1-1.4-0.4c-0.3-0.5-0.1-1.1,0.3-1.4L31,9.7l1.8-1.1C33.4,8.4,34,8.6,34.3,9.1z M11.1,2.7
		l0.1,0.1l1.1,1.8c0.3,0.5,0.1,1.2-0.4,1.5c-0.5,0.3-1.1,0.1-1.4-0.3l-0.1-0.1L9.3,3.9C9.1,3.4,9.2,2.7,9.7,2.4
		C10.2,2.2,10.8,2.3,11.1,2.7z M27.7,2.4c0.5,0.3,0.7,0.9,0.4,1.3l-0.1,0.1l-1.1,1.8c-0.3,0.5-0.9,0.7-1.4,0.4
		c-0.5-0.3-0.7-0.9-0.4-1.3l0.1-0.1l1.1-1.8C26.6,2.3,27.2,2.1,27.7,2.4z M18.7,0c0.5,0,1,0.4,1.1,1l0,0.1v2.1
		c0,0.6-0.5,1.1-1.1,1.1c-0.5,0-1-0.4-1.1-1l0-0.1V1.1C17.7,0.5,18.1,0,18.7,0z"/>
</g>
</svg>
