<?xml version="1.0" encoding="utf-8"?>
<!-- Generator: Adobe Illustrator 24.0.0, SVG Export Plug-In . SVG Version: 6.00 Build 0)  -->
<svg version="1.1" id="morning_svg" xmlns="http://www.w3.org/2000/svg" xmlns:xlink="http://www.w3.org/1999/xlink" x="0px" y="0px"
	 viewBox="0 0 32 21" style="enable-background:new 0 0 32 21;" xml:space="preserve">
<style type="text/css">
	.st0{fill:url(#Morning_1_);}
</style>
<title>Morning</title>
<desc>Created with Sketch.</desc>
<g id="Page-1">

		<linearGradient id="Morning_1_" gradientUnits="userSpaceOnUse" x1="-279.314" y1="388.6667" x2="-279.314" y2="387.6667" gradientTransform="matrix(31.461 0 0 -21 8803.2148 8162)">
		<stop  offset="0" style="stop-color:#FFDC00"/>
		<stop  offset="1" style="stop-color:#FFB600"/>
	</linearGradient>
	<path id="Morning" class="st0" d="M15.7,6.4c7.5,0,13.1,7.2,11.3,14.6c0,0-21.5,0-22.6,0l0,0C2.6,13.6,8.2,6.4,15.7,6.4z
		 M12.3,11.3h-1.7L7.7,19h1.7l0.5-1.3H13l0.5,1.3h1.7L12.3,11.3z M17.5,11.3H16V19h1.5v-5.2l2.2,2.8h0l2.2-2.8V19h1.5v-7.7H22
		l-2.2,3L17.5,11.3z M11.4,13.3l1.1,3h-2.1L11.4,13.3L11.4,13.3z M1.5,8.6l0.1,0.1l1.8,1.1c0.5,0.3,0.7,0.9,0.4,1.5
		c-0.3,0.5-0.9,0.7-1.3,0.4l-0.1-0.1l-1.8-1.1C0,10.2-0.2,9.6,0.1,9.1C0.4,8.6,1,8.4,1.5,8.6z M31.3,9.1c0.3,0.5,0.1,1.1-0.3,1.4
		l-0.1,0.1l-1.8,1.1c-0.5,0.3-1.2,0.1-1.4-0.4c-0.3-0.5-0.1-1.1,0.3-1.4L28,9.7l1.8-1.1C30.4,8.4,31,8.6,31.3,9.1z M8.1,2.7l0.1,0.1
		l1.1,1.8c0.3,0.5,0.1,1.2-0.4,1.5C8.4,6.4,7.8,6.3,7.5,5.8L7.4,5.7L6.3,3.9C6.1,3.4,6.2,2.7,6.7,2.4C7.2,2.2,7.8,2.3,8.1,2.7z
		 M24.7,2.4c0.5,0.3,0.7,0.9,0.4,1.3l-0.1,0.1l-1.1,1.8c-0.3,0.5-0.9,0.7-1.4,0.4c-0.5-0.3-0.7-0.9-0.4-1.3l0.1-0.1l1.1-1.8
		C23.6,2.3,24.2,2.1,24.7,2.4z M15.7,0c0.5,0,1,0.4,1.1,1l0,0.1v2.1c0,0.6-0.5,1.1-1.1,1.1c-0.5,0-1-0.4-1.1-1l0-0.1V1.1
		C14.7,0.5,15.1,0,15.7,0z"/>
</g>
</svg>
