<svg width="215" height="193" viewBox="0 0 215 193" fill="none" xmlns="http://www.w3.org/2000/svg">
<path d="M215 107.5C215 166.871 166.871 184.5 107.5 184.5C16.6211 184.5 0 166.871 0 107.5C0 48.1294 48.1294 0 107.5 0C166.871 0 215 48.1294 215 107.5Z" fill="url(#paint0_linear_136_4259)"/>
<path d="M120.217 82L161.217 63V145L120.217 173V82Z" fill="#424271"/>
<path d="M120.217 82L161.217 63L176.217 91.5L134.717 117L120.217 82Z" fill="#53538A"/>
<path d="M120.217 82L46.2168 68.5V150.5L120.217 173V82Z" fill="#53538A"/>
<path d="M120.217 82L46.2168 68.5L42.2168 97.5L116.217 120L120.217 82Z" fill="#6D6D9E"/>
<path d="M120.217 82L46.2168 68.5L94.2168 50L161.217 63L120.217 82Z" fill="#424271"/>
<path d="M41.2168 192.5L42.2168 182L50.2168 181C49.3835 182.667 48.2168 186 50.2168 186C52.2168 186 58.0501 188.333 60.7168 189.5L41.2168 192.5Z" fill="#6C27FF"/>
<path d="M69.2169 163.132L77.3486 156.414L83.7126 161.364C81.9448 161.953 78.7628 163.485 80.1771 164.899C81.5913 166.314 84.0661 172.088 85.1268 174.799L69.2169 163.132Z" fill="#6C27FF"/>
<path d="M89.2168 53.0001C64.4168 48.2001 48.5501 63.3334 43.7168 71.5001L120.217 82L133.217 76C129.383 70 114.017 57.8001 89.2168 53.0001Z" fill="white"/>
<path d="M40.7165 125.5V183.5C43.8833 184 50.4168 184.7 51.2168 183.5C52.0168 182.3 61.8835 126.667 66.7168 99C72.3835 112.5 81.2168 139 81.2168 143C81.2168 147 79.0501 154.167 76.7168 156.5L83.7168 164C92.2168 160 96.7168 146.5 96.7168 141C96.7168 136.6 97.7168 103.833 98.2168 87.9999C99.55 79.1665 94.6165 61.5999 64.2165 61.9999C26.2165 62.4999 40.7165 113 40.7165 125.5Z" fill="#FFC727"/>
<defs>
<linearGradient id="paint0_linear_136_4259" x1="107.5" y1="-2.22027e-06" x2="104.5" y2="149" gradientUnits="userSpaceOnUse">
<stop stop-color="#FFEEF2"/>
<stop offset="1" stop-color="#FFEEF2" stop-opacity="0"/>
</linearGradient>
</defs>
</svg>
