<svg width="257" height="191" viewBox="0 0 257 191" fill="none" xmlns="http://www.w3.org/2000/svg">
<path d="M226.379 107.5C226.379 166.871 178.25 184.5 118.879 184.5C28 184.5 11.3789 166.871 11.3789 107.5C11.3789 48.1294 59.5083 0 118.879 0C178.25 0 226.379 48.1294 226.379 107.5Z" fill="url(#paint0_linear_71_2661)"/>
<path d="M242 185.397C242 188.977 196.534 191 126.663 191C56.791 191 0 190.533 0 185.709C0 179.942 49.3403 181.19 119.212 181.19C189.083 181.19 242 179.639 242 185.397Z" fill="#BA8F99" fill-opacity="0.14"/>
<path d="M122.375 108.427C122.375 108.427 129.533 100.252 133.143 96.3634C135.103 94.2525 138.683 88.4948 139.886 85.8466C147.734 74.3368 155.368 72.6072 163.695 74.2678C172.022 75.9283 191.25 87.4541 191.25 87.4541L175.321 117.228C175.321 117.228 143.051 137.004 142.51 136.877C141.969 136.749 122.375 108.427 122.375 108.427V108.427Z" fill="black"/>
<path d="M151.069 39.7739L163.2 47.4614L165.126 58.7279C165.126 58.7279 151.582 53.5139 146.582 52.1254C141.583 50.737 151.069 39.7739 151.069 39.7739V39.7739Z" fill="#EA9973"/>
<path d="M131.471 137.001L97.66 187.222L94.534 187.222L125.515 133.562L131.471 137.001Z" fill="black"/>
<path d="M195.207 84.7828C194.032 91.6553 191.687 100.249 187.361 109.395C177.642 129.945 155.98 152.718 130.152 149.941C104.323 147.165 89.0479 124.392 89.0479 124.392L123.763 114.948L149.591 84.4002C149.591 84.4002 188.539 69.9747 194.854 69.308C195.327 69.2589 195.617 69.2861 195.693 69.401C196.311 70.3275 196.672 76.2134 195.207 84.7828Z" fill="#424271"/>
<path d="M140.615 137.001L174.426 187.222L177.552 187.222L146.571 133.562L140.615 137.001Z" fill="black"/>
<path d="M195.207 84.7828C184.872 89.4254 178.729 103.758 178.729 103.758L173.827 106.619C168.925 109.477 169.539 105.597 163.82 102.534L194.854 69.308C195.327 69.2589 195.617 69.2861 195.693 69.401C196.311 70.3275 196.671 76.2134 195.207 84.7828V84.7828Z" fill="black"/>
<path d="M19.4825 124.593C19.4825 124.593 40.0141 126.737 41.4613 124.104C42.5062 122.203 41.9519 116.815 41.9519 116.815L28.4962 112.671L19.4825 124.593V124.593Z" fill="#6C27FF"/>
<path d="M39.3356 119.67C35.5031 121.789 33.7923 122.486 31.0789 123.524C26.3188 125.346 21.9168 125.099 17.6731 124.391C11.0077 123.28 9.34136 117.448 12.9517 113.004C14.9181 110.582 21.8277 109.647 27.8934 109.297C32.9619 109.002 37.4414 109.116 37.9469 109.116C39.0578 109.116 41.7685 107.333 41.7685 107.333C41.7685 107.333 49.889 113.837 39.3356 119.67Z" fill="#FFC3A8"/>
<path d="M29.9525 123.883C25.1922 125.705 21.9168 125.1 17.6731 124.391C11.0077 123.28 9.34136 117.448 12.9517 113.005C14.9181 110.583 21.8277 109.647 27.8934 109.297C30.8545 109.735 33.4659 119.562 29.9525 123.883ZM15.926 183.434C15.926 183.434 15.3796 184.111 15.3796 184.801C15.3796 185.422 16.0068 186.467 26.2826 187.022C36.5584 187.578 52.0329 187.29 52.3887 184.801C52.6664 182.857 49.3336 182.713 49.3336 182.713L15.926 183.434Z" fill="#6C27FF"/>
<path d="M137.242 122.872C137.242 122.872 100.86 126.205 98.3607 125.927C95.8612 125.65 83.3635 126.483 83.3635 126.483C83.3635 126.483 60.9608 172.658 58.839 176.696C58.8271 176.719 58.7495 176.849 58.6463 177.021C58.409 177.417 52.2168 175.795 46.9096 173.396C42.4078 171.357 38.3447 169.318 38.3447 169.318C47.7511 153.549 61.8678 118.426 61.9762 118.154C61.6817 118.329 43.1482 129.689 39.3445 128.843C35.9938 128.099 36.5733 119.182 37.3198 113.383C37.514 111.87 38.0676 110.427 38.9341 109.173C39.8007 107.918 40.9551 106.89 42.3008 106.173C52.4242 100.782 77.6701 87.6016 82.5304 87.6016C88.6402 87.6016 136.27 103.848 136.27 103.848L137.242 122.872V122.872Z" fill="#FFC727"/>
<path d="M63.162 116.329C63.0694 116.329 62.9783 116.306 62.897 116.262C62.8157 116.218 62.7467 116.154 62.6964 116.076C62.646 115.998 62.6158 115.909 62.6086 115.817C62.6014 115.725 62.6174 115.632 62.6551 115.548C63.761 113.067 64.9877 110.738 65.5353 109.919C66.993 107.736 70.7641 106.694 74.3077 107.494C74.449 107.529 74.571 107.618 74.6475 107.742C74.724 107.865 74.7489 108.014 74.7169 108.156C74.6848 108.298 74.5984 108.422 74.4762 108.501C74.3539 108.579 74.2056 108.607 74.0631 108.578C70.9962 107.885 67.6557 108.745 66.4592 110.536C65.9489 111.3 64.7374 113.606 63.6701 116C63.6262 116.098 63.5548 116.181 63.4647 116.24C63.3746 116.298 63.2694 116.329 63.162 116.329V116.329Z" fill="#424271"/>
<path d="M112.793 122.587C112.734 122.587 112.673 122.577 112.613 122.556C112.321 122.456 83.2684 112.482 68.9743 106.434C68.8415 106.375 68.7372 106.266 68.6839 106.131C68.6305 105.996 68.6324 105.845 68.689 105.711C68.7457 105.577 68.8526 105.47 68.9869 105.414C69.1211 105.358 69.272 105.357 69.407 105.411C83.6658 111.444 112.682 121.405 112.973 121.505C113.098 121.548 113.203 121.633 113.271 121.746C113.338 121.859 113.364 121.993 113.342 122.122C113.32 122.252 113.253 122.37 113.153 122.455C113.052 122.54 112.925 122.587 112.793 122.587V122.587Z" fill="#424271"/>
<path d="M58.7479 176.843C58.7089 176.918 58.6757 176.979 58.6506 177.024C57.898 178.376 51.9437 176.068 46.6364 173.669L48.0527 170.803C48.0529 170.803 58.9646 174.452 58.7479 176.843V176.843Z" fill="#1A1A1A"/>
<path d="M50.2778 171.608C49.3293 171.213 48.3706 170.843 47.4028 170.498C41.086 168.242 38.9454 168.951 38.3444 169.318C37.2999 171.14 36.3426 172.626 36.016 172.997C28.7952 181.195 15.7422 181.195 16.2976 183.972C16.8529 186.749 50.1798 185.495 50.7352 183.828C51.2906 182.162 49.3467 178.829 49.3467 176.052C49.3468 175.261 49.73 173.591 50.2778 171.608V171.608Z" fill="#FFC3A8"/>
<path d="M36.0162 185.495C36.0162 185.495 33.5167 175.64 32.128 175.362C30.7395 175.084 15.1844 179.852 15.4646 184.527C15.4646 184.527 17.7493 185.637 27.1289 185.638C36.5088 185.639 36.0162 185.495 36.0162 185.495V185.495Z" fill="#6C27FF"/>
<path d="M176.253 65.236C176.253 65.236 164.589 79.4 157.09 76.6228C149.592 73.8455 156.535 64.9584 156.535 64.9584C156.535 64.9584 159.173 64.078 161.545 63.0144C163.059 62.3339 164.464 61.5813 165.005 60.9315C165.542 60.2872 167.797 59.2513 170.363 58.2209C174.379 56.6072 181.105 53.7625 181.252 53.7153C181.155 53.8374 176.253 60.6583 176.253 65.236V65.236Z" fill="#EA9973"/>
<path d="M132.235 102.785C132.235 102.785 131.703 101.809 132.426 100.879C133.315 99.7357 134.713 100.371 136.816 95.7859C138.526 92.0588 146.537 72.4571 147.37 70.5132C148.203 68.5691 157.368 64.4033 157.368 64.4033C157.368 64.4033 155.424 70.5132 159.59 71.6241C164.276 72.8738 173.855 67.7742 173.855 67.7742L158.479 112.172L138.08 111.17L132.235 102.785Z" fill="white"/>
<path d="M175.698 58.8483C175.698 58.8483 170.11 66.8495 161.545 63.0142C163.059 62.3338 165.713 59.9195 166.255 59.2695C166.791 58.6252 167.797 59.2509 170.363 58.2207L175.698 58.8483V58.8483Z" fill="#1A1A1A"/>
<path d="M170.323 113.234C170.323 113.234 179.457 95.4364 186.946 85.0934C196.171 79.2383 226.236 61.181 226.374 54.6545C226.558 46.0068 221.244 42.1851 217.356 42.1851C214.579 42.1851 195.277 47.6007 195.277 47.6007C195.277 47.6007 195.694 45.5179 195.555 45.1013C195.138 43.8516 189.723 47.8785 189.445 48.9895C189.167 50.1004 188.334 56.2102 189.445 59.2653C189.445 59.2653 181.252 62.7369 178.475 63.0144C178.475 63.0144 178.475 62.7367 177.642 62.1813C177.277 61.9377 176.809 61.7694 176.809 61.7694C176.809 61.7694 168.338 71.7627 165.005 77.8728C161.673 83.9826 158.896 95.0916 158.062 98.9798C157.229 102.868 152.508 111.477 152.508 111.477C152.508 111.477 168.935 113.79 170.323 113.234V113.234Z" fill="#6C27FF"/>
<path d="M191.112 59.1263C191.018 59.1266 190.927 59.0951 190.853 59.0369C190.779 58.9787 190.727 58.8973 190.705 58.8058C190.684 58.7143 190.694 58.6183 190.733 58.5332C190.773 58.4481 190.841 58.379 190.925 58.3371C191.063 58.2681 204.801 51.3661 211.708 46.6998C211.753 46.6692 211.804 46.6478 211.857 46.6369C211.911 46.6259 211.966 46.6256 212.02 46.636C212.074 46.6464 212.125 46.6673 212.17 46.6974C212.216 46.7276 212.255 46.7664 212.286 46.8117C212.317 46.8571 212.338 46.908 212.349 46.9616C212.36 47.0152 212.36 47.0704 212.35 47.1241C212.339 47.1778 212.319 47.2289 212.288 47.2746C212.258 47.3202 212.219 47.3595 212.174 47.3901C205.223 52.0866 191.437 59.0123 191.298 59.0817C191.241 59.111 191.177 59.1262 191.112 59.1263V59.1263Z" fill="white"/>
<path d="M204.218 51.9394H204.217C204.144 51.9393 204.073 51.91 204.021 51.858C203.969 51.8059 203.94 51.7354 203.94 51.6618C203.94 51.5761 203.957 49.5348 205.407 47.1177C205.426 47.0864 205.451 47.0592 205.48 47.0375C205.509 47.0157 205.542 47 205.578 46.9912C205.613 46.9823 205.65 46.9806 205.686 46.9859C205.722 46.9913 205.757 47.0038 205.788 47.0225C205.819 47.0413 205.847 47.0661 205.868 47.0954C205.89 47.1247 205.906 47.158 205.915 47.1934C205.923 47.2288 205.925 47.2656 205.92 47.3016C205.915 47.3377 205.902 47.3724 205.883 47.4037C204.517 49.681 204.496 51.6427 204.495 51.6624C204.495 51.7359 204.466 51.8063 204.414 51.8583C204.362 51.9102 204.291 51.9394 204.218 51.9394V51.9394ZM195.832 55.3771C195.768 55.377 195.705 55.3543 195.655 55.3129C195.605 55.2716 195.572 55.2141 195.56 55.1505C195.553 55.1171 194.94 51.7758 195.297 47.5094C195.3 47.4731 195.311 47.4377 195.327 47.4053C195.344 47.3729 195.367 47.3441 195.395 47.3205C195.423 47.297 195.455 47.2792 195.49 47.2681C195.524 47.257 195.561 47.2528 195.597 47.2559C195.634 47.2589 195.669 47.2691 195.702 47.2858C195.734 47.3025 195.763 47.3255 195.786 47.3533C195.81 47.3812 195.828 47.4134 195.839 47.4481C195.85 47.4829 195.854 47.5195 195.851 47.5558C195.5 51.7431 196.1 55.0156 196.106 55.0483C196.113 55.0884 196.112 55.1297 196.101 55.1692C196.091 55.2087 196.072 55.2454 196.046 55.2768C196.02 55.3082 195.987 55.3334 195.951 55.3508C195.914 55.3681 195.873 55.3771 195.832 55.3771V55.3771ZM160.561 93.0087C160.488 93.0086 160.416 92.9893 160.353 92.9526C160.29 92.9159 160.237 92.8632 160.201 92.7997C160.164 92.7363 160.145 92.6643 160.145 92.5911C160.145 92.5179 160.165 92.4461 160.202 92.3828C163.799 86.188 170.035 79.7823 173.386 76.341C174.262 75.4414 175.095 74.5856 175.366 74.2436C175.204 74.0718 174.809 73.7888 174.533 73.5908C173.704 72.9965 172.921 72.4354 172.921 71.7627C172.921 70.9075 174.419 70.5345 176.886 70.0218C177.327 69.9302 177.862 69.8192 178.077 69.7509C178.295 69.1679 178.312 66.2307 178.198 63.7275C178.195 63.6729 178.204 63.6183 178.222 63.5668C178.241 63.5153 178.269 63.4681 178.306 63.4277C178.343 63.3873 178.388 63.3545 178.437 63.3313C178.487 63.3081 178.54 63.2949 178.595 63.2924C178.832 63.2855 179.02 63.46 179.03 63.6897C179.32 70.0701 178.761 70.3495 178.523 70.4688C178.314 70.5731 177.876 70.667 177.056 70.8373C176.164 71.0227 174.108 71.4501 173.762 71.8065C173.851 72.0763 174.661 72.6571 175.018 72.9134C175.735 73.4272 176.254 73.7985 176.254 74.262C176.254 74.5654 176.084 74.7643 173.983 76.922C170.658 80.3375 164.468 86.6949 160.922 92.8009C160.886 92.8641 160.833 92.9166 160.77 92.9531C160.706 92.9896 160.635 93.0088 160.561 93.0087V93.0087ZM186.937 85.3797C186.877 85.3796 186.819 85.3602 186.771 85.3244C186.723 85.2886 186.688 85.2383 186.671 85.1809C186.318 83.9954 185.921 81.907 185.262 78.4473C184.835 76.2055 184.304 73.4155 183.604 69.9162C183.592 69.8448 183.608 69.7713 183.649 69.7115C183.69 69.6517 183.752 69.6102 183.824 69.596C183.895 69.5818 183.968 69.5959 184.029 69.6354C184.09 69.6749 184.133 69.7366 184.149 69.8073C184.849 73.309 185.381 76.1003 185.808 78.3431C186.463 81.7858 186.859 83.8639 187.203 85.0225C187.215 85.064 187.218 85.1078 187.21 85.1504C187.203 85.1931 187.186 85.2334 187.16 85.2681C187.134 85.3028 187.1 85.3309 187.061 85.3503C187.023 85.3697 186.98 85.3798 186.937 85.3797V85.3797Z" fill="white"/>
<path d="M189.374 47.3513C189.444 47.3889 189.522 47.4064 189.6 47.402C189.679 47.3976 189.754 47.3714 189.819 47.3263C189.883 47.2813 189.934 47.2191 189.965 47.1469C189.996 47.0747 190.007 46.9953 189.995 46.9175C189.901 46.2762 189.671 45.6553 189.312 45.0723C188.745 44.1523 188.045 43.6251 187.232 43.5043C185.963 43.316 184.926 44.2185 184.882 44.257C184.802 44.3323 184.754 44.4361 184.749 44.5462C184.743 44.6564 184.781 44.7643 184.854 44.8469C184.927 44.9295 185.03 44.9803 185.14 44.9885C185.25 44.9968 185.359 44.9618 185.443 44.891C185.45 44.8853 186.237 44.2095 187.113 44.3425C187.666 44.4262 188.163 44.8216 188.591 45.5161C188.889 46.0005 189.08 46.5131 189.157 47.0401C189.167 47.1054 189.191 47.1675 189.229 47.2215C189.267 47.2755 189.317 47.32 189.374 47.3513V47.3513Z" fill="#822C30"/>
<path d="M137.622 93.8274C137.622 93.8274 138.999 90.9917 140.427 88.8427C142.27 86.0697 144.747 82.9108 145.843 80.0944C147.787 75.0953 155.285 67.5969 157.229 65.9304C158.273 65.0355 160.239 63.9402 161.943 62.9673C163.411 62.1289 166.489 59.1643 166.811 58.7143C167.281 58.0554 159.59 62.459 158.201 62.459L156.413 60.0954C155.797 59.0847 154.046 57.9023 153.228 56.932C152.981 56.6396 153.025 55.7734 152.95 55.4181C152.851 54.9443 151.923 53.9288 151.365 52.8603C150.138 50.5097 149.881 47.4734 150.097 45.7457C150.652 41.3021 152.18 40.0524 151.902 39.4968C151.625 38.9415 148.292 34.7755 147.181 34.7755C146.07 34.7755 145.098 36.5806 144.82 37.1362C144.82 37.1362 138.841 34.9188 137.322 34.3589C134.683 33.387 128.99 35.1921 127.046 40.4688C125.102 45.7455 138.344 72.596 138.899 75.0955C139.455 77.595 140.288 81.7609 140.288 81.7609C140.288 81.7609 139.78 88.8422 137.622 93.8274V93.8274Z" fill="#6C27FF"/>
<path d="M142.737 46.9951C142.598 46.9951 142.477 46.8899 142.461 46.7479C142.19 44.3054 142.779 39.9736 144.235 36.9522C144.269 36.8877 144.326 36.8387 144.394 36.8157C144.463 36.7926 144.538 36.7974 144.603 36.8288C144.668 36.8603 144.719 36.9161 144.744 36.9842C144.768 37.0523 144.766 37.1274 144.736 37.1934C143.323 40.1246 142.751 44.3221 143.013 46.6867C143.018 46.7255 143.014 46.7649 143.002 46.8021C142.99 46.8393 142.97 46.8736 142.944 46.9027C142.918 46.9318 142.886 46.9551 142.85 46.971C142.815 46.9869 142.776 46.9951 142.737 46.9951V46.9951ZM145.208 52.5843C143.436 52.5843 139.869 51.552 139.426 51.4216C139.373 51.4068 139.323 51.3816 139.28 51.3474C139.236 51.3132 139.2 51.2707 139.173 51.2224C139.147 51.1741 139.13 51.121 139.123 51.0661C139.117 51.0112 139.122 50.9556 139.138 50.9026C139.153 50.8497 139.179 50.8003 139.214 50.7574C139.249 50.7146 139.292 50.6791 139.341 50.653C139.39 50.6269 139.443 50.6108 139.498 50.6055C139.553 50.6003 139.608 50.606 139.661 50.6224C140.61 50.9013 142.801 51.4834 144.309 51.6847C142.344 50.2739 138.368 47.3801 137.305 46.3176C137.227 46.2395 137.183 46.1335 137.183 46.0231C137.183 45.9126 137.227 45.8066 137.305 45.7285C137.383 45.6504 137.489 45.6065 137.599 45.6065C137.71 45.6065 137.816 45.6504 137.894 45.7285C139.242 47.0766 145.828 51.7461 145.894 51.7931C145.96 51.8402 146.011 51.9057 146.041 51.9815C146.071 52.0573 146.077 52.1401 146.06 52.2196C146.043 52.2992 146.004 52.3721 145.946 52.4293C145.888 52.4865 145.815 52.5255 145.735 52.5416C145.587 52.5709 145.409 52.5843 145.208 52.5843V52.5843ZM141.263 86.6929C141.197 86.6929 141.132 86.6773 141.074 86.6473C141.015 86.6174 140.964 86.574 140.926 86.5207C140.887 86.4674 140.862 86.4057 140.852 86.3406C140.841 86.2756 140.847 86.209 140.867 86.1464C141.637 83.7988 145.526 72.0444 146.43 71.1918C146.853 70.7934 147.953 70.0798 149.118 69.3243C150.122 68.6729 151.632 67.6935 151.856 67.4083C151.896 67.2181 151.685 66.5833 151.557 66.2007C151.304 65.4425 151.086 64.7875 151.302 64.3553C151.549 63.8623 153.332 63.3197 156.601 62.7426C156.708 62.7274 156.817 62.7544 156.905 62.8179C156.992 62.8814 157.052 62.9764 157.07 63.0829C157.089 63.1894 157.066 63.2991 157.005 63.3887C156.945 63.4783 156.852 63.5409 156.746 63.5633C154.768 63.9124 152.454 64.4585 152.042 64.7548C152.02 64.9545 152.224 65.5653 152.347 65.9374C152.6 66.6957 152.819 67.3509 152.603 67.7831C152.418 68.1518 151.581 68.7194 149.571 70.0233C148.488 70.7255 147.369 71.4514 147.001 71.798C146.39 72.4408 143.4 81.0996 141.659 86.406C141.631 86.4894 141.579 86.5621 141.507 86.6136C141.436 86.6651 141.351 86.6929 141.263 86.6929V86.6929Z" fill="white"/>
<path d="M95.2969 127.307C95.2969 127.307 104.878 125.923 115.015 115.365C124.129 105.873 130.29 103.145 141.955 105.645C153.619 108.144 168.75 115.245 180.796 101.058L179.447 114.532L141.955 145.942L95.2969 127.307Z" fill="#424271"/>
<path d="M161.909 109.782C155.459 109.782 148.724 108.026 141.839 106.045C138.916 105.205 136.321 105.166 134.166 105.237C133.941 105.252 133.743 105.065 133.736 104.834C133.734 104.78 133.743 104.725 133.762 104.674C133.781 104.623 133.81 104.576 133.848 104.536C133.885 104.496 133.93 104.464 133.98 104.441C134.03 104.419 134.084 104.406 134.138 104.404C136.357 104.33 139.035 104.372 142.069 105.245C150.442 107.653 158.585 109.727 166.181 108.662C174.643 107.475 181.408 102.379 186.861 93.0842C186.889 93.037 186.925 92.9957 186.969 92.9627C187.013 92.9297 187.062 92.9056 187.115 92.8919C187.168 92.8781 187.223 92.8749 187.278 92.8824C187.332 92.8899 187.384 92.908 187.431 92.9357C187.478 92.9634 187.52 93.0001 187.553 93.0438C187.586 93.0874 187.61 93.1371 187.624 93.1901C187.637 93.243 187.641 93.2982 187.633 93.3524C187.625 93.4066 187.607 93.4588 187.58 93.5059C181.989 103.035 175.028 108.262 166.296 109.487C164.851 109.69 163.387 109.782 161.909 109.782V109.782Z" fill="black"/>
<path d="M95.8966 127.326C95.6834 127.326 95.559 127.313 95.5251 127.309C95.4154 127.296 95.3154 127.24 95.2472 127.153C95.1789 127.066 95.1479 126.956 95.161 126.846C95.1674 126.792 95.1844 126.739 95.211 126.692C95.2376 126.644 95.2734 126.602 95.3163 126.568C95.3591 126.534 95.4082 126.509 95.4608 126.495C95.5133 126.48 95.5683 126.475 95.6225 126.482C95.7069 126.49 102.583 127.079 114.722 115.069C121.359 108.504 126.663 104.655 134.138 104.404C134.372 104.391 134.561 104.577 134.568 104.807C134.57 104.862 134.561 104.916 134.542 104.967C134.523 105.019 134.494 105.065 134.456 105.105C134.419 105.145 134.374 105.178 134.324 105.2C134.274 105.223 134.221 105.235 134.166 105.237C126.964 105.478 121.798 109.242 115.308 115.662C104.264 126.587 97.5176 127.326 95.8966 127.326V127.326Z" fill="black"/>
<path d="M82.6734 130.085C82.5797 130.085 82.4876 130.061 82.4056 130.016C82.3236 129.971 82.2543 129.906 82.2042 129.826C82.1542 129.747 82.125 129.657 82.1193 129.563C82.1136 129.47 82.1317 129.376 82.1718 129.292L84.6713 124.015C84.7025 123.949 84.7464 123.89 84.8005 123.841C84.8545 123.792 84.9177 123.754 84.9864 123.73C85.0551 123.705 85.1279 123.694 85.2008 123.698C85.2736 123.702 85.3451 123.719 85.411 123.751C85.4769 123.782 85.5361 123.826 85.585 123.88C85.634 123.934 85.6718 123.997 85.6964 124.066C85.7209 124.135 85.7317 124.207 85.7281 124.28C85.7245 124.353 85.7065 124.424 85.6753 124.49L83.1759 129.767C83.1308 129.862 83.0596 129.943 82.9707 129.999C82.8817 130.055 82.7786 130.085 82.6734 130.085V130.085Z" fill="#FFEEF2"/>
<path d="M167.123 39.2736C167.123 39.2736 164.967 32.9112 170.421 29.2754C176.253 25.3872 180.307 33.9006 180.307 33.9006C179.966 32.7529 181.007 29.0694 183.564 30.8513C186.122 32.6332 185.974 41.773 185.974 41.773C185.974 41.773 186.932 40.7777 187.918 40.9399C189.588 41.2149 186.775 44.3899 186.775 44.3899C186.775 44.3899 189.648 46.9826 188.636 49.3291C187.624 51.6757 180.975 57.0478 178.475 57.3255C175.098 57.7007 168.474 48.5793 168.474 48.5793L167.123 39.2736V39.2736Z" fill="black"/>
<path d="M167.795 38.0329C167.795 38.0329 159.4 49.8612 160.026 53.9249C160.357 56.0724 163.538 58.315 165.215 59.1211C170.376 61.6035 175.105 60.6467 178.475 55.6588C178.475 55.6588 184.01 57.8732 184.26 51.2325C184.397 47.6073 179.468 50.6125 179.468 50.6125C179.468 50.6125 178.529 49.6912 179.864 45.9385C177.086 45.6608 171.325 40.0398 171.124 36.6274C171.124 36.6276 169.821 37.8473 167.795 38.0329Z" fill="#FFC3A8"/>
<path d="M221.314 187H228.16L231.959 169.001H216.941L221.314 187Z" fill="black"/>
<path opacity="0.15" d="M218.088 169.001C218.088 169.001 222.002 179.352 223.803 182.201C225.474 184.838 228.291 186.312 228.291 186.312L228.143 187H221.314L216.941 169.001H218.088Z" fill="black"/>
<path d="M228.569 102C228.569 102 233.696 112.826 234.842 120.048C236.644 131.414 228.094 152.247 227.341 155.293C226.588 158.339 225.343 169.001 225.343 169.001H224.115L225.916 155.391C225.916 155.391 224.59 140.029 224.115 130.235C223.623 120.425 228.569 102 228.569 102Z" fill="black"/>
<path d="M222.526 169.001H221.429C221.429 169.001 223.05 152.541 222.755 151.493C222.477 150.445 218.481 145.957 215.631 136.622C212.929 127.795 214.304 112.842 214.304 112.842C214.304 112.842 217.105 115.315 220.069 119.393C220.217 119.606 219.955 120.081 220.528 120.032C220.659 120.015 220.675 120.261 220.757 120.359C223.263 123.979 225.736 128.663 226.653 133.936C227.718 140.061 224.049 151.804 224.049 151.804L222.526 169.001Z" fill="#FFC727"/>
<path d="M220.593 169.001H219.447L217.171 158.814C217.171 158.814 215.762 157.242 214.223 155.113C214.141 154.998 214.665 154.605 214.403 154.13C214.272 153.884 213.469 154.065 213.469 154.065C212.208 152.23 211.307 150.036 210.538 148.381C207 140.799 207 131.676 207 131.676C207 131.676 213.977 137.67 216.941 145.99C218.415 150.118 218.448 158.519 218.448 158.519L220.593 169.001Z" fill="#6C27FF"/>
<path d="M256.018 116.773C256.018 116.773 253.578 124.798 251.547 130.235C248.501 138.391 242.048 143.632 237.495 147.334C232.942 151.019 232.172 151.264 231.042 153.705C229.896 156.161 227.996 169.001 227.996 169.001H226.67L229.896 152.149C229.896 152.149 233.319 139.227 236.447 133.904C237.479 132.152 239.952 129.695 242.818 127.189C243.293 126.78 243.768 126.354 244.259 125.944C244.259 125.944 244.882 126.534 245.209 126.141C245.455 125.846 245.176 125.175 245.471 124.929C250.663 120.638 256.018 116.773 256.018 116.773Z" fill="#6C27FF"/>
<path opacity="0.2" fill-rule="evenodd" clip-rule="evenodd" d="M86.0483 35H70V51.7708H86.0483V35ZM86.0483 53.2292H70V70H86.0483V53.2292ZM88.0543 35H104.103V51.7708H88.0543V35ZM104.103 53.2292H88.0543V70H104.103V53.2292Z" fill="#F3A6BA"/>
<path d="M95.0796 89.8784L122.871 98.1629C122.581 99.136 121.557 99.6897 120.584 99.3996L96.3164 92.1657C95.3432 91.8756 94.7895 90.8515 95.0796 89.8784Z" fill="#424271"/>
<path d="M82 65.8324C82.8501 65.3727 83.912 65.6892 84.3717 66.5393L97.3963 90.6268L95.857 91.4592L82 65.8324Z" fill="#6C27FF"/>
<path opacity="0.1" d="M126 53.5L134.5 67.9998L97.857 91.4592L84 65.8323L126 53.5Z" fill="url(#paint1_linear_71_2661)"/>
<defs>
<linearGradient id="paint0_linear_71_2661" x1="118.879" y1="-2.00397e-06" x2="152.5" y2="177" gradientUnits="userSpaceOnUse">
<stop stop-color="#FFEEF2"/>
<stop offset="1" stop-color="#FFEEF2" stop-opacity="0"/>
</linearGradient>
<linearGradient id="paint1_linear_71_2661" x1="129.097" y1="58.0073" x2="100.978" y2="87.7913" gradientUnits="userSpaceOnUse">
<stop stop-color="#FFEEF2" stop-opacity="0"/>
<stop offset="1" stop-color="#5C0069"/>
</linearGradient>
</defs>
</svg>
