<?xml version="1.0" encoding="UTF-8"?>
<svg width="14px" height="18px" viewBox="0 0 14 18" version="1.1" xmlns="http://www.w3.org/2000/svg" xmlns:xlink="http://www.w3.org/1999/xlink">
    <title>Combined Shape</title>
    <g id="Page-1" stroke="none" stroke-width="1" fill="none" fill-rule="evenodd">
        <g id="ERP-Plugin-Module-Page-Design---Final-Copy-2" transform="translate(-731.000000, -132.000000)" fill="#FFFFFF">
            <g id="Group-13" transform="translate(186.000000, 99.000000)">
                <g id="Group-Copy-2" transform="translate(510.000000, 0.000000)">
                    <g id="Group-6" transform="translate(20.000000, 20.000000)">
                        <path d="M26.8200164,13.0182717 C27.7401145,13.0401977 28.4655031,13.4129398 28.8167439,14.2753629 C28.9121898,14.5092403 28.9427325,14.7650438 29,15.0135386 L29,28.9913697 C28.9885465,29.0571478 28.9694573,29.1192715 28.9618217,29.1850495 C28.8396509,30.1022876 28.2287974,30.7637222 27.3086992,30.9318216 C27.0223616,30.979328 26.7322062,30.9975996 26.4458686,30.9939453 C24.7316608,31.001254 23.017453,31.001254 21.3032452,30.9975996 C19.9288247,30.9975996 18.5544041,31.001254 17.1799836,30.9866366 C16.2026179,30.9756736 15.4886828,30.5079188 15.1718026,29.6930021 C15.0839924,29.484705 15.0534497,29.2544819 15,29.0315674 L15,15.0171929 C15.0114535,14.9587235 15.0267248,14.9002542 15.0343605,14.8417848 C15.1450777,13.9647444 15.6872103,13.3325445 16.5500409,13.1169387 C16.8363785,13.0475064 17.1303518,13.0146173 17.4281429,13.0146173 C19.3981456,13.0036543 21.3719662,13.0036543 23.3419689,13.0036543 C24.5025907,13.0036543 25.6593946,12.989037 26.8200164,13.0182717 Z M22.4256886,26.5429653 C22.1049905,26.5320023 21.791928,26.528348 21.4635942,26.5429653 C21.1352604,26.5575827 20.9176439,26.7476081 20.8947368,27.0618809 C20.8718298,27.3834624 20.8718298,27.7086982 20.8947368,28.033934 C20.9176439,28.3701328 21.1314426,28.5455409 21.4903191,28.5601582 C21.6430325,28.5638126 21.791928,28.5601582 21.9446414,28.5601582 L21.9446414,28.5601582 L21.9446414,28.5711212 C22.1431688,28.5601582 22.345514,28.5674669 22.5440415,28.5382322 C22.8151077,28.5016889 22.9601854,28.3664785 22.9754568,28.110675 C23.0021816,27.7562045 23.0059995,27.401734 22.9869103,27.0472636 C22.9640033,26.7329907 22.7578402,26.5575827 22.4256886,26.5429653 Z M18.6193073,26.5320023 C18.3062449,26.517385 17.9893646,26.517385 17.6763022,26.5320023 C17.3441505,26.550274 17.1150804,26.7549168 17.0959913,27.0691896 C17.0769021,27.390771 17.0769021,27.7086982 17.0959913,28.0266253 C17.1188983,28.3408981 17.3212435,28.5345779 17.6419416,28.5491952 C17.9817289,28.5674669 18.3215162,28.5674669 18.6613035,28.5491952 C19.0163621,28.5309235 19.180529,28.3591698 19.1996182,28.0193166 C19.2072539,27.8694889 19.1996182,27.7196612 19.1996182,27.5698335 L19.1996182,27.5698335 L19.2034361,27.5588704 C19.2034361,27.4090427 19.2110717,27.259215 19.2034361,27.1093872 C19.1843469,26.7476081 18.9934551,26.5466197 18.6193073,26.5320023 Z M26.2167985,26.539311 C25.8961004,26.5246937 25.5754022,26.5246937 25.2547041,26.539311 L25.2547041,26.539311 C24.934006,26.5429653 24.6820289,26.7841514 24.6858467,27.0838069 C24.6705754,27.390771 24.6705754,27.6977352 24.6858467,28.0046993 C24.7011181,28.3372438 24.9187347,28.5345779 25.2661576,28.5565039 C25.4226888,28.5638126 25.5830379,28.5565039 25.7395691,28.5565039 C25.8999182,28.5565039 26.0640851,28.5674669 26.2244341,28.5491952 C26.5718571,28.5272692 26.7398418,28.3957131 26.7703845,28.066823 C26.8009272,27.7342785 26.804745,27.3944254 26.781838,27.0582266 C26.758931,26.7293364 26.5604036,26.5539283 26.2167985,26.539311 Z M18.626943,23.3417679 C18.2986092,23.3234962 17.9702754,23.3234962 17.6457595,23.3454222 C17.3136079,23.3673483 17.1112626,23.5646823 17.0921734,23.8826095 C17.0730843,24.2005366 17.0730843,24.5184638 17.0883556,24.8363909 C17.0998091,25.1250834 17.2754295,25.3041458 17.5770385,25.3479978 C17.7641124,25.3662695 17.9550041,25.3772325 18.142078,25.3772325 L18.142078,25.3772325 L18.1497137,25.3699238 L18.4284156,25.3699238 C18.5314971,25.3699238 18.6307608,25.3626151 18.7300245,25.3516521 C19.0163621,25.3114545 19.1767112,25.1616267 19.1919825,24.8875516 C19.2110717,24.5586615 19.2110717,24.226117 19.1958004,23.8972268 C19.1728934,23.5427563 18.9934551,23.3636939 18.626943,23.3417679 Z M22.4753204,23.3600396 C22.1126261,23.3344592 21.746114,23.3344592 21.3834197,23.3600396 C21.1008999,23.3783113 20.913826,23.5573737 20.8947368,23.8241401 C20.868012,24.1713019 20.868012,24.5221181 20.8947368,24.8692799 C20.9214617,25.1725897 21.1085356,25.3297261 21.4292337,25.3589608 C21.6086719,25.3735781 21.791928,25.3589608 21.9751841,25.3589608 L21.9751841,25.3589608 C22.1355331,25.3626151 22.3073357,25.3735781 22.4753204,25.3626151 C22.7654759,25.3406891 22.9716389,25.1652811 22.9830924,24.8948603 C23.0021816,24.5476984 23.0021816,24.1968823 22.9792746,23.8497205 C22.9601854,23.550065 22.7922007,23.3819656 22.4753204,23.3600396 Z M26.2206163,23.3381136 C25.8999182,23.3198419 25.5792201,23.3198419 25.258522,23.3381136 C24.911099,23.3563853 24.7163894,23.5427563 24.6934824,23.8789551 C24.6743932,24.193228 24.6743932,24.5075008 24.6934824,24.8181192 C24.7163894,25.1689354 24.8958277,25.3370348 25.258522,25.3553065 C25.5983092,25.3735781 25.9380965,25.3699238 26.2778838,25.3553065 C26.5871284,25.3406891 26.781838,25.132392 26.7971094,24.8363909 C26.804745,24.6865632 26.7971094,24.5330811 26.7971094,24.3832534 L26.7971094,24.3832534 C26.7932915,24.215154 26.8085629,24.0507089 26.7932915,23.8899182 C26.7627488,23.539102 26.5909463,23.3600396 26.2206163,23.3381136 Z M26.2549768,20.1515335 C25.9075539,20.1296075 25.5601309,20.1296075 25.2165258,20.1515335 C24.888192,20.1734595 24.7087537,20.3525219 24.6896646,20.6667947 C24.6705754,20.9920305 24.6705754,21.3172663 24.6896646,21.6425022 C24.7087537,21.9640836 24.9149168,22.1394917 25.2547041,22.1614177 C25.4112353,22.1687264 25.5715844,22.1614177 25.7281156,22.1614177 C25.9075539,22.1614177 26.0831743,22.1760351 26.2587947,22.1614177 C26.5947641,22.1358374 26.758931,21.9969726 26.781838,21.6753912 C26.804745,21.3391924 26.804745,20.9993392 26.7856558,20.6631404 C26.7665667,20.3525219 26.5833106,20.1734595 26.2549768,20.1515335 Z M18.6536678,20.1551878 C18.3100627,20.1332618 17.9626398,20.1332618 17.6190346,20.1551878 C17.2907008,20.1771138 17.1112626,20.3525219 17.0921734,20.6667947 C17.0730843,20.9883762 17.0730843,21.313612 17.0921734,21.6388478 C17.1112626,21.9713923 17.3174257,22.1504547 17.6686665,22.1650721 C17.8251977,22.1723807 17.9855468,22.1650721 18.142078,22.1650721 L18.142078,22.1650721 C18.3215162,22.1577634 18.5085901,22.1723807 18.6880284,22.1577634 C18.9781838,22.1358374 19.1728934,21.9604293 19.1881647,21.6863542 C19.2034361,21.3501554 19.2072539,21.0139565 19.1881647,20.6777577 C19.1690755,20.3561763 18.9934551,20.1771138 18.6536678,20.1551878 Z M22.4867739,20.1551878 C22.1240796,20.1332618 21.7575675,20.1332618 21.3948732,20.1551878 C21.0970821,20.1771138 20.9214617,20.3452133 20.8985547,20.6339057 C20.8756477,20.9701045 20.8718298,21.3063033 20.8947368,21.6425022 C20.9176439,21.967738 21.1199891,22.1394917 21.4597764,22.1614177 C21.6201254,22.1687264 21.7842923,22.1614177 21.9484592,22.1614177 C22.1278975,22.1577634 22.3035179,22.1723807 22.4753204,22.1577634 C22.784565,22.132183 22.9640033,21.978701 22.9830924,21.6936628 C23.0059995,21.346501 23.0098173,20.9956849 22.9907281,20.6485231 C22.9754568,20.3561763 22.7922007,20.1734595 22.4867739,20.1551878 Z M21.9980911,15.0217608 L17.9320971,15.0245016 C17.4014181,15.0245016 17.0425416,15.3789721 17.0425416,15.8832703 L17.0425416,15.8832703 L17.0425416,17.604462 C17.0425416,18.2110816 17.378511,18.5363175 18.0084538,18.5363175 L18.0084538,18.5363175 L21.9790019,18.5363175 C23.3419689,18.5363175 24.7011181,18.5363175 26.0640851,18.5290088 C26.5985819,18.5290088 26.9536406,18.1781926 26.9536406,17.6738944 L26.9536406,17.6738944 L26.9536406,15.8832703 C26.9498227,15.3826264 26.5909463,15.0245016 26.0640851,15.0245016 C23.3534224,15.0208472 20.6427597,15.0208472 17.9320971,15.0245016 Z" id="Combined-Shape"></path>
                    </g>
                </g>
            </g>
        </g>
    </g>
</svg>