<?xml version="1.0" encoding="UTF-8"?>
<svg width="12px" height="15px" viewBox="0 0 12 15" version="1.1" xmlns="http://www.w3.org/2000/svg" xmlns:xlink="http://www.w3.org/1999/xlink">
    <title>Combined Shape</title>
    <defs>
        <linearGradient x1="18%" y1="0%" x2="82%" y2="100%" id="linearGradient-1">
            <stop stop-color="#FCCF31" offset="0%"></stop>
            <stop stop-color="#F55555" offset="100%"></stop>
        </linearGradient>
    </defs>
    <g id="Page-1" stroke="none" stroke-width="1" fill="none" fill-rule="evenodd">
        <g id="ERP-Plugin-Module-Page-Design---Final-Copy-2" transform="translate(-601.000000, -291.000000)" fill="url(#linearGradient-1)">
            <g id="Group-12" transform="translate(185.000000, 271.000000)">
                <g id="Group-11" transform="translate(416.000000, 19.000000)">
                    <path d="M10.1314426,1.0152264 C10.9200982,1.03349807 11.5418598,1.34411654 11.8429234,2.06280241 C11.9247341,2.25770028 11.9509136,2.47086982 12,2.6779488 L12,14.3261415 C11.9901827,14.3809565 11.9738206,14.4327262 11.9672757,14.4875412 C11.8625579,15.2519063 11.3389692,15.8031018 10.5503136,15.9431847 C10.3048814,15.9827733 10.0561767,15.9979997 9.81074448,15.9949544 C8.34142351,16.001045 6.87210254,16.001045 5.40278157,15.9979997 C4.22470684,15.9979997 3.04663212,16.001045 1.8685574,15.9888639 C1.03081538,15.979728 0.418871012,15.5899323 0.14725934,14.910835 C0.0719934551,14.7372541 0.0458140169,14.5454016 -2.62900812e-13,14.3596395 L-2.62900812e-13,2.68099408 C0.00981728934,2.63226961 0.0229070085,2.58354515 0.029451868,2.53482068 C0.124352332,1.80395369 0.58903736,1.2771204 1.32860649,1.09744893 C1.57403872,1.03958863 1.82601582,1.01218112 2.08126534,1.01218112 C3.76983911,1.00304528 5.4616853,1.00304528 7.15025907,1.00304528 C8.14507772,1.00304528 9.13662394,0.990864163 10.1314426,1.0152264 Z M9.92527952,1.77045562 L2.06490319,1.77045562 L2.06490319,1.77045562 C1.21079902,1.77045562 0.841014453,2.10543632 0.834469594,2.89416362 C0.824652304,4.01178106 0.831197164,5.12635322 0.831197164,6.24397065 L0.831197164,11.2199567 C0.831197164,12.2340347 0.827924734,13.2511579 0.841014453,14.2652359 C0.850831743,14.8347031 1.164985,15.1453215 1.77038451,15.2214535 C1.8685574,15.2305894 1.96345787,15.2366799 2.06163076,15.2336346 L9.90891737,15.2336346 L9.90891737,15.2336346 C10.0070903,15.2336346 10.1052632,15.2336346 10.2001636,15.2244988 C10.8055631,15.1727291 11.139351,14.8468842 11.1655304,14.2835075 C11.1720753,14.1708322 11.1720753,14.0612022 11.1720753,13.9515721 C11.1688028,12.139631 11.1688028,10.3246447 11.1688028,8.50965832 L11.1688028,2.92766169 L11.1688028,2.92766169 C11.1688028,2.1084816 10.8022907,1.77045562 9.92527952,1.77045562 Z M6.36487592,12.2858044 C6.64957731,12.2979856 6.82628852,12.444159 6.8459231,12.706053 C6.86228525,13.001445 6.85901282,13.2968371 6.83610581,13.5922292 C6.82301609,13.8053987 6.69866376,13.9180741 6.46632124,13.9485268 C6.2961549,13.9728891 6.12271612,13.9667985 5.95254977,13.9759344 L5.95254977,13.9667985 C5.82165258,13.9667985 5.69402782,13.9698438 5.56313062,13.9667985 C5.25552223,13.9546174 5.07226616,13.808444 5.05263158,13.5282783 C5.032997,13.2572485 5.032997,12.9862186 5.05263158,12.7182341 C5.07226616,12.4563401 5.25879466,12.2979856 5.54022362,12.2858044 C5.82165258,12.2736233 6.08999182,12.2766686 6.36487592,12.2858044 Z M3.10226343,12.2766686 C3.42296155,12.2888497 3.58658304,12.4563401 3.60294519,12.7578227 C3.60949005,12.8826791 3.60294519,13.0075356 3.60294519,13.132392 L3.59967276,13.1415279 C3.59967276,13.2663843 3.60621762,13.3912408 3.59967276,13.5160972 C3.58331061,13.7993082 3.44259613,13.9424363 3.13826016,13.9576627 C2.84701391,13.9728891 2.55576766,13.9728891 2.26452141,13.9576627 C1.98963731,13.9454816 1.81619853,13.7840818 1.79656395,13.5221878 C1.7802018,13.2572485 1.7802018,12.9923092 1.79656395,12.7243246 C1.8129261,12.4624306 2.00927188,12.291895 2.29397328,12.2766686 C2.56231252,12.2644875 2.83392419,12.2644875 3.10226343,12.2766686 Z M9.61439869,12.2827592 C9.90891737,12.2949403 10.0790837,12.4411137 10.0987183,12.7151888 C10.1183529,12.9953545 10.1150804,13.2785654 10.088901,13.5556858 C10.0627216,13.829761 9.91873466,13.939391 9.62094355,13.9576627 C9.4835015,13.9728891 9.34278702,13.9637532 9.20534497,13.9637532 C9.07117535,13.9637532 8.9337333,13.9698438 8.79956368,13.9637532 C8.50177257,13.9454816 8.31524407,13.7810365 8.30215435,13.5039161 C8.28906463,13.2481126 8.28906463,12.9923092 8.30215435,12.7365058 C8.29888192,12.4867929 8.51486229,12.2858044 8.78320153,12.2827592 L8.78974639,12.2827592 C9.06463049,12.270578 9.33951459,12.270578 9.61439869,12.2827592 Z M3.10880829,9.61813993 C3.42296155,9.6364116 3.57676575,9.78563028 3.59640033,10.0810224 C3.60949005,10.3550975 3.60949005,10.6322179 3.5931279,10.906293 C3.58003818,11.1346889 3.44259613,11.2595454 3.19716389,11.2930434 C3.11208072,11.3021793 3.02699755,11.3082698 2.93864194,11.3082698 L2.69975457,11.3082698 L2.69320971,11.3143604 C2.53286065,11.3143604 2.36923916,11.3052246 2.2088901,11.2899982 C1.95036815,11.2534548 1.79983638,11.1042361 1.79001909,10.8636591 C1.77692937,10.5987198 1.77692937,10.3337805 1.79329152,10.0688412 C1.80965367,9.80390195 1.98309245,9.63945688 2.26779384,9.62118521 C2.54595037,9.60291353 2.82737933,9.60291353 3.10880829,9.61813993 Z M6.40741751,9.63336632 C6.67902918,9.651638 6.82301609,9.79172084 6.83937824,10.0414337 C6.85901282,10.3307352 6.85901282,10.623082 6.84265067,10.9123836 C6.83283338,11.1377342 6.65612217,11.2839076 6.40741751,11.3021793 C6.2634306,11.3113151 6.11617126,11.3021793 5.97218435,11.3021793 L5.97872921,11.299134 C5.82165258,11.299134 5.66457595,11.3113151 5.51077175,11.299134 C5.23588765,11.2747718 5.07553859,11.1438248 5.05263158,10.8910666 C5.02972457,10.6017651 5.02972457,10.3094183 5.05263158,10.0201168 C5.06899373,9.79781139 5.22934279,9.64859272 5.47150259,9.63336632 C5.78238342,9.61204937 6.09653668,9.61204937 6.40741751,9.63336632 Z M9.61767112,9.61509465 C9.93509681,9.63336632 10.0823561,9.782585 10.1085356,10.0749318 C10.1216253,10.2089241 10.1085356,10.3459616 10.1085356,10.4829992 L10.111808,10.4860445 C10.111808,10.6109009 10.1183529,10.7388026 10.111808,10.8636591 C10.0987183,11.1103267 9.93182438,11.2839076 9.66675757,11.2960887 C9.37551132,11.3082698 9.08426507,11.3113151 8.79301882,11.2960887 C8.48213799,11.2808623 8.32833379,11.1407795 8.30869921,10.8484327 C8.29233706,10.589584 8.29233706,10.32769 8.30869921,10.065796 C8.32833379,9.78563028 8.49522771,9.63032104 8.79301882,9.61509465 C9.06790292,9.59986825 9.34278702,9.59986825 9.61767112,9.61509465 Z M9.64712299,6.95961125 C9.92855195,6.97788292 10.0856286,7.1271016 10.1019907,7.38595033 C10.1183529,7.66611601 10.1183529,7.94932697 10.0987183,8.22949265 C10.0790837,8.49747721 9.93836924,8.61319781 9.65039542,8.63451477 C9.49986365,8.64669589 9.34933188,8.63451477 9.19552768,8.63451477 C9.06135806,8.63451477 8.92391601,8.64060533 8.78974639,8.63451477 C8.49850014,8.61624309 8.32178893,8.4700697 8.30542678,8.20208513 C8.28906463,7.93105529 8.28906463,7.66002545 8.30542678,7.38899561 C8.32178893,7.1271016 8.47559313,6.97788292 8.75702209,6.95961125 C9.05154077,6.94133957 9.34933188,6.94133957 9.64712299,6.95961125 Z M3.1317153,6.96265653 C3.42296155,6.9809282 3.57349332,7.13014688 3.58985547,7.39813144 C3.60621762,7.67829712 3.60294519,7.9584628 3.58985547,8.23862848 C3.57676575,8.46702442 3.40987183,8.61319781 3.16116717,8.63146949 C3.00736297,8.64365061 2.84701391,8.63146949 2.69320971,8.63146949 L2.69320971,8.63756005 C2.55904009,8.63756005 2.42159804,8.64365061 2.28742842,8.63756005 C1.98636488,8.62537893 1.80965367,8.47616025 1.79329152,8.19903985 C1.77692937,7.92801001 1.77692937,7.65698017 1.79329152,7.38899561 C1.80965367,7.1271016 1.96345787,6.9809282 2.24488683,6.96265653 C2.53940551,6.94438485 2.83719662,6.94438485 3.1317153,6.96265653 Z M6.4172348,6.96265653 C6.67902918,6.97788292 6.83610581,7.13014688 6.84919553,7.37376921 C6.86555768,7.66307073 6.86228525,7.95541752 6.84265067,8.24471904 C6.82628852,8.48225081 6.67248432,8.61015254 6.40741751,8.63146949 C6.26015817,8.64365061 6.1096264,8.63146949 5.9558222,8.63451477 C5.81510772,8.63451477 5.67439324,8.64060533 5.53695119,8.63451477 C5.24570494,8.61624309 5.07226616,8.47311498 5.05263158,8.20208513 C5.032997,7.92191945 5.03626943,7.64175377 5.05590401,7.36158809 C5.07553859,7.12101104 5.22607036,6.9809282 5.48131988,6.96265653 C5.79220071,6.94438485 6.10635397,6.94438485 6.4172348,6.96265653 Z M9.4835015,2.68708464 C9.93509681,2.68708464 10.2427052,2.98552199 10.2459776,3.40272523 L10.2459776,4.894912 C10.2459776,5.31516052 9.94164167,5.60750732 9.4835015,5.60750732 L7.73275157,5.61283656 L2.57867467,5.61359788 C2.03872375,5.61359788 1.75074993,5.34256803 1.75074993,4.8370517 L1.75074993,3.40272523 C1.75074993,2.98247671 2.05835833,2.68708464 2.51322607,2.68708464 C4.83665121,2.68403936 7.16007636,2.68403936 9.4835015,2.68708464 Z" id="Combined-Shape"></path>
                </g>
            </g>
        </g>
    </g>
</svg>