<?xml version="1.0" encoding="UTF-8"?>
<svg width="20px" height="12px" viewBox="0 0 20 12" version="1.1" xmlns="http://www.w3.org/2000/svg" xmlns:xlink="http://www.w3.org/1999/xlink">
    <title>Combined Shape</title>
    <defs>
        <linearGradient x1="0%" y1="32%" x2="100%" y2="68%" id="linearGradient-1">
            <stop stop-color="#81FBB8" offset="0%"></stop>
            <stop stop-color="#28C76F" offset="100%"></stop>
        </linearGradient>
    </defs>
    <g id="Page-1" stroke="none" stroke-width="1" fill="none" fill-rule="evenodd">
        <g id="ERP-Plugin-Module-Page-Design---Final-Copy-2" transform="translate(-500.000000, -292.000000)" fill="url(#linearGradient-1)" fill-rule="nonzero">
            <g id="Group-12" transform="translate(185.000000, 271.000000)">
                <g id="Group-10" transform="translate(315.000000, 19.000000)">
                    <path d="M6.06644687,2.92600971 C6.11716967,2.93121003 6.16789247,2.93641034 6.21861527,2.94681096 C6.23890439,2.95201128 6.25919351,2.9624119 6.26933807,2.97801284 C6.29977175,3.01441503 6.28962719,3.06641815 6.25412123,3.09762003 C5.71645955,3.51884534 5.20415927,3.90366847 4.70707583,4.30929285 C4.30636571,4.63171223 4.30636571,5.42736005 4.69185899,5.89538818 C5.04691859,6.33221443 5.53892975,6.49862443 6.07151915,6.57142881 C6.99974639,6.70143662 7.79609434,6.39981849 8.52650266,5.83818474 C8.7699721,5.64577318 9.01344154,5.45856192 9.26705554,5.27655098 C9.7844281,4.90212848 9.85036774,4.85012536 10.1800659,5.23494848 C10.996703,6.19180599 11.8082678,7.15386381 12.6198326,8.12112195 C13.4466143,9.10398102 14.2531068,10.102441 15.090033,11.0853001 C15.3132133,11.3453157 15.3385747,11.6053314 15.2320568,11.8965489 C15.1356835,12.1773657 14.8668527,12.364577 14.5777327,12.3437757 C14.2784682,12.3333751 13.9792037,12.2501701 13.6495055,12.198167 C13.5379153,12.5361873 13.406036,12.947012 12.9546031,13.0666192 C12.5336039,13.1810261 12.1937611,12.9366114 11.8234847,12.7129979 C11.7981233,12.780602 11.7778341,12.8482061 11.7626173,12.9210104 C11.6713163,13.4358414 11.3669795,13.6490542 10.869896,13.5242467 C10.7227999,13.4878445 10.5807761,13.4358414 10.4387522,13.3786379 C10.3068729,13.3266348 10.1800659,13.2590307 10.0380421,13.1914267 C10.0126807,13.2538304 9.9873193,13.2954329 9.97210246,13.3422357 C9.7590667,13.9142701 9.39386254,14.1482842 8.84098402,13.9038695 C8.30332234,13.6646551 7.79102206,13.3578367 7.32944459,12.9834142 C6.34034999,12.182566 5.39183363,11.3297148 4.43824499,10.4924645 C4.26071519,10.3364551 4.08318539,10.2376492 3.84478823,10.268851 C3.66725843,10.2896523 3.56581283,10.2376492 3.56581283,10.0296367 L3.56581283,10.0296367 L3.56581283,4.4132991 C3.56581283,4.3300941 3.67740299,4.21048691 3.74334263,4.19488597 C4.08318539,4.1220816 4.31651027,3.89326785 4.52954603,3.65405347 C4.95054527,3.19642597 5.44255643,2.92600971 6.06644687,2.92600971 Z M19.239158,3.1704244 C19.6601572,3.1704244 20,3.51884534 20,3.95047128 L20,3.95047128 L20,10.7108776 L19.9930696,10.8168972 C19.942796,11.1981541 19.625074,11.4909245 19.239158,11.4909245 L19.239158,11.4909245 L17.5653056,11.4909245 C17.3979204,11.4909245 17.2609688,11.350516 17.2609688,11.1789057 L17.2609688,11.1789057 L17.2609688,3.48244316 C17.2609688,3.31083284 17.3979204,3.1704244 17.5653056,3.1704244 L17.5653056,3.1704244 Z M2.4346944,3.1704244 C2.60207963,3.1704244 2.73903119,3.31083284 2.73903119,3.48244316 L2.73903119,3.48244316 L2.73903119,11.1789057 C2.73903119,11.350516 2.60207963,11.4909245 2.4346944,11.4909245 L2.4346944,11.4909245 L0.760841998,11.4909245 L0.657432651,11.4838192 C0.285562319,11.4322765 2.42472709e-13,11.1065347 2.42472709e-13,10.7108776 L2.42472709e-13,10.7108776 L2.42472709e-13,3.95047128 L0.00693035478,3.84445172 C0.0572040466,3.46319478 0.374926029,3.1704244 0.760841998,3.1704244 L0.760841998,3.1704244 Z M10.2662947,2.00035408 C10.616282,1.99515377 10.9611971,2.04715689 11.2959675,2.16156377 C11.630738,2.28117096 11.9502917,2.47358252 12.264773,2.65559346 L12.264773,2.65559346 L12.4727365,2.77520065 C13.6393609,3.45644159 14.9226477,3.89326785 16.2515851,4.06487816 C16.4088258,4.08567941 16.4189703,4.11688129 16.4189703,4.27289066 L16.4189703,4.27289066 L16.4189703,8.16272445 C16.4189703,8.90636914 16.4189703,9.6760154 16.4291149,10.435261 C16.4341872,10.6276726 16.3885366,10.7056773 16.2465128,10.7472798 C16.1755009,10.7732813 16.104489,10.7888823 16.0284048,10.7940826 C15.942176,10.7940826 15.8559472,10.7524801 15.8052244,10.6796757 C14.5067208,9.13518289 13.1777834,7.56988882 11.8944966,6.05659787 L11.8944966,6.05659787 L10.9206188,4.90732879 C10.8749683,4.85012536 10.8242455,4.79292192 10.778595,4.74091879 C10.7126553,4.66811442 10.6467157,4.59531004 10.5858483,4.51730535 C10.3728126,4.25728973 10.1039817,4.11688129 9.81993406,4.11688129 C9.58660918,4.11688129 9.34821202,4.21048691 9.13010398,4.38729754 L9.13010398,4.38729754 L8.96779102,4.52250567 C8.59751458,4.82412379 8.21709358,5.13614255 7.81131118,5.37015661 C7.38523967,5.6145713 6.58381943,5.89018787 6.33020543,5.91098912 C5.84833883,5.95259162 5.37661679,5.59897036 5.19908699,5.29735223 C5.07735227,5.09454005 5.09764139,4.98533348 5.27009891,4.84492504 C5.58458027,4.59010973 5.90413391,4.3300941 6.22368755,4.07527879 C6.83236115,3.58644941 7.46132387,3.08201909 8.06999746,2.57238846 C8.3895511,2.30197221 8.77504438,2.15116314 9.31777834,2.07835877 C9.6322597,2.03155596 9.94674106,2.00555439 10.2662947,2.00035408 Z" id="Combined-Shape"></path>
                </g>
            </g>
        </g>
    </g>
</svg>