<?xml version="1.0" encoding="UTF-8"?>
<svg width="22px" height="13px" viewBox="0 0 22 13" version="1.1" xmlns="http://www.w3.org/2000/svg" xmlns:xlink="http://www.w3.org/1999/xlink">
    <title>Combined Shape</title>
    <g id="Page-1" stroke="none" stroke-width="1" fill="none" fill-rule="evenodd">
        <g id="ERP-Plugin-Module-Page-Design---Final-Copy-2" transform="translate(-473.000000, -135.000000)" fill="#FFFFFF" fill-rule="nonzero">
            <g id="Group-13" transform="translate(186.000000, 99.000000)">
                <g id="Group-Copy" transform="translate(255.000000, 0.000000)">
                    <g id="Group-6" transform="translate(20.000000, 20.000000)">
                        <path d="M18.6730916,17.0031772 C18.7288866,17.0088109 18.7846817,17.0144445 18.8404768,17.0257119 C18.8627948,17.0313455 18.8851129,17.0426129 18.8962719,17.0595139 C18.9297489,17.0989496 18.9185899,17.1552863 18.8795334,17.1890884 C18.2881055,17.6454158 17.7245752,18.0623075 17.1777834,18.5017339 C16.7370023,18.8510216 16.7370023,19.7129734 17.1610449,20.2200039 C17.5516104,20.6932323 18.0928227,20.8735098 18.6786711,20.9523812 C19.699721,21.093223 20.5757038,20.76647 21.3791529,20.1580335 C21.6469693,19.9495876 21.9147857,19.7467754 22.1937611,19.5495969 C22.7628709,19.1439725 22.8354045,19.0876358 23.1980725,19.5045275 C24.0963733,20.5411232 24.9890946,21.5833525 25.8818159,22.6312154 C26.7912757,23.6959794 27.6784174,24.7776444 28.5990363,25.8424084 C28.8445346,26.124092 28.8724322,26.4057756 28.7552625,26.7212613 C28.6492518,27.0254795 28.3535379,27.2282917 28.035506,27.205757 C27.706315,27.1944897 27.377124,27.104351 27.014456,27.0480142 C26.8917068,27.4142029 26.7466396,27.859263 26.2500634,27.9888374 C25.7869642,28.1127782 25.4131372,27.8479956 25.0058331,27.6057478 C24.9779356,27.6789855 24.9556176,27.7522232 24.938879,27.8310946 C24.8384479,28.3888282 24.5036774,28.6198087 23.9568856,28.4846006 C23.7950799,28.4451649 23.6388537,28.3888282 23.4826274,28.3268578 C23.3375602,28.270521 23.1980725,28.1972833 23.0418463,28.1240456 C23.0139488,28.1916496 22.9860512,28.236719 22.9693127,28.2874221 C22.7349734,28.907126 22.3332488,29.1606412 21.7250824,28.8958586 C21.1336546,28.6367097 20.5701243,28.3043231 20.062389,27.8986987 C18.974385,27.0311132 17.931017,26.107191 16.8820695,25.2001698 C16.6867867,25.0311597 16.4915039,24.9241199 16.2292671,24.9579219 C16.0339843,24.9804566 15.9223941,24.9241199 15.9223941,24.698773 L15.9223941,24.698773 L15.9223941,18.6144074 C15.9223941,18.5242686 16.0451433,18.3946942 16.1176769,18.3777931 C16.4915039,18.2989217 16.7481613,18.0510402 16.9825006,17.7918913 C17.4455998,17.2961281 17.9868121,17.0031772 18.6730916,17.0031772 Z M33.1630738,17.2679598 C33.626173,17.2679598 34,17.6454158 34,18.1130106 L34,18.1130106 L34,25.4367841 L33.9934935,25.5429597 C33.9419599,25.9602155 33.59055,26.2818349 33.1630738,26.2818349 L33.1630738,26.2818349 L31.3218362,26.2818349 C31.1377124,26.2818349 30.9870657,26.1297257 30.9870657,25.9438145 L30.9870657,25.9438145 L30.9870657,17.6059801 C30.9870657,17.4200689 31.1377124,17.2679598 31.3218362,17.2679598 L31.3218362,17.2679598 Z M14.6781638,17.2679598 C14.8622876,17.2679598 15.0129343,17.4200689 15.0129343,17.6059801 L15.0129343,17.6059801 L15.0129343,25.9438145 C15.0129343,26.1297257 14.8622876,26.2818349 14.6781638,26.2818349 L14.6781638,26.2818349 L12.8369262,26.2818349 L12.7317714,26.2752652 C12.3185272,26.2232313 12,25.86841 12,25.4367841 L12,25.4367841 L12,18.1130106 L12.0065065,18.0068349 C12.0580401,17.5895791 12.40945,17.2679598 12.8369262,17.2679598 L12.8369262,17.2679598 Z M23.2929242,16.0003836 C23.6779102,15.9947499 24.0573168,16.0510866 24.4255643,16.1750274 C24.7938118,16.3046019 25.1453208,16.5130477 25.4912503,16.7102262 L25.4912503,16.7102262 L25.7200101,16.8398007 C27.003297,17.5778117 28.4149125,18.0510402 29.8767436,18.2369513 C30.0497083,18.259486 30.0608674,18.2932881 30.0608674,18.4622982 L30.0608674,18.4622982 L30.0608674,22.6762848 C30.0608674,23.4818999 30.0608674,24.3156833 30.0720264,25.1381995 C30.0776059,25.3466453 30.0273903,25.4311504 29.8711641,25.4762198 C29.793051,25.5043881 29.7149379,25.5212891 29.6312452,25.5269228 C29.5363936,25.5269228 29.441542,25.4818534 29.3857469,25.402982 C27.9573928,23.7297815 26.4955618,22.0340462 25.0839462,20.3946477 L25.0839462,20.3946477 L24.0126807,19.1496062 C23.9624651,19.0876358 23.90667,19.0256654 23.8564545,18.9693287 C23.7839209,18.8904573 23.7113873,18.8115859 23.6444332,18.7270808 C23.4100938,18.4453972 23.1143799,18.2932881 22.8019275,18.2932881 C22.5452701,18.2932881 22.2830332,18.3946942 22.0431144,18.586239 L22.0431144,18.586239 L21.8645701,18.7327145 C21.457266,19.0594674 21.0388029,19.3974878 20.5924423,19.651003 C20.1237636,19.9157856 19.2422014,20.2143702 18.963226,20.2369049 C18.4331727,20.2819743 17.9142785,19.8988846 17.7189957,19.5721316 C17.5850875,19.3524184 17.6074055,19.2341113 17.7971088,19.0820021 C18.1430383,18.8059522 18.4945473,18.5242686 18.8460563,18.2482187 C19.5155973,17.7186535 20.2074563,17.1721873 20.8769972,16.6200875 C21.2285062,16.3271366 21.6525488,16.1637601 22.2495562,16.0848887 C22.5954857,16.0341856 22.9414152,16.0060173 23.2929242,16.0003836 Z" id="Combined-Shape"></path>
                    </g>
                </g>
            </g>
        </g>
    </g>
</svg>