<?xml version="1.0" encoding="UTF-8"?>
<svg width="20px" height="15px" viewBox="0 0 20 15" version="1.1" xmlns="http://www.w3.org/2000/svg" xmlns:xlink="http://www.w3.org/1999/xlink">
    <title>Shape</title>
    <g id="Page-1" stroke="none" stroke-width="1" fill="none" fill-rule="evenodd">
        <g id="ERP-Plugin-Module-Page-Design---Final-Copy-4" transform="translate(-445.000000, -333.000000)" fill="#B6BFC7" fill-rule="nonzero">
            <g id="Group-20" transform="translate(185.000000, 323.000000)">
                <g id="Group-12" transform="translate(0.000000, 7.000000)">
                    <g id="Group-10" transform="translate(260.000000, 2.000000)">
                        <path d="M10.0456621,3.57894737 C12.6027397,3.57894737 14.6118721,5.54736842 14.6118721,8.05263158 C14.6118721,8.58947368 14.5205479,9.21578947 14.2465753,9.66315789 L16.8949772,12.2578596 C18.2648402,11.0947368 19.3607306,9.66315789 20,8.05259649 C18.4474528,4.11575439 14.5205479,1.34207018 9.9543379,1.34207018 C8.67579909,1.34207018 7.48858447,1.61049123 6.30136986,1.96838596 L8.31050228,3.93680702 C8.85844749,3.66842105 9.49771689,3.57894737 10.0456621,3.57894737 Z M0.913242009,1.16315789 L3.01369863,3.22105263 L3.37899543,3.57894737 C1.82648402,4.74210526 0.639269406,6.26315789 0,8.05263158 C1.55251142,11.9894737 5.47945205,14.7631579 10.0456621,14.7631579 C11.4155251,14.7631579 12.7853881,14.4947368 14.0639269,14.0473684 L15.8986357,15.8339709 L18.2648044,15.8368421 L3.24963311,1.16315789 L0.913242009,1.16315789 Z M5.93607306,6.08421053 L7.30593607,7.42631579 C7.30593607,7.69473684 7.30593607,7.87368421 7.30593607,8.05263158 C7.30593607,9.57368421 8.49315068,10.7368421 10.0456621,10.7368421 C10.2283105,10.7368421 10.4109589,10.7368421 10.6849315,10.6473684 L12.0547945,11.9894737 C11.4155251,12.3473684 10.7762915,12.5263158 10.0456621,12.5263158 C7.48858447,12.5263158 5.47945205,10.5578947 5.47945205,8.05263158 C5.47945205,7.33684211 5.66210046,6.71052632 5.93607306,6.08421053 Z M9.8630137,5.36842105 L12.6940639,8.14210526 C12.6940639,8.05263158 12.6940639,8.05263158 12.6940639,7.96315789 C12.6940639,6.44210526 11.5068493,5.27894737 9.9543379,5.27894737 C9.9543379,5.36842105 9.9543379,5.36842105 9.8630137,5.36842105 Z" id="Shape"></path>
                    </g>
                </g>
            </g>
        </g>
    </g>
</svg>