<?xml version="1.0" encoding="UTF-8"?>
<svg width="16px" height="18px" viewBox="0 0 16 18" version="1.1" xmlns="http://www.w3.org/2000/svg" xmlns:xlink="http://www.w3.org/1999/xlink">
    <title>Combined Shape</title>
    <g id="Page-1" stroke="none" stroke-width="1" fill="none" fill-rule="evenodd">
        <g id="ERP-Plugin-Module-Page-Design---Final-Copy-4" transform="translate(-339.000000, -331.000000)" fill="#B6BFC7" fill-rule="nonzero">
            <g id="Group-20" transform="translate(185.000000, 323.000000)">
                <g id="Group-12" transform="translate(0.000000, 7.000000)">
                    <g id="Group-8" transform="translate(154.000000, 1.000000)">
                        <path d="M10.2408826,3.11173921 C10.2408826,2.10714056 11.2042096,2.53713871 11.2042096,2.53713871 C14.0323735,3.80747649 16,6.63099723 16,9.9109404 C16,14.3273996 12.4325313,17.9168502 8.00003381,18 C3.56753631,17.9168843 2.66453526e-15,14.3273996 2.66453526e-15,9.9109404 C2.66453526e-15,6.63099723 1.96765984,3.80747649 4.79582371,2.53713871 C4.79582371,2.53713871 5.75915074,2.10717457 5.75915074,3.11173921 C5.75915074,4.11630385 4.80477229,4.79048001 4.79266942,4.7883375 C3.1076614,5.87938468 1.99395702,7.76601686 1.99395702,9.9109404 C1.99395702,13.2350941 4.66879496,15.9395185 8.00003381,16.0221922 C11.3312727,15.9395185 14.0061106,13.2350941 14.0061106,9.9109404 C14.0061106,7.76605087 12.8924405,5.87935067 11.2073982,4.7883375 C11.1952953,4.79048001 10.2408826,4.11633786 10.2408826,3.11173921 Z M8.05605674,1.77635684e-15 C8.9523894,1.77635684e-15 9.12042391,0.650914628 9.1204582,0.905533114 L9.1204582,0.905533114 L9.1204582,8.87423812 C9.1204582,9.1288226 8.9523894,9.77977124 8.05605674,9.77977124 C7.15975837,9.77977124 6.8796437,9.12885661 6.8796437,8.87423812 L6.8796437,8.87423812 L6.8796437,0.905533114 C6.8796437,0.650948636 7.15972409,1.77635684e-15 8.05605674,1.77635684e-15 Z" id="Combined-Shape"></path>
                    </g>
                </g>
            </g>
        </g>
    </g>
</svg>