<?xml version="1.0" encoding="UTF-8"?>
<svg width="20px" height="12px" viewBox="0 0 20 12" version="1.1" xmlns="http://www.w3.org/2000/svg" xmlns:xlink="http://www.w3.org/1999/xlink">
    <title>Combined Shape</title>
    <defs>
        <linearGradient x1="0%" y1="32%" x2="100%" y2="68%" id="linearGradient-1">
            <stop stop-color="#EE9AE5" offset="0%"></stop>
            <stop stop-color="#5961F9" offset="100%"></stop>
        </linearGradient>
    </defs>
    <g id="Page-1" stroke="none" stroke-width="1" fill="none" fill-rule="evenodd">
        <g id="ERP-Plugin-Module-Page-Design---Final-Copy-2" transform="translate(-400.000000, -292.000000)" fill="url(#linearGradient-1)">
            <g id="Group-12" transform="translate(185.000000, 271.000000)">
                <g id="Group-7" transform="translate(215.000000, 19.000000)">
                    <path d="M7.90261912,8.73840232 C8.45824439,9.48096952 9.00975391,10.2116872 9.60242087,10.9898029 C9.66415701,10.6422182 9.7217774,10.3341318 9.77528206,10.0220956 C9.84113394,9.64686219 9.68061998,9.3387758 9.46660136,9.04648871 C9.42132819,8.9990908 9.38017076,8.9516929 9.34724482,8.89639534 C9.30608739,8.80159953 9.2690457,8.70680372 9.24023551,8.60805808 C9.33901333,8.56461 9.4419069,8.53696122 9.54891621,8.52116192 C9.87817563,8.50931244 10.207435,8.50931244 10.5366945,8.52116192 C10.8042177,8.52906157 10.9071113,8.67520511 10.7054399,8.85294726 C10.0304581,9.48886917 10.2280138,10.2037876 10.4502639,10.9661039 L11.5738616,9.44147126 C11.7631858,9.1847326 11.936047,8.91614447 12.1459499,8.67520511 C12.2282647,8.5804093 12.4052417,8.48166366 12.5163667,8.50536262 C13.1172651,8.6120079 13.6728904,8.80949918 14.0762332,9.28347824 C14.3314092,9.56391585 14.4713445,9.9272998 14.4713445,10.2985834 C14.4384186,11.2307422 14.4013769,12.1668509 14.2779046,13.0871602 C14.207937,13.6203867 13.8498674,13.8376271 13.2777791,13.8534264 C11.664408,13.9126737 10.0510368,13.9798208 8.43766568,13.9995699 C7.82442001,14.0074696 7.20294286,13.9047741 6.58969719,13.8376271 C6.16165995,13.794179 5.90236816,13.5571894 5.76654865,13.1661567 C5.46609943,12.2932453 5.5113726,11.3926851 5.52783557,10.4921248 C5.5401828,9.93519945 5.70069677,9.44937091 6.14108124,9.07018766 C6.51972957,8.74630197 6.98069275,8.60805808 7.45400317,8.48956331 C7.68448476,8.43031593 7.79149407,8.58435913 7.90261912,8.73840232 Z M15.4467755,8.24467413 C16.2740398,8.71470337 17.0889569,8.68705459 17.9326841,8.28022256 C18.1549342,8.1933264 18.4018788,8.1775271 18.6323604,8.23282465 C19.5542868,8.4263661 19.8835462,8.78975005 19.9699768,9.68241062 C20.0399444,10.2946336 19.9864397,10.9108064 19.82181,11.50723 C19.7230322,11.8311157 19.5213608,12.0365066 19.1632912,12.0878544 C17.9573786,12.2695463 16.7432345,12.2616467 15.4797015,12.2142488 C15.4797015,11.5901763 15.4755857,11.0056022 15.4797015,10.4170782 C15.487933,9.62711306 15.2780301,8.92404412 14.6442057,8.3789682 C14.6277427,8.35526925 14.6112798,8.33157029 14.6030483,8.30392151 C14.8746873,8.11038006 15.1627893,8.08273129 15.4467755,8.24467413 Z M5.45786795,8.29602186 C4.95574734,8.70680372 4.6347194,9.28742807 4.56475178,9.91940015 C4.54417306,10.0892426 4.53182584,10.2590851 4.52771009,10.4289276 C4.52771009,10.942405 4.51947861,11.4558823 4.52771009,11.9654098 C4.52771009,12.1313024 4.49066841,12.2142488 4.30134424,12.2221484 C3.12835757,12.253747 1.95537089,12.2576968 0.794731447,12.0760049 C0.535439656,12.0483561 0.317305292,11.8745638 0.243221923,11.6336244 C-0.0448800677,10.82786 -0.0778060095,9.9588984 0.14855984,9.1373347 C0.350231233,8.4105668 1.48206048,7.92473827 2.16938952,8.28812221 C2.9678436,8.71470337 3.73748749,8.69890407 4.51124712,8.26837308 C4.81581208,8.10248041 5.11214556,8.11432989 5.45786795,8.29602186 Z M16.6691511,3.72212392 C17.8956424,3.70632462 18.9081152,4.64638309 18.9245781,5.82738092 L18.9245781,5.91427708 L18.9245781,5.91427708 C18.9328096,7.07947561 17.9573786,8.03138355 16.7432345,8.04323303 C16.7226558,8.0392832 16.7020771,8.0392832 16.6856141,8.0392832 C15.4344283,8.0392832 14.4836917,7.10712438 14.4754602,5.8866283 C14.4589973,4.7095803 15.438544,3.73792322 16.6691511,3.72212392 Z M3.37118639,3.74582288 C4.58533049,3.76162218 5.56076152,4.71747995 5.54429854,5.88267848 L5.54429854,5.91032725 L5.54429854,5.91032725 C5.52783557,7.12292369 4.55652029,8.04718286 3.30945025,8.0392832 C2.02533852,8.02743373 1.08283344,7.08737526 1.09518067,5.83133074 C1.10752789,4.65033292 2.09942189,3.73002357 3.37118639,3.74582288 Z M10.0222266,2 C11.7302599,2 13.0472975,3.27974347 13.0472975,4.93867018 C13.0472975,6.59759689 11.7343756,7.87734036 10.0222266,7.88918984 C8.31007765,7.90498914 6.96422978,6.60944637 6.96422978,4.94262 C6.93953533,3.33899085 8.27303597,2.02369895 9.94402751,2 L10.0222266,2 L10.0222266,2 Z" id="Combined-Shape"></path>
                </g>
            </g>
        </g>
    </g>
</svg>