<?xml version="1.0" encoding="UTF-8"?>
<svg width="24px" height="14px" viewBox="0 0 24 14" version="1.1" xmlns="http://www.w3.org/2000/svg" xmlns:xlink="http://www.w3.org/1999/xlink">
    <title>Combined Shape</title>
    <g id="Page-1" stroke="none" stroke-width="1" fill="none" fill-rule="evenodd">
        <g id="ERP-Plugin-Module-Page-Design---Final-Copy-2" transform="translate(-216.000000, -134.000000)" fill="#FFFFFF">
            <g id="Group-13" transform="translate(186.000000, 99.000000)">
                <g id="Group">
                    <g id="Group-6" transform="translate(20.000000, 20.000000)">
                        <g id="Group-3">
                            <path d="M19.4831429,22.8614694 C20.1498933,23.7277978 20.8117047,24.5803018 21.522905,25.4881033 C21.5969884,25.0825879 21.6661329,24.7231538 21.7303385,24.3591115 C21.8093607,23.9213392 21.616744,23.5619051 21.3599216,23.2209035 C21.3055938,23.1656059 21.2562049,23.1103084 21.2166938,23.0457946 C21.1673049,22.9351994 21.1228548,22.8246043 21.0882826,22.7094011 C21.206816,22.6587117 21.3302883,22.6264548 21.4586995,22.6080222 C21.8538108,22.5941978 22.2489221,22.5941978 22.6440334,22.6080222 C22.9650613,22.6172385 23.0885336,22.7877393 22.8465279,22.9951051 C22.0365497,23.737014 22.2736165,24.5710855 22.5403166,25.4604546 L23.888634,23.6817165 C24.115823,23.382188 24.3232564,23.0688352 24.5751398,22.7877393 C24.6739177,22.6771442 24.88629,22.5619409 25.0196401,22.5895897 C25.7407182,22.7140092 26.4074685,22.9444157 26.8914798,23.4973913 C27.1976911,23.8245685 27.3656134,24.2485164 27.3656134,24.6816806 C27.3261023,25.7691993 27.2816523,26.861326 27.1334855,27.9350202 C27.0495244,28.5571178 26.6198408,28.8105649 25.9333349,28.8289974 C23.9972896,28.8981194 22.0612442,28.9764576 20.1251988,28.9994982 C19.389304,29.0087145 18.6435314,28.8889031 17.9076366,28.8105649 C17.3939919,28.7598755 17.0828418,28.4833877 16.9198584,28.0271828 C16.5593193,27.0087862 16.6136471,25.9581326 16.6334027,24.907479 C16.6482194,24.2577327 16.8408361,23.6909327 17.3692975,23.2485523 C17.8236755,22.8706856 18.3768313,22.7094011 18.9448038,22.5711572 C19.2213817,22.5020353 19.3497929,22.6817523 19.4831429,22.8614694 Z M28.5361306,22.2854532 C29.5288478,22.8338206 30.5067482,22.8015637 31.519221,22.3269263 C31.7859211,22.2255475 32.0822546,22.2071149 32.3588325,22.2716288 C33.4651441,22.4974271 33.8602554,22.9213751 33.9639721,23.9628124 C34.0479333,24.6770725 33.9837277,25.3959407 33.786172,26.0917683 C33.6676387,26.469635 33.425633,26.7092577 32.9959494,26.7691634 C31.5488543,26.9811374 30.0918814,26.9719211 28.5756418,26.9166236 C28.5756418,26.1885391 28.5707029,25.5065359 28.5756418,24.8199245 C28.5855195,23.8982986 28.3336361,23.0780515 27.5730468,22.4421296 C27.5532913,22.4144808 27.5335357,22.386832 27.5236579,22.3545751 C27.8496247,22.1287767 28.1953471,22.0965198 28.5361306,22.2854532 Z M16.5494415,22.3453588 C15.9468968,22.8246043 15.5616633,23.5019994 15.4777021,24.2393002 C15.4530077,24.4374498 15.438191,24.6355993 15.4332521,24.8337489 C15.4332521,25.4328058 15.4233743,26.0318626 15.4332521,26.6263114 C15.4332521,26.8198528 15.3888021,26.9166236 15.1616131,26.9258398 C13.7540291,26.9627049 12.3464451,26.967313 10.9536777,26.755339 C10.6425276,26.7230821 10.3807663,26.5203244 10.2918663,26.2392285 C9.94614392,25.29917 9.90663279,24.2853815 10.1782718,23.3268905 C10.4202775,22.4789946 11.7784726,21.9121946 12.6032674,22.3361426 C13.5614123,22.8338206 14.484985,22.8153881 15.4134965,22.3131019 C15.7789745,22.1195605 16.1345747,22.1333849 16.5494415,22.3453588 Z M30.0029813,17.0091446 C31.4747709,16.9907121 32.6897382,18.0874469 32.7094937,19.4652777 L32.7094937,19.5666566 L32.7094937,19.5666566 C32.7193715,20.9260549 31.5488543,22.0366141 30.0918814,22.0504385 C30.0671869,22.0458304 30.0424925,22.0458304 30.0227369,22.0458304 C28.521314,22.0458304 27.3804301,20.9583118 27.3705523,19.5343997 C27.3507967,18.161177 28.5262528,17.0275771 30.0029813,17.0091446 Z M14.0454237,17.0367934 C15.5023966,17.0552259 16.6729138,18.1703933 16.6531583,19.5297916 L16.6531583,19.5620485 L16.6531583,19.5620485 C16.6334027,20.9767443 15.4678244,22.0550467 13.9713403,22.0458304 C12.4304062,22.032006 11.2994001,20.9352711 11.3142168,19.4698859 C11.3290335,18.0920551 12.5193063,17.0183608 14.0454237,17.0367934 Z M22.0266719,15 C24.0763118,15 25.656757,16.493034 25.656757,18.4284485 C25.656757,20.363863 24.0812507,21.8568971 22.0266719,21.8707215 C19.9720932,21.889154 18.3570757,20.3776874 18.3570757,18.4330567 C18.3274424,16.562156 19.9276432,15.0276488 21.932833,15 L22.0266719,15 L22.0266719,15 Z" id="Combined-Shape"></path>
                        </g>
                    </g>
                </g>
            </g>
        </g>
    </g>
</svg>