<?xml version="1.0" encoding="UTF-8"?>
<svg width="16px" height="16px" viewBox="0 0 16 16" version="1.1" xmlns="http://www.w3.org/2000/svg" xmlns:xlink="http://www.w3.org/1999/xlink">
    <title>Combined Shape</title>
    <defs>
        <linearGradient x1="0%" y1="0%" x2="100%" y2="100%" id="linearGradient-1">
            <stop stop-color="#ABDCFF" offset="0%"></stop>
            <stop stop-color="#0396FF" offset="100%"></stop>
        </linearGradient>
    </defs>
    <g id="Page-1" stroke="none" stroke-width="1" fill="none" fill-rule="evenodd">
        <g id="ERP-Plugin-Module-Page-Design---Final-Copy-2" transform="translate(-270.000000, -290.000000)" fill="url(#linearGradient-1)">
            <g id="Group-12" transform="translate(185.000000, 271.000000)">
                <g id="Group-8" transform="translate(85.000000, 19.000000)">
                    <path d="M0.844985411,4.45329392 C2.83756995,0.497293064 7.67106709,-1.12819244 11.6562362,0.830223829 C7.43432438,1.57442201 5.24445424,3.16073919 3.96209786,4.29662062 L3.96209786,4.29662062 L3.96209786,4.31620479 L3.82399794,4.47287809 C3.40969818,4.8841455 2.85729851,5.45208622 3.21241258,6.37254187 C3.42942674,6.90131426 3.92264074,7.25382919 4.47504041,7.31258167 L4.47504041,7.31258167 L4.63286889,7.31258167 C5.08662576,7.31258167 5.44173984,7.07757172 5.7573968,6.8817301 C6.21115367,6.58796766 6.62545343,6.33337354 7.03975318,6.11794775 C9.15070908,4.94289799 12.8991354,3.51325412 14.1223061,3.19990751 C14.7930772,3.49366995 16.0754336,4.98206632 15.9965193,6.25503689 C15.2665626,6.47046268 14.2012204,6.78380928 13.5501779,7.01881923 C12.9583211,7.23424502 7.67106709,9.15349297 6.92138182,10.720226 C6.72409623,11.1314934 6.70436767,11.6210975 6.90165326,12.051949 C7.09893886,12.4828006 7.51323862,12.9528205 8.44048093,12.9528205 C8.61803796,12.9528205 8.795595,12.9528205 8.97315204,12.9136522 C9.48609459,12.8353155 9.99903715,12.7178106 10.5119797,12.5415531 C10.9657366,12.3848798 11.4194935,12.1890382 11.8535218,12.0127807 L11.8535218,12.0127807 L12.2283644,11.8561074 C13.5304493,11.2881667 14.7536201,10.602721 15.9176051,9.79977033 C15.7795052,10.4068794 15.562491,10.9944043 15.2862912,11.562345 C13.3134352,15.5183458 8.47993805,17.1242472 4.49476897,15.1658309 C0.509599894,13.2074146 -1.14759913,8.40929478 0.844985411,4.45329392 Z M15.1481913,7.52800746 C15.1679198,7.58675995 15.1679198,7.6650966 15.1679198,7.72384909 C15.1481913,8.15470067 15.1087341,8.60513641 15.0298199,9.03598799 C14.0433919,9.74101785 12.9977782,10.3677111 11.9127074,10.9160676 C10.9262795,11.4252558 9.99903715,12.0323649 8.87450924,12.286959 C8.32210957,12.404464 7.39486726,12.0911174 7.43432438,11.4252558 C7.4737815,10.9552359 8.32210957,10.4068794 8.67722364,10.1522853 C9.32826612,9.70184952 10.0187657,9.32975043 10.7487224,9.01640383 C12.1691787,8.40929478 13.6488207,7.91969072 15.1481913,7.52800746 Z M11.3405792,1.7898478 C11.5970505,1.77026364 11.8535218,1.80943196 12.0902645,1.86818445 C12.42565,2.12277857 12.7610355,2.39695684 13.0372354,2.69071928 C11.2813935,3.29782833 8.57858084,4.43370976 7.00029606,5.29541292 C6.58599631,5.53042287 6.17169655,5.78501699 5.69821112,6.07877943 C5.3628256,6.29420522 5.04716864,6.50963101 4.63286889,6.45087852 C4.17911201,6.39212603 3.56752666,6.02002694 3.60698378,5.51083871 C3.66616946,4.80580885 4.81042593,4.21828397 5.34309704,3.88535321 C6.15196799,3.35658081 7.02002462,2.92572924 7.90780981,2.59279847 C8.9928806,2.16194689 10.1765942,1.7898478 11.3405792,1.7898478 Z" id="Combined-Shape"></path>
                </g>
            </g>
        </g>
    </g>
</svg>