<?xml version="1.0" encoding="UTF-8"?>
<svg width="11px" height="13px" viewBox="0 0 11 13" version="1.1" xmlns="http://www.w3.org/2000/svg" xmlns:xlink="http://www.w3.org/1999/xlink">
    <!-- Generator: Sketch 52.2 (67145) - http://www.bohemiancoding.com/sketch -->
    <title>Shape</title>
    <desc>Created with Sketch.</desc>
    <g id="Page-1" stroke="none" stroke-width="1" fill="none" fill-rule="evenodd">
        <g id="Action-Menu-for-Contacts-Page" transform="translate(-721.000000, -256.000000)" fill="#000000" fill-rule="nonzero">
            <path d="M731.979841,263.206612 C731.938943,263.105363 731.843509,263.039293 731.737604,263.039293 L728.864852,263.039293 L728.864852,256.270751 C728.864852,256.121301 728.747396,256 728.602683,256 L724.408099,256 C724.263386,256 724.14593,256.121301 724.14593,256.270751 L724.14593,263.039319 L721.262167,263.039319 C721.156262,263.039319 721.060827,263.105388 721.01993,263.206105 C720.979549,263.307354 721.001571,263.423781 721.076557,263.501222 L726.306669,268.920402 C726.355947,268.971293 726.422552,269 726.492279,269 C726.562005,269 726.62861,268.971293 726.677889,268.920935 L731.923214,263.501755 C731.9982,263.424289 732.020738,263.307887 731.979841,263.206612 Z" id="Shape" transform="translate(726.500000, 262.500000) rotate(-180.000000) translate(-726.500000, -262.500000) "></path>
        </g>
    </g>
</svg>