<?xml version="1.0" encoding="UTF-8"?>
<svg width="12px" height="10px" viewBox="0 0 12 10" version="1.1" xmlns="http://www.w3.org/2000/svg" xmlns:xlink="http://www.w3.org/1999/xlink">
    <!-- Generator: Sketch 52.2 (67145) - http://www.bohemiancoding.com/sketch -->
    <title>Shape</title>
    <desc>Created with Sketch.</desc>
    <g id="Page-1" stroke="none" stroke-width="1" fill="none" fill-rule="evenodd">
        <g id="Search" transform="translate(-1162.000000, -264.000000)" fill="#000000" fill-rule="nonzero">
            <path d="M1173.32546,268.055871 L1173.3442,268.059983 L1165.31434,268.059983 L1167.83864,265.521784 C1167.96225,265.397864 1168.03005,265.229995 1168.03005,265.053806 C1168.03005,264.877617 1167.96225,264.710923 1167.83864,264.586709 L1167.44586,264.192438 C1167.32234,264.068518 1167.15776,264 1166.98225,264 C1166.80664,264 1166.64195,264.068029 1166.51844,264.191948 L1162.19132,268.532952 C1162.06732,268.657361 1161.99951,268.823077 1162,268.999364 C1161.99951,269.17663 1162.06732,269.342443 1162.19132,269.466656 L1166.51844,273.808052 C1166.64195,273.931874 1166.80654,274 1166.98225,274 C1167.15776,274 1167.32234,273.931776 1167.44586,273.808052 L1167.83864,273.41378 C1167.96225,273.290056 1168.03005,273.12483 1168.03005,272.948641 C1168.03005,272.77255 1167.96225,272.616035 1167.83864,272.492213 L1165.28586,269.939822 L1173.33444,269.939822 C1173.6961,269.939822 1174,269.627086 1174,269.26443 L1174,268.706792 C1174,268.344136 1173.68712,268.055871 1173.32546,268.055871 Z" id="Shape" transform="translate(1168.000000, 269.000000) rotate(-180.000000) translate(-1168.000000, -269.000000) "></path>
        </g>
    </g>
</svg>