<?xml version="1.0" encoding="UTF-8"?>
<svg width="9px" height="7px" viewBox="0 0 9 7" version="1.1" xmlns="http://www.w3.org/2000/svg" xmlns:xlink="http://www.w3.org/1999/xlink">
    <!-- Generator: Sketch 52.2 (67145) - http://www.bohemiancoding.com/sketch -->
    <title>Shape Copy 45</title>
    <desc>Created with Sketch.</desc>
    <g id="Page-1" stroke="none" stroke-width="1" fill="none" fill-rule="evenodd">
        <g id="Bulk-Action---Contacts-Page" transform="translate(-211.000000, -225.000000)" fill="#000000" fill-rule="nonzero">
            <g id="List" transform="translate(183.000000, 148.000000)">
                <path d="M36.6977327,78.8548653 L32.1053133,83.6817963 C31.9100438,83.8870373 31.6504726,84 31.3743493,84 C31.0982259,84 30.8386547,83.8870373 30.6433852,83.6817963 L28.3028203,81.2217106 C28.1075508,81.0164697 28,80.7436435 28,80.4534199 C28,80.1631162 28.1075508,79.89029 28.3028203,79.685049 C28.4980136,79.479808 28.7575848,79.3667652 29.0337844,79.3667652 C29.3099078,79.3667652 29.5695552,79.479808 29.7647485,79.6851292 L31.374273,81.3767638 L35.2356519,77.3182037 C35.4309215,77.1129627 35.6904927,77 35.966616,77 C36.2427394,77 36.5023106,77.1129627 36.6975801,77.3182037 C37.1007812,77.7419942 37.1007812,78.4312351 36.6977327,78.8548653 Z" id="Shape-Copy-45"></path>
            </g>
        </g>
    </g>
</svg>