<?xml version="1.0" encoding="UTF-8"?>
<svg width="14px" height="14px" viewBox="0 0 14 14" version="1.1" xmlns="http://www.w3.org/2000/svg" xmlns:xlink="http://www.w3.org/1999/xlink">
    <!-- Generator: Sketch 52.2 (67145) - http://www.bohemiancoding.com/sketch -->
    <title>flaticon1536560393-svg</title>
    <desc>Created with Sketch.</desc>
    <g id="Page-1" stroke="none" stroke-width="1" fill="none" fill-rule="evenodd">
        <g id="Contacts-List-Page-Design" transform="translate(-1238.000000, -108.000000)" fill="#B8C1C1" fill-rule="nonzero">
            <g id="flaticon1536560393-svg" transform="translate(1238.000000, 108.000000)">
                <path d="M10.437411,6.99757986 C10.4026361,6.96984553 10.3656308,6.94407222 10.3266991,6.92042801 C9.88635209,6.67950359 9.3028501,6.7261757 8.92624022,7.03248588 L8.85594692,7.09075597 C8.70785786,7.2139636 8.58217479,7.35440013 8.4828517,7.50761125 L8.10975649,8.08134754 L8.10975649,0.958977366 C8.13118243,0.503826314 7.75085511,0.103079358 7.2121651,0.0132089469 C6.62359387,-0.071002542 6.06412002,0.256234452 5.96253269,0.744106401 C5.95114382,0.798762627 5.94590562,0.854203258 5.94688567,0.909671903 L5.94688567,8.08137556 L5.40616796,7.27904121 L5.06551581,6.99665538 C4.64335046,6.64644652 3.95863287,6.64622241 3.53612958,6.99617913 C3.51514297,7.01357612 3.49500124,7.03167346 3.47580576,7.05044316 C3.11315315,7.42779803 3.15769477,7.97220318 3.57854212,8.30549129 L6.23346605,10.5063079 C6.65556381,10.8566008 7.3402814,10.8569089 7.76285228,10.5070082 C7.76312264,10.5067841 7.7634268,10.506532 7.76369716,10.5063079 L10.4672857,8.26515046 C10.8812727,7.90827416 10.8678899,7.3407851 10.437411,6.99757986 Z" id="Shape"></path>
                <path d="M13.9990601,11.7968978 L13.9990601,6.5103998 C13.9990601,6.5103998 13.9990601,6.47515648 13.9990601,6.45753482 C13.9104056,5.13591032 13.0985174,4.36936812 11.6660481,4.31209772 L10.537031,4.31209772 C10.0216394,4.31209772 9.60382616,4.7065751 9.60382616,5.19318072 C9.60382616,5.67978634 10.0216394,6.07426371 10.537031,6.07426371 L11.6240539,6.07426371 C12.0206659,6.07426371 12.0906563,6.12712869 12.1326505,6.54564312 L12.1326505,11.757249 C12.1326505,12.0920606 12.043996,12.1977905 11.6333859,12.2374393 L2.36666232,12.2374393 C1.93272209,12.2066014 1.90005993,12.1096822 1.86739776,11.7968978 L1.86739776,6.55004853 C1.86739776,6.0698583 2.02604257,6.0698583 2.33400015,6.0698583 L3.50034547,6.0698583 C4.01573698,6.0698583 4.43355026,5.67538092 4.43355026,5.1887753 C4.43355026,4.70216969 4.01573698,4.30769231 3.50034547,4.30769231 L2.33400015,4.30769231 C0.934192966,4.30769231 0.0616464855,5.13591032 0.000988173996,6.5103998 L0.000988173996,11.8321411 C-0.0353193249,12.99462 0.933376412,13.9648025 2.16465265,13.9990821 C2.20087266,14.0001009 2.23712183,14.0002661 2.27334184,13.9996053 L11.7267064,13.9996053 C12.9790964,14.0025238 13.996902,13.0463285 13.9999933,11.8638601 C14.0000516,11.8415301 13.9997308,11.8192002 13.9990601,11.7968978 Z" id="Shape"></path>
            </g>
        </g>
    </g>
</svg>