<?xml version="1.0" encoding="UTF-8"?>
<svg width="12px" height="12px" viewBox="0 0 12 12" version="1.1" xmlns="http://www.w3.org/2000/svg" xmlns:xlink="http://www.w3.org/1999/xlink">
    <!-- Generator: Sketch 52.2 (67145) - http://www.bohemiancoding.com/sketch -->
    <title>Combined Shape</title>
    <desc>Created with Sketch.</desc>
    <g id="Page-1" stroke="none" stroke-width="1" fill="none" fill-rule="evenodd">
        <g id="Bulk-Action---Contacts-Page" transform="translate(-1209.000000, -109.000000)" fill="#B8C1C1" fill-rule="nonzero">
            <path d="M1220.5,116 C1220.8,116 1221,116.2 1221,116.5 L1221,120.5 C1221,120.8 1220.8,121 1220.5,121 L1209.5,121 C1209.2,121 1209,120.8 1209,120.5 L1209,109.5 C1209,109.2 1209.2,109 1209.5,109 L1213.5,109 C1213.8,109 1214,109.2 1214,109.5 L1214,110.5 C1214,110.8 1213.8,111 1213.5,111 L1211.25,111 C1211.1,111 1211,111.1 1211,111.25 L1211,118.75 C1211,118.9 1211.1,119 1211.25,119 L1218.75,119 C1218.9,119 1219,118.9 1219,118.75 L1219,116.5 C1219,116.2 1219.2,116 1219.5,116 L1220.5,116 Z M1220.4,109 C1220.72727,109 1220.94545,109.218182 1221,109.6 L1221,113.963636 C1221,114.290909 1220.78182,114.509091 1220.45455,114.509091 L1219.36364,114.509091 C1219.03636,114.509091 1218.81818,114.290909 1218.81818,113.963636 L1218.81818,113.418182 C1218.81818,113.145455 1218.49091,113.036364 1218.32727,113.2 L1213.96364,117.563636 C1213.74545,117.781818 1213.41818,117.781818 1213.2,117.563636 L1212.43636,116.8 C1212.21818,116.581818 1212.21818,116.254545 1212.43636,116.036364 L1216.8,111.672727 C1216.96364,111.454545 1216.8,111.181818 1216.58182,111.181818 L1216.03636,111.181818 C1215.70909,111.181818 1215.49091,110.963636 1215.49091,110.636364 L1215.49091,109.545455 C1215.49091,109.218182 1215.70909,109 1216.03636,109 L1220.4,109 Z" id="Combined-Shape"></path>
        </g>
    </g>
</svg>