<?xml version="1.0" encoding="UTF-8"?>
<svg width="11px" height="13px" viewBox="0 0 11 13" version="1.1" xmlns="http://www.w3.org/2000/svg" xmlns:xlink="http://www.w3.org/1999/xlink">
    <!-- Generator: Sketch 52.2 (67145) - http://www.bohemiancoding.com/sketch -->
    <title>Shape</title>
    <desc>Created with Sketch.</desc>
    <g id="Page-1" stroke="none" stroke-width="1" fill="none" fill-rule="evenodd">
        <g id="Action-Menu-for-Contacts-Page" transform="translate(-721.000000, -201.000000)" fill="#000000" fill-rule="nonzero">
            <path d="M729.487428,205.841285 C729.295226,206.615108 728.846718,206.785562 728.607412,206.81976 C728.459999,207.130098 728.135973,207.764335 727.811834,208.082999 C727.682269,208.210334 727.513902,208.317804 727.311421,208.402437 C727.052912,208.510442 726.779887,208.565218 726.500028,208.565218 C726.22017,208.565218 725.947145,208.510442 725.688636,208.402437 C725.486211,208.317864 725.317788,208.210393 725.188222,208.082999 C724.864027,207.764394 724.540001,207.130098 724.392588,206.81976 C724.153338,206.785562 723.70483,206.615168 723.512628,205.841285 C723.409835,205.427462 723.436154,205.090122 723.59091,204.838604 C723.659307,204.727447 723.74222,204.651736 723.819428,204.600468 C723.819654,204.517858 723.82293,204.414432 723.832023,204.296792 C723.693026,204.093389 723.504043,203.654526 723.738097,202.944163 C723.985479,202.193178 724.544802,202.077203 724.814776,202.067151 C724.906048,201.88849 725.078482,201.634831 725.391607,201.401631 C725.739185,201.14262 726.193059,201 726.669581,201 C727.255957,201 727.846005,201.21732 728.3759,201.628467 C729.235019,202.295058 729.161425,203.773713 729.140358,204.042181 C729.171535,204.267233 729.180177,204.462428 729.180572,204.600409 C729.25778,204.651676 729.340693,204.727387 729.40909,204.838545 C729.563846,205.090122 729.590165,205.427402 729.487428,205.841285 Z M732,211.603712 L732,213.702627 C732,213.866837 731.873541,214 731.7176,214 L721.2824,214 C721.126459,214 721,213.866837 721,213.702627 L721,211.603712 C721,210.74383 721.489908,209.981842 722.248096,209.662464 L724.717122,208.622492 C724.788174,208.592636 724.867698,208.594242 724.937564,208.62731 C725.007373,208.660259 725.061538,208.721696 725.087518,208.797466 L725.708234,210.604481 L725.831135,210.232408 L725.635601,209.729075 C725.600018,209.637366 725.610072,209.532988 725.662542,209.450735 C725.715012,209.368481 725.802895,209.319117 725.896991,209.319117 L727.103066,209.319117 C727.197162,209.319117 727.285101,209.368481 727.337515,209.450735 C727.389985,209.532988 727.400038,209.637366 727.364456,209.729075 L727.168922,210.232408 L727.291822,210.604481 L727.912538,208.797466 C727.938519,208.721696 727.992683,208.660259 728.062493,208.62731 C728.132358,208.594301 728.211939,208.592696 728.282934,208.622492 L730.75196,209.662464 C731.510148,209.981842 732,210.74383 732,211.603712 Z M730.496727,211.831916 C730.496727,211.667707 730.370268,211.534543 730.214326,211.534543 L728.318291,211.534543 C728.162349,211.534543 728.035891,211.667707 728.035891,211.831916 L728.035891,212.759124 C728.035891,212.923333 728.162349,213.056496 728.318291,213.056496 L730.214326,213.056496 C730.370268,213.056496 730.496727,212.923333 730.496727,212.759124 L730.496727,211.831916 Z" id="Shape"></path>
        </g>
    </g>
</svg>