<?xml version="1.0" encoding="UTF-8"?>
<svg width="18px" height="18px" viewBox="0 0 18 18" version="1.1" xmlns="http://www.w3.org/2000/svg" xmlns:xlink="http://www.w3.org/1999/xlink">
    <!-- Generator: Sketch 52.2 (67145) - http://www.bohemiancoding.com/sketch -->
    <title>Combined Shape</title>
    <desc>Created with Sketch.</desc>
    <g id="Page-1" stroke="none" stroke-width="1" fill="none" fill-rule="evenodd">
        <g id="Action-Menu-for-Contacts-Page" transform="translate(-717.000000, -226.000000)" fill="#000000" fill-rule="nonzero">
            <path d="M726,231 C727.103032,231 728,231.896968 728,233 C728,234.103032 727.103032,235 726,235 C724.896968,235 724,234.103032 724,233 C724,231.896968 724.896968,231 726,231 Z M726.853529,227.331382 C727.048829,227.552832 727.048829,227.911663 726.853495,228.133075 C726.658195,228.354524 726.338436,228.354524 726.143135,228.133075 L725.996651,227.966978 L725.996651,229.433057 C725.996651,229.746434 725.776359,230 725.499985,230 C725.223612,230 724.999988,229.746434 724.999988,229.433057 L724.999988,227.966978 L724.853504,228.133075 C724.658203,228.354524 724.341776,228.354524 724.146476,228.133075 C723.951175,227.911625 723.951175,227.552832 724.146476,227.331382 L725.146471,226.159713 C725.30755,225.977067 725.640738,225.918464 725.853499,226.159713 L726.853529,227.331382 Z M726.853517,241.864005 C727.048822,242.085071 727.048822,242.443341 726.853551,242.664444 L725.853535,243.834281 C725.662563,244.05048 725.34583,244.059949 725.146494,243.834281 L724.146478,242.664444 C723.951174,242.443341 723.951174,242.085109 724.146478,241.864005 C724.341783,241.642902 724.658216,241.642902 724.85352,241.864005 L725.000007,242.029842 L725.000007,240.566056 C725.000007,240.253169 725.223636,240 725.500015,240 C725.776393,240 725.99669,240.253169 725.996657,240.566056 L725.996657,242.029842 L726.143143,241.864005 C726.338448,241.642902 726.658213,241.642902 726.853517,241.864005 Z M720.433065,233.999997 C720.746438,233.999997 721,234.223657 721,234.500033 C721,234.776409 720.746438,235.000036 720.433065,235.000003 L718.967007,235.000003 L719.133101,235.146488 C719.354547,235.341791 719.354547,235.65822 719.133101,235.853523 C718.911654,236.048826 718.552866,236.048826 718.33142,235.853523 L717.159767,234.853517 C716.977048,234.692404 716.918446,234.359313 717.159767,234.146483 L718.33142,233.146477 C718.552866,232.951174 718.911654,232.951174 719.133101,233.146477 C719.354547,233.34178 719.354547,233.658209 719.133101,233.853512 L718.967007,233.999997 L720.433065,233.999997 Z M734.838948,234.146483 C735.072407,234.352448 735.034108,234.681307 734.838948,234.853517 L733.667687,235.853523 C733.446315,236.048826 733.087647,236.048826 732.866275,235.853523 C732.644902,235.65822 732.644902,235.341791 732.866275,235.146488 L733.032313,235.000003 L731.566745,235.000003 C731.253477,235.000003 731,234.776376 731,234.5 C731,234.223624 731.253477,233.999997 731.566745,233.999997 L733.032313,233.999997 L732.866275,233.853512 C732.644902,233.658209 732.644902,233.34178 732.866275,233.146477 C733.087647,232.951174 733.446315,232.951174 733.667687,233.146477 L734.838948,234.146483 Z M721.84119,239.158778 C722.052931,239.370518 722.052931,239.713484 721.841226,239.925188 L720.850397,240.916016 L721.074815,240.916016 C721.374401,240.916016 721.616808,241.158423 721.616808,241.458008 C721.616808,241.757594 721.374401,242 721.074815,242 L719.541993,242 C719.345568,242 719.117754,241.851183 719.040744,241.660284 C719.01546,241.597615 719,241.529816 719,241.458008 L719,239.925188 C719,239.625602 719.242407,239.383196 719.541993,239.383196 C719.841579,239.383196 720.083985,239.625602 720.083985,239.925188 L720.083985,240.149606 L721.074779,239.158778 C721.286483,238.947074 721.629486,238.947074 721.84119,239.158778 Z M732.458013,228 C732.773597,228 733,228.277155 733,228.541992 L733,230.074812 C733,230.374398 732.757596,230.616804 732.458013,230.616804 C732.15843,230.616804 731.916026,230.374398 731.916026,230.074812 L731.916026,229.850394 L730.925207,230.841222 C730.713505,231.052926 730.370505,231.052926 730.158803,230.841222 C729.947066,230.629518 729.947066,230.286516 730.158803,230.074812 L731.149623,229.083984 L730.925207,229.083984 C730.625624,229.083984 730.38322,228.841577 730.38322,228.541992 C730.38322,228.242406 730.625624,228 730.925207,228 L732.458013,228 Z M732.458008,239.383196 C732.757558,239.383196 733,239.625602 733,239.925188 L733,241.458008 C733,241.773523 732.722845,242 732.458008,242 L730.925188,242 C730.625602,242 730.383196,241.757594 730.383196,241.458008 C730.383196,241.158423 730.625602,240.916016 730.925188,240.916016 L731.149606,240.916016 L730.158778,239.925188 C729.947074,239.713484 729.947074,239.370482 730.158778,239.158778 C730.370482,238.947074 730.713484,238.947074 730.925188,239.158778 L731.916016,240.149606 L731.916016,239.925188 C731.916016,239.625602 732.158423,239.383196 732.458008,239.383196 Z M721.84122,230.074812 C722.052927,230.286516 722.052927,230.629518 721.84122,230.841222 C721.629514,231.052926 721.286543,231.052926 721.074837,230.841222 L720.083997,229.850394 L720.083997,230.074812 C720.083997,230.374398 719.841588,230.616804 719.541998,230.616804 C719.242409,230.616804 719,230.374398 719,230.074812 L719,228.541992 C719,228.294167 719.215969,228 719.541998,228 L721.074801,228 C721.37439,228 721.616799,228.242406 721.616799,228.541992 C721.616799,228.841577 721.37439,229.083984 721.074801,229.083984 L720.85038,229.083984 L721.84122,230.074812 Z M728.222627,236 C728.702601,236.531956 728.999967,237.228857 729,238 L729,238.5 C729,238.776375 728.779584,239 728.503056,239 L723.500278,239 C723.22375,239 723,238.776375 723,238.5 L723,238 C723,237.228857 723.3007,236.531956 723.780707,236 C724.330496,236.609297 725.117971,237 726.001667,237 C726.885363,237 727.672805,236.609297 728.222627,236 Z" id="Combined-Shape"></path>
        </g>
    </g>
</svg>