<?xml version="1.0" encoding="UTF-8"?>
<svg width="13px" height="13px" viewBox="0 0 13 13" version="1.1" xmlns="http://www.w3.org/2000/svg" xmlns:xlink="http://www.w3.org/1999/xlink">
    <!-- Generator: Sketch 52.2 (67145) - http://www.bohemiancoding.com/sketch -->
    <title>Shape</title>
    <desc>Created with Sketch.</desc>
    <g id="Page-1" stroke="none" stroke-width="1" fill="none" fill-rule="evenodd">
        <g id="Action-Menu-for-Contacts-Page" transform="translate(-1104.000000, -318.000000)" fill="#000000" fill-rule="nonzero">
            <g id="Group-13" transform="translate(1086.000000, 274.000000)">
                <g id="flaticon1534229136-svg" transform="translate(18.000000, 44.000000)">
                    <path d="M6.49982667,0 C2.91011273,0 0,2.91031 0,6.49987 C0,10.08943 2.91011273,13 6.49982667,13 C10.0895406,13 13,10.0896033 13,6.49987 C13,2.91013667 10.0895406,0 6.49982667,0 Z M9.58977393,4.67761667 L8.97239982,5.29498667 L7.71568144,4.03836333 L7.23892493,4.51511667 L8.4956433,5.77182667 L5.41323609,8.85395333 L4.15660438,7.59746 L3.67984787,8.07421333 L4.93647958,9.33083667 L4.62933086,9.63798333 L4.62348082,9.63213333 C4.5894206,9.68820667 4.53404023,9.72911333 4.46825979,9.74371667 L3.29638864,10.0050167 C3.27883853,10.00896 3.26098507,10.0108667 3.24334829,10.0108667 C3.17938786,10.0108667 3.11724745,9.98569 3.07118381,9.93949667 C3.01207675,9.88060667 2.98746325,9.79554333 3.00566337,9.71403333 L3.26683511,8.54251667 C3.28156854,8.47678 3.32256215,8.42127 3.37854919,8.38729667 L3.37261248,8.38136 L8.33301222,3.42077667 C8.40572604,3.34819333 8.52385349,3.34819333 8.59656731,3.42099333 L9.5898606,4.41406333 C9.66257442,4.48677667 9.66257442,4.60490333 9.58977393,4.67761667 Z" id="Shape"></path>
                </g>
            </g>
        </g>
    </g>
</svg>