<?xml version="1.0" encoding="UTF-8"?>
<svg width="10px" height="13px" viewBox="0 0 10 13" version="1.1" xmlns="http://www.w3.org/2000/svg" xmlns:xlink="http://www.w3.org/1999/xlink">
    <!-- Generator: Sketch 52.2 (67145) - http://www.bohemiancoding.com/sketch -->
    <title>flaticon1530855874-svg</title>
    <desc>Created with Sketch.</desc>
    <g id="Page-1" stroke="none" stroke-width="1" fill="none" fill-rule="evenodd">
        <g id="Action-Menu-for-Contacts-Page" transform="translate(-721.000000, -284.000000)" fill="#000000" fill-rule="nonzero">
            <g id="Group-Copy-4" transform="translate(721.000000, 284.000000)">
                <g id="flaticon1530855874-svg">
                    <path d="M9.55083333,1.20850766 L7.09236559,1.20850766 L7.09236559,0.392874408 C7.09236559,0.175918129 6.89142473,0 6.64354839,0 L3.35610215,0 C3.10825269,0 2.90728495,0.175894598 2.90728495,0.392874408 L2.90728495,1.20850766 L0.448817204,1.20850766 C0.200967742,1.20850766 0,1.38440226 0,1.60138207 L0,2.80986619 C0,3.02682247 0.20094086,3.2027406 0.448817204,3.2027406 L9.55077957,3.2027406 C9.79862903,3.2027406 9.99959677,3.026846 9.99959677,2.80986619 L9.99959677,1.60138207 C9.99962366,1.38437872 9.7986828,1.20850766 9.55083333,1.20850766 Z M6.1947043,1.20850766 L3.80491935,1.20850766 L3.80491935,0.785725285 L6.1947043,0.785725285 L6.1947043,1.20850766 Z" id="Shape"></path>
                    <path d="M0.909090909,4.64285714 L1.28124145,12.3261214 C1.29140274,12.5364184 1.48917155,12.7023358 1.72962854,12.7023358 L8.84167155,12.7023358 C9.08212854,12.7023358 9.27989736,12.5364184 9.29005865,12.3260979 L9.66218231,4.64285714 L0.909090909,4.64285714 Z M3.92892962,11.1046717 C3.92892962,11.321628 3.72798876,11.4975461 3.48011241,11.4975461 C3.23226295,11.4975461 3.03129521,11.3216515 3.03129521,11.1046717 L3.03129521,6.24047424 C3.03129521,6.02351796 3.23223607,5.84759983 3.48011241,5.84759983 C3.72796188,5.84759983 3.92892962,6.02349443 3.92892962,6.24047424 L3.92892962,11.1046717 Z M5.73438661,11.1046717 C5.73438661,11.321628 5.53344575,11.4975461 5.2855694,11.4975461 C5.03769306,11.4975461 4.8367522,11.3216515 4.8367522,11.1046717 L4.8367522,6.24047424 C4.8367522,6.02351796 5.03769306,5.84759983 5.2855694,5.84759983 C5.53344575,5.84759983 5.73438661,6.02349443 5.73438661,6.24047424 L5.73438661,11.1046717 Z M7.5398436,11.1046717 C7.5398436,11.321628 7.33890274,11.4975461 7.09102639,11.4975461 C6.84315005,11.4975461 6.64220919,11.3216515 6.64220919,11.1046717 L6.64220919,6.24047424 C6.64220919,6.02351796 6.84315005,5.84759983 7.09102639,5.84759983 C7.33890274,5.84759983 7.5398436,6.02349443 7.5398436,6.24047424 L7.5398436,11.1046717 Z" id="Shape"></path>
                </g>
            </g>
        </g>
    </g>
</svg>