<?xml version="1.0" encoding="UTF-8"?>
<svg width="10px" height="13px" viewBox="0 0 10 13" version="1.1" xmlns="http://www.w3.org/2000/svg" xmlns:xlink="http://www.w3.org/1999/xlink">
    <!-- Generator: Sketch 52.2 (67145) - http://www.bohemiancoding.com/sketch -->
    <title>Combined Shape</title>
    <desc>Created with Sketch.</desc>
    <g id="Page-1" stroke="none" stroke-width="1" fill="none" fill-rule="evenodd">
        <g id="Action-Menu-for-Contacts-Page" transform="translate(-717.000000, -108.000000)" fill="#D7DEE2" fill-rule="nonzero">
            <path d="M722.000043,114 C720.343197,114 719,112.656868 719,111.000018 C719,109.343132 719.441076,108 722.000043,108 C724.559009,108 725,109.343132 725,111.000018 C725,112.656868 723.656803,114 722.000043,114 Z M726.994402,119.202612 C726.99752,119.386068 726.999173,119.417799 727,119.401428 C726.999887,119.450052 726.999812,119.521526 726.999812,119.624312 C726.999812,119.624312 726.263683,121 722.000113,121 C717.736468,121 717.000413,119.624312 717.000413,119.624312 C717.000413,119.464333 717.000188,119.372588 717,119.322989 C717.000827,119.34946 717.002968,119.337478 717.007589,119.109439 C717.063943,116.316789 717.492531,115.511668 720.55047,115 C720.55047,115 720.985746,115.514141 722.000113,115.514141 C723.014479,115.514141 723.44968,115 723.44968,115 C726.541356,115.517311 726.945374,116.334552 726.994402,119.202612 Z" id="Combined-Shape"></path>
        </g>
    </g>
</svg>