<?xml version="1.0" encoding="UTF-8"?>
<svg width="16px" height="10px" viewBox="0 0 16 10" version="1.1" xmlns="http://www.w3.org/2000/svg" xmlns:xlink="http://www.w3.org/1999/xlink">
    <!-- Generator: Sketch 52.2 (67145) - http://www.bohemiancoding.com/sketch -->
    <title>Shape</title>
    <desc>Created with Sketch.</desc>
    <g id="Page-1" stroke="none" stroke-width="1" fill="none" fill-rule="evenodd">
        <g id="Action-Menu-for-Contacts-Page" transform="translate(-1103.000000, -347.000000)" fill="#D7DEE2" fill-rule="nonzero">
            <g id="Group-13" transform="translate(1086.000000, 274.000000)">
                <g id="flaticon1534229248-svg" transform="translate(17.000000, 73.000000)">
                    <path d="M8,0 C4.36363636,0 1.23636364,2.06666667 0,5 C1.23636364,7.93333333 4.36363636,10 8,10 C11.6363636,10 14.7636364,7.93333333 16,5 C14.7636364,2.06666667 11.6363636,0 8,0 Z M8,8.33333333 C5.96363636,8.33333333 4.36363636,6.86666667 4.36363636,5 C4.36363636,3.13333333 5.96363636,1.66666667 8,1.66666667 C10.0363636,1.66666667 11.6363636,3.13333333 11.6363636,5 C11.6363636,6.86666667 10.0363636,8.33333333 8,8.33333333 Z M8,3 C6.76363636,3 5.81818182,3.86666667 5.81818182,5 C5.81818182,6.13333333 6.76363636,7 8,7 C9.23636364,7 10.1818182,6.13333333 10.1818182,5 C10.1818182,3.86666667 9.23636364,3 8,3 Z" id="Shape"></path>
                </g>
            </g>
        </g>
    </g>
</svg>