<svg width="208" height="213" viewBox="0 0 208 213" fill="none" xmlns="http://www.w3.org/2000/svg">
<circle cx="103" cy="102.5" r="102.5" fill="#ECF4FF"/>
<path d="M115.532 84.6489C115.532 91.0641 110.332 96.2647 103.916 96.2647C97.5012 96.2647 92.3007 91.0641 92.3007 84.6489C92.3007 78.2337 97.5012 73.0332 103.916 73.0332C110.332 73.0332 115.532 78.2337 115.532 84.6489Z" stroke="#94A3B8" stroke-width="5.85714" stroke-linecap="round" stroke-linejoin="round"/>
<path d="M80.6885 128.381C80.9062 115.738 91.2224 105.557 103.916 105.557C116.611 105.557 126.927 115.739 127.144 128.381C120.073 131.626 112.207 133.435 103.917 133.435C95.6274 133.435 87.76 131.626 80.6885 128.381Z" stroke="#94A3B8" stroke-width="5.85714" stroke-linecap="round" stroke-linejoin="round"/>
<rect x="123.393" y="129.25" width="79.75" height="79.75" rx="39.875" fill="#1085FE"/>
<rect x="123.393" y="129.25" width="79.75" height="79.75" rx="39.875" stroke="white" stroke-width="8"/>
<path d="M163.268 155.672V182.578M176.721 169.125L149.814 169.125" stroke="white" stroke-width="3.36328" stroke-linecap="round" stroke-linejoin="round"/>
</svg>
